<svg width="18" height="18" viewBox="0 0 18 18" fill="none" xmlns="http://www.w3.org/2000/svg">
<g id="icon_generate" clip-path="url(#clip0_7904_2694)">
<path id="Vector" d="M13.5 6.7979C13.5001 6.49622 13.4406 6.1975 13.3247 5.91896C13.2089 5.64041 13.039 5.38753 12.825 5.1749C12.3871 4.75704 11.8051 4.5239 11.1998 4.5239C10.5945 4.5239 10.0125 4.75704 9.57454 5.1749L0.675037 14.0767C0.268851 14.5122 0.0476183 15.0884 0.0579644 15.6839C0.0683105 16.2793 0.309428 16.8475 0.730499 17.2687C1.15157 17.6899 1.7197 17.9311 2.31517 17.9416C2.91063 17.9521 3.4869 17.731 3.92254 17.3249L12.825 8.42315C13.0394 8.21031 13.2094 7.95708 13.3253 7.67811C13.4411 7.39914 13.5005 7.09997 13.5 6.7979ZM2.86204 16.2659C2.71042 16.4104 2.509 16.491 2.29954 16.491C2.09008 16.491 1.88865 16.4104 1.73704 16.2659C1.5881 16.1166 1.50446 15.9143 1.50446 15.7034C1.50446 15.4925 1.5881 15.2902 1.73704 15.1409L7.56379 9.3134L8.69254 10.4422L2.86204 16.2659ZM11.766 7.3619L9.75004 9.37865L8.62504 8.2499L10.6418 6.2339C10.7137 6.15177 10.8017 6.08528 10.9003 6.03855C10.9989 5.99181 11.1061 5.96583 11.2152 5.96221C11.3243 5.95859 11.433 5.97741 11.5345 6.0175C11.636 6.05759 11.7282 6.1181 11.8054 6.19528C11.8826 6.27246 11.9431 6.36467 11.9832 6.46619C12.0233 6.56771 12.0421 6.67638 12.0385 6.78547C12.0349 6.89456 12.0089 7.00174 11.9621 7.10038C11.9154 7.19902 11.8489 7.28701 11.7668 7.3589L11.766 7.3619ZM3.64729 2.14115L4.80979 1.80965L5.14129 0.647152C5.19469 0.460616 5.30738 0.29654 5.46232 0.179737C5.61725 0.0629342 5.80601 -0.000244141 6.00004 -0.000244141C6.19407 -0.000244141 6.38282 0.0629342 6.53776 0.179737C6.69269 0.29654 6.80538 0.460616 6.85879 0.647152L7.19029 1.80965L8.35279 2.14115C8.53932 2.19456 8.7034 2.30725 8.8202 2.46218C8.93701 2.61712 9.00018 2.80587 9.00018 2.9999C9.00018 3.19393 8.93701 3.38269 8.8202 3.53762C8.7034 3.69256 8.53932 3.80525 8.35279 3.85865L7.19029 4.19015L6.85879 5.35265C6.80538 5.53919 6.69269 5.70326 6.53776 5.82007C6.38282 5.93687 6.19407 6.00005 6.00004 6.00005C5.80601 6.00005 5.61725 5.93687 5.46232 5.82007C5.30738 5.70326 5.19469 5.53919 5.14129 5.35265L4.80979 4.19015L3.64729 3.85865C3.46075 3.80525 3.29668 3.69256 3.17987 3.53762C3.06307 3.38269 2.99989 3.19393 2.99989 2.9999C2.99989 2.80587 3.06307 2.61712 3.17987 2.46218C3.29668 2.30725 3.46075 2.19456 3.64729 2.14115ZM17.3528 12.8587L16.1903 13.1902L15.8588 14.3527C15.8054 14.5392 15.6927 14.7033 15.5378 14.8201C15.3828 14.9369 15.1941 15 15 15C14.806 15 14.6173 14.9369 14.4623 14.8201C14.3074 14.7033 14.1947 14.5392 14.1413 14.3527L13.8098 13.1902L12.6473 12.8587C12.4608 12.8052 12.2967 12.6926 12.1799 12.5376C12.0631 12.3827 11.9999 12.1939 11.9999 11.9999C11.9999 11.8059 12.0631 11.6171 12.1799 11.4622C12.2967 11.3072 12.4608 11.1946 12.6473 11.1412L13.8098 10.8097L14.1413 9.64715C14.1947 9.46062 14.3074 9.29654 14.4623 9.17974C14.6173 9.06294 14.806 8.99976 15 8.99976C15.1941 8.99976 15.3828 9.06294 15.5378 9.17974C15.6927 9.29654 15.8054 9.46062 15.8588 9.64715L16.1903 10.8097L17.3528 11.1412C17.5393 11.1946 17.7034 11.3072 17.8202 11.4622C17.937 11.6171 18.0002 11.8059 18.0002 11.9999C18.0002 12.1939 17.937 12.3827 17.8202 12.5376C17.7034 12.6926 17.5393 12.8052 17.3528 12.8587ZM13.3163 1.8749L14.3333 1.58465L14.625 0.566152C14.6725 0.404015 14.7713 0.261631 14.9065 0.160337C15.0417 0.0590427 15.2061 0.00429343 15.375 0.00429343C15.544 0.00429343 15.7084 0.0590427 15.8436 0.160337C15.9788 0.261631 16.0776 0.404015 16.125 0.566152L16.4153 1.58315L17.4323 1.8734C17.5944 1.92089 17.7368 2.01963 17.8381 2.15484C17.9394 2.29006 17.9941 2.45446 17.9941 2.6234C17.9941 2.79235 17.9394 2.95675 17.8381 3.09196C17.7368 3.22717 17.5944 3.32592 17.4323 3.3734L16.4153 3.66365L16.125 4.6829C16.0776 4.84504 15.9788 4.98742 15.8436 5.08872C15.7084 5.19001 15.544 5.24476 15.375 5.24476C15.2061 5.24476 15.0417 5.19001 14.9065 5.08872C14.7713 4.98742 14.6725 4.84504 14.625 4.6829L14.3348 3.66665L13.3163 3.3749C13.1542 3.32742 13.0118 3.22867 12.9105 3.09346C12.8092 2.95825 12.7544 2.79385 12.7544 2.6249C12.7544 2.45596 12.8092 2.29156 12.9105 2.15634C13.0118 2.02113 13.1542 1.92239 13.3163 1.8749Z" fill="black"/>
</g>
<defs>
<clipPath id="clip0_7904_2694">
<rect width="18" height="18" fill="white"/>
</clipPath>
</defs>
</svg>
