<svg width="40" height="21" viewBox="0 0 40 21" fill="none" xmlns="http://www.w3.org/2000/svg">
<path d="M1.46245 13.978L7.91323 20.4955C8.06819 20.6517 8.25255 20.7757 8.45567 20.8604C8.6588 20.945 8.87666 20.9886 9.09671 20.9886C9.31676 20.9886 9.53463 20.945 9.73775 20.8604C9.94087 20.7757 10.1252 20.6517 10.2802 20.4955C10.4364 20.3405 10.5604 20.1562 10.6451 19.9531C10.7297 19.7499 10.7732 19.5321 10.7732 19.312C10.7732 19.092 10.7297 18.8741 10.6451 18.671C10.5604 18.4679 10.4364 18.2835 10.2802 18.1285L4.34613 12.1611H38.3336C38.7757 12.1611 39.1997 11.9855 39.5123 11.6729C39.8249 11.3603 40.0005 10.9364 40.0005 10.4943C40.0005 10.0522 39.8249 9.62822 39.5123 9.31562C39.1997 9.00303 38.7757 8.82741 38.3336 8.82741H4.24612L10.2802 2.79334C10.5757 2.48334 10.7406 2.07149 10.7406 1.6432C10.7406 1.21491 10.5757 0.803056 10.2802 0.493057C10.1252 0.336824 9.94087 0.212818 9.73775 0.128193C9.53463 0.0435687 9.31676 0 9.09671 0C8.87666 0 8.6588 0.0435687 8.45567 0.128193C8.25255 0.212818 8.06819 0.336824 7.91323 0.493057L1.46245 6.91051C0.525995 7.84813 0 9.11911 0 10.4443C0 11.7694 0.525995 13.0404 1.46245 13.978Z" fill="black"/>
</svg>
