<svg width="17" height="29" viewBox="0 0 17 29" fill="none" xmlns="http://www.w3.org/2000/svg">
<path d="M2.56612 8.33599L6.99651 3.90403L6.98594 27.2796C6.98594 28.1158 7.66383 28.7937 8.50007 28.7937C9.3363 28.7937 10.0142 28.1158 10.0142 27.2796L10.0248 3.9298L14.434 8.34053C15.0355 8.92147 15.9941 8.90486 16.575 8.30334C17.1417 7.71658 17.1417 6.7863 16.575 6.19954L11.7131 1.33151C9.93967 -0.443032 7.06358 -0.443954 5.28904 1.32945C5.28833 1.33016 5.28769 1.3308 5.28698 1.33151L0.425056 6.195C-0.155882 6.79652 -0.139274 7.75505 0.462248 8.33599C1.04901 8.90273 1.97929 8.90273 2.56612 8.33599Z" fill="black"/>
</svg>
