<svg width="196" height="147" viewBox="0 0 196 147" fill="none" xmlns="http://www.w3.org/2000/svg">
<path d="M184.66 50.7144C181.445 39.5303 171.6 32.4314 162.626 34.9094L21.7875 73.7522C12.8135 76.2301 8.12554 87.3472 11.3401 98.5313" stroke="#147C7C" stroke-width="10.3372" stroke-miterlimit="10" stroke-linecap="round" stroke-linejoin="round"/>
<path d="M132.758 137.173L105.97 144.607C75.5649 153.045 43.9549 135.566 35.3826 105.563L27.815 79.11C19.2428 49.1072 36.9899 17.966 67.3945 9.52768L94.1827 2.09396C124.654 -6.27735 156.264 11.2019 164.837 41.1377L172.404 67.5911C180.909 97.5939 163.229 128.735 132.758 137.173Z" fill="#6EC6CC"/>
<path d="M141.33 55.4695L134.566 57.3447C126.864 59.4878 118.828 55.0677 116.685 47.4331L114.742 40.736C112.599 33.1684 117.086 25.2658 124.788 23.1228L131.552 21.2476C139.254 19.1046 147.29 23.5246 149.433 31.1593L151.375 37.8563C153.518 45.424 149.031 53.3265 141.33 55.4695Z" fill="#3BB9BF"/>
<path d="M103.224 76.1633L98.9378 77.3688C94.1159 78.7082 89.0932 75.9624 87.6868 71.1406L86.4813 66.9214C85.1419 62.1665 87.9547 57.2107 92.7765 55.8713L97.0626 54.6658C101.885 53.3264 106.907 56.0722 108.314 60.8941L109.519 65.1132C110.859 69.8681 108.046 74.8239 103.224 76.1633Z" fill="#3BB9BF"/>
<path d="M150.036 103.42L146.889 104.291C143.272 105.295 139.522 103.219 138.517 99.6698L137.647 96.5221C136.642 92.9727 138.718 89.2893 142.335 88.2848L145.482 87.4142C149.099 86.4096 152.849 88.4857 153.853 92.0351L154.724 95.1827C155.729 98.7322 153.653 102.483 150.036 103.42Z" fill="#3BB9BF"/>
<path d="M123.382 137.977C92.977 146.415 61.367 128.936 52.7948 99.0002L45.2271 72.6138C37.9273 47.165 49.6472 20.9126 72.0153 8.38913L67.1934 9.72854C36.7888 18.1668 19.0416 49.2411 27.6139 79.1769L35.2485 105.63C43.8207 135.566 75.4308 153.045 105.835 144.607L132.624 137.173C137.178 135.901 141.464 134.093 145.415 131.883L123.382 137.977Z" fill="#A6C6C5"/>
<path d="M184.66 50.7144C187.874 61.8985 183.186 73.0156 174.212 75.4935L33.3733 114.336C24.3993 116.814 14.5546 109.715 11.34 98.5314" stroke="#147C7C" stroke-width="10.3372" stroke-miterlimit="10" stroke-linecap="round" stroke-linejoin="round"/>
</svg>
