<svg width="169" height="93" viewBox="0 0 169 93" fill="none" xmlns="http://www.w3.org/2000/svg">
<path d="M114.894 19.4837L154.263 76.3281" stroke="#FCD432" stroke-width="5" stroke-miterlimit="10" stroke-linecap="round" stroke-linejoin="round"/>
<path d="M112.484 25.7108H110.073C105.253 25.7108 101.436 21.8943 101.436 17.0736V14.8641C101.436 10.0434 105.253 6.22697 110.073 6.22697H112.484C117.304 6.22697 121.121 10.0434 121.121 14.8641V17.0736C120.92 21.6935 117.104 25.7108 112.484 25.7108Z" fill="#21985C"/>
<path d="M160.289 93.0001H157.879C153.058 93.0001 149.242 89.1837 149.242 84.363V82.1535C149.242 77.3327 153.058 73.5163 157.879 73.5163H160.289C165.11 73.5163 168.926 77.3327 168.926 82.1535V84.363C168.926 89.1837 165.11 93.0001 160.289 93.0001Z" fill="#21985C"/>
<path d="M11.0475 38.5658H8.63714C3.81641 38.5658 0 34.7494 0 29.9287V27.7192C0 22.8985 3.81641 19.0821 8.63714 19.0821H11.0475C15.8682 19.0821 19.6846 22.8985 19.6846 27.7192V29.9287C19.6846 34.7494 15.8682 38.5658 11.0475 38.5658Z" fill="#21985C"/>
<path d="M39.3695 15.868L68.2939 40.7751" stroke="#FCD432" stroke-width="5" stroke-miterlimit="10" stroke-linecap="round" stroke-linejoin="round"/>
<path d="M34.9501 19.4838H32.5397C27.719 19.4838 23.9026 15.6674 23.9026 10.8466V8.63714C23.9026 3.81641 27.719 0 32.5397 0H34.9501C39.7708 0 43.5872 3.81641 43.5872 8.63714V10.8466C43.3864 15.6674 39.57 19.4838 34.9501 19.4838Z" fill="#21985C"/>
<path d="M76.3282 55.0366H73.9179C69.0971 55.0366 65.2807 51.2202 65.2807 46.3994V44.1899C65.2807 39.3692 69.0971 35.5528 73.9179 35.5528H76.3282C81.1489 35.5528 84.9654 39.3692 84.9654 44.1899V46.3994C84.9654 51.2202 81.1489 55.0366 76.3282 55.0366Z" fill="#21985C"/>
<path d="M80.7471 42.583L108.065 19.4837" stroke="#FCD432" stroke-width="5" stroke-miterlimit="10" stroke-linecap="round" stroke-linejoin="round"/>
<path d="M14.2615 25.7105L29.728 12.4535" stroke="#FCD432" stroke-width="5" stroke-miterlimit="10" stroke-linecap="round" stroke-linejoin="round"/>
</svg>
