<svg width="780" height="1688" viewBox="0 0 780 1688" fill="none" xmlns="http://www.w3.org/2000/svg">
<rect width="390" height="844" transform="scale(2)" fill="#EFEBE6"/>
<path d="M110.946 608.297V555.466C110.951 554.527 110.677 553.607 110.157 552.824C109.638 552.041 108.897 551.431 108.03 551.071C107.162 550.71 106.207 550.617 105.286 550.801C104.365 550.986 103.519 551.441 102.858 552.108L76.466 578.547C75.5851 579.433 75.0906 580.632 75.0906 581.882C75.0906 583.131 75.5851 584.33 76.466 585.216L102.858 611.655C103.519 612.322 104.365 612.777 105.286 612.962C106.207 613.147 107.162 613.053 108.03 612.693C108.897 612.333 109.638 611.722 110.157 610.939C110.677 610.157 110.951 609.237 110.946 608.297Z" fill="black"/>
<g clip-path="url(#clip0_741_3783)">
<rect opacity="0.8" x="153.514" y="344" width="472.973" height="472.973" fill="white"/>
<rect x="153.514" y="694" width="472.973" height="122.973" fill="#1E1E1E"/>
<path d="M327.988 732.111H332.697V759.969C332.697 761.311 332.529 762.318 332.193 762.989C331.858 763.66 331.283 764.175 330.468 764.535C329.629 764.87 328.575 765.086 327.305 765.182C326.059 765.301 324.561 765.349 322.812 765.325C322.74 764.918 322.608 764.439 322.416 763.888C322.224 763.36 322.009 762.821 321.769 762.27C321.553 761.719 321.326 761.251 321.086 760.868C321.877 760.892 322.668 760.916 323.459 760.94C324.249 760.964 324.956 760.976 325.579 760.976C326.202 760.952 326.646 760.94 326.909 760.94C327.293 760.94 327.568 760.868 327.736 760.724C327.904 760.58 327.988 760.329 327.988 759.969V732.111ZM336.615 741.565L340.856 739.983C341.839 741.685 342.786 743.506 343.696 745.447C344.631 747.364 345.446 749.258 346.14 751.127C346.859 752.972 347.375 754.649 347.686 756.159L342.941 758.028C342.702 756.567 342.258 754.901 341.611 753.032C340.988 751.139 340.233 749.198 339.347 747.209C338.484 745.196 337.573 743.314 336.615 741.565ZM318.57 740.379L323.459 741.206C323.051 742.979 322.56 744.872 321.985 746.885C321.41 748.874 320.727 750.779 319.936 752.6C319.169 754.398 318.282 755.967 317.276 757.309C316.916 757.046 316.473 756.77 315.946 756.483C315.443 756.195 314.927 755.931 314.4 755.692C313.897 755.428 313.442 755.213 313.034 755.045C314.017 753.823 314.868 752.373 315.586 750.695C316.329 748.994 316.952 747.245 317.456 745.447C317.959 743.626 318.33 741.937 318.57 740.379ZM354.624 735.095L356.529 732.147C357.344 732.339 358.218 732.591 359.153 732.902C360.088 733.19 360.998 733.501 361.885 733.837C362.795 734.148 363.55 734.448 364.149 734.735L362.208 738.006C361.633 737.719 360.914 737.395 360.052 737.036C359.189 736.652 358.278 736.293 357.32 735.958C356.361 735.622 355.462 735.334 354.624 735.095ZM353.042 741.17C354.36 740.93 355.942 740.595 357.787 740.163C359.656 739.732 361.537 739.3 363.43 738.869L363.826 742.248C362.268 742.751 360.687 743.231 359.081 743.686C357.499 744.117 356.026 744.525 354.66 744.908L353.042 741.17ZM368.966 734.016H382.769V737.072H366.558L368.966 734.016ZM381.763 734.016H382.374L383.021 733.873L385.861 734.628C385.405 735.586 384.866 736.569 384.243 737.575C383.644 738.582 383.057 739.42 382.482 740.091L379.103 739.049C379.582 738.474 380.073 737.767 380.577 736.928C381.08 736.065 381.475 735.263 381.763 734.52V734.016ZM372.669 735.31H376.515C376.347 736.581 376.06 737.743 375.652 738.797C375.245 739.828 374.646 740.75 373.855 741.565C373.088 742.356 372.046 743.051 370.728 743.65C369.433 744.249 367.768 744.752 365.731 745.16C365.563 744.704 365.288 744.177 364.904 743.578C364.521 742.955 364.149 742.464 363.79 742.104C365.515 741.817 366.929 741.469 368.032 741.062C369.134 740.654 369.985 740.187 370.584 739.66C371.207 739.109 371.674 738.474 371.986 737.755C372.297 737.036 372.525 736.221 372.669 735.31ZM376.299 736.209C376.443 736.88 376.683 737.527 377.018 738.15C377.378 738.773 377.917 739.348 378.636 739.876C379.355 740.379 380.361 740.834 381.655 741.242C382.949 741.625 384.615 741.937 386.652 742.176C386.244 742.608 385.837 743.171 385.429 743.866C385.022 744.561 384.71 745.184 384.495 745.735C382.266 745.375 380.433 744.872 378.995 744.225C377.581 743.578 376.467 742.847 375.652 742.032C374.861 741.218 374.25 740.343 373.819 739.408C373.411 738.45 373.088 737.503 372.848 736.569L376.299 736.209ZM368.858 731.608L372.669 732.255C371.974 733.669 371.159 735.035 370.224 736.353C369.29 737.647 368.139 738.845 366.773 739.948C366.39 739.564 365.875 739.181 365.228 738.797C364.605 738.414 364.03 738.114 363.502 737.899C364.82 736.988 365.923 735.981 366.809 734.879C367.696 733.753 368.379 732.662 368.858 731.608ZM362.1 751.199V752.708H377.737V751.199H362.1ZM362.1 755.153V756.734H377.737V755.153H362.1ZM362.1 747.209V748.754H377.737V747.209H362.1ZM357.931 744.656H382.086V759.286H357.931V744.656ZM371.77 761.192L375.365 759.143C376.659 759.598 377.965 760.089 379.283 760.616C380.625 761.12 381.895 761.635 383.093 762.162C384.315 762.665 385.346 763.121 386.184 763.528L381.152 765.469C380.481 765.086 379.642 764.642 378.636 764.139C377.629 763.636 376.539 763.121 375.365 762.593C374.214 762.09 373.016 761.623 371.77 761.192ZM363.826 758.999L367.744 760.796C366.785 761.419 365.659 762.03 364.365 762.629C363.071 763.229 361.741 763.768 360.375 764.247C359.009 764.75 357.715 765.17 356.493 765.505C356.229 765.218 355.906 764.87 355.522 764.463C355.163 764.079 354.78 763.684 354.372 763.276C353.965 762.893 353.605 762.581 353.294 762.342C354.564 762.102 355.846 761.815 357.14 761.479C358.458 761.144 359.692 760.76 360.842 760.329C362.017 759.898 363.011 759.454 363.826 758.999ZM416.199 739.624L420.8 740.99C419.29 745.303 417.337 749.042 414.941 752.205C412.545 755.368 409.693 758.04 406.386 760.221C403.103 762.378 399.305 764.139 394.991 765.505C394.847 765.122 394.608 764.666 394.272 764.139C393.937 763.612 393.589 763.085 393.23 762.558C392.894 762.054 392.571 761.635 392.259 761.299C396.405 760.197 400.035 758.699 403.151 756.806C406.266 754.913 408.902 752.565 411.059 749.761C413.216 746.933 414.929 743.554 416.199 739.624ZM402.288 739.912C403.51 743.482 405.2 746.681 407.356 749.509C409.513 752.337 412.173 754.733 415.336 756.698C418.524 758.663 422.238 760.125 426.48 761.084C426.144 761.419 425.773 761.851 425.365 762.378C424.982 762.905 424.61 763.432 424.251 763.959C423.892 764.511 423.604 764.99 423.388 765.397C418.907 764.247 415.049 762.569 411.814 760.365C408.579 758.136 405.835 755.428 403.582 752.241C401.353 749.054 399.484 745.375 397.975 741.206L402.288 739.912ZM392.906 737.323H425.833V741.529H392.906V737.323ZM407.069 731.608H411.49V739.876H407.069V731.608ZM437.515 747.856H457.285V750.947H441.793V765.433H437.515V747.856ZM455.991 747.856H460.377V761.263C460.377 762.294 460.221 763.061 459.909 763.564C459.622 764.091 459.119 764.487 458.4 764.75C457.657 765.014 456.734 765.17 455.632 765.218C454.529 765.265 453.247 765.289 451.786 765.289C451.69 764.762 451.51 764.175 451.246 763.528C451.007 762.881 450.755 762.318 450.492 761.839C451.091 761.863 451.714 761.887 452.361 761.91C453.008 761.934 453.595 761.946 454.122 761.946C454.649 761.922 454.997 761.91 455.165 761.91C455.5 761.887 455.716 761.827 455.812 761.731C455.931 761.635 455.991 761.455 455.991 761.192V747.856ZM440.211 752.529H457.213V755.332H440.211V752.529ZM432.878 743.039H464.798V746.274H432.878V743.039ZM435.035 733.441H462.965V736.676H435.035V733.441ZM436.437 738.294H461.383V741.349H436.437V738.294ZM440.211 756.986H457.321V759.79H440.211V756.986ZM446.538 731.608H450.923V745.196H446.538V731.608Z" fill="white"/>
<path d="M299.899 526.095L305.101 519.237C306.284 517.581 308.649 517.345 310.304 518.527L334.426 536.737C336.081 537.919 336.318 540.284 335.135 541.939L329.932 548.797C328.75 550.453 326.385 550.689 324.73 549.507L300.608 531.297C298.953 530.115 298.716 527.75 299.899 526.095Z" fill="#F1C78A"/>
<path d="M310.777 524.439L306.284 530.115C304.629 532.007 301.791 532.48 299.899 531.061L293.75 526.567C292.095 525.385 291.858 523.02 293.041 521.128L300.845 511.196L309.831 517.817C311.96 519.236 312.433 522.074 310.777 524.439Z" fill="#F1C78A"/>
<path d="M303.446 514.507L302.027 516.162C301.554 516.635 300.608 516.872 300.135 516.399L294.46 512.378C293.987 511.905 293.75 511.196 294.223 510.723L295.642 509.068C296.115 508.595 297.061 508.358 297.534 508.831L303.21 512.851C303.683 513.088 303.919 513.797 303.446 514.507Z" fill="#F1C78A"/>
<path d="M299.662 518.527L298.244 520.182C297.771 520.655 296.825 520.892 296.352 520.419L290.676 516.635C290.203 516.162 289.966 515.453 290.439 514.98L291.858 513.324C292.331 512.851 293.277 512.615 293.75 513.088L299.426 517.108C300.135 517.108 300.135 518.054 299.662 518.527Z" fill="#F1C78A"/>
<path d="M296.115 522.784L294.696 524.439C294.223 524.912 293.277 525.149 292.804 524.676L287.129 520.656C286.656 520.183 286.419 519.473 286.892 519L288.311 517.345C288.784 516.872 289.73 516.635 290.203 517.108L295.879 521.129C296.588 521.365 296.588 522.075 296.115 522.784Z" fill="#F1C78A"/>
<path d="M306.757 521.601L304.392 521.128C303.683 520.892 303.21 520.182 303.446 519.473L305.575 512.142C305.811 511.432 306.521 510.959 307.467 511.196L309.831 511.669C310.541 511.905 311.014 512.615 310.777 513.324L308.649 520.655C308.413 521.365 307.467 521.838 306.757 521.601Z" fill="#F1C78A"/>
<path d="M464.966 564.642L459.527 571.5C458.344 573.155 455.98 573.392 454.324 572.209L430.676 553.527C429.02 552.344 428.784 549.98 429.966 548.324L435.405 541.466C436.588 539.811 438.953 539.574 440.608 540.757L464.257 559.439C465.912 560.621 466.148 562.986 464.966 564.642Z" fill="#F1C78A"/>
<path d="M454.088 566.061L458.581 560.622C460.236 558.73 463.074 558.257 464.966 559.676L471.115 564.405C472.77 565.588 473.007 568.189 471.588 569.845L463.547 579.54L454.797 572.682C452.669 571.263 452.432 568.189 454.088 566.061Z" fill="#F1C78A"/>
<path d="M461.183 576.23L462.602 574.574C463.075 574.101 464.021 573.865 464.493 574.338L470.169 578.358C470.642 578.831 470.879 579.541 470.406 580.014L468.987 581.669C468.514 582.142 467.568 582.378 467.095 581.905L461.419 577.885C460.71 577.412 460.71 576.703 461.183 576.23Z" fill="#F1C78A"/>
<path d="M464.966 572.21L466.385 570.554C466.858 570.081 467.804 569.845 468.277 570.318L473.953 574.338C474.426 574.811 474.662 575.521 474.189 575.994L472.77 577.649C472.297 578.122 471.351 578.358 470.878 577.885L464.966 573.865C464.493 573.392 464.493 572.683 464.966 572.21Z" fill="#F1C78A"/>
<path d="M458.108 568.899L460.473 569.608C461.182 569.845 461.655 570.554 461.419 571.264L459.054 578.595C458.818 579.304 457.872 579.777 457.162 579.541L454.797 578.831C453.851 578.595 453.615 577.885 453.851 576.939L456.216 569.608C456.453 569.135 457.162 568.662 458.108 568.899Z" fill="#F1C78A"/>
<path d="M468.514 567.953L469.933 566.298C470.406 565.825 471.352 565.588 471.825 566.061L477.5 570.081C477.973 570.554 478.21 571.264 477.737 571.737L476.318 573.392C475.845 573.865 474.899 574.102 474.426 573.629L468.75 569.608C468.041 569.372 468.041 568.662 468.514 567.953Z" fill="#F1C78A"/>
<path d="M467.331 559.203L436.824 535.081L422.635 553.054L455.034 578.831L467.568 562.986C468.75 561.804 468.514 560.149 467.331 559.203Z" fill="#FFF5E9"/>
<path d="M349.324 542.412L313.378 514.034L299.189 532.007L337.263 562.277L349.797 546.432C350.507 545.25 350.507 543.358 349.324 542.412Z" fill="#FFF5E9"/>
<path d="M336.317 533.899H437.061V455.385C437.061 444.27 428.074 435.284 416.959 435.284H356.182C345.304 435.284 336.554 444.034 336.554 454.912V533.899H336.317Z" fill="#F1C78A"/>
<path d="M400.642 487.074C402.862 487.074 404.662 485.274 404.662 483.054C404.662 480.834 402.862 479.034 400.642 479.034C398.422 479.034 396.622 480.834 396.622 483.054C396.622 485.274 398.422 487.074 400.642 487.074Z" fill="#040404"/>
<path d="M372.737 487.074C374.957 487.074 376.757 485.274 376.757 483.054C376.757 480.834 374.957 479.034 372.737 479.034C370.516 479.034 368.716 480.834 368.716 483.054C368.716 485.274 370.516 487.074 372.737 487.074Z" fill="#040404"/>
<path d="M347.432 610.284H425.709C431.858 610.284 436.824 605.317 436.824 599.169V532.953H336.317V599.169C336.317 605.317 341.284 610.284 347.432 610.284Z" fill="#FFF5E9"/>
<path d="M393.547 488.257H380.304C379.831 488.257 379.595 488.493 379.595 488.966V489.676C379.595 492.75 382.196 495.351 385.27 495.351H388.818C391.892 495.351 394.493 492.75 394.493 489.676V488.966C394.257 488.73 393.784 488.257 393.547 488.257Z" fill="#DD5B53"/>
<path d="M340.338 610.284H433.04C435.169 610.284 437.061 608.628 437.061 606.263V550.453H336.317V606.263C336.317 608.392 338.209 610.284 340.338 610.284Z" fill="#8CBECF"/>
<path d="M298.953 516.872H293.75C286.892 516.872 281.453 511.433 281.453 504.575V499.608C281.453 492.75 286.892 487.311 293.75 487.311H298.716C305.574 487.311 311.013 492.75 311.013 499.608V504.575C311.25 511.433 305.574 516.872 298.953 516.872Z" fill="#FFD672"/>
<path d="M350.743 532.007H336.317V557.311H350.743V532.007Z" fill="#8CBECF"/>
<path d="M437.061 532.007H422.635V557.311H437.061V532.007Z" fill="#8CBECF"/>
<path d="M379.594 457.514H336.317V444.034C336.317 437.176 341.993 431.5 348.851 431.5H379.594C386.453 431.5 392.128 437.176 392.128 444.034V445.216C392.128 452.074 386.453 457.514 379.594 457.514Z" fill="#B0555A"/>
<path d="M437.061 457.514H394.02C387.162 457.514 381.486 451.838 381.486 444.98V443.797C381.486 436.939 387.162 431.264 394.02 431.264H424.527C431.385 431.264 437.061 436.939 437.061 443.797V457.514Z" fill="#B0555A"/>
<path d="M488.615 567.48C488.379 566.534 487.669 566.061 486.723 566.061H391.892H388.108H293.277C292.331 566.061 291.622 566.771 291.385 567.48L277.906 619.27C277.669 620.453 278.615 621.635 279.798 621.635H388.108H391.892H500.203C501.385 621.635 502.331 620.453 502.095 619.27L488.615 567.48Z" fill="#6289C3"/>
<path d="M365.405 608.865H329.696C324.73 608.865 320.709 604.844 320.709 599.878V598.223C320.709 593.257 324.73 589.236 329.696 589.236H365.405C370.372 589.236 374.392 593.257 374.392 598.223V599.878C374.628 604.844 370.372 608.865 365.405 608.865Z" fill="#FFF5E9"/>
<path d="M365.406 602.007H329.223C327.331 602.007 325.676 600.351 325.676 598.46V581.433C325.676 579.541 327.331 577.885 329.223 577.885H368.007C368.48 577.885 368.716 578.122 368.716 578.595V598.46C368.716 600.588 367.297 602.007 365.406 602.007Z" fill="#8C4424"/>
<path d="M368.716 578.121C368.716 578.594 368.243 579.067 367.77 579.067L325.676 579.777V579.067L358.784 564.169C363.514 562.04 368.716 565.588 368.716 570.554V578.121Z" fill="#8E6F64"/>
<path d="M354.054 560.858L352.872 562.04L352.162 561.094C352.162 560.858 351.689 560.858 351.689 561.094L350.98 562.277L349.798 560.858C349.798 560.858 349.561 560.858 349.561 561.094V562.513C349.561 562.513 349.561 562.75 349.798 562.75H351.216C351.216 562.75 351.216 562.75 351.453 562.75H352.872H353.108H354.527C354.527 562.75 354.764 562.75 354.764 562.513V561.094C354.291 560.858 354.291 560.858 354.054 560.858Z" fill="#309D47"/>
<path d="M353.581 569.844L355.946 565.115C356.655 563.932 355.709 562.277 354.29 562.277H349.561C348.142 562.277 347.196 563.932 347.905 565.115L350.27 569.844C350.98 571.263 352.872 571.263 353.581 569.844Z" fill="#E8728C"/>
<path d="M349.324 566.297C349.455 566.297 349.561 566.191 349.561 566.061C349.561 565.93 349.455 565.824 349.324 565.824C349.194 565.824 349.088 565.93 349.088 566.061C349.088 566.191 349.194 566.297 349.324 566.297Z" fill="#BE5F78"/>
<path d="M349.798 565.351C349.928 565.351 350.034 565.246 350.034 565.115C350.034 564.984 349.928 564.878 349.798 564.878C349.667 564.878 349.561 564.984 349.561 565.115C349.561 565.246 349.667 565.351 349.798 565.351Z" fill="#BE5F78"/>
<path d="M350.27 566.297C350.401 566.297 350.507 566.191 350.507 566.061C350.507 565.93 350.401 565.824 350.27 565.824C350.14 565.824 350.034 565.93 350.034 566.061C350.034 566.191 350.14 566.297 350.27 566.297Z" fill="#BE5F78"/>
<path d="M352.162 567.716C352.293 567.716 352.399 567.61 352.399 567.48C352.399 567.349 352.293 567.243 352.162 567.243C352.032 567.243 351.926 567.349 351.926 567.48C351.926 567.61 352.032 567.716 352.162 567.716Z" fill="#BE5F78"/>
<path d="M352.635 568.426C352.766 568.426 352.871 568.32 352.871 568.189C352.871 568.059 352.766 567.953 352.635 567.953C352.504 567.953 352.398 568.059 352.398 568.189C352.398 568.32 352.504 568.426 352.635 568.426Z" fill="#BE5F78"/>
<path d="M353.344 567.716C353.475 567.716 353.581 567.61 353.581 567.48C353.581 567.349 353.475 567.243 353.344 567.243C353.214 567.243 353.108 567.349 353.108 567.48C353.108 567.61 353.214 567.716 353.344 567.716Z" fill="#BE5F78"/>
<path d="M446.047 589.473H426.655C425.946 589.473 425.473 589 425.236 588.29L419.324 554.236H452.905L447.466 588.29C447.23 589 446.757 589.473 446.047 589.473Z" fill="#F17674"/>
<path d="M452.905 550.453H419.324V557.311H452.905V550.453Z" fill="#EADED9"/>
<path d="M291.808 498.865C291.525 498.865 291.384 498.726 291.384 498.449V497.915C290.909 497.859 290.471 497.703 290.07 497.449C289.832 497.268 289.796 497.048 289.96 496.788C290.056 496.641 290.172 496.559 290.307 496.542C290.443 496.519 290.587 496.559 290.74 496.661C291.062 496.83 291.367 496.915 291.655 496.915C292.232 496.915 292.52 496.666 292.52 496.169C292.52 495.943 292.412 495.739 292.198 495.558C292.068 495.451 291.819 495.301 291.452 495.109C291.356 495.064 291.282 495.027 291.231 494.999C290.83 494.784 290.536 494.578 290.35 494.38C290.078 494.092 289.943 493.75 289.943 493.354C289.943 492.896 290.07 492.515 290.324 492.21C290.584 491.905 290.937 491.71 291.384 491.625V491.057C291.384 490.78 291.525 490.641 291.808 490.641C292.085 490.641 292.223 490.78 292.223 491.057V491.608C292.619 491.659 292.98 491.817 293.308 492.083C293.523 492.28 293.529 492.495 293.325 492.727C293.11 492.97 292.867 492.987 292.596 492.778C292.381 492.653 292.155 492.591 291.918 492.591C291.398 492.591 291.138 492.826 291.138 493.295C291.138 493.493 291.24 493.674 291.443 493.837C291.562 493.934 291.796 494.066 292.147 494.236C292.65 494.479 293 494.694 293.198 494.88C293.543 495.202 293.715 495.604 293.715 496.084C293.715 496.553 293.588 496.946 293.334 497.262C293.074 497.585 292.704 497.791 292.223 497.881V498.449C292.223 498.726 292.085 498.865 291.808 498.865Z" fill="black"/>
</g>
<rect x="155.406" y="345.892" width="469.189" height="469.189" rx="5.2027" stroke="#1E1E1E" stroke-width="3.78378"/>
<path d="M669.054 608.297V555.466C669.049 554.527 669.323 553.607 669.843 552.824C670.362 552.041 671.103 551.431 671.97 551.071C672.838 550.71 673.793 550.617 674.714 550.801C675.635 550.986 676.481 551.441 677.142 552.108L703.534 578.547C704.415 579.433 704.909 580.632 704.909 581.882C704.909 583.131 704.415 584.33 703.534 585.216L677.142 611.655C676.481 612.322 675.635 612.777 674.714 612.962C673.793 613.147 672.838 613.053 671.97 612.693C671.103 612.333 670.362 611.722 669.843 610.939C669.323 610.157 669.049 609.237 669.054 608.297Z" fill="black"/>
<path d="M166.936 244.704H190.872V250.336H166.936V244.704ZM166.936 254.816H190.872V260.448H166.936V254.816ZM166.808 264.992H193.88V271.264H166.808V264.992ZM157.4 219.616H193.56V231.264H186.712V226.016H163.864V231.264H157.4V219.616ZM175.576 239.328H182.616V268H175.576V239.328ZM169.304 234.08H192.28V240.416H169.304V273.76H162.072V240.736L168.6 234.08H169.304ZM172.632 213.536L179.928 214.944C178.221 221.856 175.768 228.021 172.568 233.44C169.368 238.859 165.421 243.296 160.728 246.752C160.387 246.283 159.896 245.685 159.256 244.96C158.659 244.192 158.019 243.445 157.336 242.72C156.653 241.995 156.056 241.419 155.544 240.992C159.896 238.133 163.501 234.336 166.36 229.6C169.219 224.864 171.309 219.509 172.632 213.536ZM179.544 227.616L186.584 229.088C185.773 230.837 184.941 232.544 184.088 234.208C183.277 235.829 182.531 237.237 181.848 238.432L176.088 236.96C176.685 235.637 177.325 234.101 178.008 232.352C178.691 230.603 179.203 229.024 179.544 227.616ZM134.872 217.44H157.912V224.416H134.872V217.44ZM142.04 236.256H156.952V266.016H142.04V259.424H150.488V242.848H142.04V236.256ZM141.464 221.152L148.632 222.24C148.035 226.848 147.224 231.371 146.2 235.808C145.176 240.203 143.875 244.341 142.296 248.224C140.76 252.064 138.925 255.435 136.792 258.336C136.579 257.739 136.216 256.971 135.704 256.032C135.235 255.093 134.723 254.155 134.168 253.216C133.656 252.277 133.165 251.531 132.696 250.976C134.36 248.629 135.747 245.877 136.856 242.72C138.008 239.563 138.947 236.149 139.672 232.48C140.44 228.811 141.037 225.035 141.464 221.152ZM139.032 236.256H145.24V271.008H139.032V236.256ZM240.472 218.784H247.384C247.085 221.344 246.637 223.925 246.04 226.528C245.485 229.088 244.632 231.563 243.48 233.952C242.328 236.299 240.792 238.517 238.872 240.608C236.995 242.656 234.563 244.448 231.576 245.984C231.192 245.088 230.573 244.107 229.72 243.04C228.867 241.973 228.056 241.141 227.288 240.544C229.848 239.307 231.939 237.856 233.56 236.192C235.181 234.528 236.461 232.736 237.4 230.816C238.339 228.896 239.021 226.912 239.448 224.864C239.917 222.816 240.259 220.789 240.472 218.784ZM229.4 229.728L232.984 224.416C235.117 225.013 237.293 225.781 239.512 226.72C241.773 227.659 243.907 228.64 245.912 229.664C247.96 230.688 249.688 231.648 251.096 232.544L247.448 238.496C246.083 237.472 244.376 236.427 242.328 235.36C240.323 234.251 238.189 233.205 235.928 232.224C233.709 231.2 231.533 230.368 229.4 229.728ZM255.128 216.096H262.296C262.296 216.096 262.296 216.288 262.296 216.672C262.296 217.013 262.275 217.419 262.232 217.888C262.232 218.315 262.211 218.656 262.168 218.912C261.997 223.776 261.784 227.765 261.528 230.88C261.272 233.952 260.952 236.341 260.568 238.048C260.227 239.712 259.779 240.885 259.224 241.568C258.584 242.379 257.923 242.955 257.24 243.296C256.6 243.637 255.832 243.872 254.936 244C254.168 244.171 253.165 244.277 251.928 244.32C250.691 244.32 249.368 244.299 247.96 244.256C247.917 243.189 247.704 242.016 247.32 240.736C246.979 239.413 246.552 238.283 246.04 237.344C247.149 237.472 248.152 237.557 249.048 237.6C249.944 237.6 250.648 237.6 251.16 237.6C251.971 237.643 252.611 237.387 253.08 236.832C253.379 236.405 253.656 235.531 253.912 234.208C254.168 232.843 254.381 230.795 254.552 228.064C254.765 225.333 254.957 221.728 255.128 217.248V216.096ZM236.44 250.656H243.48V264.608C243.48 265.504 243.565 266.08 243.736 266.336C243.907 266.549 244.291 266.656 244.888 266.656C245.016 266.656 245.229 266.656 245.528 266.656C245.827 266.656 246.147 266.656 246.488 266.656C246.829 266.656 247.149 266.656 247.448 266.656C247.789 266.656 248.024 266.656 248.152 266.656C248.579 266.656 248.899 266.507 249.112 266.208C249.325 265.909 249.496 265.291 249.624 264.352C249.752 263.371 249.837 261.899 249.88 259.936C250.307 260.277 250.883 260.64 251.608 261.024C252.376 261.365 253.144 261.685 253.912 261.984C254.723 262.24 255.448 262.475 256.088 262.688C255.875 265.461 255.491 267.616 254.936 269.152C254.424 270.731 253.677 271.797 252.696 272.352C251.757 272.949 250.52 273.248 248.984 273.248C248.685 273.248 248.28 273.248 247.768 273.248C247.299 273.248 246.808 273.248 246.296 273.248C245.784 273.248 245.293 273.248 244.824 273.248C244.355 273.248 243.971 273.248 243.672 273.248C241.709 273.248 240.195 272.971 239.128 272.416C238.104 271.904 237.4 271.029 237.016 269.792C236.632 268.555 236.44 266.869 236.44 264.736V250.656ZM229.912 253.152L235.992 254.752C235.821 256.629 235.544 258.528 235.16 260.448C234.776 262.368 234.264 264.181 233.624 265.888C232.984 267.552 232.131 269.024 231.064 270.304L225.432 266.912C226.328 265.803 227.075 264.523 227.672 263.072C228.269 261.579 228.739 259.979 229.08 258.272C229.464 256.565 229.741 254.859 229.912 253.152ZM237.912 246.24L242.328 241.76C243.693 242.443 245.101 243.253 246.552 244.192C248.003 245.088 249.368 246.048 250.648 247.072C251.971 248.053 253.037 248.992 253.848 249.888L249.048 254.88C248.323 253.941 247.341 252.96 246.104 251.936C244.909 250.912 243.587 249.909 242.136 248.928C240.685 247.904 239.277 247.008 237.912 246.24ZM251.992 254.176L258.2 251.68C259.352 253.301 260.397 255.051 261.336 256.928C262.275 258.805 263.085 260.683 263.768 262.56C264.451 264.395 264.941 266.059 265.24 267.552L258.456 270.368C258.285 268.832 257.88 267.147 257.24 265.312C256.6 263.435 255.832 261.515 254.936 259.552C254.04 257.589 253.059 255.797 251.992 254.176ZM230.296 216.096H258.392V222.496H230.296V216.096ZM207 233.248H225.752V239.072H207V233.248ZM207.256 215.648H225.624V221.408H207.256V215.648ZM207 242.016H225.752V247.776H207V242.016ZM204.12 224.224H227.48V230.304H204.12V224.224ZM210.328 250.848H225.88V270.368H210.328V264.288H219.48V256.928H210.328V250.848ZM206.872 250.848H213.208V272.864H206.872V250.848ZM301.528 213.664L308.568 215.456C307.416 218.827 305.88 222.069 303.96 225.184C302.04 228.256 300.013 230.837 297.88 232.928C297.496 232.459 296.941 231.925 296.216 231.328C295.533 230.688 294.829 230.069 294.104 229.472C293.421 228.875 292.803 228.405 292.248 228.064C294.296 226.357 296.131 224.224 297.752 221.664C299.373 219.104 300.632 216.437 301.528 213.664ZM301.08 230.112L308.12 231.904C307.139 234.421 305.88 236.896 304.344 239.328C302.808 241.76 301.251 243.787 299.672 245.408C299.245 245.024 298.648 244.597 297.88 244.128C297.155 243.616 296.408 243.125 295.64 242.656C294.872 242.144 294.211 241.739 293.656 241.44C295.192 240.032 296.6 238.304 297.88 236.256C299.203 234.208 300.269 232.16 301.08 230.112ZM302.936 219.104H328.472V225.568H300.376L302.936 219.104ZM310.296 223.968H317.592V243.936C317.592 245.6 317.4 246.923 317.016 247.904C316.675 248.885 315.928 249.653 314.776 250.208C313.667 250.72 312.365 251.04 310.872 251.168C309.421 251.296 307.715 251.36 305.752 251.36C305.624 250.336 305.325 249.184 304.856 247.904C304.387 246.624 303.896 245.536 303.384 244.64C304.579 244.683 305.752 244.704 306.904 244.704C308.056 244.704 308.824 244.704 309.208 244.704C309.635 244.661 309.912 244.597 310.04 244.512C310.211 244.384 310.296 244.149 310.296 243.808V223.968ZM319.064 232.288L325.336 229.6C326.317 230.965 327.277 232.459 328.216 234.08C329.155 235.701 330.008 237.301 330.776 238.88C331.544 240.416 332.163 241.824 332.632 243.104L325.976 246.24C325.592 244.96 325.016 243.531 324.248 241.952C323.523 240.331 322.712 238.667 321.816 236.96C320.92 235.253 320.003 233.696 319.064 232.288ZM326.488 219.104H327.576L328.792 218.912L334.168 220.064C333.485 222.197 332.696 224.395 331.8 226.656C330.947 228.917 330.157 230.816 329.432 232.352L322.904 231.008C323.501 229.643 324.141 227.915 324.824 225.824C325.507 223.733 326.061 221.792 326.488 220V219.104ZM291.032 253.728H298.648V263.648C298.648 264.544 298.84 265.12 299.224 265.376C299.651 265.632 300.611 265.76 302.104 265.76C302.445 265.76 303 265.76 303.768 265.76C304.536 265.76 305.368 265.76 306.264 265.76C307.203 265.76 308.077 265.76 308.888 265.76C309.741 265.76 310.381 265.76 310.808 265.76C311.661 265.76 312.28 265.611 312.664 265.312C313.091 265.013 313.411 264.416 313.624 263.52C313.837 262.624 313.987 261.259 314.072 259.424C314.541 259.765 315.181 260.128 315.992 260.512C316.803 260.896 317.635 261.237 318.488 261.536C319.384 261.792 320.173 262.005 320.856 262.176C320.557 264.907 320.088 267.019 319.448 268.512C318.808 270.048 317.848 271.093 316.568 271.648C315.331 272.245 313.645 272.544 311.512 272.544C311.128 272.544 310.595 272.544 309.912 272.544C309.229 272.544 308.461 272.544 307.608 272.544C306.755 272.544 305.901 272.544 305.048 272.544C304.195 272.544 303.427 272.544 302.744 272.544C302.061 272.544 301.549 272.544 301.208 272.544C298.477 272.544 296.365 272.267 294.872 271.712C293.421 271.2 292.419 270.283 291.864 268.96C291.309 267.68 291.032 265.931 291.032 263.712V253.728ZM296.408 252L301.592 247.584C302.872 248.309 304.216 249.141 305.624 250.08C307.032 250.976 308.333 251.915 309.528 252.896C310.765 253.877 311.768 254.816 312.536 255.712L307.032 260.576C306.307 259.68 305.368 258.72 304.216 257.696C303.064 256.629 301.805 255.605 300.44 254.624C299.075 253.643 297.731 252.768 296.408 252ZM317.144 256.16L323.48 252.704C325.016 254.112 326.509 255.669 327.96 257.376C329.453 259.083 330.797 260.789 331.992 262.496C333.187 264.203 334.104 265.824 334.744 267.36L327.832 271.2C327.32 269.707 326.509 268.085 325.4 266.336C324.291 264.587 323.011 262.837 321.56 261.088C320.152 259.296 318.68 257.653 317.144 256.16ZM283.096 253.92L290.008 256.288C289.112 259.232 287.96 262.091 286.552 264.864C285.187 267.637 283.288 269.941 280.856 271.776L274.52 267.424C276.653 265.845 278.424 263.883 279.832 261.536C281.283 259.147 282.371 256.608 283.096 253.92ZM288.92 213.6L295.704 215.968C294.339 218.613 292.717 221.259 290.84 223.904C288.963 226.549 286.957 229.024 284.824 231.328C282.733 233.589 280.621 235.573 278.488 237.28C278.189 236.768 277.763 236.128 277.208 235.36C276.696 234.549 276.12 233.76 275.48 232.992C274.883 232.224 274.349 231.584 273.88 231.072C276.781 228.981 279.576 226.4 282.264 223.328C284.995 220.213 287.213 216.971 288.92 213.6ZM283.352 226.976L290.584 219.808L290.712 219.872V251.232H283.352V226.976ZM352.152 224.032H371.8V267.104H352.152V260.384H364.888V230.688H352.152V224.032ZM347.672 224.032H354.648V271.84H347.672V224.032ZM351.896 241.12H368.216V247.776H351.896V241.12ZM356.824 213.6L365.144 214.816C364.461 216.992 363.715 219.147 362.904 221.28C362.136 223.413 361.432 225.227 360.792 226.72L354.648 225.312C354.947 224.203 355.224 222.965 355.48 221.6C355.779 220.235 356.056 218.848 356.312 217.44C356.568 216.032 356.739 214.752 356.824 213.6ZM380.248 223.52H399V230.56H380.248V223.52ZM396.312 223.52H403.416C403.416 223.52 403.416 223.755 403.416 224.224C403.416 224.651 403.416 225.141 403.416 225.696C403.416 226.251 403.395 226.677 403.352 226.976C403.181 234.187 402.968 240.309 402.712 245.344C402.499 250.336 402.221 254.475 401.88 257.76C401.581 261.003 401.219 263.541 400.792 265.376C400.365 267.211 399.811 268.555 399.128 269.408C398.275 270.645 397.357 271.499 396.376 271.968C395.395 272.437 394.264 272.779 392.984 272.992C391.747 273.163 390.211 273.227 388.376 273.184C386.584 273.184 384.749 273.163 382.872 273.12C382.829 272.053 382.573 270.795 382.104 269.344C381.635 267.936 381.059 266.699 380.376 265.632C382.424 265.803 384.323 265.909 386.072 265.952C387.864 265.995 389.165 266.016 389.976 266.016C390.616 266.016 391.128 265.952 391.512 265.824C391.939 265.653 392.344 265.355 392.728 264.928C393.283 264.373 393.731 263.243 394.072 261.536C394.456 259.787 394.776 257.333 395.032 254.176C395.288 251.019 395.523 247.029 395.736 242.208C395.949 237.387 396.141 231.648 396.312 224.992V223.52ZM380.44 213.664L387.864 215.392C387.053 218.507 386.051 221.621 384.856 224.736C383.704 227.851 382.424 230.795 381.016 233.568C379.651 236.299 378.243 238.688 376.792 240.736C376.365 240.309 375.747 239.819 374.936 239.264C374.168 238.667 373.379 238.091 372.568 237.536C371.8 236.981 371.117 236.555 370.52 236.256C371.928 234.421 373.251 232.309 374.488 229.92C375.768 227.488 376.899 224.885 377.88 222.112C378.904 219.296 379.757 216.48 380.44 213.664ZM377.304 242.016L383.32 238.624C384.387 240.075 385.517 241.675 386.712 243.424C387.907 245.173 389.037 246.88 390.104 248.544C391.171 250.208 392.045 251.68 392.728 252.96L386.2 256.928C385.603 255.605 384.792 254.091 383.768 252.384C382.787 250.677 381.72 248.928 380.568 247.136C379.459 245.301 378.371 243.595 377.304 242.016ZM416.152 255.52H474.712V261.344H416.152V255.52ZM432.664 218.912H474.648V224.032H432.664V218.912ZM453.464 252.064H460.824V266.464C460.824 268.171 460.611 269.515 460.184 270.496C459.8 271.477 458.947 272.224 457.624 272.736C456.344 273.205 454.829 273.483 453.08 273.568C451.331 273.696 449.261 273.76 446.872 273.76C446.744 272.736 446.445 271.605 445.976 270.368C445.507 269.131 445.016 268.043 444.504 267.104C445.528 267.147 446.573 267.189 447.64 267.232C448.707 267.275 449.645 267.296 450.456 267.296C451.267 267.253 451.821 267.232 452.12 267.232C452.632 267.232 452.973 267.168 453.144 267.04C453.357 266.869 453.464 266.613 453.464 266.272V252.064ZM426.968 264.096L432.216 259.872C433.24 260.512 434.307 261.259 435.416 262.112C436.525 262.923 437.592 263.755 438.616 264.608C439.64 265.461 440.472 266.272 441.112 267.04L435.48 271.712C434.925 270.987 434.179 270.155 433.24 269.216C432.301 268.32 431.277 267.424 430.168 266.528C429.059 265.632 427.992 264.821 426.968 264.096ZM417.88 218.528L422.872 214.304C423.939 215.029 425.048 215.861 426.2 216.8C427.395 217.739 428.483 218.677 429.464 219.616C430.488 220.555 431.277 221.429 431.832 222.24L426.584 226.848C426.029 226.037 425.261 225.141 424.28 224.16C423.341 223.136 422.317 222.133 421.208 221.152C420.099 220.171 418.989 219.296 417.88 218.528ZM440.088 214.688L446.296 213.536C446.979 214.475 447.64 215.541 448.28 216.736C448.92 217.888 449.368 218.933 449.624 219.872L443.096 221.152C442.84 220.299 442.413 219.275 441.816 218.08C441.261 216.843 440.685 215.712 440.088 214.688ZM444.824 234.592V236.576H462.04V234.592H444.824ZM444.824 239.84V241.888H462.04V239.84H444.824ZM444.824 229.472V231.328H462.04V229.472H444.824ZM437.72 226.08H469.464V245.216H437.72V226.08ZM430.744 229.536V244.576H423.832V235.296H416.344V229.536H430.744ZM449.752 221.024L457.368 221.536C456.856 222.731 456.365 223.84 455.896 224.864C455.469 225.888 455.085 226.784 454.744 227.552L448.664 226.784C448.92 225.845 449.133 224.864 449.304 223.84C449.517 222.773 449.667 221.835 449.752 221.024ZM460.824 213.472L468.056 214.624C467.288 215.861 466.52 217.013 465.752 218.08C465.027 219.104 464.365 220 463.768 220.768L457.688 219.616C458.243 218.677 458.797 217.653 459.352 216.544C459.949 215.392 460.44 214.368 460.824 213.472ZM430.744 242.016C431.811 243.765 433.304 245.045 435.224 245.856C437.144 246.667 439.469 247.115 442.2 247.2C443.779 247.243 445.635 247.285 447.768 247.328C449.944 247.371 452.269 247.392 454.744 247.392C457.219 247.349 459.715 247.307 462.232 247.264C464.749 247.179 467.16 247.093 469.464 247.008C471.811 246.88 473.88 246.773 475.672 246.688C475.331 247.371 474.968 248.309 474.584 249.504C474.2 250.656 473.923 251.659 473.752 252.512C471.704 252.597 469.293 252.683 466.52 252.768C463.747 252.811 460.867 252.853 457.88 252.896C454.893 252.896 452.035 252.896 449.304 252.896C446.573 252.853 444.205 252.789 442.2 252.704C438.957 252.576 436.205 252.107 433.944 251.296C431.725 250.443 429.827 249.013 428.248 247.008C426.712 248.032 425.133 249.056 423.512 250.08C421.933 251.104 420.248 252.171 418.456 253.28L415.832 247.2C417.325 246.517 418.925 245.728 420.632 244.832C422.381 243.893 424.045 242.955 425.624 242.016H430.744ZM502.744 251.168V253.216H528.536V251.168H502.744ZM502.744 256.928V259.04H528.536V256.928H502.744ZM502.744 245.344V247.456H528.536V245.344H502.744ZM495.448 241.44H536.152V263.008H495.448V241.44ZM518.424 260.768H525.976V265.568C525.976 266.336 526.147 266.827 526.488 267.04C526.872 267.211 527.704 267.296 528.984 267.296C529.283 267.296 529.773 267.296 530.456 267.296C531.181 267.296 531.949 267.296 532.76 267.296C533.571 267.296 534.339 267.296 535.064 267.296C535.789 267.296 536.365 267.296 536.792 267.296C537.475 267.296 537.987 267.189 538.328 266.976C538.669 266.72 538.925 266.251 539.096 265.568C539.267 264.885 539.395 263.84 539.48 262.432C540.205 262.901 541.187 263.349 542.424 263.776C543.704 264.203 544.835 264.523 545.816 264.736C545.56 266.912 545.133 268.597 544.536 269.792C543.981 270.987 543.128 271.819 541.976 272.288C540.867 272.8 539.395 273.056 537.56 273.056C537.261 273.056 536.771 273.056 536.088 273.056C535.448 273.056 534.723 273.056 533.912 273.056C533.144 273.056 532.355 273.056 531.544 273.056C530.776 273.056 530.072 273.056 529.432 273.056C528.835 273.056 528.365 273.056 528.024 273.056C525.507 273.056 523.544 272.821 522.136 272.352C520.771 271.925 519.811 271.157 519.256 270.048C518.701 268.981 518.424 267.488 518.424 265.568V260.768ZM504.344 261.216H511.896C511.469 263.051 510.829 264.672 509.976 266.08C509.123 267.488 507.843 268.683 506.136 269.664C504.429 270.688 502.189 271.52 499.416 272.16C496.643 272.843 493.144 273.376 488.92 273.76C488.664 272.907 488.195 271.883 487.512 270.688C486.872 269.536 486.232 268.597 485.592 267.872C489.219 267.701 492.184 267.467 494.488 267.168C496.792 266.827 498.605 266.4 499.928 265.888C501.293 265.376 502.296 264.736 502.936 263.968C503.576 263.2 504.045 262.283 504.344 261.216ZM521.88 223.456H541.656V227.744H521.88V223.456ZM521.752 216.928H544.6V221.664H521.752V216.928ZM499.864 217.44H505.88V223.456H499.864V217.44ZM499.864 230.24H505.88V236.32H499.864V230.24ZM492.888 222.176H513.88V232.608H492.888V228.64H507.416V226.144H492.888V222.176ZM535.64 232.928V236.128H538.328V232.928H535.64ZM529.304 232.928V236.128H531.928V232.928H529.304ZM523.096 232.928V236.128H525.592V232.928H523.096ZM518.04 229.408H543.576V239.712H518.04V229.408ZM521.176 213.728L527.704 214.752C526.765 217.227 525.571 219.595 524.12 221.856C522.669 224.117 520.792 226.208 518.488 228.128C517.891 227.403 517.101 226.592 516.12 225.696C515.139 224.8 514.243 224.16 513.432 223.776C515.437 222.368 517.059 220.768 518.296 218.976C519.576 217.184 520.536 215.435 521.176 213.728ZM515.16 215.52V219.872H495.32V235.232H515.672V239.584H488.856V215.52H515.16ZM573.336 221.6V225.76H599.32V221.6H573.336ZM565.592 215.648H607.448V231.712H565.592V215.648ZM570.328 246.944V249.696H601.752V246.944H570.328ZM570.328 254.56V257.312H601.752V254.56H570.328ZM570.328 239.392V242.08H601.752V239.392H570.328ZM562.712 234.144H609.752V262.56H562.712V234.144ZM575.128 261.216L581.912 266.016C580.205 267.04 578.2 268.043 575.896 269.024C573.635 270.005 571.288 270.901 568.856 271.712C566.467 272.565 564.184 273.248 562.008 273.76C561.283 272.949 560.344 272.011 559.192 270.944C558.083 269.877 557.08 268.981 556.184 268.256C558.445 267.744 560.771 267.104 563.16 266.336C565.549 265.568 567.811 264.736 569.944 263.84C572.077 262.944 573.805 262.069 575.128 261.216ZM589.144 266.4L595.928 261.6C598.189 262.155 600.579 262.859 603.096 263.712C605.613 264.523 608.045 265.355 610.392 266.208C612.781 267.019 614.851 267.765 616.6 268.448L609.816 273.888C608.152 273.12 606.125 272.267 603.736 271.328C601.389 270.432 598.936 269.557 596.376 268.704C593.859 267.851 591.448 267.083 589.144 266.4Z" fill="black"/>
<g clip-path="url(#clip1_741_3783)">
<path d="M657 219C652.055 219 647.222 220.466 643.111 223.213C639 225.96 635.795 229.865 633.903 234.433C632.011 239.001 631.516 244.028 632.48 248.877C633.445 253.727 635.826 258.181 639.322 261.678C642.819 265.174 647.273 267.555 652.123 268.52C656.972 269.484 661.999 268.989 666.567 267.097C671.135 265.205 675.04 262 677.787 257.889C680.534 253.778 682 248.945 682 244C681.993 237.372 679.357 231.017 674.67 226.33C669.983 221.643 663.628 219.007 657 219ZM657 260.667C656.588 260.667 656.185 260.544 655.843 260.316C655.5 260.087 655.233 259.761 655.075 259.381C654.918 259 654.876 258.581 654.957 258.177C655.037 257.773 655.236 257.402 655.527 257.11C655.818 256.819 656.189 256.62 656.594 256.54C656.998 256.46 657.417 256.501 657.797 256.659C658.178 256.816 658.503 257.083 658.732 257.426C658.961 257.769 659.083 258.171 659.083 258.583C659.083 259.136 658.864 259.666 658.473 260.056C658.082 260.447 657.553 260.667 657 260.667ZM661.021 245.054C660.406 245.439 659.903 245.978 659.563 246.618C659.223 247.259 659.058 247.977 659.083 248.702V250.25C659.083 250.803 658.864 251.332 658.473 251.723C658.082 252.114 657.553 252.333 657 252.333C656.447 252.333 655.918 252.114 655.527 251.723C655.136 251.332 654.917 250.803 654.917 250.25V248.702C654.886 247.232 655.249 245.781 655.969 244.499C656.688 243.216 657.738 242.15 659.008 241.41C659.778 240.986 660.394 240.33 660.768 239.535C661.142 238.74 661.256 237.847 661.092 236.983C660.929 236.161 660.526 235.405 659.932 234.814C659.338 234.222 658.581 233.82 657.758 233.66C657.158 233.549 656.54 233.571 655.949 233.726C655.358 233.88 654.808 234.162 654.338 234.552C653.868 234.942 653.49 235.431 653.23 235.983C652.97 236.536 652.834 237.139 652.833 237.75C652.833 238.303 652.614 238.832 652.223 239.223C651.832 239.614 651.303 239.833 650.75 239.833C650.197 239.833 649.668 239.614 649.277 239.223C648.886 238.832 648.667 238.303 648.667 237.75C648.667 236.28 649.056 234.837 649.795 233.566C650.533 232.295 651.595 231.242 652.872 230.514C654.148 229.786 655.595 229.408 657.065 229.42C658.534 229.431 659.975 229.831 661.24 230.579C662.506 231.327 663.551 232.396 664.269 233.678C664.988 234.96 665.355 236.41 665.332 237.879C665.31 239.349 664.9 240.786 664.142 242.046C663.385 243.306 662.308 244.345 661.021 245.054Z" fill="black"/>
</g>
<g clip-path="url(#clip2_741_3783)">
<path d="M98 77.3335V82.3335H58V77.3335H98ZM58 112.333H71.3333V107.333H58V112.333ZM58 97.3335H84.6667V92.3335H58V97.3335Z" fill="black"/>
</g>
<g clip-path="url(#clip3_741_3783)">
<path d="M651.467 117.483L657.917 124C658.072 124.156 658.256 124.28 658.459 124.365C658.662 124.449 658.88 124.493 659.1 124.493C659.32 124.493 659.538 124.449 659.741 124.365C659.944 124.28 660.128 124.156 660.283 124C660.44 123.845 660.564 123.661 660.648 123.457C660.733 123.254 660.776 123.037 660.776 122.817C660.776 122.596 660.733 122.379 660.648 122.176C660.564 121.972 660.44 121.788 660.283 121.633L654.35 115.667H688.333C688.775 115.667 689.199 115.491 689.512 115.178C689.824 114.866 690 114.442 690 114C690 113.558 689.824 113.134 689.512 112.821C689.199 112.509 688.775 112.333 688.333 112.333H654.25L660.283 106.3C660.579 105.99 660.744 105.578 660.744 105.15C660.744 104.722 660.579 104.31 660.283 104C660.128 103.844 659.944 103.72 659.741 103.635C659.538 103.55 659.32 103.507 659.1 103.507C658.88 103.507 658.662 103.55 658.459 103.635C658.256 103.72 658.072 103.844 657.917 104L651.467 110.417C650.53 111.354 650.004 112.625 650.004 113.95C650.004 115.275 650.53 116.546 651.467 117.483Z" fill="black"/>
</g>
<defs>
<clipPath id="clip0_741_3783">
<rect x="153.514" y="344" width="472.973" height="472.973" rx="7.09459" fill="white"/>
</clipPath>
<clipPath id="clip1_741_3783">
<rect width="25" height="25" fill="white" transform="matrix(2 0 0 2 632 219)"/>
</clipPath>
<clipPath id="clip2_741_3783">
<rect width="20" height="20" fill="white" transform="matrix(2 0 0 2 58 74)"/>
</clipPath>
<clipPath id="clip3_741_3783">
<rect width="20" height="20" fill="white" transform="matrix(2 0 0 2 650 94)"/>
</clipPath>
</defs>
</svg>
