<svg width="225" height="225" viewBox="0 0 225 225" fill="none" xmlns="http://www.w3.org/2000/svg">
<path d="M183.495 128.709L186.856 137.593C187.577 139.755 186.616 141.916 184.455 142.636L153.479 153.922C151.318 154.643 149.156 153.682 148.436 151.521L145.074 142.636C144.354 140.475 145.314 138.314 147.476 137.593L178.452 126.307C180.613 125.347 182.774 126.548 183.495 128.709Z" fill="#F1C78A"/>
<path d="M174.85 141.195L172.209 133.751C171.248 131.11 172.689 128.228 175.09 127.268L183.014 124.146C185.176 123.426 187.577 124.386 188.297 126.787L192.86 139.994L181.334 144.317C178.692 145.517 175.811 143.837 174.85 141.195Z" fill="#F1C78A"/>
<path d="M188.297 140.235L187.577 137.833C187.337 137.113 187.817 136.152 188.297 135.912L195.261 133.031C195.981 132.791 196.702 133.031 196.942 133.991L197.662 136.393C197.902 137.113 197.422 138.074 196.942 138.314L189.978 141.195C189.258 141.435 188.537 140.955 188.297 140.235Z" fill="#F1C78A"/>
<path d="M186.616 134.471L185.896 132.07C185.656 131.35 186.136 130.389 186.616 130.149L193.58 127.268C194.301 127.027 195.021 127.268 195.261 128.228L195.981 130.629C196.222 131.35 195.741 132.31 195.261 132.55L188.297 135.432C187.577 135.672 186.857 135.192 186.616 134.471Z" fill="#F1C78A"/>
<path d="M184.935 128.709L184.215 126.307C183.975 125.587 184.455 124.626 184.935 124.386L191.899 121.505C192.619 121.265 193.34 121.505 193.58 122.465L194.3 124.866C194.541 125.587 194.06 126.547 193.58 126.787L186.616 129.669C185.896 129.909 185.176 129.429 184.935 128.709Z" fill="#F1C78A"/>
<path d="M149.637 157.764L142.673 138.554C142.433 137.593 142.913 136.633 143.633 136.392L158.762 130.87C159.242 130.629 159.962 130.87 160.202 131.59L166.926 150.08C167.166 150.56 166.926 151.28 166.205 151.521L149.637 157.764Z" fill="white"/>
<path d="M48.7828 168.329L37.7369 162.566C36.2961 161.846 35.8159 160.165 36.5363 158.724L49.5031 133.751C49.9834 133.031 50.9439 132.55 51.9044 133.031L63.9108 139.274C64.6312 139.754 65.1114 140.715 64.6312 141.675L50.9439 167.609C50.4637 168.569 49.5031 168.81 48.7828 168.329Z" fill="#F1C78A"/>
<path d="M52.625 158.724L39.1779 147.679C38.4575 147.198 38.4575 146.238 38.9378 145.517L49.9836 132.07L64.6314 144.077L52.625 158.724Z" fill="white"/>
<path d="M60.5492 209.151H138.831C145.074 209.151 149.877 204.109 149.877 198.106V131.83H49.5034V198.106C49.5034 204.109 54.5461 209.151 60.5492 209.151Z" fill="white"/>
<path d="M49.5034 132.79H150.117V77.3209C150.117 53.5483 130.907 34.3381 107.134 34.3381H92.2461C68.7136 34.3381 49.5034 53.5483 49.5034 77.0808V132.79Z" fill="#F1C78A"/>
<path d="M113.858 85.7256C115.979 85.7256 117.7 84.0054 117.7 81.8835C117.7 79.7616 115.979 78.0415 113.858 78.0415C111.736 78.0415 110.016 79.7616 110.016 81.8835C110.016 84.0054 111.736 85.7256 113.858 85.7256Z" fill="#040404"/>
<path d="M85.7626 85.7256C87.8845 85.7256 89.6046 84.0054 89.6046 81.8835C89.6046 79.7616 87.8845 78.0415 85.7626 78.0415C83.6407 78.0415 81.9205 79.7616 81.9205 81.8835C81.9205 84.0054 83.6407 85.7256 85.7626 85.7256Z" fill="#040404"/>
<path d="M163.564 60.7523L135.469 38.9007C134.989 38.6606 134.749 38.1803 134.509 37.7L121.302 12.4866C120.341 10.8057 119.14 9.12485 117.7 7.68409C113.137 3.60191 107.374 0.96051 101.611 0.240127V0C95.6078 0.720383 90.0849 3.12166 85.2823 7.44396C83.8416 8.6446 82.6409 10.3255 81.6804 12.0064L68.4734 37.2198C68.2333 37.7 67.753 38.1803 67.5129 38.4204L39.418 60.272C38.6976 60.7523 38.2173 61.4727 38.2173 62.1931C37.4969 64.5943 39.1778 67.2357 41.8192 67.2357H101.371H161.163C163.804 67.2357 165.485 64.5943 164.765 62.1931C164.765 61.9529 164.284 61.2325 163.564 60.7523Z" fill="#C9AD95"/>
<path d="M107.854 85.9656H95.6077C95.1275 85.9656 94.8874 86.2058 94.8874 86.686V87.1663C94.8874 90.0478 97.2886 92.2089 99.93 92.2089H103.532C106.413 92.2089 108.575 89.8077 108.575 87.1663V86.686C108.575 86.2058 108.335 85.9656 107.854 85.9656Z" fill="#DD5B53"/>
<path d="M91.2857 85.2454C88.8844 87.4066 88.4041 91.0085 89.6048 93.89C89.8449 94.3703 90.3252 94.3703 90.8054 94.1302C91.2857 93.89 91.2857 93.4098 91.0455 92.9295C90.085 90.7684 90.5653 87.8868 92.4863 86.2059C93.2067 85.7257 92.006 84.5251 91.2857 85.2454Z" fill="black"/>
<path d="M53.1053 197.145H146.515C148.436 197.145 150.117 195.464 150.117 193.543V147.438H49.5034V193.783C49.5034 195.704 51.1843 197.145 53.1053 197.145Z" fill="#85997B"/>
<path d="M61.5098 132.791H49.5034V152.962H61.5098V132.791Z" fill="#85997B"/>
<path d="M150.117 132.791H138.111V152.962H150.117V132.791Z" fill="#85997B"/>
<path d="M210.869 170.731C210.629 169.77 209.909 169.29 208.948 169.29H114.098H110.256H15.1651C14.2046 169.29 13.4842 169.77 13.2441 170.731L0.0370424 222.599C-0.203085 223.799 0.757425 225 1.95806 225H110.256H114.098H222.395C223.596 225 224.556 223.799 224.316 222.599L210.869 170.731Z" fill="#C58867"/>
<path d="M108.335 202.668H94.8874V204.589C94.8874 205.069 95.3676 205.549 95.8479 205.549H107.374C107.854 205.549 108.335 205.069 108.335 204.589V202.668Z" fill="#BE5F78"/>
<path d="M106.654 204.109L96.3283 203.869C92.7264 203.869 90.085 200.987 90.085 197.385L90.3251 184.658C90.3251 183.698 91.0455 182.978 92.006 183.218L111.937 183.698C112.897 183.698 113.618 184.418 113.377 185.379L113.137 198.106C112.897 201.227 110.016 204.109 106.654 204.109Z" fill="#F17674"/>
<path d="M110.256 186.579L93.2066 186.099C92.4862 186.099 92.0059 185.379 92.0059 184.898C92.0059 184.178 92.7263 183.698 93.2066 183.698L110.256 184.178C110.976 184.178 111.456 184.898 111.456 185.379C111.696 186.099 110.976 186.579 110.256 186.579Z" fill="#B4D692"/>
<path d="M178.452 169.29H165.965V193.063H179.652C185.175 193.063 189.738 188.5 189.738 182.977V180.576C189.738 174.333 184.695 169.29 178.452 169.29ZM183.735 183.218C183.735 185.379 181.814 187.06 179.412 187.06H170.047V175.053H179.412C181.814 175.053 183.735 176.734 183.735 178.895V183.218Z" fill="#BE5F78"/>
<path d="M159.241 151.281H149.876C139.551 151.281 131.146 159.685 131.146 170.011V170.491H178.211V170.011C177.971 159.685 169.567 151.281 159.241 151.281Z" fill="#F17674"/>
<path d="M155.159 153.202H153.478C152.278 153.202 151.317 152.241 151.317 151.04V149.36C151.317 148.159 152.278 147.198 153.478 147.198H155.159C156.36 147.198 157.32 148.159 157.32 149.36V151.04C157.32 152.241 156.36 153.202 155.159 153.202Z" fill="#F17674"/>
<path d="M129.946 185.619L119.62 177.214C119.38 176.974 119.38 176.734 119.38 176.254V171.451C119.38 170.731 119.861 170.01 120.821 170.01H134.989L129.946 185.619Z" fill="#BE5F78"/>
<path d="M121.061 176.254C120.581 176.254 120.341 175.774 120.341 175.533V172.412C120.341 171.932 120.821 171.691 121.061 171.691C121.541 171.691 121.782 172.172 121.782 172.412V175.533C122.022 175.774 121.541 176.254 121.061 176.254Z" fill="#B4D692"/>
<path d="M165.245 199.066H143.393C135.949 199.066 129.706 193.063 129.706 185.379V168.81H178.692V185.379C178.932 193.063 172.689 199.066 165.245 199.066Z" fill="#BE5F78"/>
<path d="M202.705 130.63L189.738 133.991L190.218 135.912C190.458 136.393 190.939 136.873 191.419 136.633L202.465 133.751C202.945 133.511 203.425 133.031 203.185 132.551L202.705 130.63Z" fill="#BE5F78"/>
<path d="M201.264 132.551L191.179 134.952C187.817 135.672 184.215 133.751 183.495 130.149L180.613 117.663C180.373 116.702 180.853 115.982 181.814 115.742L201.264 111.179C202.225 110.939 202.945 111.419 203.185 112.38L206.067 124.867C206.787 128.228 204.626 131.59 201.264 132.551Z" fill="#F17674"/>
<path d="M200.304 114.781L183.735 118.623C183.014 118.863 182.294 118.383 182.294 117.663C182.054 116.942 182.534 116.222 183.255 116.222L199.823 112.38C200.544 112.14 201.264 112.62 201.264 113.341C201.504 113.821 201.024 114.541 200.304 114.781Z" fill="#B4D692"/>
<path d="M179.653 132.791L178.932 130.389C178.692 129.669 179.173 128.709 179.653 128.468L186.616 125.587C187.337 125.347 188.057 125.587 188.297 126.547L189.018 128.949C189.258 129.669 188.778 130.63 188.297 130.87L181.334 133.751C180.613 133.991 179.893 133.511 179.653 132.791Z" fill="#F1C78A"/>
<path d="M81.6805 145.758L84.5621 145.037L82.8812 138.314C82.1608 135.192 78.799 133.271 75.4372 133.991L72.5557 134.712L74.2366 141.435C74.9569 144.557 78.3187 146.478 81.6805 145.758Z" fill="#B0BA75"/>
<path d="M81.4401 144.557L79.279 142.636L84.0815 137.833C86.4828 135.672 90.3248 135.672 92.7261 137.833L94.8873 139.754L90.0847 144.557C87.6834 146.958 83.8414 146.958 81.4401 144.557Z" fill="#B0BA75"/>
<path d="M71.1148 150.56L69.1938 149.119C68.4734 148.639 68.2332 147.679 68.7135 147.198L72.3154 140.715C72.7957 139.995 73.5161 139.995 74.2364 140.235L76.1575 141.675C76.8778 142.156 77.118 143.116 76.6377 143.596L73.0358 150.08C72.7957 150.8 71.8352 151.04 71.1148 150.56Z" fill="#F1C78A"/>
<path d="M74.7169 148.639L78.0787 157.524C78.7991 159.685 77.8386 161.846 75.6774 162.567L44.7009 173.853C42.5398 174.573 40.3786 173.613 39.6582 171.452L36.0563 162.807C35.336 160.646 36.2965 158.485 38.4576 157.764L69.4341 146.478C71.5952 145.518 73.9965 146.718 74.7169 148.639Z" fill="#F1C78A"/>
<path d="M65.8321 161.126L63.1907 153.682C62.2302 151.041 63.671 148.159 66.0723 147.199L73.9965 144.077C76.1576 143.357 78.5589 144.317 79.2793 146.718L83.8417 159.925L72.3156 164.248C69.6742 165.448 66.7927 164.008 65.8321 161.126Z" fill="#F1C78A"/>
<path d="M79.2791 160.406L78.5587 158.004C78.3186 157.284 78.7989 156.323 79.2791 156.083L86.2428 153.202C86.9632 152.962 87.6836 153.202 87.9237 154.162L88.6441 156.563C88.8842 157.284 88.404 158.244 87.9237 158.485L80.96 161.366C80.2396 161.366 79.5192 161.126 79.2791 160.406Z" fill="#F1C78A"/>
<path d="M77.5985 154.402L76.8781 152.001C76.638 151.281 77.1183 150.32 77.5985 150.08L84.5622 147.199C85.2826 146.958 86.003 147.199 86.2431 148.159L86.9635 150.56C87.2036 151.281 86.7234 152.241 86.2431 152.481L79.2794 155.363C78.7992 155.603 77.8387 155.363 77.5985 154.402Z" fill="#F1C78A"/>
<path d="M75.9175 148.879L75.1971 146.478C74.957 145.758 75.4372 144.797 75.9175 144.557L82.8812 141.676C83.6016 141.435 84.3219 141.676 84.5621 142.636L85.2824 145.037C85.5226 145.758 85.0423 146.718 84.5621 146.958L77.5984 149.84C76.878 149.84 76.1576 149.6 75.9175 148.879Z" fill="#F1C78A"/>
<path d="M68.4737 192.823C68.7138 193.303 68.2335 193.783 67.7533 194.023L42.5399 200.747C42.0596 200.987 41.5794 200.507 41.3392 200.026C41.0991 199.546 41.5794 199.066 42.0596 198.826L67.273 192.102C67.9934 192.102 68.4737 192.342 68.4737 192.823Z" fill="#FAC749"/>
<path d="M76.8782 189.701L77.3584 191.382C77.8387 193.303 76.638 195.224 74.9571 195.704L71.8355 196.665C69.9145 197.145 67.9934 195.944 67.5132 194.263L67.0329 192.582C66.5527 190.661 67.7533 188.74 69.4342 188.26L72.5559 187.3C74.4769 186.819 76.3979 187.78 76.8782 189.701Z" fill="#FAC749"/>
</svg>
