<svg width="124" height="124" viewBox="0 0 124 124" fill="none" xmlns="http://www.w3.org/2000/svg">
  <path d="M18 84H60.2V51.1C60.2 46.5 56.4 42.7 51.8 42.7H26.3C21.7 42.7 18 46.4 18 51V84Z" fill="#F1C78A"/>
  <path d="M45 64.4C45.939 64.4 46.7 63.639 46.7 62.7C46.7 61.761 45.939 61 45 61C44.061 61 43.3 61.761 43.3 62.7C43.3 63.639 44.061 64.4 45 64.4Z" fill="#040404"/>
  <path d="M33.3 64.4C34.239 64.4 35 63.639 35 62.7C35 61.761 34.239 61 33.3 61C32.361 61 31.6 61.761 31.6 62.7C31.6 63.639 32.361 64.4 33.3 64.4Z" fill="#040404"/>
  <path d="M19.6 98.9H58.6C59.5 98.9 60.2 98.2 60.2 97.3V83.6H18V97.3C18 98.2 18.7 98.9 19.6 98.9Z" fill="#F7A487"/>
  <path d="M41.9 64.9H36.3C36.1 64.9 36 65 36 65.2V65.5C36 66.8 37.1 67.9 38.4 67.9H39.9C41.2 67.9 42.3 66.8 42.3 65.5V65.2C42.3 65.1 42.1 64.9 41.9 64.9Z" fill="#DD5B53"/>
  <path d="M57.7 52H18V48C18 44.1 21.1 41 25 41H53.3C57.2 41 60.3 44.1 60.3 48V49.5C60.2 50.9 59.1 52 57.7 52Z" fill="#FECC33"/>
  <path d="M25.2 57.5H24.5C20.7 57.5 17.7 54.4 17.7 50.7V49.8C17.7 48 19.1 46.6 20.9 46.6H26.2C28.9 46.6 31.2 48.8 31.2 51.6C31.2 54.8 28.5 57.5 25.2 57.5Z" fill="#FECC33"/>
  <path d="M40.1 57.5H39.4C35.6 57.5 32.6 54.4 32.6 50.7V47.6C32.6 47.1 33 46.6 33.6 46.6H41.1C43.8 46.6 46.1 48.8 46.1 51.6C46.1 54.8 43.4 57.5 40.1 57.5Z" fill="#FECC33"/>
  <path d="M54.8 57.5H54.1C50.3 57.5 47.3 54.4 47.3 50.7V47.6C47.3 47.1 47.7 46.6 48.3 46.6H55.8C58.5 46.6 60.8 48.8 60.8 51.6C60.8 54.8 58.1 57.5 54.8 57.5Z" fill="#FECC33"/>
  <path d="M41 32.9H37.8C35 32.9 32.7 35.2 32.7 38V38.7C32.7 41.5 35 43.8 37.8 43.8H41C43.8 43.8 46.1 41.5 46.1 38.7V38C46.1 35.2 43.8 32.9 41 32.9Z" fill="#FECC33"/>
  <path d="M63.5 84.3H105.7V51.4C105.7 46.8 101.9 43 97.3 43H71.8C67.2 43 63.5 46.7 63.5 51.3V84.3Z" fill="#F1C78A"/>
  <path d="M90.5 64.6C91.439 64.6 92.2 63.839 92.2 62.9C92.2 61.961 91.439 61.2 90.5 61.2C89.561 61.2 88.8 61.961 88.8 62.9C88.8 63.839 89.561 64.6 90.5 64.6Z" fill="#040404"/>
  <path d="M78.8 64.6C79.739 64.6 80.5 63.839 80.5 62.9C80.5 61.961 79.739 61.2 78.8 61.2C77.861 61.2 77.1 61.961 77.1 62.9C77.1 63.839 77.861 64.6 78.8 64.6Z" fill="#040404"/>
  <path d="M65.1 99.2H104.1C105 99.2 105.7 98.5 105.7 97.6V83.9H63.5V97.6C63.5 98.5 64.2 99.2 65.1 99.2Z" fill="#85997B"/>
  <path d="M87.4 65.2H81.8C81.6 65.2 81.5 65.3 81.5 65.5V65.8C81.5 67.1 82.6 68.2 83.9 68.2H85.4C86.7 68.2 87.8 67.1 87.8 65.8V65.5C87.8 65.3 87.6 65.2 87.4 65.2Z" fill="#DD5B53"/>
  <path d="M103.2 52.3H63.5V48.3C63.5 44.4 66.6 41.3 70.5 41.3H98.8C102.7 41.3 105.8 44.4 105.8 48.3V49.8C105.7 51.1 104.6 52.3 103.2 52.3Z" fill="#C58867"/>
  <path d="M70.7 57.7H70C66.2 57.7 63.2 54.6 63.2 50.9V50C63.2 48.2 64.6 46.8 66.4 46.8H71.7C74.4 46.8 76.7 49 76.7 51.8C76.7 55 74 57.7 70.7 57.7Z" fill="#C58867"/>
  <path d="M85.7 57.7H85C81.2 57.7 78.2 54.6 78.2 50.9V47.8C78.2 47.3 78.6 46.8 79.2 46.8H86.7C89.4 46.8 91.7 49 91.7 51.8C91.6 55 89 57.7 85.7 57.7Z" fill="#C58867"/>
  <path d="M100.3 57.7H99.6C95.8 57.7 92.8 54.6 92.8 50.9V47.8C92.8 47.3 93.2 46.8 93.8 46.8H101.3C104 46.8 106.3 49 106.3 51.8C106.3 55 103.6 57.7 100.3 57.7Z" fill="#C58867"/>
  <path d="M41 105.7H83.2V72.8C83.2 68.2 79.4 64.4 74.8 64.4H49.3C44.7 64.4 41 68.1 41 72.7V105.7Z" fill="#F1C78A"/>
  <path d="M67.9 86.1C68.839 86.1 69.6 85.339 69.6 84.4C69.6 83.461 68.839 82.7 67.9 82.7C66.961 82.7 66.2 83.461 66.2 84.4C66.2 85.339 66.961 86.1 67.9 86.1Z" fill="#040404"/>
  <path d="M56.2 86.1C57.139 86.1 57.9 85.339 57.9 84.4C57.9 83.461 57.139 82.7 56.2 82.7C55.261 82.7 54.5 83.461 54.5 84.4C54.5 85.339 55.261 86.1 56.2 86.1Z" fill="#040404"/>
  <path d="M42.6 120.6H81.6C82.5 120.6 83.2 119.9 83.2 119V105.3H41V119C41 119.9 41.7 120.6 42.6 120.6Z" fill="#95B6BA"/>
  <path d="M64.9 86.6H59.3C59.1 86.6 59 86.7 59 86.9V87.2C59 88.5 60.1 89.6 61.4 89.6H62.9C64.2 89.6 65.3 88.5 65.3 87.2V86.9C65.2 86.7 65.1 86.6 64.9 86.6Z" fill="#DD5B53"/>
  <path d="M82.3 73.7H42.1C41.4 73.7 40.9 73.2 40.9 72.5V68.1C40.9 65.1 43.3 62.7 46.3 62.7L82.9 63.7C83.6 63.7 84.1 64.3 84.1 65L83.2 72.8C83.2 73.3 82.8 73.7 82.3 73.7Z" fill="#99CB99"/>
</svg> 