<svg width="400" height="400" viewBox="0 0 400 400" fill="none" xmlns="http://www.w3.org/2000/svg">
<path d="M198 319.2C181.2 319.2 165.2 311.2 155.2 297.2C117.2 245.2 98 206 98 180.8C98 125.6 142.8 81.2 197.6 81.2C252.8 81.2 297.2 126 297.2 180.8C297.2 206 278 245.2 240 297.2C230.8 311.2 215.2 319.6 198 319.2ZM198 102.8C154.8 102.8 120 138 120 180.8C120 200.8 138.8 237.6 172.8 284.8C182.8 298.8 202.4 302 216.4 291.6C219.2 289.6 221.2 287.2 223.2 284.8C257.2 237.6 276 200.8 276 180.8C276 138 241.2 102.8 198 102.8Z" fill="#201816"/>
<path d="M225.2 166.8C229.397 166.8 232.8 163.397 232.8 159.2C232.8 155.003 229.397 151.6 225.2 151.6C221.003 151.6 217.6 155.003 217.6 159.2C217.6 163.397 221.003 166.8 225.2 166.8Z" fill="#201816"/>
<path d="M170.8 166.8C174.998 166.8 178.4 163.397 178.4 159.2C178.4 155.003 174.998 151.6 170.8 151.6C166.603 151.6 163.2 155.003 163.2 159.2C163.2 163.397 166.603 166.8 170.8 166.8Z" fill="#201816"/>
<path d="M183.6 170.4C194 170.4 204 170.4 214.4 170.4" stroke="#201816" stroke-width="2.031" stroke-miterlimit="10" stroke-linecap="round" stroke-linejoin="round"/>
</svg>
