<svg width="19" height="21" viewBox="0 0 19 21" fill="none" xmlns="http://www.w3.org/2000/svg">
<g id="icon_medal" clip-path="url(#clip0_7901_1907)">
<path id="Vector" d="M9.50017 4.96338C8.29135 4.96338 7.30762 5.95464 7.30762 7.17273C7.30762 8.39081 8.29135 9.38067 9.50017 9.38067C10.709 9.38067 11.6927 8.39081 11.6927 7.17273C11.6927 5.95464 10.709 4.96338 9.50017 4.96338Z" fill="#FFFAF3"/>
<path id="Vector_2" d="M11.4597 14.0338L14.2372 18.5729L14.7596 17.352C14.8874 17.0566 15.1897 16.8613 15.5037 16.89L16.8209 16.9663L14.1323 12.5735C13.3639 13.2427 12.4601 13.7426 11.459 14.0338H11.4597Z" fill="#FF857A"/>
<path id="Vector_3" d="M15.0944 7.1734C15.0944 4.06519 12.5843 1.53662 9.50045 1.53662C6.41657 1.53662 3.90723 4.06519 3.90723 7.1734C3.90723 10.2816 6.41587 12.8088 9.49975 12.8088C12.5836 12.8088 15.0937 10.2809 15.0937 7.1734H15.0944ZM9.50045 10.9172C7.45032 10.9172 5.78368 9.23713 5.78368 7.1734C5.78368 5.10966 7.45101 3.42815 9.50045 3.42815C11.5499 3.42815 13.2172 5.10826 13.2172 7.1734C13.2172 9.23853 11.5499 10.9172 9.50045 10.9172Z" fill="#FFDA6E"/>
<path id="Vector_4" d="M2.17941 16.9669L3.4966 16.8906C3.80923 16.8633 4.11421 17.0573 4.24065 17.3527L4.76308 18.5736L7.54059 14.0338C6.54019 13.7425 5.63566 13.2427 4.86799 12.5728L2.17871 16.9662L2.17941 16.9669Z" fill="#FF857A"/>
<path id="Vector_5" d="M9.50046 3.42749C7.45033 3.42749 5.78369 5.1076 5.78369 7.17274C5.78369 9.23788 7.45103 10.9166 9.50046 10.9166C11.5499 10.9166 13.2172 9.23648 13.2172 7.17274C13.2172 5.109 11.5499 3.42749 9.50046 3.42749ZM9.50046 9.38139C8.29164 9.38139 7.30792 8.39152 7.30792 7.17344C7.30792 5.95536 8.29164 4.96409 9.50046 4.96409C10.7093 4.96409 11.693 5.95536 11.693 7.17344C11.693 8.39152 10.7093 9.38139 9.50046 9.38139Z" fill="#1E1E1E"/>
<path id="Vector_6" d="M15.2124 11.4108C16.085 10.22 16.6186 8.76318 16.6186 7.17338C16.6186 3.21741 13.4256 0 9.50042 0C5.57523 0 2.38298 3.21741 2.38298 7.17338C2.38298 8.76318 2.91652 10.2193 3.7884 11.4101L0.113313 17.4151C-0.0353581 17.6594 -0.0367476 17.9653 0.10706 18.2117C0.252952 18.4595 0.521116 18.6079 0.806647 18.5855L3.05269 18.4553L3.94471 20.5373C4.05795 20.7998 4.30528 20.9783 4.58942 20.9993C4.60748 21.0007 4.62693 21.0007 4.6443 21.0007C4.9076 21.0007 5.15353 20.8642 5.29317 20.636L9.16348 14.3104C9.27741 14.316 9.3851 14.3447 9.49973 14.3447C9.61436 14.3447 9.72204 14.316 9.83597 14.3104L13.7063 20.636C13.8459 20.8642 14.0919 21.0007 14.3552 21.0007C14.3732 21.0007 14.3927 21.0007 14.41 20.9993C14.6942 20.9783 14.9415 20.7998 15.0547 20.5373L15.9468 18.4553L18.1928 18.5855C18.4846 18.6128 18.7465 18.4595 18.8924 18.2117C19.0369 17.966 19.0355 17.6594 18.8861 17.4151L15.2111 11.4101L15.2124 11.4108ZM4.76379 18.5736L4.24136 17.3528C4.11492 17.0573 3.80994 16.8634 3.49731 16.8907L2.18012 16.967L4.86939 12.5735C5.63776 13.2435 6.54159 13.7433 7.54199 14.0345L4.76449 18.5743L4.76379 18.5736ZM9.50042 12.8088C6.41585 12.8088 3.90789 10.2809 3.90789 7.17338C3.90789 4.06587 6.41585 1.5359 9.50042 1.5359C12.585 1.5359 15.0943 4.06517 15.0943 7.17268C15.0943 10.2802 12.5843 12.8081 9.50042 12.8081V12.8088ZM15.5042 16.89C15.1902 16.8613 14.888 17.0566 14.7602 17.3521L14.2377 18.5729L11.4602 14.0338C12.4613 13.7426 13.3652 13.2435 14.1335 12.5735L16.8221 16.9663L15.5049 16.89H15.5042Z" fill="#1E1E1E"/>
</g>
<defs>
<clipPath id="clip0_7901_1907">
<rect width="19" height="21" fill="white"/>
</clipPath>
</defs>
</svg>
