<svg width="18" height="18" viewBox="0 0 18 18" fill="none" xmlns="http://www.w3.org/2000/svg">
<g>
<path d="M6.061 4.129L8.255 1.934L8.25 13.512C8.25 13.926 8.586 14.262 9 14.262C9.414 14.262 9.75 13.926 9.75 13.512L9.755 1.947L11.939 4.131C12.237 4.419 12.712 4.411 13 4.113C13.28 3.822 13.28 3.361 13 3.071L10.591 0.66C9.713 -0.219 8.289 -0.22 7.41 0.659C7.409 0.659 7.409 0.659 7.409 0.66L5 3.068C4.713 3.366 4.721 3.841 5.019 4.129C5.309 4.41 5.77 4.41 6.061 4.129Z" fill="black"/>
<path d="M17.25 12C16.836 12 16.5 12.336 16.5 12.75V15.75C16.5 16.164 16.164 16.5 15.75 16.5H2.25C1.836 16.5 1.5 16.164 1.5 15.75V12.75C1.5 12.336 1.164 12 0.75 12C0.336 12 0 12.336 0 12.75V15.75C0 16.993 1.008 18 2.25 18H15.75C16.993 18 18 16.993 18 15.75V12.75C18 12.336 17.664 12 17.25 12Z" fill="black"/>
</g>
</svg>
