<svg width="58" height="77" viewBox="0 0 58 77" fill="none" xmlns="http://www.w3.org/2000/svg">
  <path d="M0.2 56.4H57.8V11.5C57.8 5.2 52.7 0 46.3 0H11.5C5.3 0 0.2 5.1 0.2 11.3V56.4Z" fill="#F1C78A"/>
  <path d="M37 29.5C38.27 29.5 39.3 28.47 39.3 27.2C39.3 25.93 38.27 24.9 37 24.9C35.73 24.9 34.7 25.93 34.7 27.2C34.7 28.47 35.73 29.5 37 29.5Z" fill="#040404"/>
  <path d="M21 29.5C22.27 29.5 23.3 28.47 23.3 27.2C23.3 25.93 22.27 24.9 21 24.9C19.73 24.9 18.7 25.93 18.7 27.2C18.7 28.47 19.73 29.5 21 29.5Z" fill="#040404"/>
  <path d="M2.4 76.7H55.6C56.8 76.7 57.8 75.7 57.8 74.5V55.7H0.2V74.4C0.2 75.7 1.2 76.7 2.4 76.7Z" fill="#85997B"/>
  <path d="M32.9 30.3H25.3C25.1 30.3 24.9 30.5 24.9 30.7V31.1C24.9 32.9 26.3 34.3 28.1 34.3H30.1C31.9 34.3 33.3 32.9 33.3 31.1V30.7C33.3 30.5 33.1 30.3 32.9 30.3Z" fill="#DD5B53"/>
  <path d="M54.4 12.7H0.2V7.3C0.2 2 4.5 -2.2 9.7 -2.2H48.3C53.6 -2.2 57.8 2.1 57.8 7.3V9.3C57.8 11.1 56.3 12.7 54.4 12.7Z" fill="#C58867"/>
  <path d="M10.1 20.1H9.2C4.1 20.1 -0.1 15.9 -0.1 10.8V9.6C-0.1 7.2 1.9 5.2 4.3 5.2H11.5C15.2 5.2 18.3 8.2 18.3 12C18.2 16.5 14.6 20.1 10.1 20.1Z" fill="#C58867"/>
  <path d="M30.4 20.1H29.5C24.4 20.1 20.2 15.9 20.2 10.8V6.5C20.2 5.8 20.8 5.2 21.5 5.2H31.8C35.5 5.2 38.6 8.2 38.6 12C38.6 16.5 34.9 20.1 30.4 20.1Z" fill="#C58867"/>
  <path d="M50.4 20.1H49.5C44.4 20.1 40.2 15.9 40.2 10.8V6.5C40.2 5.8 40.8 5.2 41.5 5.2H51.8C55.5 5.2 58.6 8.2 58.6 12C58.6 16.5 54.9 20.1 50.4 20.1Z" fill="#C58867"/>
</svg> 