<svg width="270" height="255" viewBox="0 0 490 453" fill="none" xmlns="http://www.w3.org/2000/svg">
<path d="M412.556 387.052C454.764 333.787 467.742 273.777 441.543 253.016C415.343 232.255 359.888 258.605 317.68 311.87C275.472 365.135 262.494 425.144 288.693 445.905C314.893 466.666 370.348 440.317 412.556 387.052Z" fill="#201816"/>
<path d="M279.107 363.206L286.61 335.695L256.098 326.191L248.596 353.702L243.093 376.211L242.093 380.712C241.593 383.213 242.593 385.714 245.094 386.214L294.613 401.72C296.614 402.221 298.115 401.22 298.615 399.219L305.117 374.71C305.618 372.709 304.617 371.209 302.616 370.208L279.107 363.206Z" fill="#F1C78A"/>
<path d="M303.617 412.725L313.621 375.71C314.121 374.21 313.12 372.709 312.12 372.709L294.113 367.207L284.109 403.221C283.109 407.723 285.11 412.224 288.611 413.225L298.115 416.226C301.116 416.726 303.117 415.226 303.617 412.725Z" fill="#FFFAF5"/>
<path d="M138.053 121.613C138.553 124.114 141.554 125.114 143.555 123.613C146.556 121.613 150.058 124.114 149.057 127.615C148.057 130.116 150.058 132.117 152.559 132.117C156.06 132.117 157.561 136.618 154.559 138.619C152.559 140.12 152.559 143.121 154.559 144.622C157.561 146.622 156.06 151.124 152.559 151.124C150.058 151.124 148.557 153.625 149.057 155.626C150.058 159.127 146.556 161.628 143.555 159.627C141.554 158.127 138.553 159.127 138.053 161.628C137.053 165.129 132.551 165.129 131.551 161.628C131.05 159.127 128.049 158.127 126.048 159.627C123.047 161.628 119.546 159.127 120.546 155.626C121.547 153.125 119.546 151.124 117.045 151.124C113.544 151.124 112.043 146.622 115.044 144.622C117.045 143.121 117.045 140.12 115.044 138.619C112.043 136.618 113.544 132.117 117.045 132.117C119.546 132.117 121.047 129.616 120.546 127.615C119.546 124.114 123.047 121.613 126.048 123.613C128.049 125.114 131.05 124.114 131.551 121.613C132.551 118.111 137.053 118.111 138.053 121.613Z" fill="#FAC749"/>
<path d="M432.666 267.669L423.163 279.673C421.162 282.675 416.66 283.175 414.159 280.674L372.143 247.661C369.142 245.66 368.642 241.159 371.143 238.658L380.646 226.653C382.647 223.652 387.149 223.152 389.65 225.653L431.666 258.665C434.667 260.666 435.167 264.668 432.666 267.669Z" fill="#F1C78A"/>
<path d="M204.579 213.148H383.147V74.0944C383.147 54.5869 367.141 38.5808 347.634 38.5808H266.603C232.089 38.5808 204.579 66.5915 204.579 100.605V213.148Z" fill="#F1C78A"/>
<path d="M296.614 138.119C300.482 138.119 303.617 134.984 303.617 131.116C303.617 127.249 300.482 124.114 296.614 124.114C292.747 124.114 289.611 127.249 289.611 131.116C289.611 134.984 292.747 138.119 296.614 138.119Z" fill="#040404"/>
<path d="M247.095 138.119C250.962 138.119 254.098 134.984 254.098 131.116C254.098 127.249 250.962 124.114 247.095 124.114C243.228 124.114 240.092 127.249 240.092 131.116C240.092 134.984 243.228 138.119 247.095 138.119Z" fill="#040404"/>
<path d="M224.086 348.7H363.14C374.144 348.7 382.647 339.697 382.647 329.192V211.147H204.579V328.692C204.579 340.197 213.082 348.7 224.086 348.7Z" fill="#F395B3"/>
<path d="M383.648 82.0975H241.593C226.587 82.0975 214.583 70.0929 214.583 55.0871V54.5869C214.583 39.5811 226.587 27.5765 241.593 27.5765H377.145C381.147 27.5765 384.148 30.5777 384.148 34.5792V82.0975H383.648Z" fill="#B16355"/>
<path d="M283.609 140.62H260.1C259.6 140.62 258.599 141.12 258.599 142.121V143.121C258.599 148.623 263.101 153.125 268.603 153.125H274.606C280.108 153.125 284.609 148.623 284.609 143.121V142.121C285.11 141.12 284.609 140.62 283.609 140.62Z" fill="#DD5B53"/>
<path d="M185.071 232.655L204.579 217.149L222.085 239.158L202.578 254.664L186.572 267.669L183.571 270.17C182.07 271.67 179.569 271.17 178.069 269.67L149.558 233.656C148.557 232.155 148.557 230.655 150.058 229.654L167.564 215.649C169.065 214.648 170.566 214.648 171.566 216.149L185.071 232.655Z" fill="#F1C78A"/>
<path d="M166.064 223.152L155.56 230.154C152.058 232.655 147.057 232.155 144.055 228.654L136.052 217.65C134.052 214.648 134.552 210.647 138.053 208.146L156.56 195.141L168.565 211.147C171.066 215.149 170.065 220.651 166.064 223.152Z" fill="#F1C78A"/>
<path d="M160.562 206.145L157.06 208.646C156.06 209.647 154.059 209.146 153.059 207.646L143.555 194.641C142.555 193.14 142.555 191.64 144.055 190.639L147.557 188.138C148.557 187.138 150.558 187.638 151.558 189.139L161.062 202.144C162.062 203.644 162.062 205.145 160.562 206.145Z" fill="#F1C78A"/>
<path d="M156.56 216.649L153.059 214.148C152.059 213.148 151.558 211.647 152.559 210.147L162.563 196.642C163.563 195.141 165.064 194.641 166.564 195.641L170.065 198.142C171.066 199.142 171.566 200.643 170.566 202.144L160.562 215.649C159.561 216.649 158.061 217.149 156.56 216.649Z" fill="#F1C78A"/>
<path d="M227.087 240.658L210.081 254.164C209.08 254.664 208.08 254.664 207.08 253.663L186.572 227.653C186.072 226.653 186.072 225.653 187.072 224.652L204.079 211.147C205.079 210.647 206.079 210.647 207.08 211.647L227.588 237.657C228.088 239.158 227.588 240.158 227.087 240.658Z" fill="#F395B3"/>
<path d="M405.656 229.654L382.147 211.147L356.637 243.159L382.147 263.167L405.656 233.156C406.656 232.155 406.656 230.655 405.656 229.654Z" fill="#F395B3"/>
<path d="M413.659 270.17L421.662 260.166C424.663 256.665 429.665 256.164 433.167 258.665L444.171 267.169C447.172 269.67 447.672 273.671 445.171 276.672L430.666 294.179L415.16 282.174C410.658 279.173 410.158 274.171 413.659 270.17Z" fill="#F1C78A"/>
<path d="M426.164 288.177L428.665 285.176C429.665 284.175 431.166 284.175 432.166 284.675L442.17 291.678C443.17 292.178 443.17 293.679 442.17 294.679L439.669 297.68C438.669 298.681 437.168 298.681 436.168 298.181L426.164 291.178C425.163 290.678 425.163 289.177 426.164 288.177Z" fill="#F1C78A"/>
<path d="M432.666 281.174L435.167 278.173C436.168 277.172 437.668 277.172 438.669 277.673L448.672 284.675C449.673 285.176 449.673 286.676 448.672 287.676L446.172 290.678C445.171 291.678 443.671 291.678 442.67 291.178L432.666 284.175C432.166 283.675 431.666 282.174 432.666 281.174Z" fill="#F1C78A"/>
<path d="M439.169 273.671L441.67 270.67C442.67 269.67 444.171 269.67 445.171 270.17L455.175 277.172C456.175 277.673 456.175 279.173 455.175 280.174L452.674 283.675C451.674 284.675 450.173 284.675 449.173 284.175L439.169 277.172C438.168 276.172 438.168 274.671 439.169 273.671Z" fill="#F1C78A"/>
<path d="M420.662 275.172L424.663 276.172C426.164 276.672 426.664 277.673 426.664 279.173L422.162 292.178C421.662 293.679 420.162 294.179 418.661 293.679L414.659 292.678C413.159 292.178 412.659 291.178 412.659 289.677L417.16 276.672C417.661 275.672 419.161 274.671 420.662 275.172Z" fill="#F1C78A"/>
<path d="M326.125 356.203L333.128 328.692L302.616 319.189L295.113 346.699L289.111 369.208L288.611 373.71C288.111 376.211 289.111 378.712 291.612 379.212L341.131 394.718C343.132 395.218 344.633 394.218 345.133 392.217L351.635 367.707C352.135 365.707 351.135 364.206 349.134 363.206L326.125 356.203Z" fill="#F1C78A"/>
<path d="M350.635 405.722L360.639 368.708C361.139 367.207 360.138 365.707 359.138 365.707L341.131 360.204L331.127 396.218C330.127 400.72 332.128 405.222 335.629 406.222L345.133 409.223C347.634 409.723 350.135 408.223 350.635 405.722Z" fill="#FFFAF5"/>
<path d="M210.081 348.7H377.645C380.646 348.7 383.147 346.199 383.147 343.198V284.175H204.579V343.698C204.579 346.199 207.08 348.7 210.081 348.7Z" fill="#F0655C"/>
<path d="M388.149 55.0871L362.139 53.5865C360.139 53.5865 358.638 51.5857 358.638 49.585L360.639 23.575C361.639 9.56957 373.644 -0.934469 387.649 0.0659156L413.159 2.06669C415.16 2.06669 416.66 4.06745 416.66 6.06822L414.659 32.0782C414.159 45.5834 402.155 56.0875 388.149 55.0871Z" fill="#B16355"/>
<path d="M77.5298 293.679L64.0246 296.68C62.524 297.18 61.0234 296.18 61.0234 294.679L57.5221 279.673C56.5217 275.172 59.5228 270.17 64.0246 269.169L69.5267 267.669C70.5271 267.669 71.5275 268.169 72.0276 269.169L77.5298 293.679Z" fill="#94CBD4"/>
<path d="M101.039 308.685H42.5163C41.0158 308.685 40.0154 307.684 40.0154 306.184V283.175C40.0154 281.674 41.0158 280.674 42.5163 280.674H84.5325C95.0365 280.674 104.04 289.177 104.04 300.181V306.184C103.54 307.184 102.539 308.685 101.039 308.685Z" fill="#FFFAF5"/>
<path d="M106.041 308.685H95.5367V297.18H104.04C107.041 297.18 109.042 299.181 109.042 302.182V306.184C108.542 307.184 107.541 308.685 106.041 308.685Z" fill="#FFFAF5"/>
<path d="M64.5249 293.679L74.0285 300.681C75.0289 301.682 75.5291 303.182 74.5287 304.183L65.5253 317.188C63.0243 321.189 57.5222 322.19 53.5206 319.189L49.0189 316.187C48.0185 315.687 48.0185 314.187 48.5187 313.686L62.0239 294.179C63.0243 293.179 64.0247 293.179 64.5249 293.679Z" fill="#94CBD4"/>
<path d="M32.5125 308.685H44.5171L49.0189 307.684L39.5152 268.669C39.015 265.668 36.0139 264.167 33.5129 264.668L27.5106 266.168C24.5094 266.668 23.0089 269.67 23.5091 272.171L32.0123 307.684C32.0123 308.184 32.5125 308.184 32.5125 308.685Z" fill="#FFFAF5"/>
<path d="M95.5367 290.678H92.5356C92.0354 290.678 91.5352 290.178 91.5352 289.677V287.677C91.5352 287.176 92.0354 286.676 92.5356 286.676H95.5367C96.0369 286.676 96.5371 287.176 96.5371 287.677V289.677C96.5371 290.678 96.0369 290.678 95.5367 290.678Z" fill="#040404"/>
<path d="M9.00346 337.696H6.5025C3.00115 337.696 0 334.695 0 331.193V328.692C0 325.191 3.00115 322.19 6.5025 322.19H9.00346C12.5048 322.19 15.506 325.191 15.506 328.692V331.193C15.506 334.695 12.5048 337.696 9.00346 337.696Z" fill="#BCD7EC"/>
<path d="M21.0081 337.696H18.5071C15.0058 337.696 12.0046 334.695 12.0046 331.193V328.692C12.0046 325.191 15.0058 322.19 18.5071 322.19H21.0081C24.5094 322.19 27.5106 325.191 27.5106 328.692V331.193C27.5106 334.695 24.5094 337.696 21.0081 337.696Z" fill="#BCD7EC"/>
<path d="M33.5129 337.696H31.0119C27.5106 337.696 24.5094 334.695 24.5094 331.193V328.692C24.5094 325.191 27.5106 322.19 31.0119 322.19H33.5129C37.0142 322.19 40.0154 325.191 40.0154 328.692V331.193C40.0154 334.695 37.0142 337.696 33.5129 337.696Z" fill="#BCD7EC"/>
<path d="M136.553 152.124H133.051C128.049 152.124 124.048 148.123 124.048 143.121V139.119C124.048 134.117 128.049 130.116 133.051 130.116H137.053C142.055 130.116 146.056 134.117 146.056 139.119V143.121C145.556 148.123 141.554 152.124 136.553 152.124Z" fill="#FFDE84"/>
<path d="M138.053 140.12C138.606 140.12 139.053 139.672 139.053 139.119C139.053 138.567 138.606 138.119 138.053 138.119C137.501 138.119 137.053 138.567 137.053 139.119C137.053 139.672 137.501 140.12 138.053 140.12Z" fill="#040404"/>
<path d="M131.05 140.12C131.603 140.12 132.051 139.672 132.051 139.119C132.051 138.567 131.603 138.119 131.05 138.119C130.498 138.119 130.05 138.567 130.05 139.119C130.05 139.672 130.498 140.12 131.05 140.12Z" fill="#040404"/>
<path d="M473.182 207.646H467.68C466.679 207.646 465.679 206.645 465.679 205.645V200.143C465.679 199.142 466.679 198.142 467.68 198.142H473.182C474.182 198.142 475.183 199.142 475.183 200.143V205.645C475.183 206.645 474.182 207.646 473.182 207.646Z" stroke="#201816" stroke-width="0.8794" stroke-miterlimit="10"/>
<path d="M473.682 242.659H467.18C458.176 242.659 451.173 235.657 451.173 226.653V220.151C451.173 211.147 458.176 204.144 467.18 204.144H473.682C482.686 204.144 489.688 211.147 489.688 220.151V226.653C489.188 235.657 482.185 242.659 473.682 242.659Z" fill="#4483C1"/>
<path d="M471.681 216.149L473.182 219.15C473.182 219.65 473.682 219.65 474.182 220.151L476.683 221.651C478.184 222.652 478.184 224.652 476.683 225.653L474.182 227.153C473.682 227.153 473.682 227.653 473.182 228.154L471.681 231.155C471.181 232.655 469.18 232.655 468.18 231.155L466.679 228.154C466.679 227.653 466.179 227.653 465.679 227.153L463.178 225.653C461.678 224.652 461.678 222.652 463.178 221.651L465.679 220.151C466.179 220.151 466.179 219.65 466.679 219.15L468.18 216.149C469.18 214.148 471.181 214.148 471.681 216.149Z" fill="#F0655C"/>
<path d="M461.678 138.119L442.17 132.617V87.5996L461.678 96.6031V138.119Z" fill="#F9F2E6"/>
<path d="M479.684 91.1009L461.678 96.1029V138.119L480.685 130.116C481.185 130.116 481.185 129.616 481.185 129.116V92.1013C480.685 91.6011 480.185 91.1009 479.684 91.1009Z" fill="#EFDBBF"/>
<path d="M442.17 87.5996L424.163 93.6019C423.663 93.6019 423.163 94.6023 423.163 95.1025V139.62C423.163 141.12 424.663 141.62 425.664 141.12L442.67 132.617V87.5996H442.17Z" fill="#EFEBE6"/>
<path d="M62.0239 188.638V193.14" stroke="#201816" stroke-width="0.7873" stroke-linecap="round" stroke-linejoin="round"/>
<path d="M62.0239 193.14V198.142" stroke="#201816" stroke-width="0.7873" stroke-linecap="round" stroke-linejoin="round"/>
<path d="M62.0239 203.144V241.659" stroke="#201816" stroke-width="0.7873" stroke-linecap="round" stroke-linejoin="round" stroke-dasharray="1.93 1.93"/>
<path d="M62.0239 241.659V246.661" stroke="#201816" stroke-width="0.7873" stroke-linecap="round" stroke-linejoin="round"/>
<path d="M120.546 179.635H115.544" stroke="#201816" stroke-width="0.7873" stroke-linecap="round" stroke-linejoin="round"/>
<path d="M115.544 179.635H111.043" stroke="#201816" stroke-width="0.7873" stroke-linecap="round" stroke-linejoin="round"/>
<path d="M106.041 179.635H67.526" stroke="#201816" stroke-width="0.7873" stroke-linecap="round" stroke-linejoin="round" stroke-dasharray="1.93 1.93"/>
<path d="M67.526 179.635H62.524" stroke="#201816" stroke-width="0.7873" stroke-linecap="round" stroke-linejoin="round"/>
<path d="M415.16 404.722C424.163 412.725 438.669 413.225 451.173 406.222C467.68 397.219 479.684 376.211 477.184 358.204" stroke="#201816" stroke-width="0.7534" stroke-miterlimit="10" stroke-dasharray="1.61 1.61"/>
</svg>
