<svg xmlns="http://www.w3.org/2000/svg" width="151" height="151" viewBox="0 0 151 151" fill="none">
  <path d="M19.4318 0.613525H5.73438H1.42511C0.809494 0.613525 0.347778 1.12141 0.347778 1.79859V6.53879V21.6059C0.347778 22.2831 0.809494 22.791 1.42511 22.791H5.73438C6.34999 22.791 6.81171 22.2831 6.81171 21.6059V7.72385H19.4318C20.0474 7.72385 20.5091 7.21597 20.5091 6.53879V1.79859C20.5091 1.20606 19.9704 0.613525 19.4318 0.613525Z" fill="#F5F5F5"/>
  <path d="M132.027 0.613525H145.177H149.314C149.905 0.613525 150.348 1.12141 150.348 1.79859V6.53879V21.6059C150.348 22.2831 149.905 22.791 149.314 22.791H145.177C144.586 22.791 144.142 22.2831 144.142 21.6059V7.72385H132.027C131.436 7.72385 130.993 7.21597 130.993 6.53879V1.79859C130.993 1.20606 131.51 0.613525 132.027 0.613525Z" fill="#F5F5F5"/>
  <path d="M19.4318 150.613H5.73438H1.42511C0.809494 150.613 0.347778 150.106 0.347778 149.428V144.688V129.621C0.347778 128.944 0.809494 128.436 1.42511 128.436H5.73438C6.34999 128.436 6.81171 128.944 6.81171 129.621V143.418H19.4318C20.0474 143.418 20.5091 143.926 20.5091 144.604V149.344C20.5091 150.021 19.9704 150.613 19.4318 150.613Z" fill="#F5F5F5"/>
  <path d="M132.027 150.613H145.177H149.314C149.905 150.613 150.348 150.106 150.348 149.428V144.688V129.621C150.348 128.944 149.905 128.436 149.314 128.436H145.177C144.586 128.436 144.142 128.944 144.142 129.621V143.418H132.027C131.436 143.418 130.993 143.926 130.993 144.604V149.344C130.993 150.021 131.51 150.613 132.027 150.613Z" fill="#F5F5F5"/>
</svg>
