<svg width="200" height="200" viewBox="0 0 200 200" fill="none" xmlns="http://www.w3.org/2000/svg">
<path d="M148.8 92H122.8V141.4H151.2C162.8 141.4 172.4 132 172.4 120.2V115.4C172.4 102.4 161.8 92 148.8 92ZM159.8 120.8C159.8 125.2 155.8 128.8 150.6 128.8H131V103.8H150.6C155.6 103.8 159.8 107.4 159.8 111.8V120.8Z" fill="#BE5F78"/>
<path d="M108.4 54.4004H88.8001C67.2001 54.4004 49.6001 72.0004 49.6001 93.6004V94.4004H147.6V93.6004C147.6 71.8004 130 54.4004 108.4 54.4004Z" fill="#DD5B53"/>
<path d="M100.4 58.6002H96.8001C94.4001 58.6002 92.4001 56.6002 92.4001 54.2002V50.6002C92.4001 48.2002 94.4001 46.2002 96.8001 46.2002H100.4C102.8 46.2002 104.8 48.2002 104.8 50.6002V54.2002C104.8 56.6002 102.8 58.6002 100.4 58.6002Z" fill="#DD5B53"/>
<path d="M47.6 125.8L26.4 108.8C26 108.2 25.8 107.6 25.8 107V97.0002C25.8 95.4002 27 94.2002 28.6 94.2002H57.8L47.6 125.8Z" fill="#BE5F78"/>
<path d="M29.2001 106.4C28.2001 106.4 27.4001 105.6 27.4001 104.6V98.2004C27.4001 97.2004 28.2001 96.4004 29.2001 96.4004C30.2001 96.4004 31.0001 97.2004 31.0001 98.2004V104.6C31.0001 105.6 30.2001 106.4 29.2001 106.4Z" fill="#B4D692"/>
<path d="M121.2 154.2H75.8001C60.2001 154.2 47.6001 141.6 47.6001 126V91.2002H149.6V125.8C149.6 141.4 136.8 154.2 121.2 154.2Z" fill="#BE5F78"/>
</svg>
