<svg width="390" height="844" viewBox="0 0 390 844" fill="none" xmlns="http://www.w3.org/2000/svg">
<g id="1.11 mobile_Guide_end" clip-path="url(#clip0_7896_467)">
<rect width="390" height="844" fill="#EFEBE6"/>
<line id="Line 1" opacity="0.3" y1="109.5" x2="390" y2="109.5" stroke="#99756A"/>
<g id="img_tea abe">
<g id="Group">
<g id="Group_2">
<g id="Group_3">
<g id="Group_4">
<path id="Vector" d="M209.7 50.4L210.4 52.25C210.55 52.7 210.35 53.15 209.9 53.3L203.45 55.65C203 55.8 202.55 55.6 202.4 55.15L201.7 53.3C201.55 52.85 201.75 52.4 202.2 52.25L208.65 49.9C209.1 49.7 209.55 49.95 209.7 50.4Z" fill="#F1C78A"/>
<path id="Vector_2" d="M207.9 53.0001L207.35 51.4501C207.15 50.9001 207.45 50.3001 207.95 50.1001L209.6 49.4501C210.05 49.3001 210.55 49.5001 210.7 50.0001L211.65 52.7501L209.25 53.6501C208.7 53.9001 208.1 53.5501 207.9 53.0001Z" fill="#F1C78A"/>
<path id="Vector_3" d="M210.7 52.8L210.55 52.3C210.5 52.15 210.6 51.95 210.7 51.9L212.15 51.3C212.3 51.25 212.45 51.3 212.5 51.5L212.65 52C212.7 52.15 212.6 52.35 212.5 52.4L211.05 53C210.9 53.05 210.75 52.95 210.7 52.8Z" fill="#F1C78A"/>
<path id="Vector_4" d="M210.35 51.6001L210.2 51.1001C210.15 50.9501 210.25 50.7501 210.35 50.7001L211.8 50.1001C211.95 50.0501 212.1 50.1001 212.15 50.3001L212.3 50.8001C212.35 50.9501 212.25 51.1501 212.15 51.2001L210.7 51.8001C210.55 51.8501 210.4 51.7501 210.35 51.6001Z" fill="#F1C78A"/>
<path id="Vector_5" d="M210 50.4001L209.85 49.9001C209.8 49.7501 209.9 49.5501 210 49.5001L211.45 48.9001C211.6 48.8501 211.75 48.9001 211.8 49.1001L211.95 49.6001C212 49.7501 211.9 49.9501 211.8 50.0001L210.35 50.6001C210.2 50.6501 210.05 50.5501 210 50.4001Z" fill="#F1C78A"/>
</g>
<path id="Vector_6" d="M202.65 56.45L201.2 52.45C201.15 52.25 201.25 52.05 201.4 52L204.55 50.85C204.65 50.8 204.8 50.85 204.85 51L206.25 54.85C206.3 54.95 206.25 55.1 206.1 55.1501L202.65 56.45Z" fill="white"/>
<path id="Vector_7" d="M181.65 58.65L179.35 57.45C179.05 57.3 178.95 56.95 179.1 56.65L181.8 51.45C181.9 51.3 182.1 51.2 182.3 51.3L184.8 52.6C184.95 52.7 185.05 52.9 184.95 53.1L182.1 58.5C182 58.7 181.8 58.75 181.65 58.65Z" fill="#F1C78A"/>
<path id="Vector_8" d="M182.45 56.6501L179.65 54.3501C179.5 54.2501 179.5 54.0501 179.6 53.9001L181.9 51.1001L184.95 53.6001L182.45 56.6501Z" fill="white"/>
<path id="Vector_9" d="M184.1 67.1501H200.4C201.7 67.1501 202.7 66.1 202.7 64.85V51.05H181.8V64.85C181.8 66.1 182.85 67.1501 184.1 67.1501Z" fill="white"/>
<path id="Vector_10" d="M181.8 51.25H202.75V39.7C202.75 34.75 198.75 30.75 193.8 30.75H190.7C185.8 30.75 181.8 34.75 181.8 39.65V51.25Z" fill="#F1C78A"/>
<path id="Vector_11" d="M195.2 41.4501C195.642 41.4501 196 41.0919 196 40.6501C196 40.2083 195.642 39.8501 195.2 39.8501C194.758 39.8501 194.4 40.2083 194.4 40.6501C194.4 41.0919 194.758 41.4501 195.2 41.4501Z" fill="#040404"/>
<path id="Vector_12" d="M189.35 41.4501C189.792 41.4501 190.15 41.0919 190.15 40.6501C190.15 40.2083 189.792 39.8501 189.35 39.8501C188.908 39.8501 188.55 40.2083 188.55 40.6501C188.55 41.0919 188.908 41.4501 189.35 41.4501Z" fill="#040404"/>
<path id="Vector_13" d="M205.55 36.2501L199.7 31.7001C199.6 31.6501 199.55 31.5501 199.5 31.4501L196.75 26.2001C196.55 25.8501 196.3 25.5001 196 25.2001C195.05 24.3501 193.85 23.8001 192.65 23.6501V23.6001C191.4 23.7501 190.25 24.2501 189.25 25.1501C188.95 25.4001 188.7 25.7501 188.5 26.1001L185.75 31.3501C185.7 31.4501 185.6 31.5501 185.55 31.6001L179.7 36.1501C179.55 36.2501 179.45 36.4001 179.45 36.5501C179.3 37.0501 179.65 37.6001 180.2 37.6001H192.6H205.05C205.6 37.6001 205.95 37.0501 205.8 36.5501C205.8 36.5001 205.7 36.3501 205.55 36.2501Z" fill="#C9AD95"/>
<path id="Vector_14" d="M193.95 41.5H191.4C191.3 41.5 191.25 41.55 191.25 41.65V41.75C191.25 42.35 191.75 42.8 192.3 42.8H193.05C193.65 42.8 194.1 42.3 194.1 41.75V41.65C194.1 41.55 194.05 41.5 193.95 41.5Z" fill="#DD5B53"/>
<g id="Group_5">
<g id="Group_6">
<path id="Vector_15" d="M190.5 41.35C190 41.8 189.9 42.55 190.15 43.15C190.2 43.25 190.3 43.25 190.4 43.2C190.5 43.15 190.5 43.05 190.45 42.95C190.25 42.5 190.35 41.9 190.75 41.55C190.9 41.45 190.65 41.2 190.5 41.35Z" fill="black"/>
</g>
</g>
<path id="Vector_16" d="M182.55 64.6501H202C202.4 64.6501 202.75 64.3001 202.75 63.9001V54.3H181.8V63.9501C181.8 64.35 182.15 64.6501 182.55 64.6501Z" fill="#85997B"/>
<path id="Vector_17" d="M184.3 51.25H181.8V55.45H184.3V51.25Z" fill="#85997B"/>
<path id="Vector_18" d="M202.75 51.25H200.25V55.45H202.75V51.25Z" fill="#85997B"/>
<path id="Vector_19" d="M215.4 59.1501C215.35 58.9501 215.2 58.8501 215 58.8501H195.25H194.45H174.65C174.45 58.8501 174.3 58.9501 174.25 59.1501L171.5 69.9501C171.45 70.2001 171.65 70.4501 171.9 70.4501H194.45H195.25H217.8C218.05 70.4501 218.25 70.2001 218.2 69.9501L215.4 59.1501Z" fill="#C58867"/>
<g id="Group_7">
<path id="Vector_20" d="M194.05 65.8H191.25V66.2001C191.25 66.3001 191.35 66.4001 191.45 66.4001H193.85C193.95 66.4001 194.05 66.3001 194.05 66.2001V65.8Z" fill="#BE5F78"/>
<g id="Group_8">
<path id="Vector_21" d="M193.7 66.1002L191.55 66.0502C190.8 66.0502 190.25 65.4502 190.25 64.7002L190.3 62.0502C190.3 61.8502 190.45 61.7002 190.65 61.7502L194.8 61.8502C195 61.8502 195.15 62.0002 195.1 62.2002L195.05 64.8502C195 65.5002 194.4 66.1002 193.7 66.1002Z" fill="#F17674"/>
<path id="Vector_22" d="M194.45 62.4501L190.9 62.3501C190.75 62.3501 190.65 62.2001 190.65 62.1001C190.65 61.9501 190.8 61.8501 190.9 61.8501L194.45 61.9501C194.6 61.9501 194.7 62.1001 194.7 62.2001C194.75 62.3501 194.6 62.4501 194.45 62.4501Z" fill="#B4D692"/>
</g>
</g>
<g id="Group_9">
<path id="Vector_23" d="M208.65 58.8501H206.05V63.8001H208.9C210.05 63.8001 211 62.8501 211 61.7001V61.2001C211 59.9001 209.95 58.8501 208.65 58.8501ZM209.75 61.7501C209.75 62.2001 209.35 62.5501 208.85 62.5501H206.9V60.0501H208.85C209.35 60.0501 209.75 60.4001 209.75 60.8501V61.7501Z" fill="#BE5F78"/>
<g id="Group_10">
<path id="Vector_24" d="M204.65 55.1001H202.7C200.55 55.1001 198.8 56.8501 198.8 59.0001V59.1001H208.6V59.0001C208.55 56.8501 206.8 55.1001 204.65 55.1001Z" fill="#F17674"/>
<path id="Vector_25" d="M203.8 55.5H203.45C203.2 55.5 203 55.3 203 55.05V54.7C203 54.45 203.2 54.25 203.45 54.25H203.8C204.05 54.25 204.25 54.45 204.25 54.7V55.05C204.25 55.3 204.05 55.5 203.8 55.5Z" fill="#F17674"/>
</g>
<path id="Vector_26" d="M198.55 62.25L196.4 60.5C196.35 60.45 196.35 60.4 196.35 60.3V59.3C196.35 59.15 196.45 59 196.65 59H199.6L198.55 62.25Z" fill="#BE5F78"/>
<path id="Vector_27" d="M196.7 60.3001C196.6 60.3001 196.55 60.2001 196.55 60.1501V59.5001C196.55 59.4001 196.65 59.3501 196.7 59.3501C196.8 59.3501 196.85 59.4501 196.85 59.5001V60.1501C196.9 60.2001 196.8 60.3001 196.7 60.3001Z" fill="#B4D692"/>
<path id="Vector_28" d="M205.9 65.05H201.35C199.8 65.05 198.5 63.8 198.5 62.2V58.75H208.7V62.2C208.75 63.8 207.45 65.05 205.9 65.05Z" fill="#BE5F78"/>
</g>
<g id="Group_11">
<path id="Vector_29" d="M213.7 50.8L211 51.5L211.1 51.9C211.15 52 211.25 52.1 211.35 52.05L213.65 51.4501C213.75 51.4001 213.85 51.3001 213.8 51.2001L213.7 50.8Z" fill="#BE5F78"/>
<g id="Group_12">
<path id="Vector_30" d="M213.4 51.2L211.3 51.7C210.6 51.85 209.85 51.45 209.7 50.7L209.1 48.1C209.05 47.9 209.15 47.75 209.35 47.7L213.4 46.75C213.6 46.7 213.75 46.8 213.8 47L214.4 49.6C214.55 50.3 214.1 51 213.4 51.2Z" fill="#F17674"/>
<path id="Vector_31" d="M213.2 47.5001L209.75 48.3001C209.6 48.3501 209.45 48.2501 209.45 48.1001C209.4 47.9501 209.5 47.8001 209.65 47.8001L213.1 47.0001C213.25 46.9501 213.4 47.0501 213.4 47.2001C213.45 47.3001 213.35 47.4501 213.2 47.5001Z" fill="#B4D692"/>
</g>
</g>
<path id="Vector_32" d="M208.9 51.2502L208.75 50.7502C208.7 50.6002 208.8 50.4002 208.9 50.3502L210.35 49.7502C210.5 49.7002 210.65 49.7502 210.7 49.9502L210.85 50.4502C210.9 50.6002 210.8 50.8002 210.7 50.8502L209.25 51.4502C209.1 51.5002 208.95 51.4002 208.9 51.2502Z" fill="#F1C78A"/>
<path id="Vector_33" d="M188.5 53.95L189.1 53.8L188.75 52.4C188.6 51.75 187.9 51.35 187.2 51.5L186.6 51.65L186.95 53.05C187.1 53.7 187.8 54.1 188.5 53.95Z" fill="#B0BA75"/>
<path id="Vector_34" d="M188.45 53.7001L188 53.3001L189 52.3001C189.5 51.8501 190.3 51.8501 190.8 52.3001L191.25 52.7001L190.25 53.7001C189.75 54.2001 188.95 54.2001 188.45 53.7001Z" fill="#B0BA75"/>
<path id="Vector_35" d="M186.3 54.9502L185.9 54.6502C185.75 54.5502 185.7 54.3502 185.8 54.2502L186.55 52.9002C186.65 52.7502 186.8 52.7502 186.95 52.8002L187.35 53.1002C187.5 53.2002 187.55 53.4002 187.45 53.5002L186.7 54.8502C186.65 55.0002 186.45 55.0502 186.3 54.9502Z" fill="#F1C78A"/>
<g id="Group_13">
<path id="Vector_36" d="M187.05 54.5502L187.75 56.4002C187.9 56.8502 187.7 57.3002 187.25 57.4502L180.8 59.8002C180.35 59.9502 179.9 59.7502 179.75 59.3002L179 57.5002C178.85 57.0502 179.05 56.6002 179.5 56.4502L185.95 54.1002C186.4 53.9002 186.9 54.1502 187.05 54.5502Z" fill="#F1C78A"/>
<path id="Vector_37" d="M185.2 57.15L184.65 55.6C184.45 55.05 184.75 54.45 185.25 54.25L186.9 53.6C187.35 53.45 187.85 53.65 188 54.15L188.95 56.9L186.55 57.8C186 58.05 185.4 57.75 185.2 57.15Z" fill="#F1C78A"/>
<path id="Vector_38" d="M188 57L187.85 56.5C187.8 56.35 187.9 56.15 188 56.1L189.45 55.5C189.6 55.45 189.75 55.5 189.8 55.7L189.95 56.2C190 56.35 189.9 56.55 189.8 56.6L188.35 57.2C188.2 57.2 188.05 57.15 188 57Z" fill="#F1C78A"/>
<path id="Vector_39" d="M187.65 55.75L187.5 55.25C187.45 55.1 187.55 54.9 187.65 54.85L189.1 54.25C189.25 54.2 189.4 54.25 189.45 54.45L189.6 54.95C189.65 55.1 189.55 55.3 189.45 55.35L188 55.95C187.9 56 187.7 55.95 187.65 55.75Z" fill="#F1C78A"/>
<path id="Vector_40" d="M187.3 54.6001L187.15 54.1001C187.1 53.9501 187.2 53.7501 187.3 53.7001L188.75 53.1001C188.9 53.0501 189.05 53.1001 189.1 53.3001L189.25 53.8001C189.3 53.9501 189.2 54.1501 189.1 54.2001L187.65 54.8001C187.5 54.8001 187.35 54.7501 187.3 54.6001Z" fill="#F1C78A"/>
</g>
<g id="Group_14">
<path id="Vector_41" d="M185.75 63.7501C185.8 63.8501 185.7 63.9501 185.6 64.0001L180.35 65.4001C180.25 65.4501 180.15 65.3501 180.1 65.2501C180.05 65.1501 180.15 65.0501 180.25 65.0001L185.5 63.6001C185.65 63.6001 185.75 63.6501 185.75 63.7501Z" fill="#FAC749"/>
<path id="Vector_42" d="M187.5 63.1002L187.6 63.4502C187.7 63.8502 187.45 64.2502 187.1 64.3502L186.45 64.5502C186.05 64.6502 185.65 64.4002 185.55 64.0502L185.45 63.7002C185.35 63.3002 185.6 62.9002 185.95 62.8002L186.6 62.6002C187 62.5002 187.4 62.7002 187.5 63.1002Z" fill="#FAC749"/>
</g>
</g>
</g>
</g>
</g>
<path id="&#232;&#140;&#182;&#232;&#190;&#178;&#233;&#152;&#191;&#228;&#188;&#175;" d="M169.884 89.632H178.816V90.612H169.884V89.632ZM173.762 87.966H174.826V95.134H173.762V87.966ZM171.102 91.368L172.18 91.676C171.825 92.2733 171.377 92.8473 170.836 93.398C170.295 93.9393 169.753 94.392 169.212 94.756C169.147 94.6907 169.058 94.6113 168.946 94.518C168.843 94.4247 168.736 94.336 168.624 94.252C168.512 94.168 168.414 94.1027 168.33 94.056C168.871 93.7293 169.389 93.328 169.884 92.852C170.388 92.376 170.794 91.8813 171.102 91.368ZM176.324 91.886L177.164 91.312C177.519 91.5733 177.887 91.872 178.27 92.208C178.662 92.5347 179.026 92.8613 179.362 93.188C179.698 93.5053 179.969 93.7947 180.174 94.056L179.278 94.7C179.091 94.4293 178.83 94.1307 178.494 93.804C178.167 93.468 177.813 93.132 177.43 92.796C177.057 92.46 176.688 92.1567 176.324 91.886ZM174.308 86.09C173.925 86.5753 173.421 87.0653 172.796 87.56C172.171 88.0547 171.475 88.5167 170.71 88.946C169.954 89.3753 169.179 89.7487 168.386 90.066C168.33 89.9353 168.246 89.786 168.134 89.618C168.031 89.4407 167.929 89.296 167.826 89.184C168.647 88.8853 169.431 88.526 170.178 88.106C170.934 87.6767 171.615 87.21 172.222 86.706C172.838 86.1927 173.337 85.6793 173.72 85.166H174.784C175.297 85.754 175.89 86.3 176.562 86.804C177.243 87.2987 177.962 87.7373 178.718 88.12C179.474 88.4933 180.221 88.792 180.958 89.016C180.837 89.1373 180.72 89.2913 180.608 89.478C180.505 89.6553 180.417 89.814 180.342 89.954C179.81 89.758 179.259 89.52 178.69 89.24C178.13 88.96 177.579 88.652 177.038 88.316C176.497 87.98 175.988 87.6253 175.512 87.252C175.045 86.8693 174.644 86.482 174.308 86.09ZM168.218 83.458H180.524V84.424H168.218V83.458ZM171.256 82.24H172.292V85.922H171.256V82.24ZM176.296 82.24H177.346V85.922H176.296V82.24ZM184.474 85.516V86.44H192.594V85.516H184.474ZM184.474 83.934V84.844H192.594V83.934H184.474ZM183.508 83.206H193.602V87.168H183.508V83.206ZM186.434 82.24H187.456V86.902H186.434V82.24ZM189.514 82.24H190.536V86.902H189.514V82.24ZM183.914 87.854H194.372V88.652H183.914V87.854ZM183.382 87.854H184.39V89.66C184.39 90.0613 184.367 90.5 184.32 90.976C184.283 91.452 184.213 91.9373 184.11 92.432C184.007 92.9173 183.858 93.3933 183.662 93.86C183.466 94.3267 183.214 94.756 182.906 95.148C182.841 95.092 182.752 95.0267 182.64 94.952C182.537 94.8867 182.43 94.8213 182.318 94.756C182.206 94.6907 182.108 94.644 182.024 94.616C182.416 94.112 182.71 93.566 182.906 92.978C183.102 92.39 183.228 91.8067 183.284 91.228C183.349 90.6493 183.382 90.122 183.382 89.646V87.854ZM185.174 89.38H193.154V90.122H185.174V89.38ZM183.788 90.878H194.708V91.662H183.788V90.878ZM185.608 91.102H186.63V94.308L185.608 94.392V91.102ZM184.376 94.042C185.039 93.9673 185.837 93.874 186.77 93.762C187.703 93.6407 188.66 93.5193 189.64 93.398L189.668 94.266C188.744 94.3873 187.825 94.504 186.91 94.616C186.005 94.7373 185.202 94.8447 184.502 94.938L184.376 94.042ZM193.168 91.634L193.91 92.264C193.602 92.4133 193.266 92.5627 192.902 92.712C192.547 92.8613 192.193 93.0013 191.838 93.132C191.493 93.2627 191.166 93.3747 190.858 93.468L190.326 92.964C190.625 92.852 190.947 92.7213 191.292 92.572C191.647 92.4133 191.987 92.25 192.314 92.082C192.65 91.914 192.935 91.7647 193.168 91.634ZM188.87 91.102C189.159 91.69 189.584 92.1987 190.144 92.628C190.704 93.0573 191.381 93.4027 192.174 93.664C192.977 93.9253 193.877 94.1027 194.876 94.196C194.801 94.2707 194.722 94.3593 194.638 94.462C194.563 94.574 194.493 94.686 194.428 94.798C194.363 94.9193 194.307 95.0267 194.26 95.12C193.205 94.98 192.267 94.7513 191.446 94.434C190.634 94.1167 189.934 93.6967 189.346 93.174C188.767 92.6513 188.315 92.0353 187.988 91.326L188.87 91.102ZM200.884 83.192H209.032V84.186H200.884V83.192ZM206.82 83.682H207.828V93.804C207.828 94.1587 207.772 94.42 207.66 94.588C207.557 94.756 207.38 94.8773 207.128 94.952C206.885 95.0267 206.54 95.0733 206.092 95.092C205.644 95.1107 205.056 95.1153 204.328 95.106C204.3 94.9753 204.253 94.8167 204.188 94.63C204.123 94.4527 204.053 94.294 203.978 94.154C204.351 94.1633 204.701 94.1727 205.028 94.182C205.364 94.1913 205.653 94.1913 205.896 94.182C206.148 94.182 206.321 94.1773 206.414 94.168C206.573 94.168 206.68 94.14 206.736 94.084C206.792 94.0373 206.82 93.944 206.82 93.804V83.682ZM201.836 86.16H205.322V91.242H201.836V90.332H204.384V87.084H201.836V86.16ZM201.36 86.16H202.27V92.306H201.36V86.16ZM196.684 82.842H199.932V83.794H197.622V95.12H196.684V82.842ZM199.694 82.842H199.862L200.03 82.8L200.702 83.206C200.506 83.7753 200.282 84.3867 200.03 85.04C199.787 85.684 199.549 86.286 199.316 86.846C199.829 87.434 200.165 87.98 200.324 88.484C200.483 88.988 200.562 89.464 200.562 89.912C200.562 90.2853 200.52 90.6167 200.436 90.906C200.352 91.186 200.212 91.4007 200.016 91.55C199.913 91.6153 199.801 91.6713 199.68 91.718C199.559 91.7553 199.428 91.7833 199.288 91.802C199.148 91.8207 198.994 91.83 198.826 91.83C198.667 91.83 198.504 91.83 198.336 91.83C198.336 91.6993 198.313 91.5453 198.266 91.368C198.219 91.1907 198.159 91.032 198.084 90.892C198.243 90.9013 198.387 90.9107 198.518 90.92C198.658 90.92 198.784 90.9153 198.896 90.906C199.073 90.8967 199.218 90.8593 199.33 90.794C199.442 90.71 199.517 90.5793 199.554 90.402C199.601 90.2247 199.624 90.0287 199.624 89.814C199.624 89.422 199.54 88.988 199.372 88.512C199.204 88.036 198.868 87.518 198.364 86.958C198.495 86.6407 198.621 86.3093 198.742 85.964C198.873 85.6187 198.994 85.2733 199.106 84.928C199.227 84.5827 199.335 84.256 199.428 83.948C199.531 83.64 199.619 83.3693 199.694 83.136V82.842ZM214.774 84.788H221.998V95.008H220.906V85.782H215.81V95.092H214.774V84.788ZM217.812 82.226L219.03 82.45C218.909 82.7953 218.778 83.1547 218.638 83.528C218.498 83.892 218.358 84.242 218.218 84.578C218.087 84.914 217.961 85.208 217.84 85.46L216.874 85.236C216.995 84.9653 217.112 84.6573 217.224 84.312C217.345 83.9573 217.457 83.598 217.56 83.234C217.663 82.8607 217.747 82.5247 217.812 82.226ZM215.236 89.03H221.424V90.052H215.236V89.03ZM215.236 93.398H221.424V94.434H215.236V93.398ZM213.528 82.282L214.536 82.52C214.256 83.4067 213.925 84.2653 213.542 85.096C213.159 85.9267 212.735 86.7013 212.268 87.42C211.811 88.1387 211.311 88.7733 210.77 89.324C210.733 89.2493 210.672 89.156 210.588 89.044C210.513 88.9227 210.434 88.8013 210.35 88.68C210.266 88.5587 210.187 88.4653 210.112 88.4C210.859 87.672 211.526 86.7713 212.114 85.698C212.702 84.6153 213.173 83.4767 213.528 82.282ZM212.044 86.3L213.08 85.278L213.094 85.292V95.148H212.044V86.3Z" fill="black"/>
<line id="Line 3" opacity="0.3" x1="-0.00121951" y1="769.5" x2="389.999" y2="768.549" stroke="#99756A"/>
<g id="Stop">
<g id="Stop_2">
<circle id="Ellipse 2" cx="345" cy="53" r="25" fill="white" fill-opacity="0.5"/>
<g id="x">
<path id="Vector_43" d="M350 48L340 58" stroke="#1E1E1E" stroke-width="2" stroke-linecap="round" stroke-linejoin="round"/>
<path id="Vector_44" d="M340 48L350 58" stroke="#1E1E1E" stroke-width="2" stroke-linecap="round" stroke-linejoin="round"/>
</g>
</g>
</g>
<g id="icon_menu" clip-path="url(#clip1_7896_467)">
<path id="Vector_45" d="M49 38.6667V41.1667H29V38.6667H49ZM29 56.1667H35.6667V53.6667H29V56.1667ZM29 48.6667H42.3333V46.1667H29V48.6667Z" fill="black"/>
</g>
<rect id="Rectangle 15" x="16" y="785" width="360" height="40" rx="12" fill="white"/>
<g id="icon_ai_camera" clip-path="url(#clip2_7896_467)">
<path id="Vector_46" d="M295.667 814.167C295.667 814.627 295.294 815 294.833 815H293.167C290.869 815 289 813.131 289 810.833V809.167C289 808.706 289.373 808.333 289.833 808.333C290.294 808.333 290.667 808.706 290.667 809.167V810.833C290.667 812.212 291.788 813.333 293.167 813.333H294.833C295.294 813.333 295.667 813.706 295.667 814.167ZM308.167 808.333C307.706 808.333 307.333 808.706 307.333 809.167V810.833C307.333 812.212 306.212 813.333 304.833 813.333H303.167C302.706 813.333 302.333 813.706 302.333 814.167C302.333 814.627 302.706 815 303.167 815H304.833C307.131 815 309 813.131 309 810.833V809.167C309 808.706 308.627 808.333 308.167 808.333ZM304.833 795H303.167C302.706 795 302.333 795.373 302.333 795.833C302.333 796.294 302.706 796.667 303.167 796.667H304.833C306.212 796.667 307.333 797.788 307.333 799.167V800.833C307.333 801.294 307.706 801.667 308.167 801.667C308.627 801.667 309 801.294 309 800.833V799.167C309 796.869 307.131 795 304.833 795ZM289.833 801.667C290.294 801.667 290.667 801.294 290.667 800.833V799.167C290.667 797.788 291.788 796.667 293.167 796.667H294.833C295.294 796.667 295.667 796.294 295.667 795.833C295.667 795.373 295.294 795 294.833 795H293.167C290.869 795 289 796.869 289 799.167V800.833C289 801.294 289.373 801.667 289.833 801.667ZM299 803.333C298.079 803.333 297.333 804.079 297.333 805C297.333 805.921 298.079 806.667 299 806.667C299.921 806.667 300.667 805.921 300.667 805C300.667 804.079 299.921 803.333 299 803.333ZM301.5 809.167H296.5C295.122 809.167 294 808.045 294 806.667V803.333C294 801.967 295.101 800.855 296.461 800.834L297.041 799.932C297.347 799.453 297.872 799.167 298.443 799.167H299.557C300.128 799.167 300.652 799.453 300.96 799.932L301.539 800.834C302.9 800.855 304 801.967 304 803.333V806.667C304 808.045 302.878 809.167 301.5 809.167ZM302.333 803.333C302.333 802.873 301.96 802.5 301.5 802.5H296.5C296.04 802.5 295.667 802.873 295.667 803.333V806.667C295.667 807.127 296.04 807.5 296.5 807.5H301.5C301.96 807.5 302.333 807.127 302.333 806.667V803.333Z" fill="#1E1E1E"/>
</g>
<g id="icon-microphone" clip-path="url(#clip3_7896_467)">
<path id="Vector_47" d="M329 795C323.486 795 319 799.486 319 805C319 810.514 323.486 815 329 815C334.514 815 339 810.514 339 805C339 799.486 334.514 795 329 795ZM329 813.333C324.405 813.333 320.667 809.595 320.667 805C320.667 800.405 324.405 796.667 329 796.667C333.595 796.667 337.333 800.405 337.333 805C337.333 809.595 333.595 813.333 329 813.333ZM334 805C334 807.473 332.195 809.533 329.833 809.93V810.833C329.833 811.293 329.461 811.667 329 811.667C328.539 811.667 328.167 811.293 328.167 810.833V809.93C325.805 809.533 324 807.473 324 805C324 804.54 324.372 804.167 324.833 804.167C325.294 804.167 325.667 804.54 325.667 805C325.667 806.838 327.162 808.333 329 808.333C330.838 808.333 332.333 806.838 332.333 805C332.333 804.54 332.706 804.167 333.167 804.167C333.627 804.167 334 804.54 334 805ZM327.333 805V800.833C327.333 799.912 328.079 799.167 329 799.167C329.921 799.167 330.667 799.912 330.667 800.833V805C330.667 805.921 329.921 806.667 329 806.667C328.079 806.667 327.333 805.921 327.333 805Z" fill="#1E1E1E"/>
</g>
<g id="icon_upload" clip-path="url(#clip4_7896_467)">
<g id="Group_15">
<path id="Vector_48" d="M355.061 799.129L357.255 796.934L357.25 808.512C357.25 808.926 357.586 809.262 358 809.262C358.414 809.262 358.75 808.926 358.75 808.512L358.755 796.947L360.939 799.131C361.237 799.419 361.712 799.411 361.999 799.113C362.28 798.822 362.28 798.361 361.999 798.071L359.591 795.66C358.713 794.781 357.288 794.78 356.409 795.659C356.409 795.659 356.409 795.659 356.408 795.66L354 798.068C353.712 798.366 353.721 798.841 354.019 799.129C354.309 799.41 354.77 799.41 355.061 799.129Z" fill="black"/>
<path id="Vector_49" d="M366.25 807C365.835 807 365.5 807.336 365.5 807.75V810.75C365.5 811.164 365.164 811.5 364.75 811.5H351.25C350.836 811.5 350.5 811.164 350.5 810.75V807.75C350.5 807.336 350.164 807 349.75 807C349.336 807 349 807.336 349 807.75V810.75C349 811.993 350.007 813 351.25 813H364.75C365.992 813 367 811.993 367 810.75V807.75C367 807.336 366.664 807 366.25 807Z" fill="black"/>
</g>
</g>
<g id="button">
<rect x="56" y="271" width="280" height="50" rx="10" fill="#1E1E1E"/>
<path id="&#231;&#143;&#190;&#229;&#156;&#168;&#229;&#176;&#177;&#233;&#150;&#139;&#229;&#167;&#139;&#230;&#142;&#162;&#231;&#180;&#162;&#239;&#188;&#129;" d="M101.576 294.716H121.068V297.026H101.576V294.716ZM111.432 298.676H119.66V300.964H111.432V298.676ZM110.2 295.904H112.884V304.044H110.2V295.904ZM106.812 299.402C107.223 300.473 107.795 301.279 108.528 301.822C109.261 302.35 110.141 302.702 111.168 302.878C112.209 303.054 113.368 303.149 114.644 303.164C114.893 303.164 115.238 303.164 115.678 303.164C116.133 303.164 116.639 303.164 117.196 303.164C117.753 303.164 118.311 303.164 118.868 303.164C119.44 303.149 119.975 303.142 120.474 303.142C120.973 303.127 121.383 303.113 121.706 303.098C121.574 303.303 121.449 303.553 121.332 303.846C121.215 304.139 121.105 304.44 121.002 304.748C120.914 305.071 120.848 305.364 120.804 305.628H119.484H114.512C113.236 305.628 112.085 305.555 111.058 305.408C110.046 305.261 109.137 304.99 108.33 304.594C107.523 304.213 106.812 303.663 106.196 302.944C105.595 302.211 105.067 301.272 104.612 300.128L106.812 299.402ZM104.898 297.488L107.516 297.862C107.164 299.681 106.585 301.279 105.778 302.658C104.986 304.022 103.989 305.137 102.786 306.002C102.654 305.841 102.463 305.643 102.214 305.408C101.979 305.173 101.73 304.939 101.466 304.704C101.217 304.469 100.989 304.286 100.784 304.154C101.913 303.465 102.815 302.548 103.49 301.404C104.165 300.26 104.634 298.955 104.898 297.488ZM106.174 290.756V291.856H116.272V290.756H106.174ZM106.174 287.94V289.018H116.272V287.94H106.174ZM103.622 286.048H118.956V293.726H103.622V286.048ZM128.768 307.036L128.064 305.254C128.988 304.961 129.692 304.557 130.176 304.044C130.675 303.545 130.924 302.973 130.924 302.328L130.748 300.172L131.98 302.13C131.789 302.291 131.584 302.416 131.364 302.504C131.144 302.592 130.909 302.636 130.66 302.636C130.117 302.636 129.633 302.467 129.208 302.13C128.783 301.778 128.57 301.287 128.57 300.656C128.57 300.04 128.783 299.556 129.208 299.204C129.633 298.852 130.139 298.676 130.726 298.676C131.503 298.676 132.09 298.947 132.486 299.49C132.897 300.033 133.102 300.766 133.102 301.69C133.102 302.937 132.721 304.037 131.958 304.99C131.195 305.943 130.132 306.625 128.768 307.036ZM150.394 292.054H157.038V294.056H150.394V292.054ZM150.482 286.004H156.994V287.984H150.482V286.004ZM150.394 295.068H157.038V297.048H150.394V295.068ZM149.36 288.952H157.764V291.042H149.36V288.952ZM151.538 298.104H157.082V304.814H151.538V302.724H154.816V300.194H151.538V298.104ZM150.35 298.104H152.572V305.672H150.35V298.104ZM158.292 286.51H169.512V288.38H158.292V286.51ZM158.864 289.194H169.182V290.954H158.864V289.194ZM157.786 291.834H169.93V293.726H157.786V291.834ZM162.582 285.3H165.068V293.44H162.582V285.3ZM159.282 294.562H167.708V296.432H161.702V305.936H159.282V294.562ZM166.278 294.562H168.742V303.516C168.742 304.059 168.676 304.484 168.544 304.792C168.412 305.115 168.155 305.364 167.774 305.54C167.407 305.716 166.96 305.819 166.432 305.848C165.904 305.892 165.288 305.914 164.584 305.914C164.54 305.591 164.445 305.225 164.298 304.814C164.166 304.418 164.034 304.081 163.902 303.802C164.298 303.817 164.694 303.824 165.09 303.824C165.501 303.824 165.772 303.817 165.904 303.802C166.051 303.802 166.146 303.78 166.19 303.736C166.249 303.677 166.278 303.589 166.278 303.472V294.562ZM160.338 297.4H167.532V299.138H160.338V297.4ZM160.338 300.15H167.532V301.866H160.338V300.15ZM182.58 296.036H185.22V298.39H182.58V296.036ZM182.514 298.016L184.538 298.896C183.995 299.409 183.365 299.886 182.646 300.326C181.927 300.751 181.15 301.14 180.314 301.492C179.493 301.844 178.627 302.152 177.718 302.416C176.823 302.68 175.921 302.893 175.012 303.054C174.851 302.775 174.631 302.453 174.352 302.086C174.088 301.705 173.839 301.397 173.604 301.162C174.469 301.045 175.335 300.891 176.2 300.7C177.065 300.495 177.894 300.26 178.686 299.996C179.478 299.732 180.197 299.439 180.842 299.116C181.502 298.779 182.059 298.412 182.514 298.016ZM185.44 297.906C186.071 299.563 187.112 300.898 188.564 301.91C190.031 302.907 191.93 303.575 194.262 303.912C193.998 304.161 193.727 304.491 193.448 304.902C193.184 305.327 192.971 305.701 192.81 306.024C191.123 305.701 189.664 305.203 188.432 304.528C187.215 303.868 186.181 303.032 185.33 302.02C184.494 300.993 183.812 299.769 183.284 298.346L185.44 297.906ZM191.226 299.028L193.096 300.392C192.407 300.861 191.659 301.309 190.852 301.734C190.06 302.159 189.319 302.519 188.63 302.812L187.046 301.514C187.501 301.309 187.977 301.067 188.476 300.788C188.989 300.495 189.488 300.194 189.972 299.886C190.456 299.578 190.874 299.292 191.226 299.028ZM176.464 303.604C177.241 303.531 178.129 303.435 179.126 303.318C180.123 303.186 181.172 303.047 182.272 302.9C183.387 302.739 184.494 302.585 185.594 302.438L185.704 304.506C184.149 304.726 182.587 304.946 181.018 305.166C179.449 305.386 178.063 305.584 176.86 305.76L176.464 303.604ZM173.978 297.202H193.844V299.292H173.978V297.202ZM185.902 286.202H188.256V293.55H185.902V286.202ZM190.654 285.476H193.03V294.32C193.03 294.877 192.957 295.31 192.81 295.618C192.678 295.926 192.414 296.168 192.018 296.344C191.637 296.505 191.167 296.608 190.61 296.652C190.053 296.681 189.393 296.696 188.63 296.696C188.571 296.373 188.461 296.014 188.3 295.618C188.153 295.222 188.007 294.885 187.86 294.606C188.344 294.621 188.821 294.635 189.29 294.65C189.759 294.65 190.075 294.643 190.236 294.628C190.397 294.613 190.507 294.584 190.566 294.54C190.625 294.481 190.654 294.386 190.654 294.254V285.476ZM178.488 285.3H180.732V296.674H178.488V285.3ZM182.514 291.834H184.626V294.342C184.626 294.753 184.575 295.068 184.472 295.288C184.384 295.508 184.193 295.691 183.9 295.838C183.636 295.955 183.321 296.029 182.954 296.058C182.602 296.073 182.184 296.08 181.7 296.08C181.656 295.831 181.568 295.567 181.436 295.288C181.304 295.009 181.187 294.767 181.084 294.562C181.333 294.577 181.568 294.584 181.788 294.584C182.023 294.584 182.177 294.584 182.25 294.584C182.426 294.584 182.514 294.503 182.514 294.342V291.834ZM174.836 291.834H183.372V293.418H176.816V296.168H174.836V291.834ZM173.934 289.282H184.956V291.064H173.934V289.282ZM176.332 286.73H184.384V288.424H175.672L176.332 286.73ZM175.628 285.344L177.586 285.828C177.351 286.503 177.058 287.177 176.706 287.852C176.369 288.512 176.009 289.069 175.628 289.524C175.437 289.363 175.159 289.187 174.792 288.996C174.44 288.791 174.147 288.629 173.912 288.512C174.293 288.101 174.631 287.61 174.924 287.038C175.217 286.466 175.452 285.901 175.628 285.344ZM178.664 301.514L180.05 300.128L181.194 300.502V304.792H178.664V301.514ZM207.946 288.908H218.484V291.416H206.692L207.946 288.908ZM210.828 293.726H217.934V296.146H210.828V293.726ZM210.806 298.61H218.22V301.074H210.806V298.61ZM209.486 289.744H212.214V305.958H209.486V289.744ZM208.452 285.52L210.982 286.18C210.571 287.368 210.087 288.549 209.53 289.722C208.987 290.895 208.393 291.995 207.748 293.022C207.103 294.034 206.443 294.929 205.768 295.706C205.636 295.53 205.445 295.325 205.196 295.09C204.947 294.855 204.69 294.628 204.426 294.408C204.177 294.173 203.949 293.99 203.744 293.858C204.404 293.198 205.02 292.421 205.592 291.526C206.179 290.631 206.714 289.671 207.198 288.644C207.697 287.603 208.115 286.561 208.452 285.52ZM202.622 285.388L205.174 286.202C204.705 287.449 204.147 288.703 203.502 289.964C202.857 291.225 202.153 292.421 201.39 293.55C200.627 294.665 199.843 295.64 199.036 296.476C198.948 296.256 198.816 295.97 198.64 295.618C198.479 295.266 198.303 294.907 198.112 294.54C197.921 294.173 197.745 293.88 197.584 293.66C198.259 292.985 198.904 292.208 199.52 291.328C200.151 290.448 200.73 289.502 201.258 288.49C201.801 287.478 202.255 286.444 202.622 285.388ZM200.4 291.482L203.062 288.82V288.842V305.936H200.4V291.482ZM222.686 299.82H241.936V301.91H222.686V299.82ZM226.58 296.08H235.974V297.928H226.58V296.08ZM231.002 298.83H233.598V303.516C233.598 304.117 233.517 304.579 233.356 304.902C233.195 305.225 232.887 305.467 232.432 305.628C231.977 305.789 231.442 305.885 230.826 305.914C230.21 305.958 229.484 305.98 228.648 305.98C228.589 305.628 228.479 305.247 228.318 304.836C228.157 304.425 227.988 304.066 227.812 303.758C228.179 303.773 228.545 303.787 228.912 303.802C229.293 303.802 229.631 303.802 229.924 303.802C230.232 303.802 230.437 303.802 230.54 303.802C230.716 303.787 230.833 303.758 230.892 303.714C230.965 303.67 231.002 303.575 231.002 303.428V298.83ZM235.358 296.08H235.996L236.546 295.948L238.02 297.29C237.536 297.671 237.001 298.06 236.414 298.456C235.842 298.837 235.248 299.211 234.632 299.578C234.031 299.945 233.429 300.267 232.828 300.546C232.696 300.341 232.505 300.106 232.256 299.842C232.007 299.578 231.801 299.373 231.64 299.226C232.095 298.991 232.557 298.72 233.026 298.412C233.495 298.089 233.935 297.759 234.346 297.422C234.771 297.085 235.109 296.784 235.358 296.52V296.08ZM222.686 293.22H241.98V297.752H239.362V295.134H225.172V297.752H222.686V293.22ZM223.962 286.29L227.042 286.906C226.983 287.082 226.793 287.199 226.47 287.258L226.844 294.078H224.424L223.962 286.29ZM238.328 286.026H240.836C240.792 286.935 240.741 287.889 240.682 288.886C240.623 289.869 240.557 290.822 240.484 291.746C240.411 292.67 240.33 293.477 240.242 294.166H237.69C237.793 293.447 237.888 292.626 237.976 291.702C238.064 290.778 238.137 289.825 238.196 288.842C238.255 287.845 238.299 286.906 238.328 286.026ZM235.226 286.026H239.296V287.676H235.226V286.026ZM228.406 285.41L229.638 286.84C229.022 287.119 228.34 287.375 227.592 287.61C226.844 287.845 226.169 288.028 225.568 288.16L224.534 286.818C224.93 286.715 225.363 286.583 225.832 286.422C226.301 286.261 226.763 286.092 227.218 285.916C227.673 285.74 228.069 285.571 228.406 285.41ZM225.348 288.446H229.462V290.074H225.348V288.446ZM225.392 290.822H229.506V292.472H225.392V290.822ZM235.314 288.446H239.032V290.074H235.314V288.446ZM235.248 290.822H238.944V292.472H235.248V290.822ZM233.048 285.432L234.742 285.96C234.258 286.62 233.635 287.251 232.872 287.852C232.109 288.453 231.361 288.945 230.628 289.326C230.467 289.165 230.247 288.967 229.968 288.732C229.689 288.483 229.447 288.292 229.242 288.16C229.99 287.823 230.709 287.419 231.398 286.95C232.087 286.481 232.637 285.975 233.048 285.432ZM229.792 286.598L230.98 285.586C231.42 285.791 231.875 286.041 232.344 286.334C232.813 286.613 233.253 286.899 233.664 287.192C234.089 287.485 234.441 287.757 234.72 288.006L233.444 289.128C233.195 288.879 232.865 288.6 232.454 288.292C232.043 287.984 231.603 287.683 231.134 287.39C230.679 287.097 230.232 286.833 229.792 286.598ZM233.158 289.128L234.874 289.634C234.375 290.353 233.73 291.027 232.938 291.658C232.161 292.289 231.383 292.809 230.606 293.22C230.459 293.059 230.239 292.853 229.946 292.604C229.667 292.355 229.425 292.164 229.22 292.032C229.997 291.68 230.738 291.255 231.442 290.756C232.161 290.243 232.733 289.7 233.158 289.128ZM229.836 290.338L231.046 289.326C231.501 289.546 231.97 289.803 232.454 290.096C232.953 290.389 233.415 290.69 233.84 290.998C234.28 291.306 234.639 291.592 234.918 291.856L233.62 293C233.356 292.736 233.011 292.45 232.586 292.142C232.161 291.819 231.706 291.504 231.222 291.196C230.753 290.873 230.291 290.587 229.836 290.338ZM249.24 296.718H264.046V306.024H261.296V298.698H251.858V306.024H249.24V296.718ZM250.56 299.974H262.022V301.954H250.56V299.974ZM250.714 303.23H262.132V305.232H250.714V303.23ZM255.092 294.694L257.93 295.09C257.651 295.662 257.358 296.205 257.05 296.718C256.742 297.231 256.471 297.664 256.236 298.016L254.08 297.554C254.271 297.129 254.461 296.652 254.652 296.124C254.857 295.596 255.004 295.119 255.092 294.694ZM246.864 286.29H253.948V288.336H246.864V286.29ZM253.354 286.29H255.752V293.594C255.752 294.093 255.686 294.481 255.554 294.76C255.422 295.039 255.187 295.266 254.85 295.442C254.498 295.589 254.073 295.677 253.574 295.706C253.075 295.721 252.496 295.728 251.836 295.728C251.792 295.449 251.704 295.134 251.572 294.782C251.44 294.43 251.308 294.122 251.176 293.858C251.557 293.873 251.924 293.88 252.276 293.88C252.643 293.88 252.892 293.88 253.024 293.88C253.141 293.88 253.222 293.858 253.266 293.814C253.325 293.755 253.354 293.675 253.354 293.572V286.29ZM256.918 286.29H264.508V288.336H256.918V286.29ZM263.276 286.29H265.74V293.528C265.74 294.071 265.667 294.489 265.52 294.782C265.388 295.061 265.131 295.288 264.75 295.464C264.383 295.625 263.929 295.728 263.386 295.772C262.858 295.801 262.235 295.809 261.516 295.794C261.472 295.486 261.377 295.149 261.23 294.782C261.098 294.401 260.959 294.071 260.812 293.792C261.237 293.807 261.655 293.821 262.066 293.836C262.491 293.836 262.77 293.836 262.902 293.836C263.034 293.821 263.129 293.792 263.188 293.748C263.247 293.704 263.276 293.623 263.276 293.506V286.29ZM256.28 292.78C257.072 292.545 258.003 292.252 259.074 291.9C260.145 291.533 261.23 291.159 262.33 290.778L262.748 292.67C261.795 293.037 260.827 293.403 259.844 293.77C258.876 294.122 257.981 294.445 257.16 294.738L256.28 292.78ZM257.292 289.634L258.568 288.072C259.052 288.307 259.58 288.6 260.152 288.952C260.739 289.289 261.193 289.605 261.516 289.898L260.174 291.614C259.881 291.306 259.448 290.969 258.876 290.602C258.319 290.221 257.791 289.898 257.292 289.634ZM246.27 293.154C247.003 292.934 247.876 292.655 248.888 292.318C249.915 291.966 250.956 291.599 252.012 291.218L252.408 293.132C251.513 293.499 250.611 293.88 249.702 294.276C248.807 294.657 247.971 295.002 247.194 295.31L246.27 293.154ZM247.436 289.656L248.69 288.138C249.174 288.373 249.695 288.666 250.252 289.018C250.809 289.355 251.242 289.671 251.55 289.964L250.23 291.658C249.937 291.35 249.519 291.005 248.976 290.624C248.433 290.243 247.92 289.92 247.436 289.656ZM279.248 292.648H281.976V305.98H279.248V292.648ZM275.53 296.564V297.73H285.936V296.564H275.53ZM275.53 293.484V294.672H285.936V293.484H275.53ZM272.956 291.46H288.664V299.754H272.956V291.46ZM270.866 300.898H290.578V303.186H270.866V300.898ZM274.496 287.742V289.018H277.598V287.742H274.496ZM272.164 286.158H280.084V290.602H272.164V286.158ZM283.736 287.742V289.018H286.882V287.742H283.736ZM281.382 286.158H289.368V290.602H281.382V286.158Z" fill="white"/>
</g>
<g id="button_2">
<rect x="57.5" y="333.5" width="277" height="47" rx="8.5" fill="white"/>
<rect x="57.5" y="333.5" width="277" height="47" rx="8.5" stroke="#1E1E1E" stroke-width="3"/>
<path id="&#230;&#155;&#180;&#230;&#143;&#155;&#229;&#156;&#176;&#233;&#187;&#158;" d="M113.676 355.716H133.168V358.026H113.676V355.716ZM123.532 359.676H131.76V361.964H123.532V359.676ZM122.3 356.904H124.984V365.044H122.3V356.904ZM118.912 360.402C119.323 361.473 119.895 362.279 120.628 362.822C121.361 363.35 122.241 363.702 123.268 363.878C124.309 364.054 125.468 364.149 126.744 364.164C126.993 364.164 127.338 364.164 127.778 364.164C128.233 364.164 128.739 364.164 129.296 364.164C129.853 364.164 130.411 364.164 130.968 364.164C131.54 364.149 132.075 364.142 132.574 364.142C133.073 364.127 133.483 364.113 133.806 364.098C133.674 364.303 133.549 364.553 133.432 364.846C133.315 365.139 133.205 365.44 133.102 365.748C133.014 366.071 132.948 366.364 132.904 366.628H131.584H126.612C125.336 366.628 124.185 366.555 123.158 366.408C122.146 366.261 121.237 365.99 120.43 365.594C119.623 365.213 118.912 364.663 118.296 363.944C117.695 363.211 117.167 362.272 116.712 361.128L118.912 360.402ZM116.998 358.488L119.616 358.862C119.264 360.681 118.685 362.279 117.878 363.658C117.086 365.022 116.089 366.137 114.886 367.002C114.754 366.841 114.563 366.643 114.314 366.408C114.079 366.173 113.83 365.939 113.566 365.704C113.317 365.469 113.089 365.286 112.884 365.154C114.013 364.465 114.915 363.548 115.59 362.404C116.265 361.26 116.734 359.955 116.998 358.488ZM118.274 351.756V352.856H128.372V351.756H118.274ZM118.274 348.94V350.018H128.372V348.94H118.274ZM115.722 347.048H131.056V354.726H115.722V347.048ZM140.868 368.036L140.164 366.254C141.088 365.961 141.792 365.557 142.276 365.044C142.775 364.545 143.024 363.973 143.024 363.328L142.848 361.172L144.08 363.13C143.889 363.291 143.684 363.416 143.464 363.504C143.244 363.592 143.009 363.636 142.76 363.636C142.217 363.636 141.733 363.467 141.308 363.13C140.883 362.778 140.67 362.287 140.67 361.656C140.67 361.04 140.883 360.556 141.308 360.204C141.733 359.852 142.239 359.676 142.826 359.676C143.603 359.676 144.19 359.947 144.586 360.49C144.997 361.033 145.202 361.766 145.202 362.69C145.202 363.937 144.821 365.037 144.058 365.99C143.295 366.943 142.232 367.625 140.868 368.036ZM162.494 353.054H169.138V355.056H162.494V353.054ZM162.582 347.004H169.094V348.984H162.582V347.004ZM162.494 356.068H169.138V358.048H162.494V356.068ZM161.46 349.952H169.864V352.042H161.46V349.952ZM163.638 359.104H169.182V365.814H163.638V363.724H166.916V361.194H163.638V359.104ZM162.45 359.104H164.672V366.672H162.45V359.104ZM170.392 347.51H181.612V349.38H170.392V347.51ZM170.964 350.194H181.282V351.954H170.964V350.194ZM169.886 352.834H182.03V354.726H169.886V352.834ZM174.682 346.3H177.168V354.44H174.682V346.3ZM171.382 355.562H179.808V357.432H173.802V366.936H171.382V355.562ZM178.378 355.562H180.842V364.516C180.842 365.059 180.776 365.484 180.644 365.792C180.512 366.115 180.255 366.364 179.874 366.54C179.507 366.716 179.06 366.819 178.532 366.848C178.004 366.892 177.388 366.914 176.684 366.914C176.64 366.591 176.545 366.225 176.398 365.814C176.266 365.418 176.134 365.081 176.002 364.802C176.398 364.817 176.794 364.824 177.19 364.824C177.601 364.824 177.872 364.817 178.004 364.802C178.151 364.802 178.246 364.78 178.29 364.736C178.349 364.677 178.378 364.589 178.378 364.472V355.562ZM172.438 358.4H179.632V360.138H172.438V358.4ZM172.438 361.15H179.632V362.866H172.438V361.15ZM194.68 357.036H197.32V359.39H194.68V357.036ZM194.614 359.016L196.638 359.896C196.095 360.409 195.465 360.886 194.746 361.326C194.027 361.751 193.25 362.14 192.414 362.492C191.593 362.844 190.727 363.152 189.818 363.416C188.923 363.68 188.021 363.893 187.112 364.054C186.951 363.775 186.731 363.453 186.452 363.086C186.188 362.705 185.939 362.397 185.704 362.162C186.569 362.045 187.435 361.891 188.3 361.7C189.165 361.495 189.994 361.26 190.786 360.996C191.578 360.732 192.297 360.439 192.942 360.116C193.602 359.779 194.159 359.412 194.614 359.016ZM197.54 358.906C198.171 360.563 199.212 361.898 200.664 362.91C202.131 363.907 204.03 364.575 206.362 364.912C206.098 365.161 205.827 365.491 205.548 365.902C205.284 366.327 205.071 366.701 204.91 367.024C203.223 366.701 201.764 366.203 200.532 365.528C199.315 364.868 198.281 364.032 197.43 363.02C196.594 361.993 195.912 360.769 195.384 359.346L197.54 358.906ZM203.326 360.028L205.196 361.392C204.507 361.861 203.759 362.309 202.952 362.734C202.16 363.159 201.419 363.519 200.73 363.812L199.146 362.514C199.601 362.309 200.077 362.067 200.576 361.788C201.089 361.495 201.588 361.194 202.072 360.886C202.556 360.578 202.974 360.292 203.326 360.028ZM188.564 364.604C189.341 364.531 190.229 364.435 191.226 364.318C192.223 364.186 193.272 364.047 194.372 363.9C195.487 363.739 196.594 363.585 197.694 363.438L197.804 365.506C196.249 365.726 194.687 365.946 193.118 366.166C191.549 366.386 190.163 366.584 188.96 366.76L188.564 364.604ZM186.078 358.202H205.944V360.292H186.078V358.202ZM198.002 347.202H200.356V354.55H198.002V347.202ZM202.754 346.476H205.13V355.32C205.13 355.877 205.057 356.31 204.91 356.618C204.778 356.926 204.514 357.168 204.118 357.344C203.737 357.505 203.267 357.608 202.71 357.652C202.153 357.681 201.493 357.696 200.73 357.696C200.671 357.373 200.561 357.014 200.4 356.618C200.253 356.222 200.107 355.885 199.96 355.606C200.444 355.621 200.921 355.635 201.39 355.65C201.859 355.65 202.175 355.643 202.336 355.628C202.497 355.613 202.607 355.584 202.666 355.54C202.725 355.481 202.754 355.386 202.754 355.254V346.476ZM190.588 346.3H192.832V357.674H190.588V346.3ZM194.614 352.834H196.726V355.342C196.726 355.753 196.675 356.068 196.572 356.288C196.484 356.508 196.293 356.691 196 356.838C195.736 356.955 195.421 357.029 195.054 357.058C194.702 357.073 194.284 357.08 193.8 357.08C193.756 356.831 193.668 356.567 193.536 356.288C193.404 356.009 193.287 355.767 193.184 355.562C193.433 355.577 193.668 355.584 193.888 355.584C194.123 355.584 194.277 355.584 194.35 355.584C194.526 355.584 194.614 355.503 194.614 355.342V352.834ZM186.936 352.834H195.472V354.418H188.916V357.168H186.936V352.834ZM186.034 350.282H197.056V352.064H186.034V350.282ZM188.432 347.73H196.484V349.424H187.772L188.432 347.73ZM187.728 346.344L189.686 346.828C189.451 347.503 189.158 348.177 188.806 348.852C188.469 349.512 188.109 350.069 187.728 350.524C187.537 350.363 187.259 350.187 186.892 349.996C186.54 349.791 186.247 349.629 186.012 349.512C186.393 349.101 186.731 348.61 187.024 348.038C187.317 347.466 187.552 346.901 187.728 346.344ZM190.764 362.514L192.15 361.128L193.294 361.502V365.792H190.764V362.514ZM220.046 349.908H230.584V352.416H218.792L220.046 349.908ZM222.928 354.726H230.034V357.146H222.928V354.726ZM222.906 359.61H230.32V362.074H222.906V359.61ZM221.586 350.744H224.314V366.958H221.586V350.744ZM220.552 346.52L223.082 347.18C222.671 348.368 222.187 349.549 221.63 350.722C221.087 351.895 220.493 352.995 219.848 354.022C219.203 355.034 218.543 355.929 217.868 356.706C217.736 356.53 217.545 356.325 217.296 356.09C217.047 355.855 216.79 355.628 216.526 355.408C216.277 355.173 216.049 354.99 215.844 354.858C216.504 354.198 217.12 353.421 217.692 352.526C218.279 351.631 218.814 350.671 219.298 349.644C219.797 348.603 220.215 347.561 220.552 346.52ZM214.722 346.388L217.274 347.202C216.805 348.449 216.247 349.703 215.602 350.964C214.957 352.225 214.253 353.421 213.49 354.55C212.727 355.665 211.943 356.64 211.136 357.476C211.048 357.256 210.916 356.97 210.74 356.618C210.579 356.266 210.403 355.907 210.212 355.54C210.021 355.173 209.845 354.88 209.684 354.66C210.359 353.985 211.004 353.208 211.62 352.328C212.251 351.448 212.83 350.502 213.358 349.49C213.901 348.478 214.355 347.444 214.722 346.388ZM212.5 352.482L215.162 349.82V349.842V366.936H212.5V352.482ZM238.9 354.88V362.998H236.436V357.322H234.192V354.88H238.9ZM238.9 361.964C239.34 362.712 239.956 363.262 240.748 363.614C241.555 363.966 242.523 364.164 243.652 364.208C244.341 364.237 245.163 364.259 246.116 364.274C247.084 364.274 248.096 364.267 249.152 364.252C250.223 364.237 251.257 364.215 252.254 364.186C253.266 364.142 254.168 364.083 254.96 364.01C254.872 364.215 254.769 364.465 254.652 364.758C254.535 365.037 254.432 365.33 254.344 365.638C254.271 365.961 254.205 366.247 254.146 366.496C253.442 366.525 252.635 366.547 251.726 366.562C250.817 366.591 249.871 366.606 248.888 366.606C247.92 366.621 246.981 366.621 246.072 366.606C245.163 366.591 244.363 366.569 243.674 366.54C242.325 366.481 241.181 366.269 240.242 365.902C239.303 365.535 238.504 364.919 237.844 364.054C237.433 364.494 237.008 364.934 236.568 365.374C236.128 365.814 235.651 366.276 235.138 366.76L233.884 364.252C234.324 363.929 234.786 363.57 235.27 363.174C235.769 362.778 236.245 362.375 236.7 361.964H238.9ZM234.038 348.104L236.128 346.784C236.509 347.151 236.898 347.554 237.294 347.994C237.69 348.419 238.049 348.845 238.372 349.27C238.709 349.695 238.966 350.091 239.142 350.458L236.898 351.932C236.737 351.58 236.502 351.177 236.194 350.722C235.886 350.267 235.541 349.813 235.16 349.358C234.793 348.903 234.419 348.485 234.038 348.104ZM239.516 349.182H246.952V351.338H239.516V349.182ZM242.53 352.944H245.522V355.1H242.53V352.944ZM242.134 346.3H244.554V350.348H242.134V346.3ZM244.62 352.944H246.842C246.842 352.944 246.835 353.061 246.82 353.296C246.82 353.531 246.82 353.721 246.82 353.868C246.791 355.335 246.761 356.596 246.732 357.652C246.703 358.693 246.659 359.559 246.6 360.248C246.541 360.923 246.468 361.458 246.38 361.854C246.307 362.235 246.204 362.514 246.072 362.69C245.896 362.939 245.705 363.123 245.5 363.24C245.309 363.357 245.075 363.438 244.796 363.482C244.561 363.541 244.275 363.577 243.938 363.592C243.601 363.592 243.241 363.585 242.86 363.57C242.845 363.262 242.787 362.903 242.684 362.492C242.596 362.081 242.471 361.737 242.31 361.458C242.589 361.487 242.838 361.509 243.058 361.524C243.278 361.524 243.454 361.524 243.586 361.524C243.703 361.524 243.806 361.509 243.894 361.48C243.982 361.436 244.063 361.355 244.136 361.238C244.224 361.091 244.297 360.754 244.356 360.226C244.415 359.698 244.466 358.884 244.51 357.784C244.554 356.684 244.591 355.21 244.62 353.362V352.944ZM248.074 348.5H254.432V350.656H248.074V348.5ZM247.304 356.376H254.564V358.444H247.304V356.376ZM247.876 351.998H252.76V353.934H247.876V351.998ZM248.536 346.19L250.736 346.696C250.472 347.825 250.098 348.925 249.614 349.996C249.13 351.067 248.595 351.969 248.008 352.702C247.891 352.57 247.722 352.416 247.502 352.24C247.282 352.049 247.055 351.866 246.82 351.69C246.6 351.514 246.402 351.375 246.226 351.272C246.769 350.641 247.238 349.879 247.634 348.984C248.03 348.075 248.331 347.143 248.536 346.19ZM249.746 355.034H251.99V361.106C251.99 361.605 251.931 362.023 251.814 362.36C251.711 362.683 251.477 362.932 251.11 363.108C250.773 363.284 250.369 363.394 249.9 363.438C249.445 363.467 248.903 363.482 248.272 363.482C248.243 363.174 248.155 362.815 248.008 362.404C247.861 361.993 247.707 361.634 247.546 361.326C247.957 361.341 248.338 361.348 248.69 361.348C249.057 361.348 249.299 361.341 249.416 361.326C249.636 361.326 249.746 361.238 249.746 361.062V355.034ZM252.1 351.998H252.606L253.068 351.866L254.432 352.9C254.021 353.56 253.537 354.249 252.98 354.968C252.437 355.672 251.909 356.273 251.396 356.772C251.249 356.552 251.044 356.317 250.78 356.068C250.531 355.804 250.318 355.599 250.142 355.452C250.523 355.027 250.897 354.521 251.264 353.934C251.631 353.347 251.909 352.834 252.1 352.394V351.998ZM241.232 350.172H243.366V354.044C243.366 354.748 243.337 355.511 243.278 356.332C243.219 357.153 243.095 357.982 242.904 358.818C242.728 359.654 242.464 360.461 242.112 361.238C241.76 362.015 241.291 362.727 240.704 363.372C240.543 363.137 240.301 362.866 239.978 362.558C239.67 362.235 239.399 361.993 239.164 361.832C239.78 361.099 240.235 360.277 240.528 359.368C240.821 358.444 241.012 357.513 241.1 356.574C241.188 355.635 241.232 354.785 241.232 354.022V350.172ZM269.304 354.528H276.564V357.036H269.304V354.528ZM268.226 354.528H270.91V363.196C270.91 363.665 270.983 363.966 271.13 364.098C271.277 364.23 271.614 364.296 272.142 364.296C272.274 364.296 272.472 364.296 272.736 364.296C273.015 364.296 273.323 364.296 273.66 364.296C273.997 364.296 274.313 364.296 274.606 364.296C274.899 364.296 275.119 364.296 275.266 364.296C275.618 364.296 275.875 364.215 276.036 364.054C276.197 363.893 276.315 363.577 276.388 363.108C276.476 362.624 276.542 361.927 276.586 361.018C276.791 361.15 277.033 361.289 277.312 361.436C277.591 361.568 277.884 361.693 278.192 361.81C278.515 361.913 278.793 361.993 279.028 362.052C278.925 363.269 278.757 364.223 278.522 364.912C278.287 365.601 277.928 366.085 277.444 366.364C276.975 366.643 276.315 366.782 275.464 366.782C275.347 366.782 275.163 366.782 274.914 366.782C274.665 366.782 274.386 366.782 274.078 366.782C273.785 366.782 273.484 366.782 273.176 366.782C272.868 366.782 272.589 366.782 272.34 366.782C272.105 366.782 271.929 366.782 271.812 366.782C270.903 366.782 270.184 366.679 269.656 366.474C269.143 366.269 268.776 365.909 268.556 365.396C268.336 364.883 268.226 364.157 268.226 363.218V354.528ZM268.182 347.422H277.84V358.136H275.2V349.93H268.182V347.422ZM259.338 353.054H266.444V355.056H259.338V353.054ZM259.47 347.004H266.488V348.984H259.47V347.004ZM259.338 356.068H266.444V358.048H259.338V356.068ZM258.26 349.952H267.302V352.042H258.26V349.952ZM260.548 359.104H266.378V365.814H260.548V363.724H264.046V361.194H260.548V359.104ZM259.272 359.104H261.56V366.672H259.272V359.104Z" fill="#1E1E1E"/>
</g>
<g id="button_3">
<rect x="57.5" y="394.5" width="277" height="47" rx="8.5" fill="white"/>
<rect x="57.5" y="394.5" width="277" height="47" rx="8.5" stroke="#1E1E1E" stroke-width="3"/>
<path id="&#230;&#155;&#180;&#230;&#143;&#155;&#229;&#156;&#176;&#233;&#187;&#158;_2" d="M89.982 409.632H97.572V411.92H89.982V409.632ZM92.6 424.658H98.144V426.77H92.6V424.658ZM92.6 421.138H98.21V423.118H92.6V421.138ZM89.014 413.724H100.278V416.012H89.014V413.724ZM92.864 407.476H95.306V415.22H92.864V407.476ZM98.65 408.29L101.026 408.95C99.9113 411.839 98.408 414.384 96.516 416.584C94.6387 418.769 92.4533 420.529 89.96 421.864C89.872 421.673 89.7327 421.446 89.542 421.182C89.366 420.903 89.1827 420.625 88.992 420.346C88.8013 420.067 88.618 419.84 88.442 419.664C90.818 418.549 92.8787 417.024 94.624 415.088C96.3693 413.137 97.7113 410.871 98.65 408.29ZM93.458 417.64H98.1V419.73H93.458V427.914H91.06V419.158L92.512 417.64H93.458ZM97.022 417.64H99.53V427.606H97.022V417.64ZM100.982 408.532H107.472V411.018H103.578V427.958H100.982V408.532ZM106.856 408.532H107.362L107.758 408.444L109.672 409.632C109.276 410.688 108.843 411.803 108.374 412.976C107.905 414.135 107.45 415.205 107.01 416.188C107.641 416.848 108.117 417.479 108.44 418.08C108.763 418.681 108.975 419.261 109.078 419.818C109.195 420.361 109.254 420.867 109.254 421.336C109.254 422.157 109.159 422.847 108.968 423.404C108.777 423.947 108.462 424.365 108.022 424.658C107.611 424.951 107.091 425.142 106.46 425.23C106.211 425.259 105.91 425.281 105.558 425.296C105.221 425.296 104.883 425.289 104.546 425.274C104.531 424.907 104.465 424.482 104.348 423.998C104.231 423.499 104.069 423.074 103.864 422.722C104.143 422.737 104.399 422.751 104.634 422.766C104.869 422.766 105.074 422.766 105.25 422.766C105.426 422.751 105.595 422.729 105.756 422.7C105.917 422.671 106.057 422.619 106.174 422.546C106.379 422.429 106.519 422.245 106.592 421.996C106.68 421.747 106.724 421.431 106.724 421.05C106.724 420.449 106.563 419.759 106.24 418.982C105.932 418.205 105.331 417.383 104.436 416.518C104.656 415.975 104.876 415.381 105.096 414.736C105.331 414.076 105.558 413.423 105.778 412.778C106.013 412.118 106.218 411.495 106.394 410.908C106.585 410.321 106.739 409.83 106.856 409.434V408.532ZM113.83 408.774H133.014V411.48H113.83V408.774ZM124.456 416.166L126.502 414.45C127.089 414.875 127.719 415.345 128.394 415.858C129.083 416.357 129.765 416.877 130.44 417.42C131.129 417.963 131.767 418.498 132.354 419.026C132.941 419.539 133.439 420.009 133.85 420.434L131.606 422.48C131.239 422.04 130.77 421.556 130.198 421.028C129.641 420.485 129.032 419.928 128.372 419.356C127.727 418.784 127.059 418.227 126.37 417.684C125.695 417.141 125.057 416.635 124.456 416.166ZM123.576 409.786L126.502 410.82C125.666 412.36 124.669 413.863 123.51 415.33C122.366 416.797 121.075 418.153 119.638 419.4C118.201 420.632 116.639 421.688 114.952 422.568C114.82 422.333 114.644 422.069 114.424 421.776C114.204 421.483 113.977 421.197 113.742 420.918C113.522 420.625 113.317 420.375 113.126 420.17C114.314 419.627 115.436 418.967 116.492 418.19C117.548 417.398 118.523 416.54 119.418 415.616C120.327 414.692 121.127 413.739 121.816 412.756C122.52 411.759 123.107 410.769 123.576 409.786ZM121.97 415.11L124.852 412.228V427.936H121.97V415.11ZM141.242 408.774H154.728V411.304H141.242V408.774ZM141.242 413.856H154.772V416.32H141.242V413.856ZM141.198 419.048H154.86V421.534H141.198V419.048ZM139.724 408.774H142.32V416.694C142.32 417.559 142.283 418.505 142.21 419.532C142.137 420.559 141.99 421.593 141.77 422.634C141.565 423.661 141.249 424.643 140.824 425.582C140.413 426.521 139.871 427.357 139.196 428.09C139.064 427.914 138.866 427.716 138.602 427.496C138.338 427.276 138.067 427.063 137.788 426.858C137.524 426.653 137.297 426.491 137.106 426.374C137.707 425.714 138.184 424.988 138.536 424.196C138.888 423.389 139.145 422.561 139.306 421.71C139.482 420.845 139.592 419.987 139.636 419.136C139.695 418.271 139.724 417.449 139.724 416.672V408.774ZM153.804 408.774H156.444V424.856C156.444 425.56 156.356 426.103 156.18 426.484C156.004 426.88 155.689 427.181 155.234 427.386C154.794 427.591 154.229 427.723 153.54 427.782C152.851 427.841 152 427.863 150.988 427.848C150.944 427.496 150.834 427.071 150.658 426.572C150.482 426.073 150.306 425.655 150.13 425.318C150.555 425.333 150.981 425.347 151.406 425.362C151.831 425.362 152.205 425.362 152.528 425.362C152.865 425.362 153.107 425.362 153.254 425.362C153.459 425.362 153.599 425.325 153.672 425.252C153.76 425.179 153.804 425.039 153.804 424.834V408.774ZM146.5 409.786H149.162V427.694H146.5V409.786ZM165.068 429.036L164.364 427.254C165.288 426.961 165.992 426.557 166.476 426.044C166.975 425.545 167.224 424.973 167.224 424.328L167.048 422.172L168.28 424.13C168.089 424.291 167.884 424.416 167.664 424.504C167.444 424.592 167.209 424.636 166.96 424.636C166.417 424.636 165.933 424.467 165.508 424.13C165.083 423.778 164.87 423.287 164.87 422.656C164.87 422.04 165.083 421.556 165.508 421.204C165.933 420.852 166.439 420.676 167.026 420.676C167.803 420.676 168.39 420.947 168.786 421.49C169.197 422.033 169.402 422.766 169.402 423.69C169.402 424.937 169.021 426.037 168.258 426.99C167.495 427.943 166.432 428.625 165.068 429.036ZM186.694 414.054H193.338V416.056H186.694V414.054ZM186.782 408.004H193.294V409.984H186.782V408.004ZM186.694 417.068H193.338V419.048H186.694V417.068ZM185.66 410.952H194.064V413.042H185.66V410.952ZM187.838 420.104H193.382V426.814H187.838V424.724H191.116V422.194H187.838V420.104ZM186.65 420.104H188.872V427.672H186.65V420.104ZM194.592 408.51H205.812V410.38H194.592V408.51ZM195.164 411.194H205.482V412.954H195.164V411.194ZM194.086 413.834H206.23V415.726H194.086V413.834ZM198.882 407.3H201.368V415.44H198.882V407.3ZM195.582 416.562H204.008V418.432H198.002V427.936H195.582V416.562ZM202.578 416.562H205.042V425.516C205.042 426.059 204.976 426.484 204.844 426.792C204.712 427.115 204.455 427.364 204.074 427.54C203.707 427.716 203.26 427.819 202.732 427.848C202.204 427.892 201.588 427.914 200.884 427.914C200.84 427.591 200.745 427.225 200.598 426.814C200.466 426.418 200.334 426.081 200.202 425.802C200.598 425.817 200.994 425.824 201.39 425.824C201.801 425.824 202.072 425.817 202.204 425.802C202.351 425.802 202.446 425.78 202.49 425.736C202.549 425.677 202.578 425.589 202.578 425.472V416.562ZM196.638 419.4H203.832V421.138H196.638V419.4ZM196.638 422.15H203.832V423.866H196.638V422.15ZM222.972 407.3H225.656V415.924H222.972V407.3ZM220.97 424.658H228.12V427.012H220.97V424.658ZM218.308 410.16H230.518V412.558H218.308V410.16ZM218.924 414.956H229.99V417.354H218.924V414.956ZM219.628 419.224H229.506V427.936H226.954V421.578H222.048V427.958H219.628V419.224ZM213.16 407.322L215.492 408.136C215.199 408.708 214.891 409.295 214.568 409.896C214.245 410.483 213.93 411.055 213.622 411.612C213.314 412.155 213.013 412.631 212.72 413.042L210.938 412.316C211.202 411.861 211.473 411.348 211.752 410.776C212.031 410.189 212.295 409.595 212.544 408.994C212.793 408.393 212.999 407.835 213.16 407.322ZM215.8 409.94L218.044 410.864C217.501 411.7 216.915 412.58 216.284 413.504C215.653 414.413 215.015 415.286 214.37 416.122C213.725 416.958 213.123 417.691 212.566 418.322L210.96 417.508C211.385 417.009 211.818 416.445 212.258 415.814C212.698 415.183 213.131 414.531 213.556 413.856C213.996 413.181 214.407 412.507 214.788 411.832C215.184 411.143 215.521 410.512 215.8 409.94ZM209.772 412.536L211.026 410.732C211.407 411.055 211.803 411.421 212.214 411.832C212.625 412.228 212.999 412.624 213.336 413.02C213.688 413.416 213.952 413.783 214.128 414.12L212.786 416.166C212.61 415.829 212.353 415.447 212.016 415.022C211.693 414.582 211.334 414.149 210.938 413.724C210.542 413.284 210.153 412.888 209.772 412.536ZM215.272 415.242L217.142 414.428C217.435 414.912 217.721 415.433 218 415.99C218.279 416.547 218.521 417.097 218.726 417.64C218.931 418.168 219.085 418.645 219.188 419.07L217.164 419.994C217.076 419.583 216.937 419.107 216.746 418.564C216.555 418.007 216.328 417.442 216.064 416.87C215.815 416.283 215.551 415.741 215.272 415.242ZM209.772 417.002C210.784 416.973 212.001 416.929 213.424 416.87C214.847 416.811 216.291 416.745 217.758 416.672L217.736 418.762C216.357 418.865 214.986 418.967 213.622 419.07C212.273 419.158 211.063 419.231 209.992 419.29L209.772 417.002ZM215.646 420.742L217.582 420.104C217.89 420.764 218.176 421.483 218.44 422.26C218.704 423.037 218.895 423.712 219.012 424.284L216.966 425.032C216.863 424.445 216.687 423.756 216.438 422.964C216.189 422.157 215.925 421.417 215.646 420.742ZM210.718 420.236L212.896 420.632C212.779 421.688 212.603 422.729 212.368 423.756C212.133 424.783 211.862 425.648 211.554 426.352C211.407 426.249 211.209 426.132 210.96 426C210.711 425.883 210.454 425.765 210.19 425.648C209.941 425.531 209.721 425.443 209.53 425.384C209.853 424.724 210.109 423.939 210.3 423.03C210.491 422.106 210.63 421.175 210.718 420.236ZM213.27 418.168H215.602V427.98H213.27V418.168ZM234.962 409.368H253.882V411.788H234.962V409.368ZM242.992 407.322H245.742V427.98H242.992V407.322ZM242.816 419.202L245.038 420.148C244.51 420.94 243.901 421.695 243.212 422.414C242.523 423.118 241.775 423.785 240.968 424.416C240.176 425.047 239.347 425.619 238.482 426.132C237.617 426.645 236.751 427.085 235.886 427.452C235.754 427.232 235.578 426.983 235.358 426.704C235.153 426.425 234.933 426.154 234.698 425.89C234.478 425.626 234.265 425.406 234.06 425.23C234.911 424.937 235.761 424.577 236.612 424.152C237.463 423.712 238.269 423.228 239.032 422.7C239.809 422.172 240.521 421.615 241.166 421.028C241.811 420.427 242.361 419.818 242.816 419.202ZM246.138 419.334C246.739 420.141 247.502 420.918 248.426 421.666C249.35 422.399 250.362 423.074 251.462 423.69C252.577 424.291 253.691 424.783 254.806 425.164C254.601 425.34 254.373 425.567 254.124 425.846C253.889 426.125 253.662 426.403 253.442 426.682C253.237 426.975 253.061 427.247 252.914 427.496C251.77 427.012 250.648 426.403 249.548 425.67C248.448 424.922 247.414 424.093 246.446 423.184C245.493 422.26 244.664 421.292 243.96 420.28L246.138 419.334ZM238.966 415.858V418.3H249.878V415.858H238.966ZM236.414 413.526H252.584V420.632H236.414V413.526ZM258.546 421.71H278.676V423.712H258.546V421.71ZM264.222 409.126H278.654V410.886H264.222V409.126ZM271.372 420.522H273.902V425.472C273.902 426.059 273.829 426.521 273.682 426.858C273.55 427.195 273.257 427.452 272.802 427.628C272.362 427.789 271.841 427.885 271.24 427.914C270.639 427.958 269.927 427.98 269.106 427.98C269.062 427.628 268.959 427.239 268.798 426.814C268.637 426.389 268.468 426.015 268.292 425.692C268.644 425.707 269.003 425.721 269.37 425.736C269.737 425.751 270.059 425.758 270.338 425.758C270.617 425.743 270.807 425.736 270.91 425.736C271.086 425.736 271.203 425.714 271.262 425.67C271.335 425.611 271.372 425.523 271.372 425.406V420.522ZM262.264 424.658L264.068 423.206C264.42 423.426 264.787 423.683 265.168 423.976C265.549 424.255 265.916 424.541 266.268 424.834C266.62 425.127 266.906 425.406 267.126 425.67L265.19 427.276C264.999 427.027 264.743 426.741 264.42 426.418C264.097 426.11 263.745 425.802 263.364 425.494C262.983 425.186 262.616 424.907 262.264 424.658ZM259.14 408.994L260.856 407.542C261.223 407.791 261.604 408.077 262 408.4C262.411 408.723 262.785 409.045 263.122 409.368C263.474 409.691 263.745 409.991 263.936 410.27L262.132 411.854C261.941 411.575 261.677 411.267 261.34 410.93C261.017 410.578 260.665 410.233 260.284 409.896C259.903 409.559 259.521 409.258 259.14 408.994ZM266.774 407.674L268.908 407.278C269.143 407.601 269.37 407.967 269.59 408.378C269.81 408.774 269.964 409.133 270.052 409.456L267.808 409.896C267.72 409.603 267.573 409.251 267.368 408.84C267.177 408.415 266.979 408.026 266.774 407.674ZM268.402 414.516V415.198H274.32V414.516H268.402ZM268.402 416.32V417.024H274.32V416.32H268.402ZM268.402 412.756V413.394H274.32V412.756H268.402ZM265.96 411.59H276.872V418.168H265.96V411.59ZM263.562 412.778V417.948H261.186V414.758H258.612V412.778H263.562ZM270.096 409.852L272.714 410.028C272.538 410.439 272.369 410.82 272.208 411.172C272.061 411.524 271.929 411.832 271.812 412.096L269.722 411.832C269.81 411.509 269.883 411.172 269.942 410.82C270.015 410.453 270.067 410.131 270.096 409.852ZM273.902 407.256L276.388 407.652C276.124 408.077 275.86 408.473 275.596 408.84C275.347 409.192 275.119 409.5 274.914 409.764L272.824 409.368C273.015 409.045 273.205 408.693 273.396 408.312C273.601 407.916 273.77 407.564 273.902 407.256ZM263.562 417.068C263.929 417.669 264.442 418.109 265.102 418.388C265.762 418.667 266.561 418.821 267.5 418.85C268.043 418.865 268.681 418.879 269.414 418.894C270.162 418.909 270.961 418.916 271.812 418.916C272.663 418.901 273.521 418.887 274.386 418.872C275.251 418.843 276.08 418.813 276.872 418.784C277.679 418.74 278.39 418.703 279.006 418.674C278.889 418.909 278.764 419.231 278.632 419.642C278.5 420.038 278.405 420.383 278.346 420.676C277.642 420.705 276.813 420.735 275.86 420.764C274.907 420.779 273.917 420.793 272.89 420.808C271.863 420.808 270.881 420.808 269.942 420.808C269.003 420.793 268.189 420.771 267.5 420.742C266.385 420.698 265.439 420.537 264.662 420.258C263.899 419.965 263.247 419.473 262.704 418.784C262.176 419.136 261.633 419.488 261.076 419.84C260.533 420.192 259.954 420.559 259.338 420.94L258.436 418.85C258.949 418.615 259.499 418.344 260.086 418.036C260.687 417.713 261.259 417.391 261.802 417.068H263.562ZM288.312 420.214V420.918H297.178V420.214H288.312ZM288.312 422.194V422.92H297.178V422.194H288.312ZM288.312 418.212V418.938H297.178V418.212H288.312ZM285.804 416.87H299.796V424.284H285.804V416.87ZM293.702 423.514H296.298V425.164C296.298 425.428 296.357 425.597 296.474 425.67C296.606 425.729 296.892 425.758 297.332 425.758C297.435 425.758 297.603 425.758 297.838 425.758C298.087 425.758 298.351 425.758 298.63 425.758C298.909 425.758 299.173 425.758 299.422 425.758C299.671 425.758 299.869 425.758 300.016 425.758C300.251 425.758 300.427 425.721 300.544 425.648C300.661 425.56 300.749 425.399 300.808 425.164C300.867 424.929 300.911 424.57 300.94 424.086C301.189 424.247 301.527 424.401 301.952 424.548C302.392 424.695 302.781 424.805 303.118 424.878C303.03 425.626 302.883 426.205 302.678 426.616C302.487 427.027 302.194 427.313 301.798 427.474C301.417 427.65 300.911 427.738 300.28 427.738C300.177 427.738 300.009 427.738 299.774 427.738C299.554 427.738 299.305 427.738 299.026 427.738C298.762 427.738 298.491 427.738 298.212 427.738C297.948 427.738 297.706 427.738 297.486 427.738C297.281 427.738 297.119 427.738 297.002 427.738C296.137 427.738 295.462 427.657 294.978 427.496C294.509 427.349 294.179 427.085 293.988 426.704C293.797 426.337 293.702 425.824 293.702 425.164V423.514ZM288.862 423.668H291.458C291.311 424.299 291.091 424.856 290.798 425.34C290.505 425.824 290.065 426.235 289.478 426.572C288.891 426.924 288.121 427.21 287.168 427.43C286.215 427.665 285.012 427.848 283.56 427.98C283.472 427.687 283.311 427.335 283.076 426.924C282.856 426.528 282.636 426.205 282.416 425.956C283.663 425.897 284.682 425.817 285.474 425.714C286.266 425.597 286.889 425.45 287.344 425.274C287.813 425.098 288.158 424.878 288.378 424.614C288.598 424.35 288.759 424.035 288.862 423.668ZM294.89 410.688H301.688V412.162H294.89V410.688ZM294.846 408.444H302.7V410.072H294.846V408.444ZM287.322 408.62H289.39V410.688H287.322V408.62ZM287.322 413.02H289.39V415.11H287.322V413.02ZM284.924 410.248H292.14V413.834H284.924V412.47H289.918V411.612H284.924V410.248ZM299.62 413.944V415.044H300.544V413.944H299.62ZM297.442 413.944V415.044H298.344V413.944H297.442ZM295.308 413.944V415.044H296.166V413.944H295.308ZM293.57 412.734H302.348V416.276H293.57V412.734ZM294.648 407.344L296.892 407.696C296.569 408.547 296.159 409.361 295.66 410.138C295.161 410.915 294.516 411.634 293.724 412.294C293.519 412.045 293.247 411.766 292.91 411.458C292.573 411.15 292.265 410.93 291.986 410.798C292.675 410.314 293.233 409.764 293.658 409.148C294.098 408.532 294.428 407.931 294.648 407.344ZM292.58 407.96V409.456H285.76V414.736H292.756V416.232H283.538V407.96H292.58Z" fill="#1E1E1E"/>
</g>
<g id="button_4">
<rect x="57.5" y="455.5" width="277" height="47" rx="8.5" fill="white"/>
<rect x="57.5" y="455.5" width="277" height="47" rx="8.5" stroke="#1E1E1E" stroke-width="3"/>
<path id="&#230;&#155;&#180;&#230;&#143;&#155;&#229;&#156;&#176;&#233;&#187;&#158;_3" d="M157.61 476.638V480.466H161.482V476.638H157.61ZM155.124 474.328H164.144V482.754H155.124V474.328ZM150.262 469.048H169.16V488.958H166.278V471.754H153.012V488.958H150.262V469.048ZM151.824 485.306H167.906V487.77H151.824V485.306ZM173.802 469.708H185.044V472.04H173.802V469.708ZM174.462 480.18H184.34V482.534H174.462V480.18ZM178.114 478.024H180.754V486.34L178.114 486.736V478.024ZM173.56 485.834C174.543 485.731 175.665 485.614 176.926 485.482C178.202 485.35 179.537 485.203 180.93 485.042C182.323 484.881 183.702 484.719 185.066 484.558L185.132 487C183.827 487.176 182.507 487.352 181.172 487.528C179.837 487.704 178.554 487.865 177.322 488.012C176.09 488.173 174.975 488.327 173.978 488.474L173.56 485.834ZM173.758 475.384C174.609 475.355 175.577 475.333 176.662 475.318C177.747 475.289 178.899 475.259 180.116 475.23C181.348 475.186 182.573 475.142 183.79 475.098L183.724 477.342C182.565 477.401 181.399 477.467 180.226 477.54C179.053 477.599 177.931 477.65 176.86 477.694C175.789 477.738 174.807 477.782 173.912 477.826L173.758 475.384ZM180.534 473.47L182.47 472.436C182.895 472.92 183.313 473.455 183.724 474.042C184.149 474.629 184.531 475.208 184.868 475.78C185.22 476.352 185.491 476.873 185.682 477.342L183.592 478.53C183.416 478.061 183.159 477.533 182.822 476.946C182.499 476.359 182.133 475.765 181.722 475.164C181.326 474.548 180.93 473.983 180.534 473.47ZM176.926 471.138L179.786 471.71C179.537 472.341 179.28 472.986 179.016 473.646C178.752 474.291 178.481 474.915 178.202 475.516C177.938 476.103 177.681 476.623 177.432 477.078L175.21 476.484C175.43 475.985 175.643 475.428 175.848 474.812C176.068 474.181 176.273 473.551 176.464 472.92C176.669 472.275 176.823 471.681 176.926 471.138ZM185.858 470.984H188.388V483.436H185.858V470.984ZM190.852 468.916H193.448V485.812C193.448 486.56 193.36 487.132 193.184 487.528C193.023 487.939 192.722 488.254 192.282 488.474C191.827 488.679 191.248 488.811 190.544 488.87C189.84 488.943 189.019 488.98 188.08 488.98C188.036 488.599 187.926 488.144 187.75 487.616C187.589 487.103 187.413 486.655 187.222 486.274C187.882 486.303 188.505 486.325 189.092 486.34C189.693 486.34 190.104 486.34 190.324 486.34C190.529 486.325 190.669 486.281 190.742 486.208C190.815 486.135 190.852 486.003 190.852 485.812V468.916ZM198.046 482.71H218.176V484.712H198.046V482.71ZM203.722 470.126H218.154V471.886H203.722V470.126ZM210.872 481.522H213.402V486.472C213.402 487.059 213.329 487.521 213.182 487.858C213.05 488.195 212.757 488.452 212.302 488.628C211.862 488.789 211.341 488.885 210.74 488.914C210.139 488.958 209.427 488.98 208.606 488.98C208.562 488.628 208.459 488.239 208.298 487.814C208.137 487.389 207.968 487.015 207.792 486.692C208.144 486.707 208.503 486.721 208.87 486.736C209.237 486.751 209.559 486.758 209.838 486.758C210.117 486.743 210.307 486.736 210.41 486.736C210.586 486.736 210.703 486.714 210.762 486.67C210.835 486.611 210.872 486.523 210.872 486.406V481.522ZM201.764 485.658L203.568 484.206C203.92 484.426 204.287 484.683 204.668 484.976C205.049 485.255 205.416 485.541 205.768 485.834C206.12 486.127 206.406 486.406 206.626 486.67L204.69 488.276C204.499 488.027 204.243 487.741 203.92 487.418C203.597 487.11 203.245 486.802 202.864 486.494C202.483 486.186 202.116 485.907 201.764 485.658ZM198.64 469.994L200.356 468.542C200.723 468.791 201.104 469.077 201.5 469.4C201.911 469.723 202.285 470.045 202.622 470.368C202.974 470.691 203.245 470.991 203.436 471.27L201.632 472.854C201.441 472.575 201.177 472.267 200.84 471.93C200.517 471.578 200.165 471.233 199.784 470.896C199.403 470.559 199.021 470.258 198.64 469.994ZM206.274 468.674L208.408 468.278C208.643 468.601 208.87 468.967 209.09 469.378C209.31 469.774 209.464 470.133 209.552 470.456L207.308 470.896C207.22 470.603 207.073 470.251 206.868 469.84C206.677 469.415 206.479 469.026 206.274 468.674ZM207.902 475.516V476.198H213.82V475.516H207.902ZM207.902 477.32V478.024H213.82V477.32H207.902ZM207.902 473.756V474.394H213.82V473.756H207.902ZM205.46 472.59H216.372V479.168H205.46V472.59ZM203.062 473.778V478.948H200.686V475.758H198.112V473.778H203.062ZM209.596 470.852L212.214 471.028C212.038 471.439 211.869 471.82 211.708 472.172C211.561 472.524 211.429 472.832 211.312 473.096L209.222 472.832C209.31 472.509 209.383 472.172 209.442 471.82C209.515 471.453 209.567 471.131 209.596 470.852ZM213.402 468.256L215.888 468.652C215.624 469.077 215.36 469.473 215.096 469.84C214.847 470.192 214.619 470.5 214.414 470.764L212.324 470.368C212.515 470.045 212.705 469.693 212.896 469.312C213.101 468.916 213.27 468.564 213.402 468.256ZM203.062 478.068C203.429 478.669 203.942 479.109 204.602 479.388C205.262 479.667 206.061 479.821 207 479.85C207.543 479.865 208.181 479.879 208.914 479.894C209.662 479.909 210.461 479.916 211.312 479.916C212.163 479.901 213.021 479.887 213.886 479.872C214.751 479.843 215.58 479.813 216.372 479.784C217.179 479.74 217.89 479.703 218.506 479.674C218.389 479.909 218.264 480.231 218.132 480.642C218 481.038 217.905 481.383 217.846 481.676C217.142 481.705 216.313 481.735 215.36 481.764C214.407 481.779 213.417 481.793 212.39 481.808C211.363 481.808 210.381 481.808 209.442 481.808C208.503 481.793 207.689 481.771 207 481.742C205.885 481.698 204.939 481.537 204.162 481.258C203.399 480.965 202.747 480.473 202.204 479.784C201.676 480.136 201.133 480.488 200.576 480.84C200.033 481.192 199.454 481.559 198.838 481.94L197.936 479.85C198.449 479.615 198.999 479.344 199.586 479.036C200.187 478.713 200.759 478.391 201.302 478.068H203.062ZM227.812 481.214V481.918H236.678V481.214H227.812ZM227.812 483.194V483.92H236.678V483.194H227.812ZM227.812 479.212V479.938H236.678V479.212H227.812ZM225.304 477.87H239.296V485.284H225.304V477.87ZM233.202 484.514H235.798V486.164C235.798 486.428 235.857 486.597 235.974 486.67C236.106 486.729 236.392 486.758 236.832 486.758C236.935 486.758 237.103 486.758 237.338 486.758C237.587 486.758 237.851 486.758 238.13 486.758C238.409 486.758 238.673 486.758 238.922 486.758C239.171 486.758 239.369 486.758 239.516 486.758C239.751 486.758 239.927 486.721 240.044 486.648C240.161 486.56 240.249 486.399 240.308 486.164C240.367 485.929 240.411 485.57 240.44 485.086C240.689 485.247 241.027 485.401 241.452 485.548C241.892 485.695 242.281 485.805 242.618 485.878C242.53 486.626 242.383 487.205 242.178 487.616C241.987 488.027 241.694 488.313 241.298 488.474C240.917 488.65 240.411 488.738 239.78 488.738C239.677 488.738 239.509 488.738 239.274 488.738C239.054 488.738 238.805 488.738 238.526 488.738C238.262 488.738 237.991 488.738 237.712 488.738C237.448 488.738 237.206 488.738 236.986 488.738C236.781 488.738 236.619 488.738 236.502 488.738C235.637 488.738 234.962 488.657 234.478 488.496C234.009 488.349 233.679 488.085 233.488 487.704C233.297 487.337 233.202 486.824 233.202 486.164V484.514ZM228.362 484.668H230.958C230.811 485.299 230.591 485.856 230.298 486.34C230.005 486.824 229.565 487.235 228.978 487.572C228.391 487.924 227.621 488.21 226.668 488.43C225.715 488.665 224.512 488.848 223.06 488.98C222.972 488.687 222.811 488.335 222.576 487.924C222.356 487.528 222.136 487.205 221.916 486.956C223.163 486.897 224.182 486.817 224.974 486.714C225.766 486.597 226.389 486.45 226.844 486.274C227.313 486.098 227.658 485.878 227.878 485.614C228.098 485.35 228.259 485.035 228.362 484.668ZM234.39 471.688H241.188V473.162H234.39V471.688ZM234.346 469.444H242.2V471.072H234.346V469.444ZM226.822 469.62H228.89V471.688H226.822V469.62ZM226.822 474.02H228.89V476.11H226.822V474.02ZM224.424 471.248H231.64V474.834H224.424V473.47H229.418V472.612H224.424V471.248ZM239.12 474.944V476.044H240.044V474.944H239.12ZM236.942 474.944V476.044H237.844V474.944H236.942ZM234.808 474.944V476.044H235.666V474.944H234.808ZM233.07 473.734H241.848V477.276H233.07V473.734ZM234.148 468.344L236.392 468.696C236.069 469.547 235.659 470.361 235.16 471.138C234.661 471.915 234.016 472.634 233.224 473.294C233.019 473.045 232.747 472.766 232.41 472.458C232.073 472.15 231.765 471.93 231.486 471.798C232.175 471.314 232.733 470.764 233.158 470.148C233.598 469.532 233.928 468.931 234.148 468.344ZM232.08 468.96V470.456H225.26V475.736H232.256V477.232H223.038V468.96H232.08Z" fill="#1E1E1E"/>
</g>
</g>
<defs>
<clipPath id="clip0_7896_467">
<rect width="390" height="844" fill="white"/>
</clipPath>
<clipPath id="clip1_7896_467">
<rect width="20" height="20" fill="white" transform="translate(29 37)"/>
</clipPath>
<clipPath id="clip2_7896_467">
<rect width="20" height="20" fill="white" transform="translate(289 795)"/>
</clipPath>
<clipPath id="clip3_7896_467">
<rect width="20" height="20" fill="white" transform="translate(319 795)"/>
</clipPath>
<clipPath id="clip4_7896_467">
<rect width="18" height="18" fill="white" transform="translate(349 795)"/>
</clipPath>
</defs>
</svg>
