<svg width="390" height="844" viewBox="0 0 390 844" fill="none" xmlns="http://www.w3.org/2000/svg">
<rect width="390" height="844" fill="#EFEBE6"/>
<rect opacity="0.8" x="118" y="180" width="154" height="154" rx="12" fill="white" stroke="black" stroke-width="4"/>
<rect opacity="0.8" x="118" y="437" width="154" height="154" rx="12" fill="white" stroke="black" stroke-width="4"/>
<g filter="url(#filter0_d_736_3289)">
<path d="M151 264H193.2V231.1C193.2 226.5 189.4 222.7 184.8 222.7H159.3C154.7 222.7 151 226.4 151 231V264Z" fill="#F1C78A"/>
<path d="M178 244.4C178.939 244.4 179.7 243.639 179.7 242.7C179.7 241.761 178.939 241 178 241C177.061 241 176.3 241.761 176.3 242.7C176.3 243.639 177.061 244.4 178 244.4Z" fill="#040404"/>
<path d="M166.3 244.4C167.239 244.4 168 243.639 168 242.7C168 241.761 167.239 241 166.3 241C165.361 241 164.6 241.761 164.6 242.7C164.6 243.639 165.361 244.4 166.3 244.4Z" fill="#040404"/>
<path d="M152.6 278.9H191.6C192.5 278.9 193.2 278.2 193.2 277.3V263.6H151V277.3C151 278.2 151.7 278.9 152.6 278.9Z" fill="#F7A487"/>
<path d="M174.9 244.9H169.3C169.1 244.9 169 245 169 245.2V245.5C169 246.8 170.1 247.9 171.4 247.9H172.9C174.2 247.9 175.3 246.8 175.3 245.5V245.2C175.3 245.1 175.1 244.9 174.9 244.9Z" fill="#DD5B53"/>
<path d="M190.7 232H151V228C151 224.1 154.1 221 158 221H186.3C190.2 221 193.3 224.1 193.3 228V229.5C193.2 230.9 192.1 232 190.7 232Z" fill="#FECC33"/>
<path d="M158.2 237.5H157.5C153.7 237.5 150.7 234.4 150.7 230.7V229.8C150.7 228 152.1 226.6 153.9 226.6H159.2C161.9 226.6 164.2 228.8 164.2 231.6C164.2 234.8 161.5 237.5 158.2 237.5Z" fill="#FECC33"/>
<path d="M173.1 237.5H172.4C168.6 237.5 165.6 234.4 165.6 230.7V227.6C165.6 227.1 166 226.6 166.6 226.6H174.1C176.8 226.6 179.1 228.8 179.1 231.6C179.1 234.8 176.4 237.5 173.1 237.5Z" fill="#FECC33"/>
<path d="M187.8 237.5H187.1C183.3 237.5 180.3 234.4 180.3 230.7V227.6C180.3 227.1 180.7 226.6 181.3 226.6H188.8C191.5 226.6 193.8 228.8 193.8 231.6C193.8 234.8 191.1 237.5 187.8 237.5Z" fill="#FECC33"/>
<path d="M174 212.9H170.8C168 212.9 165.7 215.2 165.7 218V218.7C165.7 221.5 168 223.8 170.8 223.8H174C176.8 223.8 179.1 221.5 179.1 218.7V218C179.1 215.2 176.8 212.9 174 212.9Z" fill="#FECC33"/>
<path d="M196.5 264.3H238.7V231.4C238.7 226.8 234.9 223 230.3 223H204.8C200.2 223 196.5 226.7 196.5 231.3V264.3Z" fill="#F1C78A"/>
<path d="M223.5 244.6C224.439 244.6 225.2 243.839 225.2 242.9C225.2 241.961 224.439 241.2 223.5 241.2C222.561 241.2 221.8 241.961 221.8 242.9C221.8 243.839 222.561 244.6 223.5 244.6Z" fill="#040404"/>
<path d="M211.8 244.6C212.739 244.6 213.5 243.839 213.5 242.9C213.5 241.961 212.739 241.2 211.8 241.2C210.861 241.2 210.1 241.961 210.1 242.9C210.1 243.839 210.861 244.6 211.8 244.6Z" fill="#040404"/>
<path d="M198.1 279.2H237.1C238 279.2 238.7 278.5 238.7 277.6V263.9H196.5V277.6C196.5 278.5 197.2 279.2 198.1 279.2Z" fill="#85997B"/>
<path d="M220.4 245.2H214.8C214.6 245.2 214.5 245.3 214.5 245.5V245.8C214.5 247.1 215.6 248.2 216.9 248.2H218.4C219.7 248.2 220.8 247.1 220.8 245.8V245.5C220.8 245.3 220.6 245.2 220.4 245.2Z" fill="#DD5B53"/>
<path d="M236.2 232.3H196.5V228.3C196.5 224.4 199.6 221.3 203.5 221.3H231.8C235.7 221.3 238.8 224.4 238.8 228.3V229.8C238.7 231.1 237.6 232.3 236.2 232.3Z" fill="#C58867"/>
<path d="M203.7 237.7H203C199.2 237.7 196.2 234.6 196.2 230.9V230C196.2 228.2 197.6 226.8 199.4 226.8H204.7C207.4 226.8 209.7 229 209.7 231.8C209.7 235 207 237.7 203.7 237.7Z" fill="#C58867"/>
<path d="M218.7 237.7H218C214.2 237.7 211.2 234.6 211.2 230.9V227.8C211.2 227.3 211.6 226.8 212.2 226.8H219.7C222.4 226.8 224.7 229 224.7 231.8C224.6 235 222 237.7 218.7 237.7Z" fill="#C58867"/>
<path d="M233.3 237.7H232.6C228.8 237.7 225.8 234.6 225.8 230.9V227.8C225.8 227.3 226.2 226.8 226.8 226.8H234.3C237 226.8 239.3 229 239.3 231.8C239.3 235 236.6 237.7 233.3 237.7Z" fill="#C58867"/>
<path d="M174 285.7H216.2V252.8C216.2 248.2 212.4 244.4 207.8 244.4H182.3C177.7 244.4 174 248.1 174 252.7V285.7Z" fill="#F1C78A"/>
<path d="M200.9 266.1C201.839 266.1 202.6 265.339 202.6 264.4C202.6 263.461 201.839 262.7 200.9 262.7C199.961 262.7 199.2 263.461 199.2 264.4C199.2 265.339 199.961 266.1 200.9 266.1Z" fill="#040404"/>
<path d="M189.2 266.1C190.139 266.1 190.9 265.339 190.9 264.4C190.9 263.461 190.139 262.7 189.2 262.7C188.261 262.7 187.5 263.461 187.5 264.4C187.5 265.339 188.261 266.1 189.2 266.1Z" fill="#040404"/>
<path d="M175.6 300.6H214.6C215.5 300.6 216.2 299.9 216.2 299V285.3H174V299C174 299.9 174.7 300.6 175.6 300.6Z" fill="#95B6BA"/>
<path d="M197.9 266.6H192.3C192.1 266.6 192 266.7 192 266.9V267.2C192 268.5 193.1 269.6 194.4 269.6H195.9C197.2 269.6 198.3 268.5 198.3 267.2V266.9C198.2 266.7 198.1 266.6 197.9 266.6Z" fill="#DD5B53"/>
<path d="M215.3 253.7H175.1C174.4 253.7 173.9 253.2 173.9 252.5V248.1C173.9 245.1 176.3 242.7 179.3 242.7L215.9 243.7C216.6 243.7 217.1 244.3 217.1 245L216.2 252.8C216.2 253.3 215.8 253.7 215.3 253.7Z" fill="#99CB99"/>
</g>
<g filter="url(#filter1_d_736_3289)">
<path d="M165.2 532.4H222.8V487.5C222.8 481.2 217.7 476 211.3 476H176.5C170.3 476 165.2 481.1 165.2 487.3V532.4Z" fill="#F1C78A"/>
<path d="M202 505.5C203.27 505.5 204.3 504.47 204.3 503.2C204.3 501.93 203.27 500.9 202 500.9C200.73 500.9 199.7 501.93 199.7 503.2C199.7 504.47 200.73 505.5 202 505.5Z" fill="#040404"/>
<path d="M186 505.5C187.27 505.5 188.3 504.47 188.3 503.2C188.3 501.93 187.27 500.9 186 500.9C184.73 500.9 183.7 501.93 183.7 503.2C183.7 504.47 184.73 505.5 186 505.5Z" fill="#040404"/>
<path d="M167.4 552.7H220.6C221.8 552.7 222.8 551.7 222.8 550.5V531.7H165.2V550.4C165.2 551.7 166.2 552.7 167.4 552.7Z" fill="#85997B"/>
<path d="M197.9 506.3H190.3C190.1 506.3 189.9 506.5 189.9 506.7V507.1C189.9 508.9 191.3 510.3 193.1 510.3H195.1C196.9 510.3 198.3 508.9 198.3 507.1V506.7C198.3 506.5 198.1 506.3 197.9 506.3Z" fill="#DD5B53"/>
<path d="M219.4 488.7H165.2V483.3C165.2 478 169.5 473.8 174.7 473.8H213.3C218.6 473.8 222.8 478.1 222.8 483.3V485.3C222.8 487.1 221.3 488.7 219.4 488.7Z" fill="#C58867"/>
<path d="M175.1 496.1H174.2C169.1 496.1 164.9 491.9 164.9 486.8V485.6C164.9 483.2 166.9 481.2 169.3 481.2H176.5C180.2 481.2 183.3 484.2 183.3 488C183.2 492.5 179.6 496.1 175.1 496.1Z" fill="#C58867"/>
<path d="M195.4 496.1H194.5C189.4 496.1 185.2 491.9 185.2 486.8V482.5C185.2 481.8 185.8 481.2 186.5 481.2H196.8C200.5 481.2 203.6 484.2 203.6 488C203.6 492.5 199.9 496.1 195.4 496.1Z" fill="#C58867"/>
<path d="M215.4 496.1H214.5C209.4 496.1 205.2 491.9 205.2 486.8V482.5C205.2 481.8 205.8 481.2 206.5 481.2H216.8C220.5 481.2 223.6 484.2 223.6 488C223.6 492.5 219.9 496.1 215.4 496.1Z" fill="#C58867"/>
</g>
<path d="M163.148 360.1H178.632V361.948H163.148V360.1ZM162.756 371.776H178.996V373.596H162.756V371.776ZM165.36 374.436L167.488 373.428C167.861 373.783 168.234 374.193 168.608 374.66C169 375.108 169.298 375.509 169.504 375.864L167.264 376.984C167.096 376.629 166.825 376.209 166.452 375.724C166.097 375.239 165.733 374.809 165.36 374.436ZM166.48 366.26V367.1H175.216V366.26H166.48ZM166.48 364.132V364.944H175.216V364.132H166.48ZM163.904 362.732H177.904V368.5H163.904V362.732ZM172.612 370.964H175.384V375.36C175.384 375.901 175.309 376.293 175.16 376.536C175.029 376.76 174.768 376.928 174.376 377.04C174.002 377.152 173.526 377.227 172.948 377.264C172.388 377.283 171.716 377.292 170.932 377.292C170.857 376.993 170.754 376.695 170.624 376.396C170.512 376.097 170.39 375.827 170.26 375.584C170.652 375.603 171.044 375.612 171.436 375.612C171.846 375.612 172.117 375.612 172.248 375.612C172.397 375.612 172.49 375.584 172.528 375.528C172.584 375.472 172.612 375.379 172.612 375.248V370.964ZM163.232 369.396C164.37 369.396 165.677 369.405 167.152 369.424C168.645 369.424 170.222 369.415 171.884 369.396C173.545 369.377 175.206 369.359 176.868 369.34L176.812 370.824C175.188 370.88 173.564 370.936 171.94 370.992C170.334 371.029 168.794 371.067 167.32 371.104C165.864 371.141 164.529 371.169 163.316 371.188L163.232 369.396ZM174.152 369.144L175.86 368.024C176.401 368.379 176.952 368.817 177.512 369.34C178.072 369.844 178.501 370.292 178.8 370.684L177.064 371.972C176.746 371.561 176.308 371.085 175.748 370.544C175.188 369.984 174.656 369.517 174.152 369.144ZM169.476 359.092H172.22V370.012L169.476 370.124V359.092ZM159.172 356.152H182.832V381.464H179.64V358.672H162.224V381.52H159.172V356.152ZM160.684 377.6H180.9V380.148H160.684V377.6ZM210.536 367.268H223.948V369.508H210.536V367.268ZM209.92 378.804H224.256V381.184H209.92V378.804ZM214.232 355.2H216.556V359.064H214.232V355.2ZM217.76 355.2H220.14V359.064H217.76V355.2ZM214.176 372.364V373.904H220.168V372.364H214.176ZM211.488 370.404H222.996V375.864H211.488V370.404ZM213.56 362.9V364.188H220.812V362.9H213.56ZM213.56 359.68V360.912H220.812V359.68H213.56ZM211.096 357.552H223.388V366.316H211.096V357.552ZM212.496 376.48L214.764 375.668C215.1 376.153 215.39 376.695 215.632 377.292C215.894 377.889 216.071 378.421 216.164 378.888L213.756 379.812C213.7 379.364 213.551 378.823 213.308 378.188C213.066 377.553 212.795 376.984 212.496 376.48ZM219.3 375.64L222.044 376.284C221.69 376.9 221.335 377.516 220.98 378.132C220.644 378.729 220.336 379.243 220.056 379.672L217.956 379.028C218.218 378.543 218.47 377.983 218.712 377.348C218.974 376.695 219.17 376.125 219.3 375.64ZM201.66 370.992H207.792V373.176H201.66V370.992ZM201.66 374.464H207.792V376.704H201.66V374.464ZM200.064 367.492H207.652V369.76H202.864V381.52H200.064V367.492ZM205.888 367.492H208.744V378.692C208.744 379.308 208.688 379.793 208.576 380.148C208.464 380.521 208.212 380.82 207.82 381.044C207.447 381.268 207.008 381.399 206.504 381.436C206.019 381.492 205.45 381.52 204.796 381.52C204.74 381.147 204.638 380.708 204.488 380.204C204.358 379.719 204.199 379.308 204.012 378.972C204.348 378.991 204.666 379 204.964 379C205.263 379 205.468 379 205.58 379C205.786 378.981 205.888 378.869 205.888 378.664V367.492ZM199.98 356.096H208.828V365.14H206.308V358.476H202.388V365.14H199.98V356.096ZM198.384 364.076H210.536V368.472H208.016V366.344H200.792V368.472H198.384V364.076ZM203.368 359.596H207.988V361.5H205.16V364.832H203.368V359.596ZM214.736 358.504H216.556V365.28H214.736V358.504ZM217.76 358.504H219.58V365.28H217.76V358.504Z" fill="black"/>
<path d="M170.452 619.656H187.28V644.24H184.088V622.568H173.532V644.492H170.452V619.656ZM174.26 625.984H183.472V628.42H174.26V625.984ZM172.048 639.928H185.628V642.84H172.048V639.928ZM177.452 623.128H180.056V632.144H177.452V623.128ZM177.396 633.18V636.12H180.224V633.18H177.396ZM174.96 630.856H182.772V638.416H174.96V630.856ZM167.008 618.284L170.06 619.236C169.537 620.841 168.893 622.465 168.128 624.108C167.381 625.732 166.56 627.272 165.664 628.728C164.768 630.165 163.825 631.444 162.836 632.564C162.761 632.284 162.63 631.911 162.444 631.444C162.257 630.977 162.052 630.511 161.828 630.044C161.604 629.577 161.408 629.195 161.24 628.896C162.024 628.037 162.77 627.039 163.48 625.9C164.208 624.761 164.87 623.548 165.468 622.26C166.065 620.953 166.578 619.628 167.008 618.284ZM164.712 625.984L167.876 622.82L167.904 622.848V644.548H164.712V625.984ZM212.688 618.872H216.552C216.515 619.656 216.45 620.664 216.356 621.896C216.263 623.128 216.086 624.5 215.824 626.012C215.582 627.505 215.208 629.073 214.704 630.716C214.2 632.359 213.51 634.001 212.632 635.644C211.774 637.268 210.672 638.827 209.328 640.32C208.003 641.795 206.388 643.111 204.484 644.268C204.186 643.839 203.775 643.381 203.252 642.896C202.748 642.411 202.216 641.972 201.656 641.58C203.523 640.535 205.091 639.34 206.36 637.996C207.63 636.652 208.666 635.243 209.468 633.768C210.271 632.275 210.887 630.781 211.316 629.288C211.746 627.776 212.054 626.348 212.24 625.004C212.427 623.66 212.539 622.456 212.576 621.392C212.614 620.328 212.651 619.488 212.688 618.872ZM216.412 619.628C216.431 619.983 216.468 620.543 216.524 621.308C216.58 622.073 216.692 622.988 216.86 624.052C217.028 625.116 217.28 626.273 217.616 627.524C217.971 628.756 218.438 630.025 219.016 631.332C219.595 632.639 220.314 633.917 221.172 635.168C222.031 636.419 223.067 637.576 224.28 638.64C225.512 639.704 226.95 640.628 228.592 641.412C228.051 641.804 227.547 642.261 227.08 642.784C226.632 643.307 226.268 643.801 225.988 644.268C224.271 643.409 222.768 642.392 221.48 641.216C220.211 640.021 219.119 638.733 218.204 637.352C217.308 635.952 216.562 634.533 215.964 633.096C215.367 631.659 214.882 630.249 214.508 628.868C214.154 627.468 213.883 626.171 213.696 624.976C213.51 623.781 213.379 622.745 213.304 621.868C213.248 620.991 213.202 620.356 213.164 619.964L216.412 619.628Z" fill="black"/>
<path d="M105.068 122.352H117.036V125.168H105.068V122.352ZM105.068 127.408H117.036V130.224H105.068V127.408ZM105.004 132.496H118.54V135.632H105.004V132.496ZM100.3 109.808H118.38V115.632H114.956V113.008H103.532V115.632H100.3V109.808ZM109.388 119.664H112.908V134H109.388V119.664ZM106.252 117.04H117.74V120.208H106.252V136.88H102.636V120.368L105.9 117.04H106.252ZM107.916 106.768L111.564 107.472C110.711 110.928 109.484 114.011 107.884 116.72C106.284 119.429 104.311 121.648 101.964 123.376C101.793 123.141 101.548 122.843 101.228 122.48C100.929 122.096 100.609 121.723 100.268 121.36C99.9267 120.997 99.628 120.709 99.372 120.496C101.548 119.067 103.351 117.168 104.78 114.8C106.209 112.432 107.255 109.755 107.916 106.768ZM111.372 113.808L114.892 114.544C114.487 115.419 114.071 116.272 113.644 117.104C113.239 117.915 112.865 118.619 112.524 119.216L109.644 118.48C109.943 117.819 110.263 117.051 110.604 116.176C110.945 115.301 111.201 114.512 111.372 113.808ZM89.036 108.72H100.556V112.208H89.036V108.72ZM92.62 118.128H100.076V133.008H92.62V129.712H96.844V121.424H92.62V118.128ZM92.332 110.576L95.916 111.12C95.6173 113.424 95.212 115.685 94.7 117.904C94.188 120.101 93.5373 122.171 92.748 124.112C91.98 126.032 91.0627 127.717 89.996 129.168C89.8893 128.869 89.708 128.485 89.452 128.016C89.2173 127.547 88.9613 127.077 88.684 126.608C88.428 126.139 88.1827 125.765 87.948 125.488C88.78 124.315 89.4733 122.939 90.028 121.36C90.604 119.781 91.0733 118.075 91.436 116.24C91.82 114.405 92.1187 112.517 92.332 110.576ZM91.116 118.128H94.22V135.504H91.116V118.128ZM141.836 109.392H145.292C145.143 110.672 144.919 111.963 144.62 113.264C144.343 114.544 143.916 115.781 143.34 116.976C142.764 118.149 141.996 119.259 141.036 120.304C140.097 121.328 138.881 122.224 137.388 122.992C137.196 122.544 136.887 122.053 136.46 121.52C136.033 120.987 135.628 120.571 135.244 120.272C136.524 119.653 137.569 118.928 138.38 118.096C139.191 117.264 139.831 116.368 140.3 115.408C140.769 114.448 141.111 113.456 141.324 112.432C141.559 111.408 141.729 110.395 141.836 109.392ZM136.3 114.864L138.092 112.208C139.159 112.507 140.247 112.891 141.356 113.36C142.487 113.829 143.553 114.32 144.556 114.832C145.58 115.344 146.444 115.824 147.148 116.272L145.324 119.248C144.641 118.736 143.788 118.213 142.764 117.68C141.761 117.125 140.695 116.603 139.564 116.112C138.455 115.6 137.367 115.184 136.3 114.864ZM149.164 108.048H152.748C152.748 108.048 152.748 108.144 152.748 108.336C152.748 108.507 152.737 108.709 152.716 108.944C152.716 109.157 152.705 109.328 152.684 109.456C152.599 111.888 152.492 113.883 152.364 115.44C152.236 116.976 152.076 118.171 151.884 119.024C151.713 119.856 151.489 120.443 151.212 120.784C150.892 121.189 150.561 121.477 150.22 121.648C149.9 121.819 149.516 121.936 149.068 122C148.684 122.085 148.183 122.139 147.564 122.16C146.945 122.16 146.284 122.149 145.58 122.128C145.559 121.595 145.452 121.008 145.26 120.368C145.089 119.707 144.876 119.141 144.62 118.672C145.175 118.736 145.676 118.779 146.124 118.8C146.572 118.8 146.924 118.8 147.18 118.8C147.585 118.821 147.905 118.693 148.14 118.416C148.289 118.203 148.428 117.765 148.556 117.104C148.684 116.421 148.791 115.397 148.876 114.032C148.983 112.667 149.079 110.864 149.164 108.624V108.048ZM139.82 125.328H143.34V132.304C143.34 132.752 143.383 133.04 143.468 133.168C143.553 133.275 143.745 133.328 144.044 133.328C144.108 133.328 144.215 133.328 144.364 133.328C144.513 133.328 144.673 133.328 144.844 133.328C145.015 133.328 145.175 133.328 145.324 133.328C145.495 133.328 145.612 133.328 145.676 133.328C145.889 133.328 146.049 133.253 146.156 133.104C146.263 132.955 146.348 132.645 146.412 132.176C146.476 131.685 146.519 130.949 146.54 129.968C146.753 130.139 147.041 130.32 147.404 130.512C147.788 130.683 148.172 130.843 148.556 130.992C148.961 131.12 149.324 131.237 149.644 131.344C149.537 132.731 149.345 133.808 149.068 134.576C148.812 135.365 148.439 135.899 147.948 136.176C147.479 136.475 146.86 136.624 146.092 136.624C145.943 136.624 145.74 136.624 145.484 136.624C145.249 136.624 145.004 136.624 144.748 136.624C144.492 136.624 144.247 136.624 144.012 136.624C143.777 136.624 143.585 136.624 143.436 136.624C142.455 136.624 141.697 136.485 141.164 136.208C140.652 135.952 140.3 135.515 140.108 134.896C139.916 134.277 139.82 133.435 139.82 132.368V125.328ZM136.556 126.576L139.596 127.376C139.511 128.315 139.372 129.264 139.18 130.224C138.988 131.184 138.732 132.091 138.412 132.944C138.092 133.776 137.665 134.512 137.132 135.152L134.316 133.456C134.764 132.901 135.137 132.261 135.436 131.536C135.735 130.789 135.969 129.989 136.14 129.136C136.332 128.283 136.471 127.429 136.556 126.576ZM140.556 123.12L142.764 120.88C143.447 121.221 144.151 121.627 144.876 122.096C145.601 122.544 146.284 123.024 146.924 123.536C147.585 124.027 148.119 124.496 148.524 124.944L146.124 127.44C145.761 126.971 145.271 126.48 144.652 125.968C144.055 125.456 143.393 124.955 142.668 124.464C141.943 123.952 141.239 123.504 140.556 123.12ZM147.596 127.088L150.7 125.84C151.276 126.651 151.799 127.525 152.268 128.464C152.737 129.403 153.143 130.341 153.484 131.28C153.825 132.197 154.071 133.029 154.22 133.776L150.828 135.184C150.743 134.416 150.54 133.573 150.22 132.656C149.9 131.717 149.516 130.757 149.068 129.776C148.62 128.795 148.129 127.899 147.596 127.088ZM136.748 108.048H150.796V111.248H136.748V108.048ZM125.1 116.624H134.476V119.536H125.1V116.624ZM125.228 107.824H134.412V110.704H125.228V107.824ZM125.1 121.008H134.476V123.888H125.1V121.008ZM123.66 112.112H135.34V115.152H123.66V112.112ZM126.764 125.424H134.54V135.184H126.764V132.144H131.34V128.464H126.764V125.424ZM125.036 125.424H128.204V136.432H125.036V125.424ZM159.276 127.76H188.556V130.672H159.276V127.76ZM167.532 109.456H188.524V112.016H167.532V109.456ZM177.932 126.032H181.612V133.232C181.612 134.085 181.505 134.757 181.292 135.248C181.1 135.739 180.673 136.112 180.012 136.368C179.372 136.603 178.615 136.741 177.74 136.784C176.865 136.848 175.831 136.88 174.636 136.88C174.572 136.368 174.423 135.803 174.188 135.184C173.953 134.565 173.708 134.021 173.452 133.552C173.964 133.573 174.487 133.595 175.02 133.616C175.553 133.637 176.023 133.648 176.428 133.648C176.833 133.627 177.111 133.616 177.26 133.616C177.516 133.616 177.687 133.584 177.772 133.52C177.879 133.435 177.932 133.307 177.932 133.136V126.032ZM164.684 132.048L167.308 129.936C167.82 130.256 168.353 130.629 168.908 131.056C169.463 131.461 169.996 131.877 170.508 132.304C171.02 132.731 171.436 133.136 171.756 133.52L168.94 135.856C168.663 135.493 168.289 135.077 167.82 134.608C167.351 134.16 166.839 133.712 166.284 133.264C165.729 132.816 165.196 132.411 164.684 132.048ZM160.14 109.264L162.636 107.152C163.169 107.515 163.724 107.931 164.3 108.4C164.897 108.869 165.441 109.339 165.932 109.808C166.444 110.277 166.839 110.715 167.116 111.12L164.492 113.424C164.215 113.019 163.831 112.571 163.34 112.08C162.871 111.568 162.359 111.067 161.804 110.576C161.249 110.085 160.695 109.648 160.14 109.264ZM171.244 107.344L174.348 106.768C174.689 107.237 175.02 107.771 175.34 108.368C175.66 108.944 175.884 109.467 176.012 109.936L172.748 110.576C172.62 110.149 172.407 109.637 172.108 109.04C171.831 108.421 171.543 107.856 171.244 107.344ZM173.612 117.296V118.288H182.22V117.296H173.612ZM173.612 119.92V120.944H182.22V119.92H173.612ZM173.612 114.736V115.664H182.22V114.736H173.612ZM170.06 113.04H185.932V122.608H170.06V113.04ZM166.572 114.768V122.288H163.116V117.648H159.372V114.768H166.572ZM176.076 110.512L179.884 110.768C179.628 111.365 179.383 111.92 179.148 112.432C178.935 112.944 178.743 113.392 178.572 113.776L175.532 113.392C175.66 112.923 175.767 112.432 175.852 111.92C175.959 111.387 176.033 110.917 176.076 110.512ZM181.612 106.736L185.228 107.312C184.844 107.931 184.46 108.507 184.076 109.04C183.713 109.552 183.383 110 183.084 110.384L180.044 109.808C180.321 109.339 180.599 108.827 180.876 108.272C181.175 107.696 181.42 107.184 181.612 106.736ZM166.572 121.008C167.105 121.883 167.852 122.523 168.812 122.928C169.772 123.333 170.935 123.557 172.3 123.6C173.089 123.621 174.017 123.643 175.084 123.664C176.172 123.685 177.335 123.696 178.572 123.696C179.809 123.675 181.057 123.653 182.316 123.632C183.575 123.589 184.78 123.547 185.932 123.504C187.105 123.44 188.14 123.387 189.036 123.344C188.865 123.685 188.684 124.155 188.492 124.752C188.3 125.328 188.161 125.829 188.076 126.256C187.052 126.299 185.847 126.341 184.46 126.384C183.073 126.405 181.633 126.427 180.14 126.448C178.647 126.448 177.217 126.448 175.852 126.448C174.487 126.427 173.303 126.395 172.3 126.352C170.679 126.288 169.303 126.053 168.172 125.648C167.063 125.221 166.113 124.507 165.324 123.504C164.556 124.016 163.767 124.528 162.956 125.04C162.167 125.552 161.324 126.085 160.428 126.64L159.116 123.6C159.863 123.259 160.663 122.864 161.516 122.416C162.391 121.947 163.223 121.477 164.012 121.008H166.572ZM202.572 125.584V126.608H215.468V125.584H202.572ZM202.572 128.464V129.52H215.468V128.464H202.572ZM202.572 122.672V123.728H215.468V122.672H202.572ZM198.924 120.72H219.276V131.504H198.924V120.72ZM210.412 130.384H214.188V132.784C214.188 133.168 214.273 133.413 214.444 133.52C214.636 133.605 215.052 133.648 215.692 133.648C215.841 133.648 216.087 133.648 216.428 133.648C216.791 133.648 217.175 133.648 217.58 133.648C217.985 133.648 218.369 133.648 218.732 133.648C219.095 133.648 219.383 133.648 219.596 133.648C219.937 133.648 220.193 133.595 220.364 133.488C220.535 133.36 220.663 133.125 220.748 132.784C220.833 132.443 220.897 131.92 220.94 131.216C221.303 131.451 221.793 131.675 222.412 131.888C223.052 132.101 223.617 132.261 224.108 132.368C223.98 133.456 223.767 134.299 223.468 134.896C223.191 135.493 222.764 135.909 222.188 136.144C221.633 136.4 220.897 136.528 219.98 136.528C219.831 136.528 219.585 136.528 219.244 136.528C218.924 136.528 218.561 136.528 218.156 136.528C217.772 136.528 217.377 136.528 216.972 136.528C216.588 136.528 216.236 136.528 215.916 136.528C215.617 136.528 215.383 136.528 215.212 136.528C213.953 136.528 212.972 136.411 212.268 136.176C211.585 135.963 211.105 135.579 210.828 135.024C210.551 134.491 210.412 133.744 210.412 132.784V130.384ZM203.372 130.608H207.148C206.935 131.525 206.615 132.336 206.188 133.04C205.761 133.744 205.121 134.341 204.268 134.832C203.415 135.344 202.295 135.76 200.908 136.08C199.521 136.421 197.772 136.688 195.66 136.88C195.532 136.453 195.297 135.941 194.956 135.344C194.636 134.768 194.316 134.299 193.996 133.936C195.809 133.851 197.292 133.733 198.444 133.584C199.596 133.413 200.503 133.2 201.164 132.944C201.847 132.688 202.348 132.368 202.668 131.984C202.988 131.6 203.223 131.141 203.372 130.608ZM212.14 111.728H222.028V113.872H212.14V111.728ZM212.076 108.464H223.5V110.832H212.076V108.464ZM201.132 108.72H204.14V111.728H201.132V108.72ZM201.132 115.12H204.14V118.16H201.132V115.12ZM197.644 111.088H208.14V116.304H197.644V114.32H204.908V113.072H197.644V111.088ZM219.02 116.464V118.064H220.364V116.464H219.02ZM215.852 116.464V118.064H217.164V116.464H215.852ZM212.748 116.464V118.064H213.996V116.464H212.748ZM210.22 114.704H222.988V119.856H210.22V114.704ZM211.788 106.864L215.052 107.376C214.583 108.613 213.985 109.797 213.26 110.928C212.535 112.059 211.596 113.104 210.444 114.064C210.145 113.701 209.751 113.296 209.26 112.848C208.769 112.4 208.321 112.08 207.916 111.888C208.919 111.184 209.729 110.384 210.348 109.488C210.988 108.592 211.468 107.717 211.788 106.864ZM208.78 107.76V109.936H198.86V117.616H209.036V119.792H195.628V107.76H208.78ZM241.612 107.568H246.028C245.985 108.464 245.911 109.616 245.804 111.024C245.697 112.432 245.495 114 245.196 115.728C244.919 117.435 244.492 119.227 243.916 121.104C243.34 122.981 242.551 124.859 241.548 126.736C240.567 128.592 239.308 130.373 237.772 132.08C236.257 133.765 234.412 135.269 232.236 136.592C231.895 136.101 231.425 135.579 230.828 135.024C230.252 134.469 229.644 133.968 229.004 133.52C231.137 132.325 232.929 130.96 234.38 129.424C235.831 127.888 237.015 126.277 237.932 124.592C238.849 122.885 239.553 121.179 240.044 119.472C240.535 117.744 240.887 116.112 241.1 114.576C241.313 113.04 241.441 111.664 241.484 110.448C241.527 109.232 241.569 108.272 241.612 107.568ZM245.868 108.432C245.889 108.837 245.932 109.477 245.996 110.352C246.06 111.227 246.188 112.272 246.38 113.488C246.572 114.704 246.86 116.027 247.244 117.456C247.649 118.864 248.183 120.315 248.844 121.808C249.505 123.301 250.327 124.763 251.308 126.192C252.289 127.621 253.473 128.944 254.86 130.16C256.268 131.376 257.911 132.432 259.788 133.328C259.169 133.776 258.593 134.299 258.06 134.896C257.548 135.493 257.132 136.059 256.812 136.592C254.849 135.611 253.132 134.448 251.66 133.104C250.209 131.739 248.961 130.267 247.916 128.688C246.892 127.088 246.039 125.467 245.356 123.824C244.673 122.181 244.119 120.571 243.692 118.992C243.287 117.392 242.977 115.909 242.764 114.544C242.551 113.179 242.401 111.995 242.316 110.992C242.252 109.989 242.199 109.264 242.156 108.816L245.868 108.432ZM283.884 112.656H294.54V116.208H283.884V112.656ZM284.236 106.8L287.884 107.312C287.585 109.509 287.191 111.653 286.7 113.744C286.231 115.835 285.644 117.787 284.94 119.6C284.257 121.413 283.447 123.003 282.508 124.368C282.337 124.133 282.081 123.835 281.74 123.472C281.42 123.109 281.079 122.757 280.716 122.416C280.353 122.053 280.033 121.765 279.756 121.552C280.588 120.4 281.292 119.045 281.868 117.488C282.444 115.931 282.924 114.245 283.308 112.432C283.692 110.597 284.001 108.72 284.236 106.8ZM289.388 114.736L292.972 114.992C292.609 118.533 292.023 121.691 291.212 124.464C290.401 127.237 289.26 129.659 287.788 131.728C286.316 133.797 284.407 135.557 282.06 137.008C281.953 136.731 281.772 136.389 281.516 135.984C281.281 135.6 281.025 135.205 280.748 134.8C280.471 134.416 280.215 134.096 279.98 133.84C282.092 132.688 283.788 131.216 285.068 129.424C286.369 127.611 287.351 125.477 288.012 123.024C288.673 120.571 289.132 117.808 289.388 114.736ZM285.9 115.632C286.284 118.32 286.817 120.859 287.5 123.248C288.204 125.637 289.132 127.749 290.284 129.584C291.457 131.397 292.929 132.827 294.7 133.872C294.444 134.107 294.145 134.405 293.804 134.768C293.484 135.131 293.175 135.504 292.876 135.888C292.599 136.272 292.375 136.624 292.204 136.944C290.263 135.643 288.663 133.968 287.404 131.92C286.167 129.872 285.175 127.515 284.428 124.848C283.681 122.16 283.095 119.237 282.668 116.08L285.9 115.632ZM271.532 106.8H274.796V123.92H271.532V106.8ZM269.676 110.8V115.44H276.812V110.8H269.676ZM266.508 108.4H280.14V117.872H266.508V108.4ZM269.004 121.2V122.544H277.452V121.2H269.004ZM265.868 118.896H280.78V124.848H265.868V118.896ZM264.556 126.16C266.071 126.16 267.788 126.149 269.708 126.128C271.649 126.107 273.687 126.085 275.82 126.064C277.975 126.021 280.129 125.989 282.284 125.968L282.156 128.688C280.065 128.731 277.953 128.773 275.82 128.816C273.708 128.859 271.692 128.901 269.772 128.944C267.873 128.965 266.177 128.987 264.684 129.008L264.556 126.16ZM270.764 124.176L273.932 124.88C273.463 125.733 272.961 126.629 272.428 127.568C271.916 128.507 271.393 129.403 270.86 130.256C270.348 131.109 269.868 131.877 269.42 132.56L266.348 131.792C266.796 131.131 267.276 130.363 267.788 129.488C268.321 128.613 268.844 127.717 269.356 126.8C269.889 125.861 270.359 124.987 270.764 124.176ZM268.812 131.824L270.636 129.584C271.852 130.011 273.079 130.491 274.316 131.024C275.553 131.536 276.716 132.069 277.804 132.624C278.892 133.157 279.809 133.669 280.556 134.16L278.22 136.528C277.516 136.016 276.652 135.472 275.628 134.896C274.625 134.341 273.537 133.797 272.364 133.264C271.191 132.731 270.007 132.251 268.812 131.824ZM276.204 127.504L279.436 127.856C278.988 129.755 278.241 131.301 277.196 132.496C276.172 133.691 274.796 134.629 273.068 135.312C271.34 136.016 269.196 136.581 266.636 137.008C266.551 136.496 266.369 135.963 266.092 135.408C265.836 134.875 265.58 134.427 265.324 134.064C267.479 133.872 269.281 133.541 270.732 133.072C272.204 132.603 273.377 131.92 274.252 131.024C275.148 130.128 275.799 128.955 276.204 127.504ZM264.46 111.76H267.692V111.952H278.604V111.76H282.252V114.48H278.604V114.288H267.692V114.48H264.46V111.76Z" fill="black"/>
<g clip-path="url(#clip0_736_3289)">
<path d="M315.5 109.5C313.028 109.5 310.611 110.233 308.555 111.607C306.5 112.98 304.898 114.932 303.952 117.216C303.005 119.501 302.758 122.014 303.24 124.439C303.723 126.863 304.913 129.091 306.661 130.839C308.409 132.587 310.637 133.778 313.061 134.26C315.486 134.742 317.999 134.495 320.284 133.548C322.568 132.602 324.52 131 325.893 128.945C327.267 126.889 328 124.472 328 122C327.996 118.686 326.678 115.509 324.335 113.165C321.991 110.822 318.814 109.504 315.5 109.5ZM315.5 130.333C315.294 130.333 315.093 130.272 314.921 130.158C314.75 130.043 314.616 129.881 314.538 129.69C314.459 129.5 314.438 129.291 314.478 129.088C314.519 128.886 314.618 128.701 314.763 128.555C314.909 128.409 315.095 128.31 315.297 128.27C315.499 128.23 315.708 128.25 315.899 128.329C316.089 128.408 316.252 128.542 316.366 128.713C316.481 128.884 316.542 129.086 316.542 129.292C316.542 129.568 316.432 129.833 316.237 130.028C316.041 130.224 315.776 130.333 315.5 130.333ZM317.51 122.527C317.203 122.719 316.952 122.989 316.782 123.309C316.612 123.629 316.529 123.989 316.542 124.351V125.125C316.542 125.401 316.432 125.666 316.237 125.862C316.041 126.057 315.776 126.167 315.5 126.167C315.224 126.167 314.959 126.057 314.763 125.862C314.568 125.666 314.458 125.401 314.458 125.125V124.351C314.443 123.616 314.625 122.89 314.984 122.249C315.344 121.608 315.869 121.075 316.504 120.705C316.889 120.493 317.197 120.165 317.384 119.767C317.571 119.37 317.628 118.923 317.546 118.492C317.465 118.08 317.263 117.703 316.966 117.407C316.669 117.111 316.291 116.91 315.879 116.83C315.579 116.775 315.27 116.786 314.975 116.863C314.679 116.94 314.404 117.081 314.169 117.276C313.934 117.471 313.745 117.715 313.615 117.992C313.485 118.268 313.417 118.57 313.417 118.875C313.417 119.151 313.307 119.416 313.112 119.612C312.916 119.807 312.651 119.917 312.375 119.917C312.099 119.917 311.834 119.807 311.638 119.612C311.443 119.416 311.333 119.151 311.333 118.875C311.334 118.14 311.528 117.418 311.897 116.783C312.267 116.148 312.797 115.621 313.436 115.257C314.074 114.893 314.797 114.704 315.532 114.71C316.267 114.716 316.987 114.916 317.62 115.29C318.253 115.663 318.775 116.198 319.135 116.839C319.494 117.48 319.677 118.205 319.666 118.94C319.655 119.674 319.45 120.393 319.071 121.023C318.693 121.653 318.154 122.172 317.51 122.527Z" fill="black"/>
</g>
<defs>
<filter id="filter0_d_736_3289" x="133" y="197" width="124" height="124" filterUnits="userSpaceOnUse" color-interpolation-filters="sRGB">
<feFlood flood-opacity="0" result="BackgroundImageFix"/>
<feColorMatrix in="SourceAlpha" type="matrix" values="0 0 0 0 0 0 0 0 0 0 0 0 0 0 0 0 0 0 127 0" result="hardAlpha"/>
<feOffset dy="2"/>
<feGaussianBlur stdDeviation="6"/>
<feComposite in2="hardAlpha" operator="out"/>
<feColorMatrix type="matrix" values="0 0 0 0 0.4 0 0 0 0 0.4 0 0 0 0 0.4 0 0 0 0.15 0"/>
<feBlend mode="normal" in2="BackgroundImageFix" result="effect1_dropShadow_736_3289"/>
<feBlend mode="normal" in="SourceGraphic" in2="effect1_dropShadow_736_3289" result="shape"/>
</filter>
<filter id="filter1_d_736_3289" x="133" y="454" width="124" height="124" filterUnits="userSpaceOnUse" color-interpolation-filters="sRGB">
<feFlood flood-opacity="0" result="BackgroundImageFix"/>
<feColorMatrix in="SourceAlpha" type="matrix" values="0 0 0 0 0 0 0 0 0 0 0 0 0 0 0 0 0 0 127 0" result="hardAlpha"/>
<feOffset dy="2"/>
<feGaussianBlur stdDeviation="6"/>
<feComposite in2="hardAlpha" operator="out"/>
<feColorMatrix type="matrix" values="0 0 0 0 0.4 0 0 0 0 0.4 0 0 0 0 0.4 0 0 0 0.15 0"/>
<feBlend mode="normal" in2="BackgroundImageFix" result="effect1_dropShadow_736_3289"/>
<feBlend mode="normal" in="SourceGraphic" in2="effect1_dropShadow_736_3289" result="shape"/>
</filter>
<clipPath id="clip0_736_3289">
<rect width="25" height="25" fill="white" transform="translate(303 109.5)"/>
</clipPath>
</defs>
</svg>
