<svg width="390" height="844" viewBox="0 0 390 844" fill="none" xmlns="http://www.w3.org/2000/svg">
<g id="1.6 mobile_mode">
<rect width="390" height="844" fill="#EFEBE6"/>
<g id="btn">
<rect id="btn_2" opacity="0.8" x="116" y="180" width="154" height="154" rx="12" fill="white" stroke="black" stroke-width="4"/>
</g>
<g id="btn_3">
<rect id="btn_4" opacity="0.8" x="116" y="437" width="154" height="154" rx="12" fill="white" stroke="black" stroke-width="4"/>
</g>
<path id="&#229;&#155;&#186;&#229;&#174;&#154;&#232;&#183;&#175;&#231;&#183;&#154;" d="M139.492 363.04H154.192V365.728H139.492V363.04ZM145.176 360.352H148.34V369.536H145.176V360.352ZM143.692 370.488V372.924H149.908V370.488H143.692ZM140.78 367.996H153.016V375.416H140.78V367.996ZM134.9 356.432H158.784V381.576H155.284V359.54H138.26V381.576H134.9V356.432ZM136.86 377.236H156.628V380.344H136.86V377.236ZM169.844 363.656H185.328V366.876H169.844V363.656ZM177.6 370.376H187.036V373.54H177.6V370.376ZM175.836 365.532H179.336V379.056L175.836 378.636V365.532ZM169.144 368.416L172.644 368.78C172.271 371.636 171.636 374.156 170.74 376.34C169.844 378.524 168.593 380.307 166.988 381.688C166.801 381.483 166.54 381.231 166.204 380.932C165.868 380.633 165.513 380.344 165.14 380.064C164.785 379.784 164.477 379.56 164.216 379.392C165.728 378.272 166.867 376.769 167.632 374.884C168.397 372.98 168.901 370.824 169.144 368.416ZM171.86 371.944C172.289 373.213 172.849 374.249 173.54 375.052C174.249 375.836 175.061 376.433 175.976 376.844C176.909 377.236 177.927 377.507 179.028 377.656C180.129 377.805 181.296 377.88 182.528 377.88C182.827 377.88 183.228 377.88 183.732 377.88C184.255 377.88 184.824 377.88 185.44 377.88C186.075 377.88 186.719 377.88 187.372 377.88C188.025 377.861 188.632 377.852 189.192 377.852C189.752 377.833 190.219 377.815 190.592 377.796C190.424 378.076 190.256 378.421 190.088 378.832C189.939 379.224 189.799 379.635 189.668 380.064C189.537 380.493 189.444 380.885 189.388 381.24H187.96H182.36C180.736 381.24 179.243 381.128 177.88 380.904C176.517 380.68 175.285 380.269 174.184 379.672C173.101 379.093 172.131 378.253 171.272 377.152C170.432 376.051 169.713 374.613 169.116 372.84L171.86 371.944ZM175.78 355.256H179.364V360.352H175.78V355.256ZM165.588 358.084H189.64V365.112H186.196V361.248H168.892V365.112H165.588V358.084ZM209.632 377.6H218.452V380.484H209.632V377.6ZM210.836 357.86H217.948V360.716H210.836V357.86ZM208.26 371.048H219.852V381.352H216.632V373.876H211.34V381.436H208.26V371.048ZM216.772 357.86H217.36L217.948 357.748L220.076 358.672C219.572 360.408 218.909 362.004 218.088 363.46C217.267 364.897 216.315 366.195 215.232 367.352C214.149 368.491 212.964 369.499 211.676 370.376C210.407 371.235 209.053 371.963 207.616 372.56C207.429 372.187 207.149 371.748 206.776 371.244C206.403 370.74 206.057 370.339 205.74 370.04C206.991 369.573 208.195 368.967 209.352 368.22C210.528 367.455 211.601 366.577 212.572 365.588C213.543 364.58 214.383 363.479 215.092 362.284C215.82 361.071 216.38 359.783 216.772 358.42V357.86ZM210.948 355.172L214.14 355.984C213.729 357.235 213.235 358.457 212.656 359.652C212.077 360.847 211.433 361.967 210.724 363.012C210.033 364.039 209.305 364.935 208.54 365.7C208.353 365.495 208.101 365.252 207.784 364.972C207.467 364.692 207.14 364.421 206.804 364.16C206.487 363.88 206.197 363.665 205.936 363.516C207.037 362.545 208.027 361.323 208.904 359.848C209.781 358.373 210.463 356.815 210.948 355.172ZM211.032 359.428C211.424 360.38 211.947 361.351 212.6 362.34C213.272 363.311 214.065 364.244 214.98 365.14C215.895 366.036 216.94 366.848 218.116 367.576C219.292 368.304 220.589 368.892 222.008 369.34C221.784 369.545 221.532 369.825 221.252 370.18C220.991 370.516 220.739 370.861 220.496 371.216C220.272 371.571 220.076 371.888 219.908 372.168C218.471 371.608 217.155 370.908 215.96 370.068C214.784 369.209 213.739 368.276 212.824 367.268C211.909 366.241 211.107 365.187 210.416 364.104C209.744 363.003 209.193 361.939 208.764 360.912L211.032 359.428ZM196.388 367.548H199.104V377.74H196.388V367.548ZM199.496 359.12V362.704H203.192V359.12H199.496ZM196.584 356.264H206.272V365.56H196.584V356.264ZM200.504 364.412H203.472V376.928H200.504V364.412ZM195.128 377.208C196.117 377.04 197.247 376.825 198.516 376.564C199.804 376.303 201.157 376.023 202.576 375.724C203.995 375.407 205.395 375.089 206.776 374.772L207.112 377.74C205.133 378.207 203.136 378.683 201.12 379.168C199.104 379.653 197.303 380.083 195.716 380.456L195.128 377.208ZM201.708 368.836H206.552V371.776H201.708V368.836ZM249.7 369.172L252.416 371.188C251.595 371.879 250.755 372.569 249.896 373.26C249.056 373.932 248.291 374.501 247.6 374.968L245.612 373.316C246.06 372.961 246.527 372.551 247.012 372.084C247.516 371.599 248.001 371.104 248.468 370.6C248.953 370.077 249.364 369.601 249.7 369.172ZM242.84 355.172L246.648 355.732C246.256 356.516 245.836 357.272 245.388 358C244.959 358.709 244.567 359.325 244.212 359.848L241.356 359.204C241.636 358.607 241.916 357.935 242.196 357.188C242.476 356.441 242.691 355.769 242.84 355.172ZM240.488 364.44V365.924H248.02V364.44H240.488ZM240.488 360.576V362.032H248.02V360.576H240.488ZM237.464 358H251.184V368.5H237.464V358ZM242.896 367.38H245.892V378.3C245.892 379.009 245.817 379.579 245.668 380.008C245.519 380.437 245.22 380.764 244.772 380.988C244.324 381.231 243.783 381.371 243.148 381.408C242.532 381.464 241.804 381.492 240.964 381.492C240.908 381.081 240.796 380.605 240.628 380.064C240.479 379.523 240.32 379.047 240.152 378.636C240.637 378.655 241.104 378.664 241.552 378.664C242 378.664 242.299 378.664 242.448 378.664C242.635 378.664 242.756 378.636 242.812 378.58C242.868 378.524 242.896 378.421 242.896 378.272V367.38ZM236.736 370.376H240.768V373.148H236.736V370.376ZM240.152 370.376H240.712L241.216 370.32L243.008 371.048C242.541 373.307 241.795 375.22 240.768 376.788C239.76 378.337 238.575 379.532 237.212 380.372C237.063 380.148 236.867 379.896 236.624 379.616C236.381 379.336 236.12 379.065 235.84 378.804C235.579 378.524 235.345 378.3 235.14 378.132C236.372 377.46 237.427 376.499 238.304 375.248C239.181 373.997 239.797 372.532 240.152 370.852V370.376ZM245.584 367.492C245.789 368.425 246.069 369.387 246.424 370.376C246.797 371.347 247.264 372.299 247.824 373.232C248.403 374.147 249.103 374.987 249.924 375.752C250.745 376.517 251.707 377.152 252.808 377.656C252.603 377.861 252.369 378.123 252.108 378.44C251.865 378.739 251.623 379.065 251.38 379.42C251.137 379.775 250.951 380.092 250.82 380.372C249.756 379.775 248.823 379.037 248.02 378.16C247.217 377.264 246.536 376.303 245.976 375.276C245.416 374.249 244.959 373.223 244.604 372.196C244.249 371.151 243.969 370.18 243.764 369.284L245.584 367.492ZM230.212 355.228L233.124 356.264C232.751 356.992 232.359 357.739 231.948 358.504C231.537 359.251 231.136 359.979 230.744 360.688C230.352 361.379 229.979 361.985 229.624 362.508L227.384 361.584C227.72 361.005 228.065 360.352 228.42 359.624C228.775 358.896 229.111 358.14 229.428 357.356C229.764 356.572 230.025 355.863 230.212 355.228ZM233.376 358.56L236.12 359.792C235.429 360.837 234.683 361.939 233.88 363.096C233.077 364.253 232.275 365.364 231.472 366.428C230.669 367.492 229.904 368.425 229.176 369.228L227.244 368.164C227.767 367.529 228.308 366.82 228.868 366.036C229.447 365.233 230.007 364.403 230.548 363.544C231.108 362.667 231.631 361.799 232.116 360.94C232.601 360.081 233.021 359.288 233.376 358.56ZM225.9 361.78L227.552 359.512C228.019 359.96 228.504 360.445 229.008 360.968C229.512 361.491 229.979 362.013 230.408 362.536C230.837 363.059 231.155 363.544 231.36 363.992L229.568 366.54C229.363 366.092 229.055 365.588 228.644 365.028C228.252 364.468 227.813 363.908 227.328 363.348C226.843 362.769 226.367 362.247 225.9 361.78ZM232.424 365.252L234.776 364.3C235.149 364.916 235.504 365.588 235.84 366.316C236.176 367.044 236.475 367.753 236.736 368.444C236.997 369.116 237.184 369.723 237.296 370.264L234.748 371.384C234.673 370.843 234.515 370.217 234.272 369.508C234.029 368.799 233.749 368.08 233.432 367.352C233.115 366.605 232.779 365.905 232.424 365.252ZM225.816 367.492C227.067 367.436 228.541 367.361 230.24 367.268C231.939 367.156 233.665 367.044 235.42 366.932L235.476 369.676C233.833 369.807 232.191 369.937 230.548 370.068C228.924 370.18 227.459 370.292 226.152 370.404L225.816 367.492ZM233.208 372.28L235.532 371.58C235.868 372.345 236.157 373.176 236.4 374.072C236.661 374.949 236.839 375.724 236.932 376.396L234.44 377.18C234.384 376.508 234.235 375.715 233.992 374.8C233.768 373.885 233.507 373.045 233.208 372.28ZM227.02 371.664L229.708 372.14C229.559 373.484 229.335 374.809 229.036 376.116C228.756 377.404 228.42 378.496 228.028 379.392C227.841 379.261 227.599 379.121 227.3 378.972C227.001 378.823 226.693 378.683 226.376 378.552C226.059 378.403 225.788 378.291 225.564 378.216C225.975 377.376 226.292 376.368 226.516 375.192C226.74 374.016 226.908 372.84 227.02 371.664ZM230.072 369.004H232.984V381.52H230.072V369.004Z" fill="black"/>
<path id="&#232;&#135;&#170;&#231;&#148;&#177;&#230;&#142;&#162;&#231;&#180;&#162;" d="M139.1 627.944H154.332V631.052H139.1V627.944ZM139.1 633.936H154.332V637.044H139.1V633.936ZM139.1 639.956H154.332V643.064H139.1V639.956ZM136.832 621.84H157.16V644.436H153.604V625.06H140.22V644.492H136.832V621.84ZM144.784 618.172L148.844 618.62C148.508 619.535 148.153 620.431 147.78 621.308C147.407 622.185 147.061 622.941 146.744 623.576L143.664 623.016C143.813 622.549 143.963 622.036 144.112 621.476C144.261 620.897 144.392 620.328 144.504 619.768C144.635 619.189 144.728 618.657 144.784 618.172ZM168.108 631.64H187.008V634.916H168.108V631.64ZM168.108 639.704H186.98V643.008H168.108V639.704ZM166.428 623.548H188.884V644.492H185.356V626.936H169.788V644.52H166.428V623.548ZM175.724 618.228H179.196V641.44H175.724V618.228ZM204.368 632.76H221.14V635.756H204.368V632.76ZM213.356 623.016H216.352V627.076C216.352 627.393 216.389 627.599 216.464 627.692C216.557 627.767 216.725 627.804 216.968 627.804C217.043 627.804 217.164 627.804 217.332 627.804C217.519 627.804 217.705 627.804 217.892 627.804C218.097 627.804 218.237 627.804 218.312 627.804C218.48 627.804 218.611 627.757 218.704 627.664C218.797 627.571 218.863 627.375 218.9 627.076C218.937 626.777 218.965 626.311 218.984 625.676C219.264 625.9 219.665 626.115 220.188 626.32C220.729 626.525 221.205 626.675 221.616 626.768C221.523 627.739 221.355 628.495 221.112 629.036C220.888 629.559 220.58 629.932 220.188 630.156C219.796 630.361 219.292 630.464 218.676 630.464C218.564 630.464 218.405 630.464 218.2 630.464C217.995 630.464 217.78 630.464 217.556 630.464C217.351 630.464 217.145 630.464 216.94 630.464C216.735 630.464 216.576 630.464 216.464 630.464C215.605 630.464 214.952 630.361 214.504 630.156C214.056 629.951 213.748 629.596 213.58 629.092C213.431 628.588 213.356 627.916 213.356 627.076V623.016ZM204.648 619.488H221.084V625.088H218.088V622.344H207.504V625.228H204.648V619.488ZM211.032 629.96H214.336V644.492H211.032V629.96ZM208.876 623.044H211.9C211.844 624.108 211.723 625.069 211.536 625.928C211.349 626.787 211.041 627.543 210.612 628.196C210.183 628.849 209.567 629.419 208.764 629.904C207.961 630.389 206.925 630.791 205.656 631.108C205.525 630.753 205.301 630.343 204.984 629.876C204.667 629.391 204.359 629.008 204.06 628.728C205.087 628.504 205.908 628.233 206.524 627.916C207.159 627.58 207.635 627.188 207.952 626.74C208.269 626.273 208.484 625.741 208.596 625.144C208.727 624.528 208.82 623.828 208.876 623.044ZM215.176 634.216C215.643 635.075 216.231 635.924 216.94 636.764C217.668 637.604 218.461 638.379 219.32 639.088C220.197 639.779 221.084 640.357 221.98 640.824C221.737 641.029 221.467 641.281 221.168 641.58C220.888 641.879 220.617 642.187 220.356 642.504C220.095 642.84 219.88 643.148 219.712 643.428C218.779 642.831 217.864 642.093 216.968 641.216C216.091 640.339 215.279 639.387 214.532 638.36C213.785 637.315 213.141 636.241 212.6 635.14L215.176 634.216ZM210.304 633.908L212.908 634.776C212.329 636.027 211.62 637.221 210.78 638.36C209.959 639.48 209.044 640.497 208.036 641.412C207.028 642.308 205.945 643.055 204.788 643.652C204.527 643.26 204.191 642.803 203.78 642.28C203.388 641.776 203.005 641.384 202.632 641.104C203.715 640.637 204.751 640.04 205.74 639.312C206.729 638.565 207.616 637.725 208.4 636.792C209.184 635.859 209.819 634.897 210.304 633.908ZM194.988 632.284C196.108 632.041 197.443 631.715 198.992 631.304C200.56 630.893 202.137 630.464 203.724 630.016L204.144 633.04C202.707 633.469 201.251 633.899 199.776 634.328C198.32 634.757 196.967 635.149 195.716 635.504L194.988 632.284ZM195.436 623.52H204.004V626.6H195.436V623.52ZM198.376 618.228H201.456V640.964C201.456 641.729 201.372 642.336 201.204 642.784C201.055 643.251 200.765 643.615 200.336 643.876C199.925 644.137 199.403 644.315 198.768 644.408C198.152 644.501 197.377 644.539 196.444 644.52C196.407 644.109 196.304 643.596 196.136 642.98C195.968 642.383 195.781 641.86 195.576 641.412C196.099 641.431 196.575 641.449 197.004 641.468C197.452 641.468 197.76 641.459 197.928 641.44C198.096 641.44 198.208 641.412 198.264 641.356C198.339 641.281 198.376 641.151 198.376 640.964V618.228ZM237.436 636.876H240.796V644.52H237.436V636.876ZM237.408 618.2H240.74V626.292H237.408V618.2ZM236.68 626.796L239.732 628.224C238.892 628.971 238.015 629.699 237.1 630.408C236.185 631.117 235.345 631.724 234.58 632.228L232.2 630.94C232.704 630.585 233.227 630.165 233.768 629.68C234.328 629.195 234.86 628.7 235.364 628.196C235.887 627.692 236.325 627.225 236.68 626.796ZM242.728 628.56L245.724 630.184C244.585 631.061 243.344 631.939 242 632.816C240.656 633.693 239.312 634.533 237.968 635.336C236.624 636.12 235.364 636.811 234.188 637.408L231.976 635.868C232.853 635.42 233.777 634.907 234.748 634.328C235.737 633.731 236.708 633.105 237.66 632.452C238.631 631.799 239.545 631.145 240.404 630.492C241.281 629.82 242.056 629.176 242.728 628.56ZM229.764 631.5L231.948 629.596C232.62 629.932 233.329 630.315 234.076 630.744C234.841 631.173 235.569 631.621 236.26 632.088C236.969 632.536 237.548 632.956 237.996 633.348L235.672 635.448C235.261 635.056 234.72 634.627 234.048 634.16C233.395 633.675 232.685 633.199 231.92 632.732C231.173 632.265 230.455 631.855 229.764 631.5ZM242.868 633.684L245.08 632.004C245.827 632.452 246.62 632.975 247.46 633.572C248.3 634.151 249.103 634.739 249.868 635.336C250.652 635.933 251.277 636.475 251.744 636.96L249.392 638.892C248.944 638.407 248.356 637.856 247.628 637.24C246.9 636.624 246.116 636.008 245.276 635.392C244.455 634.757 243.652 634.188 242.868 633.684ZM242.392 639.732L244.968 638.08C245.696 638.453 246.489 638.892 247.348 639.396C248.207 639.881 249.037 640.385 249.84 640.908C250.643 641.431 251.305 641.907 251.828 642.336L249.056 644.24C248.608 643.811 248.001 643.325 247.236 642.784C246.489 642.261 245.687 641.729 244.828 641.188C243.969 640.647 243.157 640.161 242.392 639.732ZM226.908 635.224C228.233 635.224 229.727 635.224 231.388 635.224C233.068 635.205 234.86 635.196 236.764 635.196C238.668 635.177 240.628 635.149 242.644 635.112C244.679 635.075 246.695 635.047 248.692 635.028L248.524 637.576C245.967 637.669 243.381 637.763 240.768 637.856C238.173 637.931 235.7 638.005 233.348 638.08C231.015 638.136 228.924 638.183 227.076 638.22L226.908 635.224ZM232.648 638.164L235.812 639.368C235.215 640.003 234.515 640.628 233.712 641.244C232.928 641.86 232.107 642.429 231.248 642.952C230.389 643.475 229.568 643.932 228.784 644.324C228.597 644.1 228.345 643.839 228.028 643.54C227.711 643.241 227.384 642.943 227.048 642.644C226.731 642.364 226.451 642.131 226.208 641.944C227.403 641.515 228.588 640.964 229.764 640.292C230.94 639.601 231.901 638.892 232.648 638.164ZM227.244 620.384H251.1V623.268H227.244V620.384ZM226.992 625.004H251.464V630.828H248.132V627.804H230.184V630.828H226.992V625.004Z" fill="black"/>
<g id="img_route">
<g id="Group">
<g id="Group_2">
<path id="Vector" d="M207.8 243.6L227.4 271.9" stroke="#FCD432" stroke-width="5" stroke-miterlimit="10" stroke-linecap="round" stroke-linejoin="round"/>
<path id="Vector_2" d="M206.6 246.7H205.4C203 246.7 201.1 244.8 201.1 242.4V241.3C201.1 238.9 203 237 205.4 237H206.6C209 237 210.9 238.9 210.9 241.3V242.4C210.8 244.7 208.9 246.7 206.6 246.7Z" fill="#21985C"/>
<path id="Vector_3" d="M230.4 280.2H229.2C226.8 280.2 224.9 278.3 224.9 275.9V274.8C224.9 272.4 226.8 270.5 229.2 270.5H230.4C232.8 270.5 234.7 272.4 234.7 274.8V275.9C234.7 278.3 232.8 280.2 230.4 280.2Z" fill="#21985C"/>
<path id="Vector_4" d="M156.1 253.1H154.9C152.5 253.1 150.6 251.2 150.6 248.8V247.7C150.6 245.3 152.5 243.4 154.9 243.4H156.1C158.5 243.4 160.4 245.3 160.4 247.7V248.8C160.4 251.2 158.5 253.1 156.1 253.1Z" fill="#21985C"/>
<path id="Vector_5" d="M170.2 241.8L184.6 254.2" stroke="#FCD432" stroke-width="5" stroke-miterlimit="10" stroke-linecap="round" stroke-linejoin="round"/>
<path id="Vector_6" d="M168 243.6H166.8C164.4 243.6 162.5 241.7 162.5 239.3V238.2C162.5 235.8 164.4 233.9 166.8 233.9H168C170.4 233.9 172.3 235.8 172.3 238.2V239.3C172.2 241.7 170.3 243.6 168 243.6Z" fill="#21985C"/>
<path id="Vector_7" d="M188.6 261.3H187.4C185 261.3 183.1 259.4 183.1 257V255.9C183.1 253.5 185 251.6 187.4 251.6H188.6C191 251.6 192.9 253.5 192.9 255.9V257C192.9 259.4 191 261.3 188.6 261.3Z" fill="#21985C"/>
<path id="Vector_8" d="M190.8 255.1L204.4 243.6" stroke="#FCD432" stroke-width="5" stroke-miterlimit="10" stroke-linecap="round" stroke-linejoin="round"/>
<path id="Vector_9" d="M157.7 246.7L165.4 240.1" stroke="#FCD432" stroke-width="5" stroke-miterlimit="10" stroke-linecap="round" stroke-linejoin="round"/>
</g>
</g>
</g>
<g id="mobile_headline">
<path id="&#231;&#162;&#186;&#232;&#170;&#141;&#229;&#176;&#142;&#232;&#166;&#189;&#230;&#168;&#161;&#229;&#188;&#143;" d="M104.068 122.352H116.036V125.168H104.068V122.352ZM104.068 127.408H116.036V130.224H104.068V127.408ZM104.004 132.496H117.54V135.632H104.004V132.496ZM99.3 109.808H117.38V115.632H113.956V113.008H102.532V115.632H99.3V109.808ZM108.388 119.664H111.908V134H108.388V119.664ZM105.252 117.04H116.74V120.208H105.252V136.88H101.636V120.368L104.9 117.04H105.252ZM106.916 106.768L110.564 107.472C109.711 110.928 108.484 114.011 106.884 116.72C105.284 119.429 103.311 121.648 100.964 123.376C100.793 123.141 100.548 122.843 100.228 122.48C99.9293 122.096 99.6093 121.723 99.268 121.36C98.9267 120.997 98.628 120.709 98.372 120.496C100.548 119.067 102.351 117.168 103.78 114.8C105.209 112.432 106.255 109.755 106.916 106.768ZM110.372 113.808L113.892 114.544C113.487 115.419 113.071 116.272 112.644 117.104C112.239 117.915 111.865 118.619 111.524 119.216L108.644 118.48C108.943 117.819 109.263 117.051 109.604 116.176C109.945 115.301 110.201 114.512 110.372 113.808ZM88.036 108.72H99.556V112.208H88.036V108.72ZM91.62 118.128H99.076V133.008H91.62V129.712H95.844V121.424H91.62V118.128ZM91.332 110.576L94.916 111.12C94.6173 113.424 94.212 115.685 93.7 117.904C93.188 120.101 92.5373 122.171 91.748 124.112C90.98 126.032 90.0627 127.717 88.996 129.168C88.8893 128.869 88.708 128.485 88.452 128.016C88.2173 127.547 87.9613 127.077 87.684 126.608C87.428 126.139 87.1827 125.765 86.948 125.488C87.78 124.315 88.4733 122.939 89.028 121.36C89.604 119.781 90.0733 118.075 90.436 116.24C90.82 114.405 91.1187 112.517 91.332 110.576ZM90.116 118.128H93.22V135.504H90.116V118.128ZM140.836 109.392H144.292C144.143 110.672 143.919 111.963 143.62 113.264C143.343 114.544 142.916 115.781 142.34 116.976C141.764 118.149 140.996 119.259 140.036 120.304C139.097 121.328 137.881 122.224 136.388 122.992C136.196 122.544 135.887 122.053 135.46 121.52C135.033 120.987 134.628 120.571 134.244 120.272C135.524 119.653 136.569 118.928 137.38 118.096C138.191 117.264 138.831 116.368 139.3 115.408C139.769 114.448 140.111 113.456 140.324 112.432C140.559 111.408 140.729 110.395 140.836 109.392ZM135.3 114.864L137.092 112.208C138.159 112.507 139.247 112.891 140.356 113.36C141.487 113.829 142.553 114.32 143.556 114.832C144.58 115.344 145.444 115.824 146.148 116.272L144.324 119.248C143.641 118.736 142.788 118.213 141.764 117.68C140.761 117.125 139.695 116.603 138.564 116.112C137.455 115.6 136.367 115.184 135.3 114.864ZM148.164 108.048H151.748C151.748 108.048 151.748 108.144 151.748 108.336C151.748 108.507 151.737 108.709 151.716 108.944C151.716 109.157 151.705 109.328 151.684 109.456C151.599 111.888 151.492 113.883 151.364 115.44C151.236 116.976 151.076 118.171 150.884 119.024C150.713 119.856 150.489 120.443 150.212 120.784C149.892 121.189 149.561 121.477 149.22 121.648C148.9 121.819 148.516 121.936 148.068 122C147.684 122.085 147.183 122.139 146.564 122.16C145.945 122.16 145.284 122.149 144.58 122.128C144.559 121.595 144.452 121.008 144.26 120.368C144.089 119.707 143.876 119.141 143.62 118.672C144.175 118.736 144.676 118.779 145.124 118.8C145.572 118.8 145.924 118.8 146.18 118.8C146.585 118.821 146.905 118.693 147.14 118.416C147.289 118.203 147.428 117.765 147.556 117.104C147.684 116.421 147.791 115.397 147.876 114.032C147.983 112.667 148.079 110.864 148.164 108.624V108.048ZM138.82 125.328H142.34V132.304C142.34 132.752 142.383 133.04 142.468 133.168C142.553 133.275 142.745 133.328 143.044 133.328C143.108 133.328 143.215 133.328 143.364 133.328C143.513 133.328 143.673 133.328 143.844 133.328C144.015 133.328 144.175 133.328 144.324 133.328C144.495 133.328 144.612 133.328 144.676 133.328C144.889 133.328 145.049 133.253 145.156 133.104C145.263 132.955 145.348 132.645 145.412 132.176C145.476 131.685 145.519 130.949 145.54 129.968C145.753 130.139 146.041 130.32 146.404 130.512C146.788 130.683 147.172 130.843 147.556 130.992C147.961 131.12 148.324 131.237 148.644 131.344C148.537 132.731 148.345 133.808 148.068 134.576C147.812 135.365 147.439 135.899 146.948 136.176C146.479 136.475 145.86 136.624 145.092 136.624C144.943 136.624 144.74 136.624 144.484 136.624C144.249 136.624 144.004 136.624 143.748 136.624C143.492 136.624 143.247 136.624 143.012 136.624C142.777 136.624 142.585 136.624 142.436 136.624C141.455 136.624 140.697 136.485 140.164 136.208C139.652 135.952 139.3 135.515 139.108 134.896C138.916 134.277 138.82 133.435 138.82 132.368V125.328ZM135.556 126.576L138.596 127.376C138.511 128.315 138.372 129.264 138.18 130.224C137.988 131.184 137.732 132.091 137.412 132.944C137.092 133.776 136.665 134.512 136.132 135.152L133.316 133.456C133.764 132.901 134.137 132.261 134.436 131.536C134.735 130.789 134.969 129.989 135.14 129.136C135.332 128.283 135.471 127.429 135.556 126.576ZM139.556 123.12L141.764 120.88C142.447 121.221 143.151 121.627 143.876 122.096C144.601 122.544 145.284 123.024 145.924 123.536C146.585 124.027 147.119 124.496 147.524 124.944L145.124 127.44C144.761 126.971 144.271 126.48 143.652 125.968C143.055 125.456 142.393 124.955 141.668 124.464C140.943 123.952 140.239 123.504 139.556 123.12ZM146.596 127.088L149.7 125.84C150.276 126.651 150.799 127.525 151.268 128.464C151.737 129.403 152.143 130.341 152.484 131.28C152.825 132.197 153.071 133.029 153.22 133.776L149.828 135.184C149.743 134.416 149.54 133.573 149.22 132.656C148.9 131.717 148.516 130.757 148.068 129.776C147.62 128.795 147.129 127.899 146.596 127.088ZM135.748 108.048H149.796V111.248H135.748V108.048ZM124.1 116.624H133.476V119.536H124.1V116.624ZM124.228 107.824H133.412V110.704H124.228V107.824ZM124.1 121.008H133.476V123.888H124.1V121.008ZM122.66 112.112H134.34V115.152H122.66V112.112ZM125.764 125.424H133.54V135.184H125.764V132.144H130.34V128.464H125.764V125.424ZM124.036 125.424H127.204V136.432H124.036V125.424ZM158.276 127.76H187.556V130.672H158.276V127.76ZM166.532 109.456H187.524V112.016H166.532V109.456ZM176.932 126.032H180.612V133.232C180.612 134.085 180.505 134.757 180.292 135.248C180.1 135.739 179.673 136.112 179.012 136.368C178.372 136.603 177.615 136.741 176.74 136.784C175.865 136.848 174.831 136.88 173.636 136.88C173.572 136.368 173.423 135.803 173.188 135.184C172.953 134.565 172.708 134.021 172.452 133.552C172.964 133.573 173.487 133.595 174.02 133.616C174.553 133.637 175.023 133.648 175.428 133.648C175.833 133.627 176.111 133.616 176.26 133.616C176.516 133.616 176.687 133.584 176.772 133.52C176.879 133.435 176.932 133.307 176.932 133.136V126.032ZM163.684 132.048L166.308 129.936C166.82 130.256 167.353 130.629 167.908 131.056C168.463 131.461 168.996 131.877 169.508 132.304C170.02 132.731 170.436 133.136 170.756 133.52L167.94 135.856C167.663 135.493 167.289 135.077 166.82 134.608C166.351 134.16 165.839 133.712 165.284 133.264C164.729 132.816 164.196 132.411 163.684 132.048ZM159.14 109.264L161.636 107.152C162.169 107.515 162.724 107.931 163.3 108.4C163.897 108.869 164.441 109.339 164.932 109.808C165.444 110.277 165.839 110.715 166.116 111.12L163.492 113.424C163.215 113.019 162.831 112.571 162.34 112.08C161.871 111.568 161.359 111.067 160.804 110.576C160.249 110.085 159.695 109.648 159.14 109.264ZM170.244 107.344L173.348 106.768C173.689 107.237 174.02 107.771 174.34 108.368C174.66 108.944 174.884 109.467 175.012 109.936L171.748 110.576C171.62 110.149 171.407 109.637 171.108 109.04C170.831 108.421 170.543 107.856 170.244 107.344ZM172.612 117.296V118.288H181.22V117.296H172.612ZM172.612 119.92V120.944H181.22V119.92H172.612ZM172.612 114.736V115.664H181.22V114.736H172.612ZM169.06 113.04H184.932V122.608H169.06V113.04ZM165.572 114.768V122.288H162.116V117.648H158.372V114.768H165.572ZM175.076 110.512L178.884 110.768C178.628 111.365 178.383 111.92 178.148 112.432C177.935 112.944 177.743 113.392 177.572 113.776L174.532 113.392C174.66 112.923 174.767 112.432 174.852 111.92C174.959 111.387 175.033 110.917 175.076 110.512ZM180.612 106.736L184.228 107.312C183.844 107.931 183.46 108.507 183.076 109.04C182.713 109.552 182.383 110 182.084 110.384L179.044 109.808C179.321 109.339 179.599 108.827 179.876 108.272C180.175 107.696 180.42 107.184 180.612 106.736ZM165.572 121.008C166.105 121.883 166.852 122.523 167.812 122.928C168.772 123.333 169.935 123.557 171.3 123.6C172.089 123.621 173.017 123.643 174.084 123.664C175.172 123.685 176.335 123.696 177.572 123.696C178.809 123.675 180.057 123.653 181.316 123.632C182.575 123.589 183.78 123.547 184.932 123.504C186.105 123.44 187.14 123.387 188.036 123.344C187.865 123.685 187.684 124.155 187.492 124.752C187.3 125.328 187.161 125.829 187.076 126.256C186.052 126.299 184.847 126.341 183.46 126.384C182.073 126.405 180.633 126.427 179.14 126.448C177.647 126.448 176.217 126.448 174.852 126.448C173.487 126.427 172.303 126.395 171.3 126.352C169.679 126.288 168.303 126.053 167.172 125.648C166.063 125.221 165.113 124.507 164.324 123.504C163.556 124.016 162.767 124.528 161.956 125.04C161.167 125.552 160.324 126.085 159.428 126.64L158.116 123.6C158.863 123.259 159.663 122.864 160.516 122.416C161.391 121.947 162.223 121.477 163.012 121.008H165.572ZM201.572 125.584V126.608H214.468V125.584H201.572ZM201.572 128.464V129.52H214.468V128.464H201.572ZM201.572 122.672V123.728H214.468V122.672H201.572ZM197.924 120.72H218.276V131.504H197.924V120.72ZM209.412 130.384H213.188V132.784C213.188 133.168 213.273 133.413 213.444 133.52C213.636 133.605 214.052 133.648 214.692 133.648C214.841 133.648 215.087 133.648 215.428 133.648C215.791 133.648 216.175 133.648 216.58 133.648C216.985 133.648 217.369 133.648 217.732 133.648C218.095 133.648 218.383 133.648 218.596 133.648C218.937 133.648 219.193 133.595 219.364 133.488C219.535 133.36 219.663 133.125 219.748 132.784C219.833 132.443 219.897 131.92 219.94 131.216C220.303 131.451 220.793 131.675 221.412 131.888C222.052 132.101 222.617 132.261 223.108 132.368C222.98 133.456 222.767 134.299 222.468 134.896C222.191 135.493 221.764 135.909 221.188 136.144C220.633 136.4 219.897 136.528 218.98 136.528C218.831 136.528 218.585 136.528 218.244 136.528C217.924 136.528 217.561 136.528 217.156 136.528C216.772 136.528 216.377 136.528 215.972 136.528C215.588 136.528 215.236 136.528 214.916 136.528C214.617 136.528 214.383 136.528 214.212 136.528C212.953 136.528 211.972 136.411 211.268 136.176C210.585 135.963 210.105 135.579 209.828 135.024C209.551 134.491 209.412 133.744 209.412 132.784V130.384ZM202.372 130.608H206.148C205.935 131.525 205.615 132.336 205.188 133.04C204.761 133.744 204.121 134.341 203.268 134.832C202.415 135.344 201.295 135.76 199.908 136.08C198.521 136.421 196.772 136.688 194.66 136.88C194.532 136.453 194.297 135.941 193.956 135.344C193.636 134.768 193.316 134.299 192.996 133.936C194.809 133.851 196.292 133.733 197.444 133.584C198.596 133.413 199.503 133.2 200.164 132.944C200.847 132.688 201.348 132.368 201.668 131.984C201.988 131.6 202.223 131.141 202.372 130.608ZM211.14 111.728H221.028V113.872H211.14V111.728ZM211.076 108.464H222.5V110.832H211.076V108.464ZM200.132 108.72H203.14V111.728H200.132V108.72ZM200.132 115.12H203.14V118.16H200.132V115.12ZM196.644 111.088H207.14V116.304H196.644V114.32H203.908V113.072H196.644V111.088ZM218.02 116.464V118.064H219.364V116.464H218.02ZM214.852 116.464V118.064H216.164V116.464H214.852ZM211.748 116.464V118.064H212.996V116.464H211.748ZM209.22 114.704H221.988V119.856H209.22V114.704ZM210.788 106.864L214.052 107.376C213.583 108.613 212.985 109.797 212.26 110.928C211.535 112.059 210.596 113.104 209.444 114.064C209.145 113.701 208.751 113.296 208.26 112.848C207.769 112.4 207.321 112.08 206.916 111.888C207.919 111.184 208.729 110.384 209.348 109.488C209.988 108.592 210.468 107.717 210.788 106.864ZM207.78 107.76V109.936H197.86V117.616H208.036V119.792H194.628V107.76H207.78ZM239.236 109.008H257.668V112.144H239.236V109.008ZM238.66 126.992H257.796V130.16H238.66V126.992ZM242.98 106.8H246.628V113.968H242.98V106.8ZM250.34 106.8H254.052V113.968H250.34V106.8ZM243.684 121.072V122.48H252.484V121.072H243.684ZM243.684 117.2V118.576H252.484V117.2H243.684ZM240.132 114.512H256.196V125.136H240.132V114.512ZM246.308 124.784H250.052C249.924 126.299 249.689 127.685 249.348 128.944C249.007 130.203 248.463 131.344 247.716 132.368C246.969 133.371 245.935 134.245 244.612 134.992C243.289 135.739 241.551 136.368 239.396 136.88C239.247 136.411 238.969 135.867 238.564 135.248C238.18 134.651 237.807 134.171 237.444 133.808C239.321 133.424 240.815 132.965 241.924 132.432C243.055 131.899 243.919 131.259 244.516 130.512C245.113 129.744 245.529 128.891 245.764 127.952C246.02 126.992 246.201 125.936 246.308 124.784ZM250.948 128.112C251.545 129.499 252.495 130.672 253.796 131.632C255.097 132.592 256.719 133.264 258.66 133.648C258.383 133.904 258.095 134.213 257.796 134.576C257.497 134.939 257.209 135.312 256.932 135.696C256.676 136.101 256.463 136.475 256.292 136.816C254.095 136.197 252.303 135.205 250.916 133.84C249.529 132.475 248.463 130.779 247.716 128.752L250.948 128.112ZM228.644 112.784H238.66V116.336H228.644V112.784ZM232.132 106.8H235.748V136.848H232.132V106.8ZM232.516 115.408L234.564 116.24C234.351 117.563 234.073 118.917 233.732 120.304C233.412 121.691 233.039 123.056 232.612 124.4C232.207 125.723 231.759 126.96 231.268 128.112C230.777 129.264 230.265 130.256 229.732 131.088C229.604 130.725 229.433 130.309 229.22 129.84C229.028 129.371 228.815 128.901 228.58 128.432C228.345 127.963 228.111 127.557 227.876 127.216C228.388 126.533 228.879 125.733 229.348 124.816C229.839 123.877 230.287 122.875 230.692 121.808C231.097 120.741 231.449 119.664 231.748 118.576C232.047 117.467 232.303 116.411 232.516 115.408ZM235.556 117.2C235.748 117.435 236.036 117.84 236.42 118.416C236.825 118.971 237.241 119.579 237.668 120.24C238.116 120.901 238.521 121.52 238.884 122.096C239.268 122.651 239.524 123.056 239.652 123.312L237.38 126C237.188 125.509 236.943 124.933 236.644 124.272C236.345 123.589 236.025 122.896 235.684 122.192C235.343 121.467 235.001 120.795 234.66 120.176C234.319 119.536 234.031 119.013 233.796 118.608L235.556 117.2ZM285.348 108.912L287.876 106.8C288.367 107.12 288.879 107.493 289.412 107.92C289.967 108.347 290.479 108.773 290.948 109.2C291.439 109.627 291.833 110.011 292.132 110.352L289.412 112.688C289.156 112.304 288.793 111.899 288.324 111.472C287.876 111.024 287.385 110.576 286.852 110.128C286.34 109.68 285.839 109.275 285.348 108.912ZM264.132 112.272H292.932V116.016H264.132V112.272ZM265.348 119.664H279.204V123.376H265.348V119.664ZM270.18 121.776H274.02V132.624H270.18V121.776ZM264.132 132.112C265.412 131.899 266.916 131.653 268.644 131.376C270.393 131.077 272.239 130.757 274.18 130.416C276.143 130.075 278.095 129.723 280.036 129.36L280.292 132.784C278.543 133.168 276.772 133.552 274.98 133.936C273.188 134.299 271.46 134.651 269.796 134.992C268.132 135.355 266.596 135.685 265.188 135.984L264.132 132.112ZM279.876 106.928H284.004C283.94 109.573 283.972 112.155 284.1 114.672C284.249 117.189 284.484 119.547 284.804 121.744C285.124 123.941 285.508 125.872 285.956 127.536C286.404 129.2 286.895 130.501 287.428 131.44C287.983 132.379 288.569 132.848 289.188 132.848C289.551 132.848 289.817 132.389 289.988 131.472C290.18 130.555 290.319 129.083 290.404 127.056C290.852 127.504 291.385 127.941 292.004 128.368C292.644 128.795 293.231 129.104 293.764 129.296C293.593 131.323 293.305 132.891 292.9 134C292.516 135.088 291.993 135.835 291.332 136.24C290.692 136.667 289.86 136.88 288.836 136.88C287.684 136.88 286.66 136.485 285.764 135.696C284.868 134.907 284.089 133.819 283.428 132.432C282.767 131.024 282.212 129.371 281.764 127.472C281.316 125.573 280.953 123.515 280.676 121.296C280.399 119.056 280.196 116.72 280.068 114.288C279.94 111.856 279.876 109.403 279.876 106.928Z" fill="black"/>
<g id="interrogation " clip-path="url(#clip0_741_3539)">
<path id="Vector_10" d="M316.5 109.5C314.028 109.5 311.611 110.233 309.555 111.607C307.5 112.98 305.898 114.932 304.952 117.216C304.005 119.501 303.758 122.014 304.24 124.439C304.723 126.863 305.913 129.091 307.661 130.839C309.409 132.587 311.637 133.778 314.061 134.26C316.486 134.742 318.999 134.495 321.284 133.548C323.568 132.602 325.52 131 326.893 128.945C328.267 126.889 329 124.472 329 122C328.996 118.686 327.678 115.509 325.335 113.165C322.991 110.822 319.814 109.504 316.5 109.5ZM316.5 130.333C316.294 130.333 316.093 130.272 315.921 130.158C315.75 130.043 315.616 129.881 315.538 129.69C315.459 129.5 315.438 129.291 315.478 129.088C315.519 128.886 315.618 128.701 315.763 128.555C315.909 128.409 316.095 128.31 316.297 128.27C316.499 128.23 316.708 128.25 316.899 128.329C317.089 128.408 317.252 128.542 317.366 128.713C317.481 128.884 317.542 129.086 317.542 129.292C317.542 129.568 317.432 129.833 317.237 130.028C317.041 130.224 316.776 130.333 316.5 130.333ZM318.51 122.527C318.203 122.719 317.952 122.989 317.782 123.309C317.612 123.629 317.529 123.989 317.542 124.351V125.125C317.542 125.401 317.432 125.666 317.237 125.862C317.041 126.057 316.776 126.167 316.5 126.167C316.224 126.167 315.959 126.057 315.763 125.862C315.568 125.666 315.458 125.401 315.458 125.125V124.351C315.443 123.616 315.625 122.89 315.984 122.249C316.344 121.608 316.869 121.075 317.504 120.705C317.889 120.493 318.197 120.165 318.384 119.767C318.571 119.37 318.628 118.923 318.546 118.492C318.465 118.08 318.263 117.703 317.966 117.407C317.669 117.111 317.291 116.91 316.879 116.83C316.579 116.775 316.27 116.786 315.975 116.863C315.679 116.94 315.404 117.081 315.169 117.276C314.934 117.471 314.745 117.715 314.615 117.992C314.485 118.268 314.417 118.57 314.417 118.875C314.417 119.151 314.307 119.416 314.112 119.612C313.916 119.807 313.651 119.917 313.375 119.917C313.099 119.917 312.834 119.807 312.638 119.612C312.443 119.416 312.333 119.151 312.333 118.875C312.334 118.14 312.528 117.418 312.897 116.783C313.267 116.148 313.797 115.621 314.436 115.257C315.074 114.893 315.797 114.704 316.532 114.71C317.267 114.716 317.987 114.916 318.62 115.29C319.253 115.663 319.775 116.198 320.135 116.839C320.494 117.48 320.677 118.205 320.666 118.94C320.655 119.674 320.45 120.393 320.071 121.023C319.693 121.653 319.154 122.172 318.51 122.527Z" fill="black"/>
</g>
</g>
<g id="icon_Planet">
<g id="Group_3">
<g id="Group_4">
<g id="Group_5">
<path id="Vector_11" d="M238.133 503C236.533 497.433 231.633 493.9 227.167 495.133L157.067 514.467C152.6 515.7 150.267 521.233 151.867 526.8" stroke="#147C7C" stroke-width="10.3372" stroke-miterlimit="10" stroke-linecap="round" stroke-linejoin="round"/>
<path id="Vector_12" d="M212.3 546.033L198.967 549.733C183.833 553.933 168.1 545.233 163.833 530.3L160.067 517.133C155.8 502.2 164.633 486.7 179.767 482.5L193.1 478.8C208.267 474.633 224 483.333 228.267 498.233L232.033 511.4C236.267 526.333 227.467 541.833 212.3 546.033Z" fill="#6EC6CC"/>
<path id="Vector_13" d="M216.567 505.367L213.2 506.3C209.367 507.367 205.367 505.167 204.3 501.367L203.333 498.033C202.267 494.267 204.5 490.333 208.333 489.267L211.7 488.333C215.533 487.267 219.533 489.467 220.6 493.267L221.567 496.6C222.633 500.367 220.4 504.3 216.567 505.367Z" fill="#3BB9BF"/>
<path id="Vector_14" d="M197.6 515.667L195.467 516.267C193.067 516.933 190.567 515.567 189.867 513.167L189.267 511.067C188.6 508.7 190 506.233 192.4 505.567L194.534 504.967C196.934 504.3 199.434 505.667 200.134 508.067L200.734 510.167C201.4 512.533 200 515 197.6 515.667Z" fill="#3BB9BF"/>
<path id="Vector_15" d="M220.9 529.233L219.333 529.667C217.533 530.167 215.667 529.133 215.167 527.367L214.733 525.8C214.233 524.033 215.267 522.2 217.067 521.7L218.633 521.267C220.433 520.767 222.3 521.8 222.8 523.567L223.233 525.133C223.733 526.9 222.7 528.767 220.9 529.233Z" fill="#3BB9BF"/>
<path id="Vector_16" d="M207.633 546.433C192.5 550.633 176.767 541.933 172.5 527.033L168.733 513.9C165.1 501.233 170.933 488.167 182.067 481.933L179.667 482.6C164.533 486.8 155.7 502.267 159.967 517.167L163.767 530.333C168.033 545.233 183.767 553.933 198.9 549.733L212.233 546.033C214.5 545.4 216.633 544.5 218.6 543.4L207.633 546.433Z" fill="#A6C6C5"/>
<path id="Vector_17" d="M238.133 503C239.733 508.567 237.4 514.1 232.933 515.333L162.833 534.667C158.367 535.9 153.467 532.367 151.867 526.8" stroke="#147C7C" stroke-width="10.3372" stroke-miterlimit="10" stroke-linecap="round" stroke-linejoin="round"/>
</g>
</g>
</g>
</g>
<g id="icon_menu" clip-path="url(#clip1_741_3539)">
<path id="Vector_18" d="M49 38.6667V41.1667H29V38.6667H49ZM29 56.1667H35.6667V53.6667H29V56.1667ZM29 48.6667H42.3333V46.1667H29V48.6667Z" fill="black"/>
</g>
<g id="icon_arrow_left" clip-path="url(#clip2_741_3539)">
<path id="Vector_19" d="M325.733 58.7416L328.958 61.9999C329.036 62.078 329.128 62.14 329.23 62.1823C329.331 62.2246 329.44 62.2464 329.55 62.2464C329.66 62.2464 329.769 62.2246 329.87 62.1823C329.972 62.14 330.064 62.078 330.142 61.9999C330.22 61.9224 330.282 61.8303 330.324 61.7287C330.366 61.6272 330.388 61.5183 330.388 61.4083C330.388 61.2982 330.366 61.1893 330.324 61.0878C330.282 60.9862 330.22 60.8941 330.142 60.8166L327.175 57.8333H344.167C344.388 57.8333 344.6 57.7455 344.756 57.5892C344.912 57.4329 345 57.2209 345 56.9999C345 56.7789 344.912 56.5669 344.756 56.4107C344.6 56.2544 344.388 56.1666 344.167 56.1666H327.125L330.142 53.1499C330.289 52.9949 330.372 52.789 330.372 52.5749C330.372 52.3608 330.289 52.1549 330.142 51.9999C330.064 51.9218 329.972 51.8598 329.87 51.8175C329.769 51.7752 329.66 51.7534 329.55 51.7534C329.44 51.7534 329.331 51.7752 329.23 51.8175C329.128 51.8598 329.036 51.9218 328.958 51.9999L325.733 55.2083C325.265 55.677 325.002 56.3124 325.002 56.9749C325.002 57.6374 325.265 58.2728 325.733 58.7416Z" fill="black"/>
</g>
</g>
<defs>
<clipPath id="clip0_741_3539">
<rect width="25" height="25" fill="white" transform="translate(304 109.5)"/>
</clipPath>
<clipPath id="clip1_741_3539">
<rect width="20" height="20" fill="white" transform="translate(29 37)"/>
</clipPath>
<clipPath id="clip2_741_3539">
<rect width="20" height="20" fill="white" transform="translate(325 47)"/>
</clipPath>
</defs>
</svg>
