<svg width="390" height="844" viewBox="0 0 390 844" fill="none" xmlns="http://www.w3.org/2000/svg">
<g id="1.7 mobile_guide">
<rect width="390" height="844" fill="#EFEBE6"/>
<g id="guide selection">
<g id="caret-left">
<path id="Vector" d="M55.4729 304.149V277.733C55.4756 277.263 55.3384 276.803 55.0787 276.412C54.819 276.021 54.4487 275.715 54.0149 275.535C53.5811 275.355 53.1034 275.308 52.6429 275.401C52.1823 275.493 51.7597 275.721 51.4289 276.054L38.233 289.274C37.7925 289.717 37.5453 290.316 37.5453 290.941C37.5453 291.566 37.7925 292.165 38.233 292.608L51.4289 305.828C51.7597 306.161 52.1823 306.389 52.6429 306.481C53.1034 306.573 53.5811 306.527 54.0149 306.346C54.4487 306.166 54.819 305.861 55.0787 305.47C55.3384 305.078 55.4756 304.618 55.4729 304.149Z" fill="black"/>
</g>
<g id="guide">
<g clip-path="url(#clip0_741_3783)">
<rect id="bg" opacity="0.8" x="76.7568" y="172" width="236.486" height="236.486" fill="white"/>
<rect id="title" x="76.7568" y="347" width="236.486" height="61.4865" fill="#1E1E1E"/>
<path id="&#229;&#176;&#143;&#232;&#179;&#135;&#230;&#150;&#135;&#233;&#157;&#146;" d="M163.994 366.056H166.348V379.985C166.348 380.656 166.264 381.159 166.097 381.494C165.929 381.83 165.641 382.088 165.234 382.267C164.815 382.435 164.287 382.543 163.652 382.591C163.029 382.651 162.28 382.675 161.406 382.663C161.37 382.459 161.304 382.219 161.208 381.944C161.112 381.68 161.004 381.411 160.885 381.135C160.777 380.859 160.663 380.626 160.543 380.434C160.938 380.446 161.334 380.458 161.729 380.47C162.125 380.482 162.478 380.488 162.79 380.488C163.101 380.476 163.323 380.47 163.455 380.47C163.646 380.47 163.784 380.434 163.868 380.362C163.952 380.29 163.994 380.164 163.994 379.985V366.056ZM168.307 370.783L170.428 369.992C170.919 370.842 171.393 371.753 171.848 372.724C172.315 373.682 172.723 374.629 173.07 375.563C173.43 376.486 173.687 377.325 173.843 378.08L171.471 379.014C171.351 378.283 171.129 377.451 170.806 376.516C170.494 375.569 170.117 374.599 169.673 373.604C169.242 372.598 168.787 371.657 168.307 370.783ZM159.285 370.189L161.729 370.603C161.526 371.489 161.28 372.436 160.992 373.443C160.705 374.437 160.363 375.39 159.968 376.3C159.585 377.199 159.141 377.984 158.638 378.655C158.458 378.523 158.237 378.385 157.973 378.241C157.721 378.098 157.464 377.966 157.2 377.846C156.948 377.714 156.721 377.606 156.517 377.522C157.008 376.911 157.434 376.186 157.793 375.348C158.165 374.497 158.476 373.622 158.728 372.724C158.979 371.813 159.165 370.968 159.285 370.189ZM177.312 367.547L178.264 366.074C178.672 366.169 179.109 366.295 179.576 366.451C180.044 366.595 180.499 366.751 180.942 366.918C181.398 367.074 181.775 367.224 182.075 367.368L181.104 369.003C180.817 368.859 180.457 368.698 180.026 368.518C179.594 368.326 179.139 368.147 178.66 367.979C178.181 367.811 177.731 367.667 177.312 367.547ZM176.521 370.585C177.18 370.465 177.971 370.297 178.893 370.082C179.828 369.866 180.769 369.65 181.715 369.435L181.913 371.124C181.134 371.376 180.343 371.615 179.541 371.843C178.75 372.059 178.013 372.262 177.33 372.454L176.521 370.585ZM184.483 367.008H191.385V368.536H183.279L184.483 367.008ZM190.881 367.008H191.187L191.511 366.936L192.93 367.314C192.703 367.793 192.433 368.284 192.122 368.788C191.822 369.291 191.528 369.71 191.241 370.046L189.551 369.524C189.791 369.237 190.037 368.883 190.288 368.464C190.54 368.033 190.738 367.631 190.881 367.26V367.008ZM186.334 367.655H188.257C188.174 368.29 188.03 368.871 187.826 369.399C187.622 369.914 187.323 370.375 186.927 370.783C186.544 371.178 186.023 371.525 185.364 371.825C184.717 372.125 183.884 372.376 182.866 372.58C182.782 372.352 182.644 372.089 182.452 371.789C182.26 371.477 182.075 371.232 181.895 371.052C182.758 370.908 183.465 370.735 184.016 370.531C184.567 370.327 184.992 370.094 185.292 369.83C185.603 369.554 185.837 369.237 185.993 368.877C186.149 368.518 186.262 368.111 186.334 367.655ZM188.15 368.105C188.221 368.44 188.341 368.764 188.509 369.075C188.689 369.387 188.958 369.674 189.318 369.938C189.677 370.189 190.181 370.417 190.828 370.621C191.475 370.812 192.307 370.968 193.326 371.088C193.122 371.304 192.918 371.585 192.715 371.933C192.511 372.28 192.355 372.592 192.247 372.867C191.133 372.688 190.216 372.436 189.498 372.113C188.791 371.789 188.233 371.424 187.826 371.016C187.431 370.609 187.125 370.171 186.909 369.704C186.706 369.225 186.544 368.752 186.424 368.284L188.15 368.105ZM184.429 365.804L186.334 366.128C185.987 366.834 185.579 367.517 185.112 368.176C184.645 368.823 184.07 369.423 183.387 369.974C183.195 369.782 182.937 369.59 182.614 369.399C182.302 369.207 182.015 369.057 181.751 368.949C182.41 368.494 182.961 367.991 183.405 367.44C183.848 366.876 184.19 366.331 184.429 365.804ZM181.05 375.599V376.354H188.868V375.599H181.05ZM181.05 377.576V378.367H188.868V377.576H181.05ZM181.05 373.604V374.377H188.868V373.604H181.05ZM178.965 372.328H191.043V379.643H178.965V372.328ZM185.885 380.596L187.682 379.571C188.329 379.799 188.982 380.045 189.641 380.308C190.312 380.56 190.947 380.817 191.546 381.081C192.158 381.333 192.673 381.56 193.092 381.764L190.576 382.735C190.24 382.543 189.821 382.321 189.318 382.07C188.815 381.818 188.269 381.56 187.682 381.297C187.107 381.045 186.508 380.811 185.885 380.596ZM181.913 379.499L183.872 380.398C183.393 380.71 182.83 381.015 182.183 381.315C181.536 381.614 180.871 381.884 180.188 382.123C179.505 382.375 178.858 382.585 178.246 382.753C178.115 382.609 177.953 382.435 177.761 382.231C177.581 382.04 177.39 381.842 177.186 381.638C176.982 381.447 176.803 381.291 176.647 381.171C177.282 381.051 177.923 380.907 178.57 380.74C179.229 380.572 179.846 380.38 180.421 380.164C181.008 379.949 181.506 379.727 181.913 379.499ZM208.1 369.812L210.4 370.495C209.645 372.652 208.669 374.521 207.471 376.103C206.272 377.684 204.846 379.02 203.193 380.111C201.551 381.189 199.652 382.07 197.496 382.753C197.424 382.561 197.304 382.333 197.136 382.07C196.968 381.806 196.795 381.542 196.615 381.279C196.447 381.027 196.285 380.817 196.13 380.65C198.202 380.099 200.018 379.35 201.575 378.403C203.133 377.457 204.451 376.282 205.529 374.88C206.608 373.467 207.465 371.777 208.1 369.812ZM201.144 369.956C201.755 371.741 202.6 373.341 203.678 374.755C204.757 376.168 206.087 377.367 207.668 378.349C209.262 379.332 211.119 380.063 213.24 380.542C213.072 380.71 212.886 380.925 212.683 381.189C212.491 381.452 212.305 381.716 212.126 381.98C211.946 382.255 211.802 382.495 211.694 382.699C209.454 382.123 207.524 381.285 205.907 380.182C204.289 379.068 202.917 377.714 201.791 376.121C200.677 374.527 199.742 372.688 198.987 370.603L201.144 369.956ZM196.453 368.662H212.916V370.765H196.453V368.662ZM203.534 365.804H205.745V369.938H203.534V365.804ZM218.758 373.928H228.643V375.473H220.896V382.717H218.758V373.928ZM227.996 373.928H230.188V380.632C230.188 381.147 230.11 381.53 229.955 381.782C229.811 382.046 229.559 382.243 229.2 382.375C228.828 382.507 228.367 382.585 227.816 382.609C227.265 382.633 226.624 382.645 225.893 382.645C225.845 382.381 225.755 382.088 225.623 381.764C225.503 381.441 225.378 381.159 225.246 380.919C225.545 380.931 225.857 380.943 226.18 380.955C226.504 380.967 226.797 380.973 227.061 380.973C227.325 380.961 227.498 380.955 227.582 380.955C227.75 380.943 227.858 380.913 227.906 380.865C227.966 380.817 227.996 380.728 227.996 380.596V373.928ZM220.106 376.264H228.607V377.666H220.106V376.264ZM216.439 371.519H232.399V373.137H216.439V371.519ZM217.517 366.721H231.482V368.338H217.517V366.721ZM218.218 369.147H230.692V370.675H218.218V369.147ZM220.106 378.493H228.661V379.895H220.106V378.493ZM223.269 365.804H225.461V372.598H223.269V365.804Z" fill="white"/>
<g id="img_petit">
<g id="Group">
<g id="Group_2">
<g id="Group_3">
<g id="Group_4">
<path id="Vector_2" d="M149.949 263.047L152.551 259.618C153.142 258.791 154.324 258.672 155.152 259.264L167.213 268.368C168.041 268.959 168.159 270.142 167.568 270.97L164.966 274.399C164.375 275.226 163.193 275.345 162.365 274.753L150.304 265.649C149.476 265.057 149.358 263.875 149.949 263.047Z" fill="#F1C78A"/>
<path id="Vector_3" d="M155.389 262.22L153.142 265.057C152.314 266.003 150.895 266.24 149.949 265.53L146.875 263.284C146.047 262.692 145.929 261.51 146.52 260.564L150.422 255.598L154.916 258.909C155.98 259.618 156.216 261.037 155.389 262.22Z" fill="#F1C78A"/>
<path id="Vector_4" d="M151.723 257.253L151.014 258.081C150.777 258.318 150.304 258.436 150.068 258.199L147.23 256.189C146.993 255.953 146.875 255.598 147.112 255.361L147.821 254.534C148.058 254.297 148.53 254.179 148.767 254.416L151.605 256.426C151.841 256.544 151.96 256.899 151.723 257.253Z" fill="#F1C78A"/>
<path id="Vector_5" d="M149.831 259.264L149.122 260.091C148.885 260.328 148.412 260.446 148.176 260.209L145.338 258.318C145.101 258.081 144.983 257.726 145.22 257.49L145.929 256.662C146.166 256.426 146.639 256.307 146.875 256.544L149.713 258.554C150.068 258.554 150.068 259.027 149.831 259.264Z" fill="#F1C78A"/>
<path id="Vector_6" d="M148.058 261.392L147.348 262.22C147.112 262.456 146.639 262.574 146.402 262.338L143.564 260.328C143.328 260.091 143.21 259.737 143.446 259.5L144.156 258.672C144.392 258.436 144.865 258.318 145.101 258.554L147.939 260.564C148.294 260.683 148.294 261.037 148.058 261.392Z" fill="#F1C78A"/>
<path id="Vector_7" d="M153.379 260.801L152.196 260.564C151.841 260.446 151.605 260.091 151.723 259.736L152.787 256.071C152.906 255.716 153.26 255.48 153.733 255.598L154.916 255.834C155.27 255.953 155.507 256.307 155.389 256.662L154.324 260.328C154.206 260.682 153.733 260.919 153.379 260.801Z" fill="#F1C78A"/>
</g>
<path id="Vector_8" d="M232.483 282.321L229.763 285.75C229.172 286.578 227.99 286.696 227.162 286.105L215.338 276.763C214.51 276.172 214.392 274.99 214.983 274.162L217.703 270.733C218.294 269.905 219.476 269.787 220.304 270.378L232.128 279.72C232.956 280.311 233.074 281.493 232.483 282.321Z" fill="#F1C78A"/>
<path id="Vector_9" d="M227.044 283.03L229.291 280.311C230.118 279.365 231.537 279.128 232.483 279.838L235.557 282.203C236.385 282.794 236.503 284.095 235.794 284.922L231.774 289.77L227.399 286.341C226.334 285.632 226.216 284.095 227.044 283.03Z" fill="#F1C78A"/>
<path id="Vector_10" d="M230.591 288.115L231.301 287.287C231.537 287.051 232.01 286.932 232.247 287.169L235.085 289.179C235.321 289.416 235.439 289.77 235.203 290.007L234.493 290.834C234.257 291.071 233.784 291.189 233.547 290.953L230.71 288.943C230.355 288.706 230.355 288.351 230.591 288.115Z" fill="#F1C78A"/>
<path id="Vector_11" d="M232.483 286.105L233.192 285.277C233.429 285.041 233.902 284.922 234.138 285.159L236.976 287.169C237.213 287.406 237.331 287.76 237.095 287.997L236.385 288.824C236.149 289.061 235.676 289.179 235.439 288.943L232.483 286.933C232.247 286.696 232.247 286.341 232.483 286.105Z" fill="#F1C78A"/>
<path id="Vector_12" d="M229.054 284.449L230.237 284.804C230.591 284.922 230.828 285.277 230.709 285.632L229.527 289.297C229.409 289.652 228.936 289.889 228.581 289.77L227.399 289.416C226.926 289.297 226.807 288.943 226.926 288.47L228.108 284.804C228.226 284.568 228.581 284.331 229.054 284.449Z" fill="#F1C78A"/>
<path id="Vector_13" d="M234.257 283.976L234.966 283.149C235.203 282.912 235.676 282.794 235.912 283.031L238.75 285.041C238.987 285.277 239.105 285.632 238.868 285.868L238.159 286.696C237.922 286.933 237.449 287.051 237.213 286.814L234.375 284.804C234.02 284.686 234.02 284.331 234.257 283.976Z" fill="#F1C78A"/>
<path id="Vector_14" d="M233.666 279.601L218.412 267.541L211.318 276.527L227.517 289.416L233.784 281.493C234.375 280.902 234.257 280.074 233.666 279.601Z" fill="#FFF5E9"/>
<path id="Vector_15" d="M174.662 271.206L156.689 257.017L149.594 266.003L168.632 281.138L174.899 273.216C175.253 272.625 175.253 271.679 174.662 271.206Z" fill="#FFF5E9"/>
<path id="Vector_16" d="M168.159 266.949H218.53V227.693C218.53 222.135 214.037 217.642 208.48 217.642H178.091C172.652 217.642 168.277 222.017 168.277 227.456V266.949H168.159Z" fill="#F1C78A"/>
<path id="Vector_17" d="M200.321 243.537C201.431 243.537 202.331 242.637 202.331 241.527C202.331 240.417 201.431 239.517 200.321 239.517C199.211 239.517 198.311 240.417 198.311 241.527C198.311 242.637 199.211 243.537 200.321 243.537Z" fill="#040404"/>
<path id="Vector_18" d="M186.368 243.537C187.478 243.537 188.378 242.637 188.378 241.527C188.378 240.417 187.478 239.517 186.368 239.517C185.258 239.517 184.358 240.417 184.358 241.527C184.358 242.637 185.258 243.537 186.368 243.537Z" fill="#040404"/>
<path id="Vector_19" d="M173.716 305.142H212.855C215.929 305.142 218.412 302.659 218.412 299.584V266.476H168.159V299.584C168.159 302.659 170.642 305.142 173.716 305.142Z" fill="#FFF5E9"/>
<path id="Vector_20" d="M196.774 244.128H190.152C189.916 244.128 189.797 244.247 189.797 244.483V244.838C189.797 246.375 191.098 247.676 192.635 247.676H194.409C195.946 247.676 197.247 246.375 197.247 244.838V244.483C197.128 244.365 196.892 244.128 196.774 244.128Z" fill="#DD5B53"/>
<path id="Vector_21" d="M170.169 305.142H216.52C217.584 305.142 218.53 304.314 218.53 303.132V275.226H168.159V303.132C168.159 304.196 169.105 305.142 170.169 305.142Z" fill="#8CBECF"/>
<g id="Group_5">
<path id="Vector_22" d="M149.476 258.436H146.875C143.446 258.436 140.726 255.716 140.726 252.287V249.804C140.726 246.375 143.446 243.656 146.875 243.656H149.358C152.787 243.656 155.507 246.375 155.507 249.804V252.287C155.625 255.716 152.787 258.436 149.476 258.436Z" fill="#FFD672"/>
</g>
<path id="Vector_23" d="M175.372 266.003H168.159V278.655H175.372V266.003Z" fill="#8CBECF"/>
<path id="Vector_24" d="M218.53 266.003H211.318V278.655H218.53V266.003Z" fill="#8CBECF"/>
<path id="Vector_25" d="M189.797 228.757H168.159V222.017C168.159 218.588 170.997 215.75 174.426 215.75H189.797C193.226 215.75 196.064 218.588 196.064 222.017V222.608C196.064 226.037 193.226 228.757 189.797 228.757Z" fill="#B0555A"/>
<path id="Vector_26" d="M218.53 228.757H197.01C193.581 228.757 190.743 225.919 190.743 222.49V221.899C190.743 218.47 193.581 215.632 197.01 215.632H212.263C215.692 215.632 218.53 218.47 218.53 221.899V228.757Z" fill="#B0555A"/>
<path id="Vector_27" d="M244.308 283.74C244.189 283.267 243.835 283.031 243.362 283.031H195.946H194.054H146.639C146.166 283.031 145.811 283.385 145.693 283.74L138.953 309.635C138.835 310.226 139.308 310.818 139.899 310.818H194.054H195.946H250.101C250.693 310.818 251.166 310.226 251.047 309.635L244.308 283.74Z" fill="#6289C3"/>
<path id="Vector_28" d="M182.703 304.432H164.848C162.365 304.432 160.355 302.422 160.355 299.939V299.111C160.355 296.628 162.365 294.618 164.848 294.618H182.703C185.186 294.618 187.196 296.628 187.196 299.111V299.939C187.314 302.422 185.186 304.432 182.703 304.432Z" fill="#FFF5E9"/>
<path id="Vector_29" d="M182.703 301.003H164.612C163.666 301.003 162.838 300.176 162.838 299.23V290.716C162.838 289.77 163.666 288.943 164.612 288.943H184.003C184.24 288.943 184.358 289.061 184.358 289.297V299.23C184.358 300.294 183.649 301.003 182.703 301.003Z" fill="#8C4424"/>
<path id="Vector_30" d="M184.358 289.061C184.358 289.297 184.122 289.534 183.885 289.534L162.838 289.888V289.534L179.392 282.084C181.757 281.02 184.358 282.794 184.358 285.277V289.061Z" fill="#8E6F64"/>
<g id="Group_6">
<path id="Vector_31" d="M177.027 280.429L176.436 281.02L176.081 280.547C176.081 280.429 175.845 280.429 175.845 280.547L175.49 281.138L174.899 280.429C174.899 280.429 174.781 280.429 174.781 280.547V281.257C174.781 281.257 174.781 281.375 174.899 281.375H175.608C175.608 281.375 175.608 281.375 175.726 281.375H176.436H176.554H177.264C177.264 281.375 177.382 281.375 177.382 281.257V280.547C177.145 280.429 177.145 280.429 177.027 280.429Z" fill="#309D47"/>
<path id="Vector_32" d="M176.79 284.922L177.973 282.557C178.328 281.966 177.855 281.138 177.145 281.138H174.78C174.071 281.138 173.598 281.966 173.953 282.557L175.135 284.922C175.49 285.632 176.436 285.632 176.79 284.922Z" fill="#E8728C"/>
<path id="Vector_33" d="M174.662 283.149C174.727 283.149 174.78 283.096 174.78 283.03C174.78 282.965 174.727 282.912 174.662 282.912C174.597 282.912 174.544 282.965 174.544 283.03C174.544 283.096 174.597 283.149 174.662 283.149Z" fill="#BE5F78"/>
<path id="Vector_34" d="M174.899 282.676C174.964 282.676 175.017 282.623 175.017 282.557C175.017 282.492 174.964 282.439 174.899 282.439C174.833 282.439 174.781 282.492 174.781 282.557C174.781 282.623 174.833 282.676 174.899 282.676Z" fill="#BE5F78"/>
<path id="Vector_35" d="M175.135 283.149C175.2 283.149 175.253 283.096 175.253 283.03C175.253 282.965 175.2 282.912 175.135 282.912C175.07 282.912 175.017 282.965 175.017 283.03C175.017 283.096 175.07 283.149 175.135 283.149Z" fill="#BE5F78"/>
<path id="Vector_36" d="M176.081 283.858C176.146 283.858 176.199 283.805 176.199 283.74C176.199 283.675 176.146 283.622 176.081 283.622C176.016 283.622 175.963 283.675 175.963 283.74C175.963 283.805 176.016 283.858 176.081 283.858Z" fill="#BE5F78"/>
<path id="Vector_37" d="M176.317 284.213C176.383 284.213 176.436 284.16 176.436 284.095C176.436 284.029 176.383 283.976 176.317 283.976C176.252 283.976 176.199 284.029 176.199 284.095C176.199 284.16 176.252 284.213 176.317 284.213Z" fill="#BE5F78"/>
<path id="Vector_38" d="M176.672 283.858C176.738 283.858 176.79 283.805 176.79 283.74C176.79 283.675 176.738 283.622 176.672 283.622C176.607 283.622 176.554 283.675 176.554 283.74C176.554 283.805 176.607 283.858 176.672 283.858Z" fill="#BE5F78"/>
</g>
<g id="Group_7">
<path id="Vector_39" d="M223.024 294.736H213.328C212.973 294.736 212.736 294.5 212.618 294.145L209.662 277.118H226.453L223.733 294.145C223.615 294.5 223.378 294.736 223.024 294.736Z" fill="#F17674"/>
<path id="Vector_40" d="M226.453 275.226H209.662V278.655H226.453V275.226Z" fill="#EADED9"/>
</g>
<path id="$" d="M145.904 249.432C145.763 249.432 145.692 249.363 145.692 249.225V248.958C145.455 248.929 145.236 248.852 145.035 248.724C144.916 248.634 144.898 248.524 144.98 248.394C145.028 248.32 145.086 248.279 145.154 248.271C145.221 248.26 145.293 248.279 145.37 248.33C145.531 248.415 145.683 248.457 145.828 248.457C146.116 248.457 146.26 248.333 146.26 248.084C146.26 247.971 146.206 247.87 146.099 247.779C146.034 247.726 145.91 247.651 145.726 247.555C145.678 247.532 145.641 247.514 145.616 247.499C145.415 247.392 145.268 247.289 145.175 247.19C145.039 247.046 144.971 246.875 144.971 246.677C144.971 246.448 145.035 246.257 145.162 246.105C145.292 245.952 145.469 245.855 145.692 245.812V245.528C145.692 245.39 145.763 245.321 145.904 245.321C146.042 245.321 146.112 245.39 146.112 245.528V245.804C146.309 245.829 146.49 245.908 146.654 246.041C146.762 246.14 146.764 246.248 146.663 246.363C146.555 246.485 146.434 246.493 146.298 246.389C146.191 246.327 146.078 246.296 145.959 246.296C145.699 246.296 145.569 246.413 145.569 246.647C145.569 246.746 145.62 246.837 145.722 246.919C145.781 246.967 145.898 247.033 146.073 247.118C146.325 247.239 146.5 247.347 146.599 247.44C146.771 247.601 146.858 247.802 146.858 248.042C146.858 248.277 146.794 248.473 146.667 248.631C146.537 248.792 146.352 248.895 146.112 248.941V249.225C146.112 249.363 146.042 249.432 145.904 249.432Z" fill="black"/>
</g>
</g>
</g>
</g>
</g>
<rect x="78.6487" y="173.892" width="232.703" height="232.703" rx="5.2027" stroke="#1E1E1E" stroke-width="3.78378"/>
</g>
<g id="caret-right">
<path id="Vector_41" d="M334.527 304.149V277.733C334.524 277.263 334.662 276.803 334.921 276.412C335.181 276.021 335.551 275.715 335.985 275.535C336.419 275.355 336.897 275.308 337.357 275.401C337.818 275.493 338.24 275.721 338.571 276.054L351.767 289.274C352.207 289.717 352.455 290.316 352.455 290.941C352.455 291.566 352.207 292.165 351.767 292.608L338.571 305.828C338.24 306.161 337.818 306.389 337.357 306.481C336.897 306.573 336.419 306.527 335.985 306.346C335.551 306.166 335.181 305.861 334.921 305.47C334.662 305.078 334.524 304.618 334.527 304.149Z" fill="black"/>
</g>
</g>
<g id="mobile_headline">
<path id="&#231;&#162;&#186;&#232;&#170;&#141;&#230;&#130;&#168;&#231;&#154;&#132;&#229;&#176;&#142;&#232;&#166;&#189;&#229;&#147;&#161;" d="M83.468 122.352H95.436V125.168H83.468V122.352ZM83.468 127.408H95.436V130.224H83.468V127.408ZM83.404 132.496H96.94V135.632H83.404V132.496ZM78.7 109.808H96.78V115.632H93.356V113.008H81.932V115.632H78.7V109.808ZM87.788 119.664H91.308V134H87.788V119.664ZM84.652 117.04H96.14V120.208H84.652V136.88H81.036V120.368L84.3 117.04H84.652ZM86.316 106.768L89.964 107.472C89.1107 110.928 87.884 114.011 86.284 116.72C84.684 119.429 82.7107 121.648 80.364 123.376C80.1933 123.141 79.948 122.843 79.628 122.48C79.3293 122.096 79.0093 121.723 78.668 121.36C78.3267 120.997 78.028 120.709 77.772 120.496C79.948 119.067 81.7507 117.168 83.18 114.8C84.6093 112.432 85.6547 109.755 86.316 106.768ZM89.772 113.808L93.292 114.544C92.8867 115.419 92.4707 116.272 92.044 117.104C91.6387 117.915 91.2653 118.619 90.924 119.216L88.044 118.48C88.3427 117.819 88.6627 117.051 89.004 116.176C89.3453 115.301 89.6013 114.512 89.772 113.808ZM67.436 108.72H78.956V112.208H67.436V108.72ZM71.02 118.128H78.476V133.008H71.02V129.712H75.244V121.424H71.02V118.128ZM70.732 110.576L74.316 111.12C74.0173 113.424 73.612 115.685 73.1 117.904C72.588 120.101 71.9373 122.171 71.148 124.112C70.38 126.032 69.4627 127.717 68.396 129.168C68.2893 128.869 68.108 128.485 67.852 128.016C67.6173 127.547 67.3613 127.077 67.084 126.608C66.828 126.139 66.5827 125.765 66.348 125.488C67.18 124.315 67.8733 122.939 68.428 121.36C69.004 119.781 69.4733 118.075 69.836 116.24C70.22 114.405 70.5187 112.517 70.732 110.576ZM69.516 118.128H72.62V135.504H69.516V118.128ZM120.236 109.392H123.692C123.543 110.672 123.319 111.963 123.02 113.264C122.743 114.544 122.316 115.781 121.74 116.976C121.164 118.149 120.396 119.259 119.436 120.304C118.497 121.328 117.281 122.224 115.788 122.992C115.596 122.544 115.287 122.053 114.86 121.52C114.433 120.987 114.028 120.571 113.644 120.272C114.924 119.653 115.969 118.928 116.78 118.096C117.591 117.264 118.231 116.368 118.7 115.408C119.169 114.448 119.511 113.456 119.724 112.432C119.959 111.408 120.129 110.395 120.236 109.392ZM114.7 114.864L116.492 112.208C117.559 112.507 118.647 112.891 119.756 113.36C120.887 113.829 121.953 114.32 122.956 114.832C123.98 115.344 124.844 115.824 125.548 116.272L123.724 119.248C123.041 118.736 122.188 118.213 121.164 117.68C120.161 117.125 119.095 116.603 117.964 116.112C116.855 115.6 115.767 115.184 114.7 114.864ZM127.564 108.048H131.148C131.148 108.048 131.148 108.144 131.148 108.336C131.148 108.507 131.137 108.709 131.116 108.944C131.116 109.157 131.105 109.328 131.084 109.456C130.999 111.888 130.892 113.883 130.764 115.44C130.636 116.976 130.476 118.171 130.284 119.024C130.113 119.856 129.889 120.443 129.612 120.784C129.292 121.189 128.961 121.477 128.62 121.648C128.3 121.819 127.916 121.936 127.468 122C127.084 122.085 126.583 122.139 125.964 122.16C125.345 122.16 124.684 122.149 123.98 122.128C123.959 121.595 123.852 121.008 123.66 120.368C123.489 119.707 123.276 119.141 123.02 118.672C123.575 118.736 124.076 118.779 124.524 118.8C124.972 118.8 125.324 118.8 125.58 118.8C125.985 118.821 126.305 118.693 126.54 118.416C126.689 118.203 126.828 117.765 126.956 117.104C127.084 116.421 127.191 115.397 127.276 114.032C127.383 112.667 127.479 110.864 127.564 108.624V108.048ZM118.22 125.328H121.74V132.304C121.74 132.752 121.783 133.04 121.868 133.168C121.953 133.275 122.145 133.328 122.444 133.328C122.508 133.328 122.615 133.328 122.764 133.328C122.913 133.328 123.073 133.328 123.244 133.328C123.415 133.328 123.575 133.328 123.724 133.328C123.895 133.328 124.012 133.328 124.076 133.328C124.289 133.328 124.449 133.253 124.556 133.104C124.663 132.955 124.748 132.645 124.812 132.176C124.876 131.685 124.919 130.949 124.94 129.968C125.153 130.139 125.441 130.32 125.804 130.512C126.188 130.683 126.572 130.843 126.956 130.992C127.361 131.12 127.724 131.237 128.044 131.344C127.937 132.731 127.745 133.808 127.468 134.576C127.212 135.365 126.839 135.899 126.348 136.176C125.879 136.475 125.26 136.624 124.492 136.624C124.343 136.624 124.14 136.624 123.884 136.624C123.649 136.624 123.404 136.624 123.148 136.624C122.892 136.624 122.647 136.624 122.412 136.624C122.177 136.624 121.985 136.624 121.836 136.624C120.855 136.624 120.097 136.485 119.564 136.208C119.052 135.952 118.7 135.515 118.508 134.896C118.316 134.277 118.22 133.435 118.22 132.368V125.328ZM114.956 126.576L117.996 127.376C117.911 128.315 117.772 129.264 117.58 130.224C117.388 131.184 117.132 132.091 116.812 132.944C116.492 133.776 116.065 134.512 115.532 135.152L112.716 133.456C113.164 132.901 113.537 132.261 113.836 131.536C114.135 130.789 114.369 129.989 114.54 129.136C114.732 128.283 114.871 127.429 114.956 126.576ZM118.956 123.12L121.164 120.88C121.847 121.221 122.551 121.627 123.276 122.096C124.001 122.544 124.684 123.024 125.324 123.536C125.985 124.027 126.519 124.496 126.924 124.944L124.524 127.44C124.161 126.971 123.671 126.48 123.052 125.968C122.455 125.456 121.793 124.955 121.068 124.464C120.343 123.952 119.639 123.504 118.956 123.12ZM125.996 127.088L129.1 125.84C129.676 126.651 130.199 127.525 130.668 128.464C131.137 129.403 131.543 130.341 131.884 131.28C132.225 132.197 132.471 133.029 132.62 133.776L129.228 135.184C129.143 134.416 128.94 133.573 128.62 132.656C128.3 131.717 127.916 130.757 127.468 129.776C127.02 128.795 126.529 127.899 125.996 127.088ZM115.148 108.048H129.196V111.248H115.148V108.048ZM103.5 116.624H112.876V119.536H103.5V116.624ZM103.628 107.824H112.812V110.704H103.628V107.824ZM103.5 121.008H112.876V123.888H103.5V121.008ZM102.06 112.112H113.74V115.152H102.06V112.112ZM105.164 125.424H112.94V135.184H105.164V132.144H109.74V128.464H105.164V125.424ZM103.436 125.424H106.604V136.432H103.436V125.424ZM150.764 106.832L154.284 107.728C153.708 109.413 152.94 111.035 151.98 112.592C151.02 114.128 150.007 115.419 148.94 116.464C148.748 116.229 148.471 115.963 148.108 115.664C147.767 115.344 147.415 115.035 147.052 114.736C146.711 114.437 146.401 114.203 146.124 114.032C147.148 113.179 148.065 112.112 148.876 110.832C149.687 109.552 150.316 108.219 150.764 106.832ZM150.54 115.056L154.06 115.952C153.569 117.211 152.94 118.448 152.172 119.664C151.404 120.88 150.625 121.893 149.836 122.704C149.623 122.512 149.324 122.299 148.94 122.064C148.577 121.808 148.204 121.563 147.82 121.328C147.436 121.072 147.105 120.869 146.828 120.72C147.596 120.016 148.3 119.152 148.94 118.128C149.601 117.104 150.135 116.08 150.54 115.056ZM151.468 109.552H164.236V112.784H150.188L151.468 109.552ZM155.148 111.984H158.796V121.968C158.796 122.8 158.7 123.461 158.508 123.952C158.337 124.443 157.964 124.827 157.388 125.104C156.833 125.36 156.183 125.52 155.436 125.584C154.711 125.648 153.857 125.68 152.876 125.68C152.812 125.168 152.663 124.592 152.428 123.952C152.193 123.312 151.948 122.768 151.692 122.32C152.289 122.341 152.876 122.352 153.452 122.352C154.028 122.352 154.412 122.352 154.604 122.352C154.817 122.331 154.956 122.299 155.02 122.256C155.105 122.192 155.148 122.075 155.148 121.904V111.984ZM159.532 116.144L162.668 114.8C163.159 115.483 163.639 116.229 164.108 117.04C164.577 117.851 165.004 118.651 165.388 119.44C165.772 120.208 166.081 120.912 166.316 121.552L162.988 123.12C162.796 122.48 162.508 121.765 162.124 120.976C161.761 120.165 161.356 119.333 160.908 118.48C160.46 117.627 160.001 116.848 159.532 116.144ZM163.244 109.552H163.788L164.396 109.456L167.084 110.032C166.743 111.099 166.348 112.197 165.9 113.328C165.473 114.459 165.079 115.408 164.716 116.176L161.452 115.504C161.751 114.821 162.071 113.957 162.412 112.912C162.753 111.867 163.031 110.896 163.244 110V109.552ZM145.516 126.864H149.324V131.824C149.324 132.272 149.42 132.56 149.612 132.688C149.825 132.816 150.305 132.88 151.052 132.88C151.223 132.88 151.5 132.88 151.884 132.88C152.268 132.88 152.684 132.88 153.132 132.88C153.601 132.88 154.039 132.88 154.444 132.88C154.871 132.88 155.191 132.88 155.404 132.88C155.831 132.88 156.14 132.805 156.332 132.656C156.545 132.507 156.705 132.208 156.812 131.76C156.919 131.312 156.993 130.629 157.036 129.712C157.271 129.883 157.591 130.064 157.996 130.256C158.401 130.448 158.817 130.619 159.244 130.768C159.692 130.896 160.087 131.003 160.428 131.088C160.279 132.453 160.044 133.509 159.724 134.256C159.404 135.024 158.924 135.547 158.284 135.824C157.665 136.123 156.823 136.272 155.756 136.272C155.564 136.272 155.297 136.272 154.956 136.272C154.615 136.272 154.231 136.272 153.804 136.272C153.377 136.272 152.951 136.272 152.524 136.272C152.097 136.272 151.713 136.272 151.372 136.272C151.031 136.272 150.775 136.272 150.604 136.272C149.239 136.272 148.183 136.133 147.436 135.856C146.711 135.6 146.209 135.141 145.932 134.48C145.655 133.84 145.516 132.965 145.516 131.856V126.864ZM148.204 126L150.796 123.792C151.436 124.155 152.108 124.571 152.812 125.04C153.516 125.488 154.167 125.957 154.764 126.448C155.383 126.939 155.884 127.408 156.268 127.856L153.516 130.288C153.153 129.84 152.684 129.36 152.108 128.848C151.532 128.315 150.903 127.803 150.22 127.312C149.537 126.821 148.865 126.384 148.204 126ZM158.572 128.08L161.74 126.352C162.508 127.056 163.255 127.835 163.98 128.688C164.727 129.541 165.399 130.395 165.996 131.248C166.593 132.101 167.052 132.912 167.372 133.68L163.916 135.6C163.66 134.853 163.255 134.043 162.7 133.168C162.145 132.293 161.505 131.419 160.78 130.544C160.076 129.648 159.34 128.827 158.572 128.08ZM141.548 126.96L145.004 128.144C144.556 129.616 143.98 131.045 143.276 132.432C142.593 133.819 141.644 134.971 140.428 135.888L137.26 133.712C138.327 132.923 139.212 131.941 139.916 130.768C140.641 129.573 141.185 128.304 141.548 126.96ZM144.46 106.8L147.852 107.984C147.169 109.307 146.359 110.629 145.42 111.952C144.481 113.275 143.479 114.512 142.412 115.664C141.367 116.795 140.311 117.787 139.244 118.64C139.095 118.384 138.881 118.064 138.604 117.68C138.348 117.275 138.06 116.88 137.74 116.496C137.441 116.112 137.175 115.792 136.94 115.536C138.391 114.491 139.788 113.2 141.132 111.664C142.497 110.107 143.607 108.485 144.46 106.8ZM141.676 113.488L145.292 109.904L145.356 109.936V125.616H141.676V113.488ZM176.076 112.016H185.9V133.552H176.076V130.192H182.444V115.344H176.076V112.016ZM173.836 112.016H177.324V135.92H173.836V112.016ZM175.948 120.56H184.108V123.888H175.948V120.56ZM178.412 106.8L182.572 107.408C182.231 108.496 181.857 109.573 181.452 110.64C181.068 111.707 180.716 112.613 180.396 113.36L177.324 112.656C177.473 112.101 177.612 111.483 177.74 110.8C177.889 110.117 178.028 109.424 178.156 108.72C178.284 108.016 178.369 107.376 178.412 106.8ZM190.124 111.76H199.5V115.28H190.124V111.76ZM198.156 111.76H201.708C201.708 111.76 201.708 111.877 201.708 112.112C201.708 112.325 201.708 112.571 201.708 112.848C201.708 113.125 201.697 113.339 201.676 113.488C201.591 117.093 201.484 120.155 201.356 122.672C201.249 125.168 201.111 127.237 200.94 128.88C200.791 130.501 200.609 131.771 200.396 132.688C200.183 133.605 199.905 134.277 199.564 134.704C199.137 135.323 198.679 135.749 198.188 135.984C197.697 136.219 197.132 136.389 196.492 136.496C195.873 136.581 195.105 136.613 194.188 136.592C193.292 136.592 192.375 136.581 191.436 136.56C191.415 136.027 191.287 135.397 191.052 134.672C190.817 133.968 190.529 133.349 190.188 132.816C191.212 132.901 192.161 132.955 193.036 132.976C193.932 132.997 194.583 133.008 194.988 133.008C195.308 133.008 195.564 132.976 195.756 132.912C195.969 132.827 196.172 132.677 196.364 132.464C196.641 132.187 196.865 131.621 197.036 130.768C197.228 129.893 197.388 128.667 197.516 127.088C197.644 125.509 197.761 123.515 197.868 121.104C197.975 118.693 198.071 115.824 198.156 112.496V111.76ZM190.22 106.832L193.932 107.696C193.527 109.253 193.025 110.811 192.428 112.368C191.852 113.925 191.212 115.397 190.508 116.784C189.825 118.149 189.121 119.344 188.396 120.368C188.183 120.155 187.873 119.909 187.468 119.632C187.084 119.333 186.689 119.045 186.284 118.768C185.9 118.491 185.559 118.277 185.26 118.128C185.964 117.211 186.625 116.155 187.244 114.96C187.884 113.744 188.449 112.443 188.94 111.056C189.452 109.648 189.879 108.24 190.22 106.832ZM188.652 121.008L191.66 119.312C192.193 120.037 192.759 120.837 193.356 121.712C193.953 122.587 194.519 123.44 195.052 124.272C195.585 125.104 196.023 125.84 196.364 126.48L193.1 128.464C192.801 127.803 192.396 127.045 191.884 126.192C191.393 125.339 190.86 124.464 190.284 123.568C189.729 122.651 189.185 121.797 188.652 121.008ZM208.076 127.76H237.356V130.672H208.076V127.76ZM216.332 109.456H237.324V112.016H216.332V109.456ZM226.732 126.032H230.412V133.232C230.412 134.085 230.305 134.757 230.092 135.248C229.9 135.739 229.473 136.112 228.812 136.368C228.172 136.603 227.415 136.741 226.54 136.784C225.665 136.848 224.631 136.88 223.436 136.88C223.372 136.368 223.223 135.803 222.988 135.184C222.753 134.565 222.508 134.021 222.252 133.552C222.764 133.573 223.287 133.595 223.82 133.616C224.353 133.637 224.823 133.648 225.228 133.648C225.633 133.627 225.911 133.616 226.06 133.616C226.316 133.616 226.487 133.584 226.572 133.52C226.679 133.435 226.732 133.307 226.732 133.136V126.032ZM213.484 132.048L216.108 129.936C216.62 130.256 217.153 130.629 217.708 131.056C218.263 131.461 218.796 131.877 219.308 132.304C219.82 132.731 220.236 133.136 220.556 133.52L217.74 135.856C217.463 135.493 217.089 135.077 216.62 134.608C216.151 134.16 215.639 133.712 215.084 133.264C214.529 132.816 213.996 132.411 213.484 132.048ZM208.94 109.264L211.436 107.152C211.969 107.515 212.524 107.931 213.1 108.4C213.697 108.869 214.241 109.339 214.732 109.808C215.244 110.277 215.639 110.715 215.916 111.12L213.292 113.424C213.015 113.019 212.631 112.571 212.14 112.08C211.671 111.568 211.159 111.067 210.604 110.576C210.049 110.085 209.495 109.648 208.94 109.264ZM220.044 107.344L223.148 106.768C223.489 107.237 223.82 107.771 224.14 108.368C224.46 108.944 224.684 109.467 224.812 109.936L221.548 110.576C221.42 110.149 221.207 109.637 220.908 109.04C220.631 108.421 220.343 107.856 220.044 107.344ZM222.412 117.296V118.288H231.02V117.296H222.412ZM222.412 119.92V120.944H231.02V119.92H222.412ZM222.412 114.736V115.664H231.02V114.736H222.412ZM218.86 113.04H234.732V122.608H218.86V113.04ZM215.372 114.768V122.288H211.916V117.648H208.172V114.768H215.372ZM224.876 110.512L228.684 110.768C228.428 111.365 228.183 111.92 227.948 112.432C227.735 112.944 227.543 113.392 227.372 113.776L224.332 113.392C224.46 112.923 224.567 112.432 224.652 111.92C224.759 111.387 224.833 110.917 224.876 110.512ZM230.412 106.736L234.028 107.312C233.644 107.931 233.26 108.507 232.876 109.04C232.513 109.552 232.183 110 231.884 110.384L228.844 109.808C229.121 109.339 229.399 108.827 229.676 108.272C229.975 107.696 230.22 107.184 230.412 106.736ZM215.372 121.008C215.905 121.883 216.652 122.523 217.612 122.928C218.572 123.333 219.735 123.557 221.1 123.6C221.889 123.621 222.817 123.643 223.884 123.664C224.972 123.685 226.135 123.696 227.372 123.696C228.609 123.675 229.857 123.653 231.116 123.632C232.375 123.589 233.58 123.547 234.732 123.504C235.905 123.44 236.94 123.387 237.836 123.344C237.665 123.685 237.484 124.155 237.292 124.752C237.1 125.328 236.961 125.829 236.876 126.256C235.852 126.299 234.647 126.341 233.26 126.384C231.873 126.405 230.433 126.427 228.94 126.448C227.447 126.448 226.017 126.448 224.652 126.448C223.287 126.427 222.103 126.395 221.1 126.352C219.479 126.288 218.103 126.053 216.972 125.648C215.863 125.221 214.913 124.507 214.124 123.504C213.356 124.016 212.567 124.528 211.756 125.04C210.967 125.552 210.124 126.085 209.228 126.64L207.916 123.6C208.663 123.259 209.463 122.864 210.316 122.416C211.191 121.947 212.023 121.477 212.812 121.008H215.372ZM251.372 125.584V126.608H264.268V125.584H251.372ZM251.372 128.464V129.52H264.268V128.464H251.372ZM251.372 122.672V123.728H264.268V122.672H251.372ZM247.724 120.72H268.076V131.504H247.724V120.72ZM259.212 130.384H262.988V132.784C262.988 133.168 263.073 133.413 263.244 133.52C263.436 133.605 263.852 133.648 264.492 133.648C264.641 133.648 264.887 133.648 265.228 133.648C265.591 133.648 265.975 133.648 266.38 133.648C266.785 133.648 267.169 133.648 267.532 133.648C267.895 133.648 268.183 133.648 268.396 133.648C268.737 133.648 268.993 133.595 269.164 133.488C269.335 133.36 269.463 133.125 269.548 132.784C269.633 132.443 269.697 131.92 269.74 131.216C270.103 131.451 270.593 131.675 271.212 131.888C271.852 132.101 272.417 132.261 272.908 132.368C272.78 133.456 272.567 134.299 272.268 134.896C271.991 135.493 271.564 135.909 270.988 136.144C270.433 136.4 269.697 136.528 268.78 136.528C268.631 136.528 268.385 136.528 268.044 136.528C267.724 136.528 267.361 136.528 266.956 136.528C266.572 136.528 266.177 136.528 265.772 136.528C265.388 136.528 265.036 136.528 264.716 136.528C264.417 136.528 264.183 136.528 264.012 136.528C262.753 136.528 261.772 136.411 261.068 136.176C260.385 135.963 259.905 135.579 259.628 135.024C259.351 134.491 259.212 133.744 259.212 132.784V130.384ZM252.172 130.608H255.948C255.735 131.525 255.415 132.336 254.988 133.04C254.561 133.744 253.921 134.341 253.068 134.832C252.215 135.344 251.095 135.76 249.708 136.08C248.321 136.421 246.572 136.688 244.46 136.88C244.332 136.453 244.097 135.941 243.756 135.344C243.436 134.768 243.116 134.299 242.796 133.936C244.609 133.851 246.092 133.733 247.244 133.584C248.396 133.413 249.303 133.2 249.964 132.944C250.647 132.688 251.148 132.368 251.468 131.984C251.788 131.6 252.023 131.141 252.172 130.608ZM260.94 111.728H270.828V113.872H260.94V111.728ZM260.876 108.464H272.3V110.832H260.876V108.464ZM249.932 108.72H252.94V111.728H249.932V108.72ZM249.932 115.12H252.94V118.16H249.932V115.12ZM246.444 111.088H256.94V116.304H246.444V114.32H253.708V113.072H246.444V111.088ZM267.82 116.464V118.064H269.164V116.464H267.82ZM264.652 116.464V118.064H265.964V116.464H264.652ZM261.548 116.464V118.064H262.796V116.464H261.548ZM259.02 114.704H271.788V119.856H259.02V114.704ZM260.588 106.864L263.852 107.376C263.383 108.613 262.785 109.797 262.06 110.928C261.335 112.059 260.396 113.104 259.244 114.064C258.945 113.701 258.551 113.296 258.06 112.848C257.569 112.4 257.121 112.08 256.716 111.888C257.719 111.184 258.529 110.384 259.148 109.488C259.788 108.592 260.268 107.717 260.588 106.864ZM257.58 107.76V109.936H247.66V117.616H257.836V119.792H244.428V107.76H257.58ZM286.668 110.8V112.88H299.66V110.8H286.668ZM282.796 107.824H303.724V115.856H282.796V107.824ZM285.164 123.472V124.848H300.876V123.472H285.164ZM285.164 127.28V128.656H300.876V127.28H285.164ZM285.164 119.696V121.04H300.876V119.696H285.164ZM281.356 117.072H304.876V131.28H281.356V117.072ZM287.564 130.608L290.956 133.008C290.103 133.52 289.1 134.021 287.948 134.512C286.817 135.003 285.644 135.451 284.428 135.856C283.233 136.283 282.092 136.624 281.004 136.88C280.641 136.475 280.172 136.005 279.596 135.472C279.041 134.939 278.54 134.491 278.092 134.128C279.223 133.872 280.385 133.552 281.58 133.168C282.775 132.784 283.905 132.368 284.972 131.92C286.039 131.472 286.903 131.035 287.564 130.608ZM294.572 133.2L297.964 130.8C299.095 131.077 300.289 131.429 301.548 131.856C302.807 132.261 304.023 132.677 305.196 133.104C306.391 133.509 307.425 133.883 308.3 134.224L304.908 136.944C304.076 136.56 303.063 136.133 301.868 135.664C300.695 135.216 299.468 134.779 298.188 134.352C296.929 133.925 295.724 133.541 294.572 133.2Z" fill="black"/>
<g id="interrogation " clip-path="url(#clip1_741_3783)">
<path id="Vector_42" d="M328.5 109.5C326.028 109.5 323.611 110.233 321.555 111.607C319.5 112.98 317.898 114.932 316.952 117.216C316.005 119.501 315.758 122.014 316.24 124.439C316.723 126.863 317.913 129.091 319.661 130.839C321.409 132.587 323.637 133.778 326.061 134.26C328.486 134.742 330.999 134.495 333.284 133.548C335.568 132.602 337.52 131 338.893 128.945C340.267 126.889 341 124.472 341 122C340.996 118.686 339.678 115.509 337.335 113.165C334.991 110.822 331.814 109.504 328.5 109.5ZM328.5 130.333C328.294 130.333 328.093 130.272 327.921 130.158C327.75 130.043 327.616 129.881 327.538 129.69C327.459 129.5 327.438 129.291 327.478 129.088C327.519 128.886 327.618 128.701 327.763 128.555C327.909 128.409 328.095 128.31 328.297 128.27C328.499 128.23 328.708 128.25 328.899 128.329C329.089 128.408 329.252 128.542 329.366 128.713C329.481 128.884 329.542 129.086 329.542 129.292C329.542 129.568 329.432 129.833 329.237 130.028C329.041 130.224 328.776 130.333 328.5 130.333ZM330.51 122.527C330.203 122.719 329.952 122.989 329.782 123.309C329.612 123.629 329.529 123.989 329.542 124.351V125.125C329.542 125.401 329.432 125.666 329.237 125.862C329.041 126.057 328.776 126.167 328.5 126.167C328.224 126.167 327.959 126.057 327.763 125.862C327.568 125.666 327.458 125.401 327.458 125.125V124.351C327.443 123.616 327.625 122.89 327.984 122.249C328.344 121.608 328.869 121.075 329.504 120.705C329.889 120.493 330.197 120.165 330.384 119.767C330.571 119.37 330.628 118.923 330.546 118.492C330.465 118.08 330.263 117.703 329.966 117.407C329.669 117.111 329.291 116.91 328.879 116.83C328.579 116.775 328.27 116.786 327.975 116.863C327.679 116.94 327.404 117.081 327.169 117.276C326.934 117.471 326.745 117.715 326.615 117.992C326.485 118.268 326.417 118.57 326.417 118.875C326.417 119.151 326.307 119.416 326.112 119.612C325.916 119.807 325.651 119.917 325.375 119.917C325.099 119.917 324.834 119.807 324.638 119.612C324.443 119.416 324.333 119.151 324.333 118.875C324.334 118.14 324.528 117.418 324.897 116.783C325.267 116.148 325.797 115.621 326.436 115.257C327.074 114.893 327.797 114.704 328.532 114.71C329.267 114.716 329.987 114.916 330.62 115.29C331.253 115.663 331.775 116.198 332.135 116.839C332.494 117.48 332.677 118.205 332.666 118.94C332.655 119.674 332.45 120.393 332.071 121.023C331.693 121.653 331.154 122.172 330.51 122.527Z" fill="black"/>
</g>
</g>
<g id="icon_menu" clip-path="url(#clip2_741_3783)">
<path id="Vector_43" d="M49 38.6667V41.1667H29V38.6667H49ZM29 56.1667H35.6667V53.6667H29V56.1667ZM29 48.6667H42.3333V46.1667H29V48.6667Z" fill="black"/>
</g>
<g id="icon_arrow_left" clip-path="url(#clip3_741_3783)">
<path id="Vector_44" d="M325.733 58.7416L328.958 61.9999C329.036 62.078 329.128 62.14 329.23 62.1823C329.331 62.2246 329.44 62.2464 329.55 62.2464C329.66 62.2464 329.769 62.2246 329.87 62.1823C329.972 62.14 330.064 62.078 330.142 61.9999C330.22 61.9224 330.282 61.8303 330.324 61.7287C330.366 61.6272 330.388 61.5183 330.388 61.4083C330.388 61.2982 330.366 61.1893 330.324 61.0878C330.282 60.9862 330.22 60.8941 330.142 60.8166L327.175 57.8333H344.167C344.388 57.8333 344.6 57.7455 344.756 57.5892C344.912 57.4329 345 57.2209 345 56.9999C345 56.7789 344.912 56.5669 344.756 56.4107C344.6 56.2544 344.388 56.1666 344.167 56.1666H327.125L330.142 53.1499C330.289 52.9949 330.372 52.789 330.372 52.5749C330.372 52.3608 330.289 52.1549 330.142 51.9999C330.064 51.9218 329.972 51.8598 329.87 51.8175C329.769 51.7752 329.66 51.7534 329.55 51.7534C329.44 51.7534 329.331 51.7752 329.23 51.8175C329.128 51.8598 329.036 51.9218 328.958 51.9999L325.733 55.2083C325.265 55.677 325.002 56.3124 325.002 56.9749C325.002 57.6374 325.265 58.2728 325.733 58.7416Z" fill="black"/>
</g>
</g>
<defs>
<clipPath id="clip0_741_3783">
<rect x="76.7568" y="172" width="236.486" height="236.486" rx="7.09459" fill="white"/>
</clipPath>
<clipPath id="clip1_741_3783">
<rect width="25" height="25" fill="white" transform="translate(316 109.5)"/>
</clipPath>
<clipPath id="clip2_741_3783">
<rect width="20" height="20" fill="white" transform="translate(29 37)"/>
</clipPath>
<clipPath id="clip3_741_3783">
<rect width="20" height="20" fill="white" transform="translate(325 47)"/>
</clipPath>
</defs>
</svg>
