<svg width="390" height="844" viewBox="0 0 390 844" fill="none" xmlns="http://www.w3.org/2000/svg">
<g id="1.9 mobile_Guide_start" clip-path="url(#clip0_741_4624)">
<rect width="390" height="844" fill="#EFEBE6"/>
<line id="Line 1" opacity="0.3" y1="109.5" x2="390" y2="109.5" stroke="#99756A"/>
<g id="img_tea abe">
<g id="Group">
<g id="Group_2">
<g id="Group_3">
<g id="Group_4">
<path id="Vector" d="M209.7 50.4L210.4 52.25C210.55 52.7 210.35 53.15 209.9 53.3L203.45 55.65C203 55.8 202.55 55.6 202.4 55.15L201.7 53.3C201.55 52.85 201.75 52.4 202.2 52.25L208.65 49.9C209.1 49.7 209.55 49.95 209.7 50.4Z" fill="#F1C78A"/>
<path id="Vector_2" d="M207.9 53.0001L207.35 51.4501C207.15 50.9001 207.45 50.3001 207.95 50.1001L209.6 49.4501C210.05 49.3001 210.55 49.5001 210.7 50.0001L211.65 52.7501L209.25 53.6501C208.7 53.9001 208.1 53.5501 207.9 53.0001Z" fill="#F1C78A"/>
<path id="Vector_3" d="M210.7 52.8L210.55 52.3C210.5 52.15 210.6 51.95 210.7 51.9L212.15 51.3C212.3 51.25 212.45 51.3 212.5 51.5L212.65 52C212.7 52.15 212.6 52.35 212.5 52.4L211.05 53C210.9 53.05 210.75 52.95 210.7 52.8Z" fill="#F1C78A"/>
<path id="Vector_4" d="M210.35 51.6001L210.2 51.1001C210.15 50.9501 210.25 50.7501 210.35 50.7001L211.8 50.1001C211.95 50.0501 212.1 50.1001 212.15 50.3001L212.3 50.8001C212.35 50.9501 212.25 51.1501 212.15 51.2001L210.7 51.8001C210.55 51.8501 210.4 51.7501 210.35 51.6001Z" fill="#F1C78A"/>
<path id="Vector_5" d="M210 50.4001L209.85 49.9001C209.8 49.7501 209.9 49.5501 210 49.5001L211.45 48.9001C211.6 48.8501 211.75 48.9001 211.8 49.1001L211.95 49.6001C212 49.7501 211.9 49.9501 211.8 50.0001L210.35 50.6001C210.2 50.6501 210.05 50.5501 210 50.4001Z" fill="#F1C78A"/>
</g>
<path id="Vector_6" d="M202.65 56.45L201.2 52.45C201.15 52.25 201.25 52.05 201.4 52L204.55 50.85C204.65 50.8 204.8 50.85 204.85 51L206.25 54.85C206.3 54.95 206.25 55.1 206.1 55.1501L202.65 56.45Z" fill="white"/>
<path id="Vector_7" d="M181.65 58.65L179.35 57.45C179.05 57.3 178.95 56.95 179.1 56.65L181.8 51.45C181.9 51.3 182.1 51.2 182.3 51.3L184.8 52.6C184.95 52.7 185.05 52.9 184.95 53.1L182.1 58.5C182 58.7 181.8 58.75 181.65 58.65Z" fill="#F1C78A"/>
<path id="Vector_8" d="M182.45 56.6501L179.65 54.3501C179.5 54.2501 179.5 54.0501 179.6 53.9001L181.9 51.1001L184.95 53.6001L182.45 56.6501Z" fill="white"/>
<path id="Vector_9" d="M184.1 67.1501H200.4C201.7 67.1501 202.7 66.1 202.7 64.85V51.05H181.8V64.85C181.8 66.1 182.85 67.1501 184.1 67.1501Z" fill="white"/>
<path id="Vector_10" d="M181.8 51.25H202.75V39.7C202.75 34.75 198.75 30.75 193.8 30.75H190.7C185.8 30.75 181.8 34.75 181.8 39.65V51.25Z" fill="#F1C78A"/>
<path id="Vector_11" d="M195.2 41.4501C195.642 41.4501 196 41.0919 196 40.6501C196 40.2083 195.642 39.8501 195.2 39.8501C194.758 39.8501 194.4 40.2083 194.4 40.6501C194.4 41.0919 194.758 41.4501 195.2 41.4501Z" fill="#040404"/>
<path id="Vector_12" d="M189.35 41.4501C189.792 41.4501 190.15 41.0919 190.15 40.6501C190.15 40.2083 189.792 39.8501 189.35 39.8501C188.908 39.8501 188.55 40.2083 188.55 40.6501C188.55 41.0919 188.908 41.4501 189.35 41.4501Z" fill="#040404"/>
<path id="Vector_13" d="M205.55 36.2501L199.7 31.7001C199.6 31.6501 199.55 31.5501 199.5 31.4501L196.75 26.2001C196.55 25.8501 196.3 25.5001 196 25.2001C195.05 24.3501 193.85 23.8001 192.65 23.6501V23.6001C191.4 23.7501 190.25 24.2501 189.25 25.1501C188.95 25.4001 188.7 25.7501 188.5 26.1001L185.75 31.3501C185.7 31.4501 185.6 31.5501 185.55 31.6001L179.7 36.1501C179.55 36.2501 179.45 36.4001 179.45 36.5501C179.3 37.0501 179.65 37.6001 180.2 37.6001H192.6H205.05C205.6 37.6001 205.95 37.0501 205.8 36.5501C205.8 36.5001 205.7 36.3501 205.55 36.2501Z" fill="#C9AD95"/>
<path id="Vector_14" d="M193.95 41.5H191.4C191.3 41.5 191.25 41.55 191.25 41.65V41.75C191.25 42.35 191.75 42.8 192.3 42.8H193.05C193.65 42.8 194.1 42.3 194.1 41.75V41.65C194.1 41.55 194.05 41.5 193.95 41.5Z" fill="#DD5B53"/>
<g id="Group_5">
<g id="Group_6">
<path id="Vector_15" d="M190.5 41.35C190 41.8 189.9 42.55 190.15 43.15C190.2 43.25 190.3 43.25 190.4 43.2C190.5 43.15 190.5 43.05 190.45 42.95C190.25 42.5 190.35 41.9 190.75 41.55C190.9 41.45 190.65 41.2 190.5 41.35Z" fill="black"/>
</g>
</g>
<path id="Vector_16" d="M182.55 64.6501H202C202.4 64.6501 202.75 64.3001 202.75 63.9001V54.3H181.8V63.9501C181.8 64.35 182.15 64.6501 182.55 64.6501Z" fill="#85997B"/>
<path id="Vector_17" d="M184.3 51.25H181.8V55.45H184.3V51.25Z" fill="#85997B"/>
<path id="Vector_18" d="M202.75 51.25H200.25V55.45H202.75V51.25Z" fill="#85997B"/>
<path id="Vector_19" d="M215.4 59.1501C215.35 58.9501 215.2 58.8501 215 58.8501H195.25H194.45H174.65C174.45 58.8501 174.3 58.9501 174.25 59.1501L171.5 69.9501C171.45 70.2001 171.65 70.4501 171.9 70.4501H194.45H195.25H217.8C218.05 70.4501 218.25 70.2001 218.2 69.9501L215.4 59.1501Z" fill="#C58867"/>
<g id="Group_7">
<path id="Vector_20" d="M194.05 65.8H191.25V66.2001C191.25 66.3001 191.35 66.4001 191.45 66.4001H193.85C193.95 66.4001 194.05 66.3001 194.05 66.2001V65.8Z" fill="#BE5F78"/>
<g id="Group_8">
<path id="Vector_21" d="M193.7 66.1002L191.55 66.0502C190.8 66.0502 190.25 65.4502 190.25 64.7002L190.3 62.0502C190.3 61.8502 190.45 61.7002 190.65 61.7502L194.8 61.8502C195 61.8502 195.15 62.0002 195.1 62.2002L195.05 64.8502C195 65.5002 194.4 66.1002 193.7 66.1002Z" fill="#F17674"/>
<path id="Vector_22" d="M194.45 62.4501L190.9 62.3501C190.75 62.3501 190.65 62.2001 190.65 62.1001C190.65 61.9501 190.8 61.8501 190.9 61.8501L194.45 61.9501C194.6 61.9501 194.7 62.1001 194.7 62.2001C194.75 62.3501 194.6 62.4501 194.45 62.4501Z" fill="#B4D692"/>
</g>
</g>
<g id="Group_9">
<path id="Vector_23" d="M208.65 58.8501H206.05V63.8001H208.9C210.05 63.8001 211 62.8501 211 61.7001V61.2001C211 59.9001 209.95 58.8501 208.65 58.8501ZM209.75 61.7501C209.75 62.2001 209.35 62.5501 208.85 62.5501H206.9V60.0501H208.85C209.35 60.0501 209.75 60.4001 209.75 60.8501V61.7501Z" fill="#BE5F78"/>
<g id="Group_10">
<path id="Vector_24" d="M204.65 55.1001H202.7C200.55 55.1001 198.8 56.8501 198.8 59.0001V59.1001H208.6V59.0001C208.55 56.8501 206.8 55.1001 204.65 55.1001Z" fill="#F17674"/>
<path id="Vector_25" d="M203.8 55.5H203.45C203.2 55.5 203 55.3 203 55.05V54.7C203 54.45 203.2 54.25 203.45 54.25H203.8C204.05 54.25 204.25 54.45 204.25 54.7V55.05C204.25 55.3 204.05 55.5 203.8 55.5Z" fill="#F17674"/>
</g>
<path id="Vector_26" d="M198.55 62.25L196.4 60.5C196.35 60.45 196.35 60.4 196.35 60.3V59.3C196.35 59.15 196.45 59 196.65 59H199.6L198.55 62.25Z" fill="#BE5F78"/>
<path id="Vector_27" d="M196.7 60.3001C196.6 60.3001 196.55 60.2001 196.55 60.1501V59.5001C196.55 59.4001 196.65 59.3501 196.7 59.3501C196.8 59.3501 196.85 59.4501 196.85 59.5001V60.1501C196.9 60.2001 196.8 60.3001 196.7 60.3001Z" fill="#B4D692"/>
<path id="Vector_28" d="M205.9 65.05H201.35C199.8 65.05 198.5 63.8 198.5 62.2V58.75H208.7V62.2C208.75 63.8 207.45 65.05 205.9 65.05Z" fill="#BE5F78"/>
</g>
<g id="Group_11">
<path id="Vector_29" d="M213.7 50.8L211 51.5L211.1 51.9C211.15 52 211.25 52.1 211.35 52.05L213.65 51.4501C213.75 51.4001 213.85 51.3001 213.8 51.2001L213.7 50.8Z" fill="#BE5F78"/>
<g id="Group_12">
<path id="Vector_30" d="M213.4 51.2L211.3 51.7C210.6 51.85 209.85 51.45 209.7 50.7L209.1 48.1C209.05 47.9 209.15 47.75 209.35 47.7L213.4 46.75C213.6 46.7 213.75 46.8 213.8 47L214.4 49.6C214.55 50.3 214.1 51 213.4 51.2Z" fill="#F17674"/>
<path id="Vector_31" d="M213.2 47.5001L209.75 48.3001C209.6 48.3501 209.45 48.2501 209.45 48.1001C209.4 47.9501 209.5 47.8001 209.65 47.8001L213.1 47.0001C213.25 46.9501 213.4 47.0501 213.4 47.2001C213.45 47.3001 213.35 47.4501 213.2 47.5001Z" fill="#B4D692"/>
</g>
</g>
<path id="Vector_32" d="M208.9 51.2502L208.75 50.7502C208.7 50.6002 208.8 50.4002 208.9 50.3502L210.35 49.7502C210.5 49.7002 210.65 49.7502 210.7 49.9502L210.85 50.4502C210.9 50.6002 210.8 50.8002 210.7 50.8502L209.25 51.4502C209.1 51.5002 208.95 51.4002 208.9 51.2502Z" fill="#F1C78A"/>
<path id="Vector_33" d="M188.5 53.95L189.1 53.8L188.75 52.4C188.6 51.75 187.9 51.35 187.2 51.5L186.6 51.65L186.95 53.05C187.1 53.7 187.8 54.1 188.5 53.95Z" fill="#B0BA75"/>
<path id="Vector_34" d="M188.45 53.7001L188 53.3001L189 52.3001C189.5 51.8501 190.3 51.8501 190.8 52.3001L191.25 52.7001L190.25 53.7001C189.75 54.2001 188.95 54.2001 188.45 53.7001Z" fill="#B0BA75"/>
<path id="Vector_35" d="M186.3 54.9502L185.9 54.6502C185.75 54.5502 185.7 54.3502 185.8 54.2502L186.55 52.9002C186.65 52.7502 186.8 52.7502 186.95 52.8002L187.35 53.1002C187.5 53.2002 187.55 53.4002 187.45 53.5002L186.7 54.8502C186.65 55.0002 186.45 55.0502 186.3 54.9502Z" fill="#F1C78A"/>
<g id="Group_13">
<path id="Vector_36" d="M187.05 54.5502L187.75 56.4002C187.9 56.8502 187.7 57.3002 187.25 57.4502L180.8 59.8002C180.35 59.9502 179.9 59.7502 179.75 59.3002L179 57.5002C178.85 57.0502 179.05 56.6002 179.5 56.4502L185.95 54.1002C186.4 53.9002 186.9 54.1502 187.05 54.5502Z" fill="#F1C78A"/>
<path id="Vector_37" d="M185.2 57.15L184.65 55.6C184.45 55.05 184.75 54.45 185.25 54.25L186.9 53.6C187.35 53.45 187.85 53.65 188 54.15L188.95 56.9L186.55 57.8C186 58.05 185.4 57.75 185.2 57.15Z" fill="#F1C78A"/>
<path id="Vector_38" d="M188 57L187.85 56.5C187.8 56.35 187.9 56.15 188 56.1L189.45 55.5C189.6 55.45 189.75 55.5 189.8 55.7L189.95 56.2C190 56.35 189.9 56.55 189.8 56.6L188.35 57.2C188.2 57.2 188.05 57.15 188 57Z" fill="#F1C78A"/>
<path id="Vector_39" d="M187.65 55.75L187.5 55.25C187.45 55.1 187.55 54.9 187.65 54.85L189.1 54.25C189.25 54.2 189.4 54.25 189.45 54.45L189.6 54.95C189.65 55.1 189.55 55.3 189.45 55.35L188 55.95C187.9 56 187.7 55.95 187.65 55.75Z" fill="#F1C78A"/>
<path id="Vector_40" d="M187.3 54.6001L187.15 54.1001C187.1 53.9501 187.2 53.7501 187.3 53.7001L188.75 53.1001C188.9 53.0501 189.05 53.1001 189.1 53.3001L189.25 53.8001C189.3 53.9501 189.2 54.1501 189.1 54.2001L187.65 54.8001C187.5 54.8001 187.35 54.7501 187.3 54.6001Z" fill="#F1C78A"/>
</g>
<g id="Group_14">
<path id="Vector_41" d="M185.75 63.7501C185.8 63.8501 185.7 63.9501 185.6 64.0001L180.35 65.4001C180.25 65.4501 180.15 65.3501 180.1 65.2501C180.05 65.1501 180.15 65.0501 180.25 65.0001L185.5 63.6001C185.65 63.6001 185.75 63.6501 185.75 63.7501Z" fill="#FAC749"/>
<path id="Vector_42" d="M187.5 63.1002L187.6 63.4502C187.7 63.8502 187.45 64.2502 187.1 64.3502L186.45 64.5502C186.05 64.6502 185.65 64.4002 185.55 64.0502L185.45 63.7002C185.35 63.3002 185.6 62.9002 185.95 62.8002L186.6 62.6002C187 62.5002 187.4 62.7002 187.5 63.1002Z" fill="#FAC749"/>
</g>
</g>
</g>
</g>
</g>
<path id="&#232;&#140;&#182;&#232;&#190;&#178;&#233;&#152;&#191;&#228;&#188;&#175;" d="M169.884 89.632H178.816V90.612H169.884V89.632ZM173.762 87.966H174.826V95.134H173.762V87.966ZM171.102 91.368L172.18 91.676C171.825 92.2733 171.377 92.8473 170.836 93.398C170.295 93.9393 169.753 94.392 169.212 94.756C169.147 94.6907 169.058 94.6113 168.946 94.518C168.843 94.4247 168.736 94.336 168.624 94.252C168.512 94.168 168.414 94.1027 168.33 94.056C168.871 93.7293 169.389 93.328 169.884 92.852C170.388 92.376 170.794 91.8813 171.102 91.368ZM176.324 91.886L177.164 91.312C177.519 91.5733 177.887 91.872 178.27 92.208C178.662 92.5347 179.026 92.8613 179.362 93.188C179.698 93.5053 179.969 93.7947 180.174 94.056L179.278 94.7C179.091 94.4293 178.83 94.1307 178.494 93.804C178.167 93.468 177.813 93.132 177.43 92.796C177.057 92.46 176.688 92.1567 176.324 91.886ZM174.308 86.09C173.925 86.5753 173.421 87.0653 172.796 87.56C172.171 88.0547 171.475 88.5167 170.71 88.946C169.954 89.3753 169.179 89.7487 168.386 90.066C168.33 89.9353 168.246 89.786 168.134 89.618C168.031 89.4407 167.929 89.296 167.826 89.184C168.647 88.8853 169.431 88.526 170.178 88.106C170.934 87.6767 171.615 87.21 172.222 86.706C172.838 86.1927 173.337 85.6793 173.72 85.166H174.784C175.297 85.754 175.89 86.3 176.562 86.804C177.243 87.2987 177.962 87.7373 178.718 88.12C179.474 88.4933 180.221 88.792 180.958 89.016C180.837 89.1373 180.72 89.2913 180.608 89.478C180.505 89.6553 180.417 89.814 180.342 89.954C179.81 89.758 179.259 89.52 178.69 89.24C178.13 88.96 177.579 88.652 177.038 88.316C176.497 87.98 175.988 87.6253 175.512 87.252C175.045 86.8693 174.644 86.482 174.308 86.09ZM168.218 83.458H180.524V84.424H168.218V83.458ZM171.256 82.24H172.292V85.922H171.256V82.24ZM176.296 82.24H177.346V85.922H176.296V82.24ZM184.474 85.516V86.44H192.594V85.516H184.474ZM184.474 83.934V84.844H192.594V83.934H184.474ZM183.508 83.206H193.602V87.168H183.508V83.206ZM186.434 82.24H187.456V86.902H186.434V82.24ZM189.514 82.24H190.536V86.902H189.514V82.24ZM183.914 87.854H194.372V88.652H183.914V87.854ZM183.382 87.854H184.39V89.66C184.39 90.0613 184.367 90.5 184.32 90.976C184.283 91.452 184.213 91.9373 184.11 92.432C184.007 92.9173 183.858 93.3933 183.662 93.86C183.466 94.3267 183.214 94.756 182.906 95.148C182.841 95.092 182.752 95.0267 182.64 94.952C182.537 94.8867 182.43 94.8213 182.318 94.756C182.206 94.6907 182.108 94.644 182.024 94.616C182.416 94.112 182.71 93.566 182.906 92.978C183.102 92.39 183.228 91.8067 183.284 91.228C183.349 90.6493 183.382 90.122 183.382 89.646V87.854ZM185.174 89.38H193.154V90.122H185.174V89.38ZM183.788 90.878H194.708V91.662H183.788V90.878ZM185.608 91.102H186.63V94.308L185.608 94.392V91.102ZM184.376 94.042C185.039 93.9673 185.837 93.874 186.77 93.762C187.703 93.6407 188.66 93.5193 189.64 93.398L189.668 94.266C188.744 94.3873 187.825 94.504 186.91 94.616C186.005 94.7373 185.202 94.8447 184.502 94.938L184.376 94.042ZM193.168 91.634L193.91 92.264C193.602 92.4133 193.266 92.5627 192.902 92.712C192.547 92.8613 192.193 93.0013 191.838 93.132C191.493 93.2627 191.166 93.3747 190.858 93.468L190.326 92.964C190.625 92.852 190.947 92.7213 191.292 92.572C191.647 92.4133 191.987 92.25 192.314 92.082C192.65 91.914 192.935 91.7647 193.168 91.634ZM188.87 91.102C189.159 91.69 189.584 92.1987 190.144 92.628C190.704 93.0573 191.381 93.4027 192.174 93.664C192.977 93.9253 193.877 94.1027 194.876 94.196C194.801 94.2707 194.722 94.3593 194.638 94.462C194.563 94.574 194.493 94.686 194.428 94.798C194.363 94.9193 194.307 95.0267 194.26 95.12C193.205 94.98 192.267 94.7513 191.446 94.434C190.634 94.1167 189.934 93.6967 189.346 93.174C188.767 92.6513 188.315 92.0353 187.988 91.326L188.87 91.102ZM200.884 83.192H209.032V84.186H200.884V83.192ZM206.82 83.682H207.828V93.804C207.828 94.1587 207.772 94.42 207.66 94.588C207.557 94.756 207.38 94.8773 207.128 94.952C206.885 95.0267 206.54 95.0733 206.092 95.092C205.644 95.1107 205.056 95.1153 204.328 95.106C204.3 94.9753 204.253 94.8167 204.188 94.63C204.123 94.4527 204.053 94.294 203.978 94.154C204.351 94.1633 204.701 94.1727 205.028 94.182C205.364 94.1913 205.653 94.1913 205.896 94.182C206.148 94.182 206.321 94.1773 206.414 94.168C206.573 94.168 206.68 94.14 206.736 94.084C206.792 94.0373 206.82 93.944 206.82 93.804V83.682ZM201.836 86.16H205.322V91.242H201.836V90.332H204.384V87.084H201.836V86.16ZM201.36 86.16H202.27V92.306H201.36V86.16ZM196.684 82.842H199.932V83.794H197.622V95.12H196.684V82.842ZM199.694 82.842H199.862L200.03 82.8L200.702 83.206C200.506 83.7753 200.282 84.3867 200.03 85.04C199.787 85.684 199.549 86.286 199.316 86.846C199.829 87.434 200.165 87.98 200.324 88.484C200.483 88.988 200.562 89.464 200.562 89.912C200.562 90.2853 200.52 90.6167 200.436 90.906C200.352 91.186 200.212 91.4007 200.016 91.55C199.913 91.6153 199.801 91.6713 199.68 91.718C199.559 91.7553 199.428 91.7833 199.288 91.802C199.148 91.8207 198.994 91.83 198.826 91.83C198.667 91.83 198.504 91.83 198.336 91.83C198.336 91.6993 198.313 91.5453 198.266 91.368C198.219 91.1907 198.159 91.032 198.084 90.892C198.243 90.9013 198.387 90.9107 198.518 90.92C198.658 90.92 198.784 90.9153 198.896 90.906C199.073 90.8967 199.218 90.8593 199.33 90.794C199.442 90.71 199.517 90.5793 199.554 90.402C199.601 90.2247 199.624 90.0287 199.624 89.814C199.624 89.422 199.54 88.988 199.372 88.512C199.204 88.036 198.868 87.518 198.364 86.958C198.495 86.6407 198.621 86.3093 198.742 85.964C198.873 85.6187 198.994 85.2733 199.106 84.928C199.227 84.5827 199.335 84.256 199.428 83.948C199.531 83.64 199.619 83.3693 199.694 83.136V82.842ZM214.774 84.788H221.998V95.008H220.906V85.782H215.81V95.092H214.774V84.788ZM217.812 82.226L219.03 82.45C218.909 82.7953 218.778 83.1547 218.638 83.528C218.498 83.892 218.358 84.242 218.218 84.578C218.087 84.914 217.961 85.208 217.84 85.46L216.874 85.236C216.995 84.9653 217.112 84.6573 217.224 84.312C217.345 83.9573 217.457 83.598 217.56 83.234C217.663 82.8607 217.747 82.5247 217.812 82.226ZM215.236 89.03H221.424V90.052H215.236V89.03ZM215.236 93.398H221.424V94.434H215.236V93.398ZM213.528 82.282L214.536 82.52C214.256 83.4067 213.925 84.2653 213.542 85.096C213.159 85.9267 212.735 86.7013 212.268 87.42C211.811 88.1387 211.311 88.7733 210.77 89.324C210.733 89.2493 210.672 89.156 210.588 89.044C210.513 88.9227 210.434 88.8013 210.35 88.68C210.266 88.5587 210.187 88.4653 210.112 88.4C210.859 87.672 211.526 86.7713 212.114 85.698C212.702 84.6153 213.173 83.4767 213.528 82.282ZM212.044 86.3L213.08 85.278L213.094 85.292V95.148H212.044V86.3Z" fill="black"/>
<line id="Line 3" opacity="0.3" x1="-0.00121951" y1="769.5" x2="389.999" y2="768.549" stroke="#99756A"/>
<g id="Stop">
<g id="Stop_2">
<circle id="Ellipse 2" cx="345" cy="53" r="25" fill="white" fill-opacity="0.5"/>
<g id="x">
<path id="Vector_43" d="M350 48L340 58" stroke="#1E1E1E" stroke-width="2" stroke-linecap="round" stroke-linejoin="round"/>
<path id="Vector_44" d="M340 48L350 58" stroke="#1E1E1E" stroke-width="2" stroke-linecap="round" stroke-linejoin="round"/>
</g>
</g>
</g>
<g id="icon_menu" clip-path="url(#clip1_741_4624)">
<path id="Vector_45" d="M49 38.6667V41.1667H29V38.6667H49ZM29 56.1667H35.6667V53.6667H29V56.1667ZM29 48.6667H42.3333V46.1667H29V48.6667Z" fill="black"/>
</g>
<rect id="Rectangle 15" x="16" y="785" width="360" height="40" rx="12" fill="white"/>
<g id="icon_ai_camera" clip-path="url(#clip2_741_4624)">
<path id="Vector_46" d="M295.667 814.167C295.667 814.627 295.294 815 294.833 815H293.167C290.869 815 289 813.131 289 810.833V809.167C289 808.706 289.373 808.333 289.833 808.333C290.294 808.333 290.667 808.706 290.667 809.167V810.833C290.667 812.212 291.788 813.333 293.167 813.333H294.833C295.294 813.333 295.667 813.706 295.667 814.167ZM308.167 808.333C307.706 808.333 307.333 808.706 307.333 809.167V810.833C307.333 812.212 306.212 813.333 304.833 813.333H303.167C302.706 813.333 302.333 813.706 302.333 814.167C302.333 814.627 302.706 815 303.167 815H304.833C307.131 815 309 813.131 309 810.833V809.167C309 808.706 308.627 808.333 308.167 808.333ZM304.833 795H303.167C302.706 795 302.333 795.373 302.333 795.833C302.333 796.294 302.706 796.667 303.167 796.667H304.833C306.212 796.667 307.333 797.788 307.333 799.167V800.833C307.333 801.294 307.706 801.667 308.167 801.667C308.627 801.667 309 801.294 309 800.833V799.167C309 796.869 307.131 795 304.833 795ZM289.833 801.667C290.294 801.667 290.667 801.294 290.667 800.833V799.167C290.667 797.788 291.788 796.667 293.167 796.667H294.833C295.294 796.667 295.667 796.294 295.667 795.833C295.667 795.373 295.294 795 294.833 795H293.167C290.869 795 289 796.869 289 799.167V800.833C289 801.294 289.373 801.667 289.833 801.667ZM299 803.333C298.079 803.333 297.333 804.079 297.333 805C297.333 805.921 298.079 806.667 299 806.667C299.921 806.667 300.667 805.921 300.667 805C300.667 804.079 299.921 803.333 299 803.333ZM301.5 809.167H296.5C295.122 809.167 294 808.045 294 806.667V803.333C294 801.967 295.101 800.855 296.461 800.834L297.041 799.932C297.347 799.453 297.872 799.167 298.443 799.167H299.557C300.128 799.167 300.652 799.453 300.96 799.932L301.539 800.834C302.9 800.855 304 801.967 304 803.333V806.667C304 808.045 302.878 809.167 301.5 809.167ZM302.333 803.333C302.333 802.873 301.96 802.5 301.5 802.5H296.5C296.04 802.5 295.667 802.873 295.667 803.333V806.667C295.667 807.127 296.04 807.5 296.5 807.5H301.5C301.96 807.5 302.333 807.127 302.333 806.667V803.333Z" fill="#1E1E1E"/>
</g>
<g id="icon-microphone" clip-path="url(#clip3_741_4624)">
<path id="Vector_47" d="M329 795C323.486 795 319 799.486 319 805C319 810.514 323.486 815 329 815C334.514 815 339 810.514 339 805C339 799.486 334.514 795 329 795ZM329 813.333C324.405 813.333 320.667 809.595 320.667 805C320.667 800.405 324.405 796.667 329 796.667C333.595 796.667 337.333 800.405 337.333 805C337.333 809.595 333.595 813.333 329 813.333ZM334 805C334 807.473 332.195 809.533 329.833 809.93V810.833C329.833 811.293 329.461 811.667 329 811.667C328.539 811.667 328.167 811.293 328.167 810.833V809.93C325.805 809.533 324 807.473 324 805C324 804.54 324.372 804.167 324.833 804.167C325.294 804.167 325.667 804.54 325.667 805C325.667 806.838 327.162 808.333 329 808.333C330.838 808.333 332.333 806.838 332.333 805C332.333 804.54 332.706 804.167 333.167 804.167C333.627 804.167 334 804.54 334 805ZM327.333 805V800.833C327.333 799.912 328.079 799.167 329 799.167C329.921 799.167 330.667 799.912 330.667 800.833V805C330.667 805.921 329.921 806.667 329 806.667C328.079 806.667 327.333 805.921 327.333 805Z" fill="#1E1E1E"/>
</g>
<g id="icon_upload" clip-path="url(#clip4_741_4624)">
<g id="Group_15">
<path id="Vector_48" d="M355.061 799.129L357.255 796.934L357.25 808.512C357.25 808.926 357.586 809.262 358 809.262C358.414 809.262 358.75 808.926 358.75 808.512L358.755 796.947L360.939 799.131C361.237 799.419 361.712 799.411 362 799.113C362.28 798.822 362.28 798.361 362 798.071L359.591 795.66C358.713 794.781 357.289 794.78 356.41 795.659C356.409 795.659 356.409 795.659 356.409 795.66L354 798.068C353.713 798.366 353.721 798.841 354.019 799.129C354.309 799.41 354.77 799.41 355.061 799.129Z" fill="black"/>
<path id="Vector_49" d="M366.25 807C365.836 807 365.5 807.336 365.5 807.75V810.75C365.5 811.164 365.164 811.5 364.75 811.5H351.25C350.836 811.5 350.5 811.164 350.5 810.75V807.75C350.5 807.336 350.164 807 349.75 807C349.336 807 349 807.336 349 807.75V810.75C349 811.993 350.008 813 351.25 813H364.75C365.993 813 367 811.993 367 810.75V807.75C367 807.336 366.664 807 366.25 807Z" fill="black"/>
</g>
</g>
</g>
<defs>
<clipPath id="clip0_741_4624">
<rect width="390" height="844" fill="white"/>
</clipPath>
<clipPath id="clip1_741_4624">
<rect width="20" height="20" fill="white" transform="translate(29 37)"/>
</clipPath>
<clipPath id="clip2_741_4624">
<rect width="20" height="20" fill="white" transform="translate(289 795)"/>
</clipPath>
<clipPath id="clip3_741_4624">
<rect width="20" height="20" fill="white" transform="translate(319 795)"/>
</clipPath>
<clipPath id="clip4_741_4624">
<rect width="18" height="18" fill="white" transform="translate(349 795)"/>
</clipPath>
</defs>
</svg>
