<svg width="40" height="21" viewBox="0 0 40 21" fill="none" xmlns="http://www.w3.org/2000/svg">
<path d="M1.46243 13.9779L7.91314 20.4952C8.06809 20.6515 8.25245 20.7755 8.45557 20.8601C8.65869 20.9447 8.87656 20.9883 9.0966 20.9883C9.31664 20.9883 9.53451 20.9447 9.73763 20.8601C9.94075 20.7755 10.1251 20.6515 10.2801 20.4952C10.4363 20.3403 10.5603 20.1559 10.6449 19.9528C10.7295 19.7497 10.7731 19.5318 10.7731 19.3118C10.7731 19.0917 10.7295 18.8739 10.6449 18.6708C10.5603 18.4676 10.4363 18.2833 10.2801 18.1283L4.34608 12.161H38.3331C38.7752 12.161 39.1992 11.9854 39.5118 11.6728C39.8244 11.3602 40 10.9362 40 10.4942C40 10.0521 39.8244 9.62811 39.5118 9.31551C39.1992 9.00292 38.7752 8.8273 38.3331 8.8273H4.24607L10.2801 2.7933C10.5756 2.48331 10.7404 2.07146 10.7404 1.64318C10.7404 1.2149 10.5756 0.803046 10.2801 0.493051C10.1251 0.33682 9.94075 0.212816 9.73763 0.128192C9.53451 0.0435681 9.31664 0 9.0966 0C8.87656 0 8.65869 0.0435681 8.45557 0.128192C8.25245 0.212816 8.06809 0.33682 7.91314 0.493051L1.46243 6.91042C0.525988 7.84803 0 9.119 0 10.4441C0 11.7693 0.525988 13.0403 1.46243 13.9779Z" fill="black"/>
</svg>
