<svg width="484" height="61" viewBox="0 0 484 61" fill="none" xmlns="http://www.w3.org/2000/svg">
<path d="M34.247 31.238H58.1877V36.8711H34.247V31.238ZM34.247 41.352H58.1877V46.9851H34.247V41.352ZM34.119 51.53H61.1963V57.8033H34.119V51.53ZM24.7091 6.14504H60.8762V17.7954H54.0269V12.5463H31.1744V17.7954H24.7091V6.14504ZM42.8887 25.8609H49.9301V54.5386H42.8887V25.8609ZM36.6154 20.6119H59.596V26.9492H36.6154V60.2998H29.382V27.2692L35.9113 20.6119H36.6154ZM39.9441 0.063844L47.2415 1.47212C45.5345 8.38549 43.0807 14.552 39.8801 19.9718C36.6795 25.3915 32.732 29.8297 28.0377 33.2864C27.6963 32.817 27.2056 32.2195 26.5655 31.4941C25.968 30.7259 25.3279 29.9791 24.6451 29.2536C23.9623 28.5281 23.3648 27.952 22.8527 27.5253C27.2056 24.666 30.8116 20.868 33.6709 16.131C36.5301 11.3941 38.6212 6.03836 39.9441 0.063844ZM46.8575 14.1466L53.8989 15.6189C53.088 17.3686 52.2559 19.0756 51.4024 20.7399C50.5915 22.3616 49.8447 23.7699 49.1619 24.9648L43.4008 23.4925C43.9982 22.1695 44.6384 20.6332 45.3212 18.8836C46.004 17.1339 46.5161 15.5549 46.8575 14.1466ZM2.17663 3.96862H25.2212V10.946H2.17663V3.96862ZM9.34605 22.7883H24.261V52.5542H9.34605V45.9609H17.7957V29.3816H9.34605V22.7883ZM8.76994 7.68135L15.9394 8.76956C15.3419 13.3785 14.5311 17.902 13.5069 22.3402C12.4827 26.7358 11.1811 30.8753 9.6021 34.7587C8.0658 38.5995 6.23077 41.9708 4.09701 44.8727C3.88364 44.2753 3.5209 43.5071 3.0088 42.5682C2.53937 41.6294 2.02727 40.6905 1.47249 39.7517C0.960392 38.8128 0.469628 38.066 0.000202338 37.5112C1.66453 35.1641 3.05147 32.4116 4.16103 29.2536C5.31325 26.0957 6.25211 22.6816 6.97758 19.0116C7.74573 15.3415 8.34319 11.5648 8.76994 7.68135ZM6.33746 22.7883H12.5467V57.5472H6.33746V22.7883ZM107.798 5.31288H114.711C114.412 7.87339 113.964 10.4552 113.367 13.0584C112.812 15.6189 111.958 18.0941 110.806 20.4839C109.654 22.831 108.118 25.0501 106.197 27.1412C104.32 29.1896 101.887 30.982 98.8998 32.5183C98.5157 31.6221 97.8969 30.6406 97.0434 29.5737C96.1899 28.5068 95.3791 27.6746 94.6109 27.0772C97.1714 25.8396 99.2625 24.3887 100.884 22.7243C102.506 21.06 103.786 19.2676 104.725 17.3473C105.664 15.4269 106.347 13.4425 106.773 11.3941C107.243 9.34568 107.584 7.31861 107.798 5.31288ZM96.7233 16.259L100.308 10.946C102.442 11.5434 104.618 12.3116 106.837 13.2504C109.099 14.1893 111.233 15.1708 113.239 16.195C115.287 17.2192 117.015 18.1794 118.424 19.0756L114.775 25.0288C113.409 24.0046 111.702 22.959 109.654 21.8922C107.648 20.7826 105.514 19.7371 103.253 18.7555C101.034 17.7313 98.8571 16.8992 96.7233 16.259ZM122.456 2.62435H129.626C129.626 2.62435 129.626 2.81639 129.626 3.20046C129.626 3.54186 129.605 3.94728 129.562 4.4167C129.562 4.84345 129.54 5.18485 129.498 5.44091C129.327 10.3059 129.114 14.296 128.858 17.4113C128.602 20.4839 128.282 22.8737 127.897 24.5807C127.556 26.245 127.108 27.4186 126.553 28.1014C125.913 28.9122 125.252 29.4883 124.569 29.8297C123.929 30.1711 123.161 30.4058 122.264 30.5339C121.496 30.7046 120.493 30.8113 119.256 30.8539C118.018 30.8539 116.695 30.8326 115.287 30.7899C115.244 29.723 115.031 28.5495 114.647 27.2692C114.305 25.9463 113.879 24.8154 113.367 23.8766C114.476 24.0046 115.479 24.0899 116.375 24.1326C117.271 24.1326 117.976 24.1326 118.488 24.1326C119.298 24.1753 119.939 23.9192 120.408 23.3645C120.707 22.9377 120.984 22.0629 121.24 20.7399C121.496 19.3743 121.71 17.3259 121.88 14.5947C122.094 11.8635 122.286 8.25746 122.456 3.77658V2.62435ZM103.765 37.1912H110.806V51.1459C110.806 52.0421 110.891 52.6182 111.062 52.8743C111.233 53.0877 111.617 53.1944 112.214 53.1944C112.342 53.1944 112.556 53.1944 112.855 53.1944C113.153 53.1944 113.473 53.1944 113.815 53.1944C114.156 53.1944 114.476 53.1944 114.775 53.1944C115.116 53.1944 115.351 53.1944 115.479 53.1944C115.906 53.1944 116.226 53.045 116.439 52.7463C116.653 52.4475 116.823 51.8287 116.951 50.8899C117.079 49.9084 117.165 48.4361 117.207 46.473C117.634 46.8144 118.21 47.1772 118.936 47.5612C119.704 47.9026 120.472 48.2227 121.24 48.5214C122.051 48.7775 122.776 49.0122 123.417 49.2256C123.203 51.9994 122.819 54.1545 122.264 55.6908C121.752 57.2698 121.005 58.3367 120.024 58.8915C119.085 59.4889 117.848 59.7877 116.311 59.7877C116.012 59.7877 115.607 59.7877 115.095 59.7877C114.626 59.7877 114.135 59.7877 113.623 59.7877C113.111 59.7877 112.62 59.7877 112.15 59.7877C111.681 59.7877 111.297 59.7877 110.998 59.7877C109.035 59.7877 107.52 59.5103 106.453 58.9555C105.429 58.4434 104.725 57.5685 104.341 56.331C103.957 55.0934 103.765 53.4077 103.765 51.274V37.1912ZM97.2354 39.6877L103.317 41.288C103.146 43.1657 102.869 45.0647 102.484 46.9851C102.1 48.9055 101.588 50.7192 100.948 52.4262C100.308 54.0905 99.4545 55.5628 98.3877 56.8431L92.7545 53.4504C93.6507 52.3408 94.3975 51.0606 94.995 49.6096C95.5924 48.116 96.0619 46.5157 96.4033 44.8087C96.7873 43.1017 97.0647 41.3947 97.2354 39.6877ZM105.237 32.7743L109.654 28.2934C111.019 28.9762 112.428 29.7871 113.879 30.7259C115.33 31.6221 116.695 32.5823 117.976 33.6065C119.298 34.588 120.365 35.5269 121.176 36.423L116.375 41.416C115.65 40.4772 114.668 39.4956 113.431 38.4714C112.236 37.4472 110.913 36.4444 109.462 35.4628C108.011 34.4386 106.603 33.5425 105.237 32.7743ZM119.32 40.7119L125.529 38.2154C126.681 39.837 127.727 41.5867 128.666 43.4644C129.604 45.3421 130.415 47.2198 131.098 49.0975C131.781 50.9326 132.272 52.5969 132.57 54.0905L125.785 56.9071C125.614 55.3708 125.209 53.6851 124.569 51.8501C123.929 49.9724 123.161 48.052 122.264 46.0889C121.368 44.1259 120.387 42.3335 119.32 40.7119ZM97.6195 2.62435H125.721V9.02562H97.6195V2.62435ZM74.3189 19.7797H93.0746V25.6049H74.3189V19.7797ZM74.575 2.17626H92.9466V7.9374H74.575V2.17626ZM74.3189 28.5495H93.0746V34.3106H74.3189V28.5495ZM71.4383 10.754H94.803V16.8352H71.4383V10.754ZM77.6476 37.3832H93.2026V56.9071H77.6476V50.8259H86.8014V43.4644H77.6476V37.3832ZM74.1909 37.3832H80.5281V59.4036H74.1909V37.3832ZM168.866 0.191868L175.907 1.98422C174.755 5.35555 173.218 8.59886 171.298 11.7141C169.378 14.7868 167.351 17.3686 165.217 19.4597C164.833 18.9903 164.278 18.4568 163.553 17.8594C162.87 17.2192 162.166 16.6004 161.44 16.003C160.757 15.4055 160.139 14.9361 159.584 14.5947C161.632 12.8877 163.467 10.754 165.089 8.19345C166.711 5.63294 167.969 2.96575 168.866 0.191868ZM168.418 16.6431L175.459 18.4355C174.477 20.9533 173.218 23.4285 171.682 25.8609C170.146 28.2934 168.588 30.3205 167.009 31.9421C166.582 31.5581 165.985 31.1313 165.217 30.6619C164.491 30.1498 163.745 29.659 162.976 29.1896C162.208 28.6775 161.547 28.2721 160.992 27.9734C162.528 26.5651 163.937 24.8367 165.217 22.7883C166.54 20.7399 167.607 18.6915 168.418 16.6431ZM170.274 5.63294H195.815V12.0982H167.713L170.274 5.63294ZM177.635 10.4979H184.933V30.4699C184.933 32.1342 184.741 33.4571 184.357 34.4386C184.015 35.4202 183.268 36.1883 182.116 36.7431C181.007 37.2552 179.705 37.5753 178.211 37.7033C176.76 37.8313 175.053 37.8953 173.09 37.8953C172.962 36.8711 172.664 35.7189 172.194 34.4386C171.725 33.1584 171.234 32.0702 170.722 31.174C171.917 31.2167 173.09 31.238 174.243 31.238C175.395 31.238 176.163 31.238 176.547 31.238C176.974 31.1953 177.251 31.1313 177.379 31.046C177.55 30.9179 177.635 30.6832 177.635 30.3418V10.4979ZM186.405 18.8196L192.678 16.131C193.66 17.4966 194.62 18.9903 195.559 20.6119C196.498 22.2336 197.351 23.8339 198.119 25.4129C198.888 26.9492 199.506 28.3574 199.976 29.6377L193.318 32.7743C192.934 31.4941 192.358 30.0644 191.59 28.4855C190.865 26.8638 190.054 25.1995 189.158 23.4925C188.261 21.7855 187.344 20.2278 186.405 18.8196ZM193.831 5.63294H194.919L196.135 5.44091L201.512 6.59313C200.829 8.72689 200.04 10.9247 199.144 13.1864C198.29 15.4482 197.501 17.3473 196.775 18.8836L190.246 17.5393C190.843 16.1737 191.483 14.4454 192.166 12.3543C192.849 10.2632 193.404 8.32148 193.831 6.52912V5.63294ZM158.368 40.2638H165.985V50.1858C165.985 51.0819 166.177 51.658 166.561 51.9141C166.988 52.1701 167.948 52.2982 169.442 52.2982C169.783 52.2982 170.338 52.2982 171.106 52.2982C171.874 52.2982 172.706 52.2982 173.603 52.2982C174.541 52.2982 175.416 52.2982 176.227 52.2982C177.081 52.2982 177.721 52.2982 178.147 52.2982C179.001 52.2982 179.62 52.1488 180.004 51.8501C180.431 51.5514 180.751 50.9539 180.964 50.0577C181.177 49.1616 181.327 47.7959 181.412 45.9609C181.882 46.3023 182.522 46.6651 183.332 47.0491C184.143 47.4332 184.975 47.7746 185.829 48.0733C186.725 48.3294 187.515 48.5428 188.197 48.7135C187.899 51.4447 187.429 53.5571 186.789 55.0507C186.149 56.587 185.189 57.6326 183.909 58.1873C182.671 58.7848 180.985 59.0835 178.852 59.0835C178.467 59.0835 177.934 59.0835 177.251 59.0835C176.568 59.0835 175.8 59.0835 174.947 59.0835C174.093 59.0835 173.24 59.0835 172.386 59.0835C171.533 59.0835 170.765 59.0835 170.082 59.0835C169.399 59.0835 168.887 59.0835 168.546 59.0835C165.814 59.0835 163.702 58.8061 162.208 58.2514C160.757 57.7392 159.754 56.8217 159.2 55.4988C158.645 54.2186 158.368 52.4689 158.368 50.2498V40.2638ZM163.745 38.5355L168.93 34.1186C170.21 34.8441 171.554 35.6762 172.962 36.6151C174.371 37.5112 175.672 38.4501 176.867 39.4316C178.105 40.4132 179.108 41.352 179.876 42.2482L174.371 47.1131C173.645 46.217 172.706 45.2568 171.554 44.2326C170.402 43.1657 169.143 42.1415 167.777 41.16C166.412 40.1784 165.068 39.3036 163.745 38.5355ZM184.485 42.6963L190.822 39.2396C192.358 40.6479 193.852 42.2055 195.303 43.9125C196.796 45.6195 198.141 47.3265 199.336 49.0335C200.531 50.7405 201.448 52.3622 202.088 53.8985L195.175 57.7392C194.663 56.2456 193.852 54.624 192.742 52.8743C191.633 51.1246 190.353 49.3749 188.902 47.6252C187.493 45.8329 186.021 44.1899 184.485 42.6963ZM150.43 40.4558L157.343 42.8243C156.447 45.7689 155.295 48.6281 153.887 51.402C152.521 54.1759 150.622 56.4803 148.19 58.3154L141.852 53.9625C143.986 52.3835 145.757 50.4205 147.165 48.0733C148.616 45.6835 149.704 43.1444 150.43 40.4558ZM156.255 0.127856L163.04 2.49632C161.675 5.14218 160.053 7.78804 158.175 10.4339C156.298 13.0798 154.292 15.5549 152.158 17.8594C150.067 20.1211 147.955 22.1055 145.821 23.8125C145.522 23.3004 145.096 22.6603 144.541 21.8922C144.029 21.0813 143.453 20.2918 142.812 19.5237C142.215 18.7555 141.682 18.1154 141.212 17.6033C144.114 15.5122 146.909 12.9304 149.598 9.85778C152.329 6.7425 154.548 3.49919 156.255 0.127856ZM150.686 13.5065L157.919 6.33708L158.047 6.4011V37.7673H150.686V13.5065ZM219.5 10.5619H239.151V53.6424H219.5V46.9211H232.238V17.2192H219.5V10.5619ZM215.019 10.5619H221.996V58.3794H215.019V10.5619ZM219.244 27.6533H235.567V34.3106H219.244V27.6533ZM224.173 0.127856L232.494 1.3441C231.811 3.52053 231.065 5.67562 230.254 7.80937C229.486 9.94313 228.781 11.7568 228.141 13.2504L221.996 11.8422C222.295 10.7326 222.572 9.49504 222.828 8.12944C223.127 6.76383 223.404 5.37689 223.66 3.96862C223.916 2.56034 224.087 1.28008 224.173 0.127856ZM247.601 10.0498H266.357V17.0912H247.601V10.0498ZM263.668 10.0498H270.774C270.774 10.0498 270.774 10.2845 270.774 10.754C270.774 11.1807 270.774 11.6715 270.774 12.2262C270.774 12.781 270.752 13.2078 270.71 13.5065C270.539 20.7186 270.326 26.8425 270.07 31.8781C269.856 36.8711 269.579 41.0106 269.237 44.2966C268.939 47.5399 268.576 50.0791 268.149 51.9141C267.722 53.7491 267.168 55.0934 266.485 55.9469C265.631 57.1845 264.714 58.038 263.732 58.5074C262.751 58.9768 261.62 59.3182 260.34 59.5316C259.102 59.7023 257.566 59.7663 255.731 59.7236C253.938 59.7236 252.103 59.7023 250.226 59.6596C250.183 58.5928 249.927 57.3338 249.458 55.8829C248.988 54.4746 248.412 53.237 247.729 52.1701C249.778 52.3408 251.677 52.4475 253.426 52.4902C255.219 52.5329 256.52 52.5542 257.331 52.5542C257.971 52.5542 258.483 52.4902 258.867 52.3622C259.294 52.1915 259.7 51.8928 260.084 51.466C260.638 50.9112 261.086 49.7803 261.428 48.0733C261.812 46.3237 262.132 43.8698 262.388 40.7119C262.644 37.5539 262.879 33.5638 263.092 28.7415C263.306 23.9192 263.498 18.1794 263.668 11.5221V10.0498ZM247.793 0.191868L255.219 1.92021C254.408 5.03549 253.405 8.15078 252.21 11.2661C251.058 14.3813 249.778 17.3259 248.369 20.0998C247.004 22.831 245.595 25.2208 244.144 27.2692C243.718 26.8425 243.099 26.3517 242.288 25.7969C241.52 25.1995 240.73 24.6234 239.92 24.0686C239.151 23.5138 238.469 23.0871 237.871 22.7883C239.28 20.9533 240.602 18.8409 241.84 16.4511C243.12 14.0186 244.251 11.4154 245.233 8.64154C246.257 5.82498 247.11 3.00842 247.793 0.191868ZM244.657 28.5495L250.674 25.1568C251.741 26.6078 252.872 28.2081 254.066 29.9578C255.261 31.7074 256.392 33.4144 257.459 35.0788C258.526 36.7431 259.401 38.2154 260.084 39.4956L253.554 43.4644C252.957 42.1415 252.146 40.6265 251.122 38.9195C250.14 37.2125 249.073 35.4628 247.921 33.6705C246.812 31.8355 245.723 30.1285 244.657 28.5495ZM283.512 42.0561H342.084V47.8813H283.512V42.0561ZM300.028 5.44091H342.02V10.5619H300.028V5.44091ZM320.832 38.5995H328.193V53.0023C328.193 54.7093 327.98 56.0536 327.553 57.0351C327.169 58.0166 326.315 58.7635 324.992 59.2756C323.712 59.745 322.197 60.0224 320.448 60.1077C318.698 60.2357 316.628 60.2998 314.238 60.2998C314.11 59.2756 313.812 58.1447 313.342 56.9071C312.873 55.6695 312.382 54.5813 311.87 53.6424C312.894 53.6851 313.94 53.7278 315.007 53.7705C316.073 53.8131 317.012 53.8345 317.823 53.8345C318.634 53.7918 319.189 53.7705 319.487 53.7705C320 53.7705 320.341 53.7065 320.512 53.5784C320.725 53.4077 320.832 53.1517 320.832 52.8103V38.5995ZM294.33 50.6338L299.579 46.409C300.604 47.0491 301.671 47.7959 302.78 48.6495C303.89 49.4603 304.957 50.2924 305.981 51.1459C307.005 51.9994 307.837 52.8103 308.477 53.5784L302.844 58.2514C302.289 57.5259 301.543 56.6937 300.604 55.7549C299.665 54.8587 298.641 53.9625 297.531 53.0663C296.422 52.1701 295.355 51.3593 294.33 50.6338ZM285.241 5.05683L290.234 0.831994C291.3 1.55747 292.41 2.38964 293.562 3.32849C294.757 4.26734 295.845 5.20619 296.827 6.14504C297.851 7.0839 298.641 7.95874 299.195 8.76956L293.946 13.3785C293.392 12.5676 292.623 11.6715 291.642 10.6899C290.703 9.66574 289.679 8.66288 288.569 7.68135C287.46 6.69982 286.35 5.82498 285.241 5.05683ZM307.453 1.21607L313.662 0.063844C314.345 1.00269 315.007 2.06957 315.647 3.26447C316.287 4.4167 316.735 5.46224 316.991 6.4011L310.462 7.68135C310.206 6.82785 309.779 5.80364 309.181 4.60874C308.627 3.37116 308.05 2.24027 307.453 1.21607ZM312.19 21.124V23.1084H329.409V21.124H312.19ZM312.19 26.373V28.4215H329.409V26.373H312.19ZM312.19 16.003V17.8594H329.409V16.003H312.19ZM305.085 12.6103H336.835V31.7501H305.085V12.6103ZM298.107 16.067V31.11H291.194V21.8281H283.704V16.067H298.107ZM317.119 7.55332L324.736 8.06543C324.224 9.26033 323.734 10.3699 323.264 11.3941C322.837 12.4183 322.453 13.3145 322.112 14.0826L316.031 13.3145C316.287 12.3756 316.5 11.3941 316.671 10.3699C316.884 9.303 317.034 8.36415 317.119 7.55332ZM328.193 -0.000171695L335.427 1.15206C334.658 2.38963 333.89 3.54186 333.122 4.60874C332.397 5.63294 331.735 6.52912 331.138 7.29727L325.057 6.14504C325.611 5.20619 326.166 4.18199 326.721 3.07244C327.318 1.92021 327.809 0.896007 328.193 -0.000171695ZM298.107 28.5495C299.174 30.2992 300.668 31.5794 302.588 32.3902C304.508 33.2011 306.834 33.6492 309.565 33.7345C311.144 33.7772 313.001 33.8199 315.135 33.8625C317.311 33.9052 319.637 33.9265 322.112 33.9265C324.587 33.8839 327.084 33.8412 329.601 33.7985C332.119 33.7132 334.53 33.6278 336.835 33.5425C339.182 33.4144 341.252 33.3078 343.044 33.2224C342.703 33.9052 342.34 34.8441 341.956 36.039C341.572 37.1912 341.294 38.194 341.124 39.0476C339.075 39.1329 336.664 39.2183 333.89 39.3036C331.116 39.3463 328.236 39.389 325.249 39.4316C322.261 39.4316 319.402 39.4316 316.671 39.4316C313.94 39.389 311.571 39.3249 309.565 39.2396C306.322 39.1116 303.57 38.6421 301.308 37.8313C299.089 36.9778 297.19 35.5482 295.611 33.5425C294.074 34.5667 292.495 35.5909 290.874 36.6151C289.295 37.6393 287.609 38.7062 285.817 39.8157L283.192 33.7345C284.686 33.0517 286.286 32.2622 287.993 31.366C289.743 30.4272 291.407 29.4883 292.986 28.5495H298.107ZM370.121 37.7033V39.7517H395.918V37.7033H370.121ZM370.121 43.4644V45.5768H395.918V43.4644H370.121ZM370.121 31.8781V33.9906H395.918V31.8781H370.121ZM362.824 27.9734H403.536V49.5456H362.824V27.9734ZM385.804 47.3052H393.358V52.1061C393.358 52.8743 393.529 53.3651 393.87 53.5784C394.254 53.7491 395.086 53.8345 396.367 53.8345C396.665 53.8345 397.156 53.8345 397.839 53.8345C398.564 53.8345 399.332 53.8345 400.143 53.8345C400.954 53.8345 401.722 53.8345 402.448 53.8345C403.173 53.8345 403.749 53.8345 404.176 53.8345C404.859 53.8345 405.371 53.7278 405.712 53.5144C406.054 53.2584 406.31 52.7889 406.481 52.1061C406.651 51.4233 406.779 50.3778 406.865 48.9695C407.59 49.4389 408.572 49.887 409.809 50.3138C411.089 50.7405 412.22 51.0606 413.202 51.274C412.946 53.4504 412.519 55.1361 411.922 56.331C411.367 57.5259 410.513 58.358 409.361 58.8275C408.252 59.3396 406.779 59.5956 404.944 59.5956C404.646 59.5956 404.155 59.5956 403.472 59.5956C402.832 59.5956 402.106 59.5956 401.296 59.5956C400.527 59.5956 399.738 59.5956 398.927 59.5956C398.159 59.5956 397.455 59.5956 396.815 59.5956C396.217 59.5956 395.748 59.5956 395.406 59.5956C392.889 59.5956 390.925 59.3609 389.517 58.8915C388.152 58.4647 387.191 57.6966 386.637 56.587C386.082 55.5201 385.804 54.0265 385.804 52.1061V47.3052ZM371.722 47.7533H379.275C378.848 49.5883 378.208 51.21 377.355 52.6182C376.501 54.0265 375.221 55.2214 373.514 56.2029C371.807 57.2271 369.567 58.0593 366.793 58.6994C364.019 59.3822 360.519 59.9157 356.295 60.2998C356.039 59.4463 355.569 58.4221 354.886 57.2271C354.246 56.0749 353.606 55.1361 352.966 54.4106C356.593 54.2399 359.559 54.0052 361.864 53.7065C364.168 53.3651 365.982 52.9383 367.305 52.4262C368.67 51.9141 369.673 51.274 370.313 50.5058C370.954 49.7377 371.423 48.8202 371.722 47.7533ZM389.261 9.9858H409.041V14.2747H389.261V9.9858ZM389.133 3.45651H411.986V8.19345H389.133V3.45651ZM367.241 3.96862H373.258V9.9858H367.241V3.96862ZM367.241 16.7711H373.258V22.8523H367.241V16.7711ZM360.263 8.70555H381.26V19.1396H360.263V15.1708H374.794V12.6743H360.263V8.70555ZM403.024 19.4597V22.6603H405.712V19.4597H403.024ZM396.687 19.4597V22.6603H399.311V19.4597H396.687ZM390.477 19.4597V22.6603H392.974V19.4597H390.477ZM385.42 15.939H410.961V26.245H385.42V15.939ZM388.557 0.255879L395.086 1.28008C394.147 3.75524 392.953 6.12371 391.502 8.38549C390.051 10.6473 388.173 12.7383 385.868 14.6587C385.271 13.9333 384.482 13.1224 383.5 12.2262C382.518 11.3301 381.622 10.6899 380.811 10.3059C382.817 8.89759 384.439 7.29727 385.676 5.50492C386.957 3.71256 387.917 1.96288 388.557 0.255879ZM382.54 2.04823V6.4011H362.696V21.7641H383.052V26.117H356.231V2.04823H382.54ZM440.727 8.12944V12.2903H466.716V8.12944H440.727ZM432.982 2.17626H474.846V18.2434H432.982V2.17626ZM437.719 33.4785V36.231H469.149V33.4785H437.719ZM437.719 41.096V43.8485H469.149V41.096H437.719ZM437.719 25.925V28.6135H469.149V25.925H437.719ZM430.101 20.6759H477.151V49.0975H430.101V20.6759ZM442.52 47.7533L449.305 52.5542C447.598 53.5784 445.592 54.5813 443.288 55.5628C441.026 56.5443 438.679 57.4405 436.246 58.2514C433.857 59.1049 431.574 59.7877 429.397 60.2998C428.672 59.4889 427.733 58.5501 426.581 57.4832C425.471 56.4163 424.468 55.5201 423.572 54.7947C425.834 54.2826 428.16 53.6424 430.549 52.8743C432.939 52.1061 435.201 51.274 437.335 50.3778C439.468 49.4816 441.197 48.6068 442.52 47.7533ZM456.538 52.9383L463.324 48.1374C465.586 48.6921 467.975 49.3963 470.493 50.2498C473.011 51.0606 475.444 51.8928 477.791 52.7463C480.18 53.5571 482.25 54.3039 484 54.9867L477.215 60.4278C475.55 59.6596 473.523 58.8061 471.133 57.8673C468.786 56.9711 466.332 56.0963 463.772 55.2428C461.254 54.3893 458.843 53.6211 456.538 52.9383Z" fill="black"/>
</svg>
