<svg width="20" height="20" viewBox="0 0 20 20" fill="none" xmlns="http://www.w3.org/2000/svg">
<path d="M10 0C4.486 0 0 4.486 0 10C0 15.514 4.486 20 10 20C15.514 20 20 15.514 20 10C20 4.486 15.514 0 10 0ZM10 18.333C5.405 18.333 1.667 14.595 1.667 10C1.667 5.405 5.405 1.667 10 1.667C14.595 1.667 18.333 5.405 18.333 10C18.333 14.595 14.595 18.333 10 18.333ZM15 10C15 12.473 13.195 14.533 10.833 14.93V15.833C10.833 16.293 10.461 16.667 10 16.667C9.539 16.667 9.167 16.293 9.167 15.833V14.93C6.805 14.533 5 12.473 5 10C5 9.54 5.372 9.167 5.833 9.167C6.294 9.167 6.667 9.54 6.667 10C6.667 11.838 8.162 13.333 10 13.333C11.838 13.333 13.333 11.838 13.333 10C13.333 9.54 13.706 9.167 14.167 9.167C14.627 9.167 15 9.54 15 10ZM8.333 10V5.833C8.333 4.912 9.079 4.167 10 4.167C10.921 4.167 11.667 4.912 11.667 5.833V10C11.667 10.921 10.921 11.667 10 11.667C9.079 11.667 8.333 10.921 8.333 10Z" fill="#1E1E1E"/>
</svg>
