<svg width="40" height="40" viewBox="0 0 40 40" fill="none" xmlns="http://www.w3.org/2000/svg">
<path d="M20 0C8.97167 0 0 8.97167 0 20C0 31.0283 8.97167 40 20 40C31.0283 40 40 31.0283 40 20C40 8.97167 31.0283 0 20 0ZM20 36.6667C10.81 36.6667 3.33333 29.19 3.33333 20C3.33333 10.81 10.81 3.33333 20 3.33333C29.19 3.33333 36.6667 10.81 36.6667 20C36.6667 29.19 29.19 36.6667 20 36.6667ZM30 20C30 24.9467 26.39 29.065 21.6667 29.86V31.6667C21.6667 32.5867 20.9217 33.3333 20 33.3333C19.0783 33.3333 18.3333 32.5867 18.3333 31.6667V29.86C13.61 29.065 10 24.9467 10 20C10 19.08 10.745 18.3333 11.6667 18.3333C12.5883 18.3333 13.3333 19.08 13.3333 20C13.3333 23.6767 16.3233 26.6667 20 26.6667C23.6767 26.6667 26.6667 23.6767 26.6667 20C26.6667 19.08 27.4117 18.3333 28.3333 18.3333C29.255 18.3333 30 19.08 30 20ZM16.6667 20V11.6667C16.6667 9.825 18.1583 8.33333 20 8.33333C21.8417 8.33333 23.3333 9.825 23.3333 11.6667V20C23.3333 21.8417 21.8417 23.3333 20 23.3333C18.1583 23.3333 16.6667 21.8417 16.6667 20Z" fill="#1E1E1E"/>
</svg>
