<svg width="40" height="40" viewBox="0 0 40 40" fill="none" xmlns="http://www.w3.org/2000/svg">
<path d="M13.3333 38.3333C13.3333 39.255 12.5883 40 11.6667 40H8.33333C3.73833 40 0 36.2617 0 31.6667V28.3333C0 27.4117 0.745 26.6667 1.66667 26.6667C2.58833 26.6667 3.33333 27.4117 3.33333 28.3333V31.6667C3.33333 34.4233 5.57667 36.6667 8.33333 36.6667H11.6667C12.5883 36.6667 13.3333 37.4117 13.3333 38.3333ZM38.3333 26.6667C37.4117 26.6667 36.6667 27.4117 36.6667 28.3333V31.6667C36.6667 34.4233 34.4233 36.6667 31.6667 36.6667H28.3333C27.4117 36.6667 26.6667 37.4117 26.6667 38.3333C26.6667 39.255 27.4117 40 28.3333 40H31.6667C36.2617 40 40 36.2617 40 31.6667V28.3333C40 27.4117 39.255 26.6667 38.3333 26.6667ZM31.6667 0H28.3333C27.4117 0 26.6667 0.745 26.6667 1.66667C26.6667 2.58833 27.4117 3.33333 28.3333 3.33333H31.6667C34.4233 3.33333 36.6667 5.57667 36.6667 8.33333V11.6667C36.6667 12.5883 37.4117 13.3333 38.3333 13.3333C39.255 13.3333 40 12.5883 40 11.6667V8.33333C40 3.73833 36.2617 0 31.6667 0ZM1.66667 13.3333C2.58833 13.3333 3.33333 12.5883 3.33333 11.6667V8.33333C3.33333 5.57667 5.57667 3.33333 8.33333 3.33333H11.6667C12.5883 3.33333 13.3333 2.58833 13.3333 1.66667C13.3333 0.745 12.5883 0 11.6667 0H8.33333C3.73833 0 0 3.73833 0 8.33333V11.6667C0 12.5883 0.745 13.3333 1.66667 13.3333ZM20 16.6667C18.1583 16.6667 16.6667 18.1583 16.6667 20C16.6667 21.8417 18.1583 23.3333 20 23.3333C21.8417 23.3333 23.3333 21.8417 23.3333 20C23.3333 18.1583 21.8417 16.6667 20 16.6667ZM25 28.3333H15C12.2433 28.3333 10 26.09 10 23.3333V16.6667C10 13.935 12.2017 11.71 14.9217 11.6683L16.0817 9.86333C16.695 8.90667 17.7433 8.33333 18.885 8.33333H21.115C22.2567 8.33333 23.3033 8.90667 23.92 9.865L25.0783 11.6683C27.8 11.71 30 13.935 30 16.6667V23.3333C30 26.09 27.7567 28.3333 25 28.3333ZM26.6667 16.6667C26.6667 15.7467 25.92 15 25 15H15C14.08 15 13.3333 15.7467 13.3333 16.6667V23.3333C13.3333 24.2533 14.08 25 15 25H25C25.92 25 26.6667 24.2533 26.6667 23.3333V16.6667Z" fill="#1E1E1E"/>
</svg>
