<svg width="50" height="50" viewBox="0 0 50 50" fill="none" xmlns="http://www.w3.org/2000/svg">
<path d="M25 0C20.0555 0 15.222 1.46622 11.1108 4.21326C6.99953 6.9603 3.79521 10.8648 1.90302 15.4329C0.0108322 20.0011 -0.484251 25.0277 0.480379 29.8773C1.44501 34.7268 3.82603 39.1814 7.32234 42.6777C10.8187 46.174 15.2732 48.555 20.1228 49.5196C24.9723 50.4843 29.9989 49.9892 34.5671 48.097C39.1353 46.2048 43.0397 43.0005 45.7867 38.8893C48.5338 34.778 50 29.9445 50 25C49.9928 18.3718 47.3566 12.0171 42.6698 7.33025C37.9829 2.64339 31.6282 0.00716892 25 0ZM25 41.6667C24.588 41.6667 24.1852 41.5445 23.8426 41.3156C23.5 41.0866 23.2329 40.7613 23.0753 40.3806C22.9176 39.9999 22.8763 39.581 22.9567 39.1769C23.0371 38.7728 23.2355 38.4016 23.5269 38.1102C23.8182 37.8188 24.1894 37.6204 24.5936 37.54C24.9977 37.4596 25.4166 37.5009 25.7973 37.6586C26.1779 37.8163 26.5033 38.0833 26.7322 38.4259C26.9612 38.7685 27.0833 39.1713 27.0833 39.5833C27.0833 40.1359 26.8638 40.6658 26.4732 41.0565C26.0824 41.4472 25.5525 41.6667 25 41.6667ZM29.0208 26.0542C28.406 26.4386 27.9033 26.9781 27.5632 27.6185C27.2231 28.2588 27.0576 28.9775 27.0833 29.7021V31.25C27.0833 31.8025 26.8638 32.3324 26.4732 32.7231C26.0824 33.1138 25.5525 33.3333 25 33.3333C24.4475 33.3333 23.9176 33.1138 23.5269 32.7231C23.1362 32.3324 22.9167 31.8025 22.9167 31.25V29.7021C22.8859 28.2321 23.2491 26.7807 23.9686 25.4985C24.6881 24.2163 25.7377 23.1501 27.0083 22.4104C27.7781 21.9865 28.3941 21.33 28.7682 20.5349C29.1424 19.7397 29.2556 18.8467 29.0917 17.9833C28.9293 17.1608 28.5255 16.4054 27.9318 15.8135C27.338 15.2216 26.5813 14.8202 25.7583 14.6604C25.1578 14.5493 24.5401 14.5715 23.9491 14.7255C23.358 14.8796 22.8081 15.1617 22.3382 15.5519C21.8683 15.9421 21.4899 16.4308 21.2299 16.9835C20.9698 17.5361 20.8344 18.1392 20.8333 18.75C20.8333 19.3025 20.6139 19.8324 20.2232 20.2231C19.8324 20.6138 19.3025 20.8333 18.75 20.8333C18.1975 20.8333 17.6676 20.6138 17.2769 20.2231C16.8862 19.8324 16.6667 19.3025 16.6667 18.75C16.6672 17.2802 17.0564 15.8367 17.7949 14.5659C18.5334 13.2952 19.5948 12.2423 20.8716 11.5141C22.1483 10.786 23.5949 10.4085 25.0646 10.4199C26.5344 10.4313 27.9749 10.8312 29.2402 11.579C30.5055 12.3269 31.5505 13.3961 32.2692 14.6782C32.9879 15.9603 33.3547 17.4097 33.3324 18.8793C33.3101 20.3489 32.8995 21.7864 32.1423 23.0462C31.3851 24.3059 30.3082 25.345 29.0208 26.0542Z" fill="black"/>
</svg>
