<svg width="225" height="191" viewBox="0 0 225 191" fill="none" xmlns="http://www.w3.org/2000/svg">
<path d="M22.102 95.143L27.3218 88.2623C28.5082 86.6015 30.8808 86.3642 32.5417 87.5505L56.7426 105.82C58.4035 107.006 58.6407 109.379 57.4544 111.04L52.2346 117.92C51.0483 119.581 48.6756 119.818 47.0148 118.632L22.8138 100.363C21.153 99.1765 20.9157 96.8038 22.102 95.143Z" fill="#F1C78A"/>
<path d="M33.0164 93.4819L28.5084 99.1763C26.8475 101.074 24.0003 101.549 22.1022 100.125L15.9333 95.6173C14.2725 94.431 14.0352 92.0583 15.2215 90.1602L23.0513 80.1951L32.0673 86.8385C34.2027 88.2621 34.6772 91.1093 33.0164 93.4819Z" fill="#F1C78A"/>
<path d="M25.6611 83.5169L24.2375 85.1778C23.763 85.6523 22.8139 85.8896 22.3394 85.415L16.6451 81.3815C16.1705 80.907 15.9333 80.1952 16.4078 79.7207L17.8314 78.0598C18.3059 77.5853 19.255 77.348 19.7295 77.8226L25.4239 81.8561C25.8984 82.0933 26.1356 82.8051 25.6611 83.5169Z" fill="#F1C78A"/>
<path d="M21.865 87.5505L20.4414 89.2113C19.9669 89.6859 19.0178 89.9231 18.5433 89.4486L12.8489 85.6524C12.3744 85.1778 12.1371 84.466 12.6117 83.9915L14.0353 82.3307C14.5098 81.8561 15.4588 81.6189 15.9334 82.0934L21.6277 86.1269C22.3395 86.1269 22.3395 87.076 21.865 87.5505Z" fill="#F1C78A"/>
<path d="M18.3059 91.8215L16.8824 93.4823C16.4078 93.9569 15.4588 94.1941 14.9842 93.7196L9.2899 89.6861C8.81537 89.2116 8.5781 88.4998 9.05263 88.0253L10.4762 86.3644C10.9507 85.8899 11.8998 85.6526 12.3743 86.1271L18.0687 90.1606C18.7805 90.3979 18.7805 91.1097 18.3059 91.8215Z" fill="#F1C78A"/>
<path d="M28.983 90.6347L26.6103 90.1602C25.8986 89.9229 25.424 89.2111 25.6613 88.4993L27.7967 81.1442C28.0339 80.4324 28.7457 79.9578 29.6948 80.1951L32.0674 80.6696C32.7792 80.9069 33.2538 81.6187 33.0165 82.3305L30.8811 89.6857C30.6438 90.3975 29.6948 90.872 28.983 90.6347Z" fill="#F1C78A"/>
<path d="M187.712 133.817L182.255 140.698C181.069 142.358 178.696 142.596 177.036 141.409L153.309 122.665C151.648 121.479 151.411 119.106 152.597 117.446L158.054 110.565C159.241 108.904 161.613 108.667 163.274 109.853L187.001 128.597C188.662 129.783 188.899 132.156 187.712 133.817Z" fill="#F1C78A"/>
<path d="M176.798 135.241L181.306 129.783C182.967 127.885 185.814 127.411 187.713 128.834L193.881 133.58C195.542 134.766 195.78 137.376 194.356 139.037L186.289 148.765L177.51 141.884C175.375 140.46 175.138 137.376 176.798 135.241Z" fill="#F1C78A"/>
<path d="M183.917 145.443L185.34 143.782C185.815 143.308 186.764 143.07 187.238 143.545L192.933 147.578C193.407 148.053 193.644 148.765 193.17 149.239L191.746 150.9C191.272 151.375 190.323 151.612 189.848 151.137L184.154 147.104C183.442 146.629 183.442 145.918 183.917 145.443Z" fill="#F1C78A"/>
<path d="M187.712 141.41L189.136 139.749C189.611 139.274 190.56 139.037 191.034 139.512L196.729 143.545C197.203 144.02 197.44 144.731 196.966 145.206L195.542 146.867C195.068 147.341 194.119 147.579 193.644 147.104L187.712 143.071C187.238 142.596 187.238 141.884 187.712 141.41Z" fill="#F1C78A"/>
<path d="M180.832 138.088L183.205 138.8C183.916 139.037 184.391 139.749 184.154 140.461L181.781 147.816C181.544 148.528 180.595 149.002 179.883 148.765L177.51 148.053C176.561 147.816 176.324 147.104 176.561 146.155L178.934 138.8C179.171 138.325 179.883 137.851 180.832 138.088Z" fill="#F1C78A"/>
<path d="M191.272 137.139L192.695 135.478C193.17 135.004 194.119 134.766 194.593 135.241L200.288 139.274C200.762 139.749 201 140.461 200.525 140.935L199.101 142.596C198.627 143.071 197.678 143.308 197.203 142.833L191.509 138.8C190.797 138.563 190.797 137.851 191.272 137.139Z" fill="#F1C78A"/>
<path d="M190.085 128.36L159.478 104.159L145.242 122.191L177.748 148.053L190.323 132.156C191.509 130.97 191.272 129.309 190.085 128.36Z" fill="#FFF5E9"/>
<path d="M71.69 111.514L35.6258 83.0423L21.39 101.074L59.5896 131.444L72.1646 115.548C72.8764 114.361 72.8764 112.463 71.69 111.514Z" fill="#FFF5E9"/>
<path d="M58.6405 102.973H159.715V24.2007C159.715 13.0493 150.699 4.03324 139.548 4.03324H78.5708C67.6566 4.03324 58.8778 12.812 58.8778 23.7262V102.973H58.6405Z" fill="#F1C78A"/>
<path d="M123.177 55.9942C125.404 55.9942 127.21 54.1883 127.21 51.9607C127.21 49.733 125.404 47.9272 123.177 47.9272C120.949 47.9272 119.143 49.733 119.143 51.9607C119.143 54.1883 120.949 55.9942 123.177 55.9942Z" fill="#040404"/>
<path d="M95.1795 55.9942C97.4072 55.9942 99.213 54.1883 99.213 51.9607C99.213 49.733 97.4072 47.9272 95.1795 47.9272C92.9519 47.9272 91.146 49.733 91.146 51.9607C91.146 54.1883 92.9519 55.9942 95.1795 55.9942Z" fill="#040404"/>
<path d="M69.792 179.609H148.327C154.495 179.609 159.478 174.626 159.478 168.458V102.024H58.6405V168.458C58.6405 174.626 63.6231 179.609 69.792 179.609Z" fill="#FFF5E9"/>
<path d="M116.059 57.1807H102.772C102.298 57.1807 102.06 57.4179 102.06 57.8925V58.6043C102.06 61.6887 104.67 64.2986 107.755 64.2986H111.314C114.398 64.2986 117.008 61.6887 117.008 58.6043V57.8925C116.771 57.6552 116.296 57.1807 116.059 57.1807Z" fill="#DD5B53"/>
<path d="M62.674 179.609H155.682C157.817 179.609 159.715 177.948 159.715 175.575V119.581H58.6405V175.575C58.6405 177.711 60.5386 179.609 62.674 179.609Z" fill="#8CBECF"/>
<path d="M21.1529 85.8898H15.933C9.05237 85.8898 3.59529 80.4327 3.59529 73.5521V68.5695C3.59529 61.6888 9.05237 56.2318 15.933 56.2318H20.9156C27.7963 56.2318 33.2534 61.6888 33.2534 68.5695V73.5521C33.4906 80.4327 27.7963 85.8898 21.1529 85.8898Z" fill="#FFD672"/>
<path d="M73.1137 101.075H58.6405V126.462H73.1137V101.075Z" fill="#8CBECF"/>
<path d="M159.716 101.075H145.242V126.462H159.716V101.075Z" fill="#8CBECF"/>
<path d="M102.06 26.3362H58.6405V12.8121C58.6405 5.93145 64.3349 0.237106 71.2155 0.237106H102.06C108.941 0.237106 114.635 5.93145 114.635 12.8121V13.9984C114.635 20.8791 108.941 26.3362 102.06 26.3362Z" fill="#B0555A"/>
<path d="M159.715 26.3364H116.533C109.652 26.3364 103.958 20.642 103.958 13.7613V12.575C103.958 5.69435 109.652 0 116.533 0H147.14C154.021 0 159.715 5.69435 159.715 12.575V26.3364Z" fill="#B0555A"/>
<path d="M211.439 136.664C211.202 135.715 210.49 135.241 209.541 135.241H114.398H110.602H15.4588C14.5097 135.241 13.7979 135.953 13.5607 136.664L0.0366007 188.625C-0.200664 189.812 0.748395 190.998 1.93472 190.998H110.602H114.398H223.065C224.252 190.998 225.201 189.812 224.963 188.625L211.439 136.664Z" fill="#6289C3"/>
<path d="M87.8243 178.185H51.9973C47.0148 178.185 42.9813 174.152 42.9813 169.169V167.508C42.9813 162.526 47.0148 158.492 51.9973 158.492H87.8243C92.8068 158.492 96.8403 162.526 96.8403 167.508V169.169C97.0776 174.152 92.8068 178.185 87.8243 178.185Z" fill="#FFF5E9"/>
<path d="M87.8244 171.305H51.5229C49.6248 171.305 47.9639 169.644 47.9639 167.746V150.663C47.9639 148.765 49.6248 147.104 51.5229 147.104H90.4343C90.9088 147.104 91.1461 147.341 91.1461 147.816V167.746C91.1461 169.881 89.7225 171.305 87.8244 171.305Z" fill="#8C4424"/>
<path d="M91.1461 147.341C91.1461 147.815 90.6715 148.29 90.197 148.29L47.9639 149.002V148.29L81.1809 133.342C85.9262 131.207 91.1461 134.766 91.1461 139.748V147.341Z" fill="#8E6F64"/>
<path d="M76.4358 130.021L75.2494 131.207L74.5377 130.258C74.5377 130.021 74.0631 130.021 74.0631 130.258L73.3513 131.444L72.165 130.021C72.165 130.021 71.9278 130.021 71.9278 130.258V131.681C71.9278 131.681 71.9277 131.919 72.165 131.919H73.5886C73.5886 131.919 73.5886 131.919 73.8259 131.919H75.2494H75.4867H76.9103C76.9103 131.919 77.1476 131.919 77.1476 131.681V130.258C76.673 130.021 76.673 130.021 76.4358 130.021Z" fill="#309D47"/>
<path d="M75.9609 139.037L78.3336 134.291C79.0454 133.105 78.0963 131.444 76.6727 131.444H71.9274C70.5039 131.444 69.5548 133.105 70.2666 134.291L72.6392 139.037C73.351 140.46 75.2491 140.46 75.9609 139.037Z" fill="#E8728C"/>
<path d="M71.6903 135.478C71.8213 135.478 71.9276 135.372 71.9276 135.24C71.9276 135.109 71.8213 135.003 71.6903 135.003C71.5593 135.003 71.4531 135.109 71.4531 135.24C71.4531 135.372 71.5593 135.478 71.6903 135.478Z" fill="#BE5F78"/>
<path d="M72.165 134.529C72.296 134.529 72.4023 134.423 72.4023 134.292C72.4023 134.161 72.296 134.054 72.165 134.054C72.034 134.054 71.9278 134.161 71.9278 134.292C71.9278 134.423 72.034 134.529 72.165 134.529Z" fill="#BE5F78"/>
<path d="M72.6392 135.478C72.7703 135.478 72.8765 135.372 72.8765 135.24C72.8765 135.109 72.7703 135.003 72.6392 135.003C72.5082 135.003 72.402 135.109 72.402 135.24C72.402 135.372 72.5082 135.478 72.6392 135.478Z" fill="#BE5F78"/>
<path d="M74.5375 136.901C74.6686 136.901 74.7748 136.795 74.7748 136.664C74.7748 136.533 74.6686 136.427 74.5375 136.427C74.4065 136.427 74.3003 136.533 74.3003 136.664C74.3003 136.795 74.4065 136.901 74.5375 136.901Z" fill="#BE5F78"/>
<path d="M75.0118 137.613C75.1428 137.613 75.249 137.507 75.249 137.376C75.249 137.245 75.1428 137.139 75.0118 137.139C74.8807 137.139 74.7745 137.245 74.7745 137.376C74.7745 137.507 74.8807 137.613 75.0118 137.613Z" fill="#BE5F78"/>
<path d="M75.7236 136.901C75.8546 136.901 75.9608 136.795 75.9608 136.664C75.9608 136.533 75.8546 136.427 75.7236 136.427C75.5925 136.427 75.4863 136.533 75.4863 136.664C75.4863 136.795 75.5925 136.901 75.7236 136.901Z" fill="#BE5F78"/>
<path d="M168.731 158.73H149.276C148.564 158.73 148.089 158.255 147.852 157.543L141.92 123.377H175.612L170.155 157.543C169.918 158.255 169.443 158.73 168.731 158.73Z" fill="#F17674"/>
<path d="M175.612 119.581H141.92V126.462H175.612V119.581Z" fill="#EADED9"/>
<path d="M13.9844 67.8234C13.7009 67.8234 13.5592 67.6845 13.5592 67.4067V66.8708C13.0829 66.8141 12.6434 66.6582 12.2408 66.403C12.0027 66.2216 11.9658 66.0004 12.1302 65.7396C12.2266 65.5921 12.3429 65.5099 12.479 65.4929C12.6151 65.4702 12.7596 65.5099 12.9127 65.612C13.236 65.7821 13.5422 65.8672 13.8313 65.8672C14.4097 65.8672 14.6989 65.6177 14.6989 65.1187C14.6989 64.8918 14.5912 64.6877 14.3757 64.5063C14.2453 64.3985 13.9958 64.2483 13.6272 64.0555C13.5308 64.0101 13.4571 63.9732 13.4061 63.9449C13.0035 63.7294 12.7086 63.5225 12.5215 63.324C12.2493 63.0348 12.1132 62.6917 12.1132 62.2948C12.1132 61.8355 12.2408 61.4528 12.496 61.1466C12.7568 60.8404 13.1112 60.6447 13.5592 60.5597V59.9898C13.5592 59.712 13.7009 59.573 13.9844 59.573C14.2623 59.573 14.4012 59.712 14.4012 59.9898V60.5427C14.7981 60.5937 15.1611 60.7525 15.4899 61.019C15.7054 61.2174 15.7111 61.4329 15.5069 61.6654C15.2915 61.9092 15.0476 61.9262 14.7755 61.7164C14.56 61.5917 14.3332 61.5293 14.095 61.5293C13.5733 61.5293 13.3125 61.7646 13.3125 62.2353C13.3125 62.4337 13.4146 62.6152 13.6187 62.7796C13.7378 62.876 13.9731 63.0093 14.3247 63.1794C14.8293 63.4232 15.1809 63.6387 15.3794 63.8258C15.7253 64.149 15.8982 64.5516 15.8982 65.0336C15.8982 65.5042 15.7706 65.8983 15.5155 66.2159C15.2546 66.5391 14.8832 66.7461 14.4012 66.8368V67.4067C14.4012 67.6845 14.2623 67.8234 13.9844 67.8234Z" fill="black"/>
</svg>
