<svg xmlns="http://www.w3.org/2000/svg" width="200" height="200" viewBox="0 0 200 200" fill="none">
  <path d="M40.2 28H26H21.6C21 28 20.4 28.6 20.4 29.2V33.6V48C20.4 48.6 21 49.2 21.6 49.2H26C26.6 49.2 27.2 48.6 27.2 48V35H40.2C40.8 35 41.4 34.4 41.4 33.8V29.4C41.4 28.6 40.8 28 40.2 28Z" fill="#201816"/>
  <path d="M157.8 28H172H176.4C177 28 177.6 28.6 177.6 29.2V33.6V48C177.6 48.6 177 49.2 176.4 49.2H172C171.4 49.2 170.8 48.6 170.8 48V35H157.8C157.2 35 156.6 34.4 156.6 33.8V29.4C156.8 28.6 157.2 28 157.8 28Z" fill="#201816"/>
  <path d="M40.2 172.2H26H21.6C21 172.2 20.4 171.6 20.4 171V166.6V152.4C20.4 151.8 21 151.2 21.6 151.2H26C26.6 151.2 27.2 151.8 27.2 152.4V165.4H40.2C40.8 165.4 41.4 166 41.4 166.6V171C41.4 171.8 40.8 172.2 40.2 172.2Z" fill="#201816"/>
  <path d="M157.8 172.2H172H176.4C177 172.2 177.6 171.6 177.6 171V166.6V152.4C177.6 151.8 177 151.2 176.4 151.2H172C171.4 151.2 170.8 151.8 170.8 152.4V165.4H157.8C157.2 165.4 156.6 166 156.6 166.6V171C156.8 171.8 157.2 172.2 157.8 172.2Z" fill="#201816"/>
  <path d="M83 49H70.4001C61.2001 49 53.8 56.4 53.8 65.6V78.2C53.8 87.4 61.2001 94.8 70.4001 94.8H83C92.2001 94.8 99.6 87.4 99.6 78.2V65.6C99.8 56.6 92.2001 49 83 49ZM83 74C83 76.4 81.2001 78.2 78.8001 78.2H74.6C72.2 78.2 70.4001 76.4 70.4001 74V70C70.4001 67.6 72.2 65.8 74.6 65.8H78.8001C81.2001 65.8 83 67.6 83 70V74ZM137.4 49H124.8C115.6 49 108.2 56.4 108.2 65.6V78.2C108.2 87.4 115.6 94.8 124.8 94.8H137.4C146.6 94.8 154 87.4 154 78.2V65.6C154 56.6 146.6 49 137.4 49ZM137.4 74C137.4 76.4 135.6 78.2 133.2 78.2H129C126.6 78.2 124.8 76.4 124.8 74V70C124.8 67.6 126.6 65.8 129 65.8H133.2C135.6 65.8 137.4 67.6 137.4 70V74ZM83 103.2H70.4001C61.2001 103.2 53.8 110.6 53.8 119.8V132.4C53.8 141.6 61.2001 149 70.4001 149H83C92.2001 149 99.6 141.6 99.6 132.4V120C99.8 110.8 92.2001 103.2 83 103.2ZM83 128.4C83 130.8 81.2001 132.6 78.8001 132.6H74.6C72.2 132.6 70.4001 130.8 70.4001 128.4V124.2C70.4001 121.8 72.2 120 74.6 120H78.8001C81.2001 120 83 121.8 83 124.2V128.4ZM118.6 120H114.4C111 120 108.2 117.2 108.2 113.8V109.6C108.2 106.2 111 103.4 114.4 103.4H118.6C122 103.4 124.8 106.2 124.8 109.6V113.8C124.8 117.2 122 120 118.6 120ZM131 132.4C127.6 132.4 124.8 129.6 124.8 126.2C124.8 122.8 127.6 120 131 120C134.4 120 137.2 122.8 137.2 126.2C137.4 129.6 134.6 132.4 131 132.4ZM118.6 149.2H114.4C111 149.2 108.2 146.4 108.2 143V138.8C108.2 135.4 111 132.6 114.4 132.6H118.6C122 132.6 124.8 135.4 124.8 138.8V143C124.8 146.4 122 149.2 118.6 149.2ZM147.8 120H143.6C140.2 120 137.4 117.2 137.4 113.8V109.6C137.4 106.2 140.2 103.4 143.6 103.4H147.8C151.2 103.4 154 106.2 154 109.6V113.8C154 117.2 151.2 120 147.8 120Z" fill="#201816"/>
</svg> 