<svg width="25" height="25" viewBox="0 0 25 25" fill="none" xmlns="http://www.w3.org/2000/svg">
  <path d="M12.5 0C5.59644 0 0 5.59644 0 12.5C0 19.4036 5.59644 25 12.5 25C19.4036 25 25 19.4036 25 12.5C24.9955 5.59644 19.3991 0 12.5 0ZM12.5 20.8333C12.2941 20.8333 12.0926 20.7723 11.9215 20.6577C11.75 20.5432 11.6158 20.3815 11.5375 20.1908C11.4592 20 11.4387 19.7908 11.4785 19.5885C11.5183 19.3862 11.6172 19.2009 11.7625 19.0555C11.9079 18.9102 12.0932 18.8112 12.2955 18.7715C12.4978 18.7317 12.707 18.7522 12.8977 18.8305C13.0885 18.9087 13.2502 19.043 13.3647 19.2145C13.4793 19.3856 13.5403 19.5871 13.5403 19.7929C13.5403 20.0693 13.4312 20.3345 13.2375 20.5283C13.0437 20.722 12.7786 20.8311 12.5021 20.8311L12.5 20.8333ZM14.5104 14.3513C14.2039 14.7198 14.0521 15.1733 14.0521 15.6407V16.4147C14.0521 16.691 13.943 16.9562 13.7493 17.1499C13.5555 17.3437 13.2904 17.4528 13.0139 17.4528C12.7376 17.4528 12.4724 17.3437 12.2786 17.1499C12.0849 16.9562 11.9758 16.691 11.9758 16.4147V15.6407C11.9605 14.9053 12.2278 14.1894 12.7143 13.6156C13.9041 12.3521 14.0714 11.8083 14.0714 11.4575C14.0714 10.9844 13.888 10.5307 13.5614 10.2041C13.2348 9.87744 12.781 9.69403 12.308 9.69403C11.835 9.69403 11.3812 9.87744 11.0546 10.2041C10.728 10.5307 10.5445 10.9844 10.5445 11.4575C10.5445 11.7338 10.4355 11.999 10.2417 12.1927C10.048 12.3865 9.78281 12.4956 9.50648 12.4956C9.23014 12.4956 8.96498 12.3865 8.77122 12.1927C8.57746 11.999 8.46838 11.7338 8.46838 11.4575C8.46838 10.4684 8.86108 9.51954 9.56099 8.81963C10.261 8.11972 11.2097 7.72702 12.1989 7.72702C13.188 7.72702 14.1368 8.11972 14.8368 8.81963C15.5367 9.51954 15.9294 10.4684 15.9294 11.4575C15.9275 12.4042 15.4501 13.1903 14.5106 14.3513H14.5104Z" fill="black"/>
</svg> 