<svg width="94" height="94" viewBox="0 0 94 94" fill="none" xmlns="http://www.w3.org/2000/svg">
<path d="M76.6604 53.7713L78.0649 57.4832C78.3658 58.3861 77.9645 59.2889 77.0617 59.5899L64.1204 64.3049C63.2175 64.6059 62.3146 64.2046 62.0137 63.3017L60.6092 59.5899C60.3082 58.687 60.7095 57.7841 61.6124 57.4832L74.5537 52.7682C75.4565 52.3669 76.3594 52.8685 76.6604 53.7713Z" fill="#F1C78A"/>
<path d="M73.0491 58.9881L71.9456 55.8782C71.5443 54.7747 72.1462 53.5708 73.1494 53.1696L76.46 51.8654C77.3629 51.5644 78.3661 51.9657 78.667 52.9689L80.5731 58.4865L75.7577 60.2923C74.6542 60.7939 73.4504 60.0916 73.0491 58.9881Z" fill="#F1C78A"/>
<path d="M78.6664 58.5867L78.3654 57.5835C78.2651 57.2825 78.4657 56.8813 78.6664 56.7809L81.5756 55.5771C81.8766 55.4768 82.1776 55.5771 82.2779 55.9784L82.5788 56.9816C82.6792 57.2825 82.4785 57.6838 82.2779 57.7841L79.3686 58.988C79.0676 59.0883 78.7667 58.8877 78.6664 58.5867Z" fill="#F1C78A"/>
<path d="M77.9649 56.1791L77.6639 55.1759C77.5636 54.875 77.7643 54.4737 77.9649 54.3734L80.8742 53.1695C81.1751 53.0692 81.4761 53.1695 81.5764 53.5708L81.8774 54.574C81.9777 54.875 81.7771 55.2762 81.5764 55.3766L78.6671 56.5804C78.3662 56.6807 78.0652 56.4801 77.9649 56.1791Z" fill="#F1C78A"/>
<path d="M77.2625 53.7715L76.9615 52.7683C76.8612 52.4674 77.0618 52.0661 77.2625 51.9658L80.1718 50.7619C80.4727 50.6616 80.7737 50.7619 80.874 51.1632L81.175 52.1664C81.2753 52.4674 81.0746 52.8687 80.874 52.969L77.9647 54.1728C77.6638 54.2731 77.3628 54.0725 77.2625 53.7715Z" fill="#F1C78A"/>
<path d="M62.515 65.9101L59.6058 57.8845C59.5054 57.4832 59.7061 57.082 60.007 56.9816L66.3272 54.6743C66.5278 54.574 66.8288 54.6743 66.9291 54.9752L69.7381 62.6999C69.8384 62.9005 69.7381 63.2015 69.4371 63.3018L62.515 65.9101Z" fill="white"/>
<path d="M20.38 70.3241L15.7653 67.9165C15.1633 67.6155 14.9627 66.9133 15.2637 66.3113L20.6809 55.8781C20.8816 55.5771 21.2829 55.3765 21.6841 55.5771L26.7001 58.1854C27.0011 58.3861 27.2017 58.7873 27.0011 59.1886L21.2829 70.0232C21.0822 70.4245 20.6809 70.5248 20.38 70.3241Z" fill="#F1C78A"/>
<path d="M21.9857 66.3115L16.3678 61.6968C16.0668 61.4961 16.0668 61.0949 16.2674 60.7939L20.8822 55.176L27.0017 60.192L21.9857 66.3115Z" fill="white"/>
<path d="M25.2959 87.3786H58.0002C60.6085 87.3786 62.6149 85.2719 62.6149 82.7639V55.0756H20.6812V82.7639C20.6812 85.2719 22.7879 87.3786 25.2959 87.3786Z" fill="white"/>
<path d="M20.6812 55.4767H62.7153V32.3028C62.7153 22.3712 54.6897 14.3456 44.758 14.3456H38.5381C28.7068 14.3456 20.6812 22.3712 20.6812 32.2025V55.4767Z" fill="#F1C78A"/>
<path d="M47.5671 35.8142C48.4536 35.8142 49.1723 35.0956 49.1723 34.2091C49.1723 33.3226 48.4536 32.604 47.5671 32.604C46.6807 32.604 45.962 33.3226 45.962 34.2091C45.962 35.0956 46.6807 35.8142 47.5671 35.8142Z" fill="#040404"/>
<path d="M35.8295 35.8142C36.716 35.8142 37.4346 35.0956 37.4346 34.2091C37.4346 33.3226 36.716 32.604 35.8295 32.604C34.943 32.604 34.2244 33.3226 34.2244 34.2091C34.2244 35.0956 34.943 35.8142 35.8295 35.8142Z" fill="#040404"/>
<path d="M68.3333 25.3809L56.5959 16.2518C56.3952 16.1515 56.2949 15.9509 56.1946 15.7502L50.677 5.21664C50.2757 4.5144 49.7741 3.81216 49.1722 3.21024C47.2661 1.5048 44.8584 0.40128 42.4508 0.10032V0C39.9428 0.30096 37.6354 1.30416 35.629 3.10992C35.0271 3.61152 34.5255 4.31376 34.1242 5.016L28.6066 15.5496C28.5063 15.7502 28.3057 15.9509 28.2053 16.0512L16.4679 25.1803C16.1669 25.3809 15.9663 25.6819 15.9663 25.9829C15.6653 26.9861 16.3676 28.0896 17.4711 28.0896H42.3505H67.3301C68.4336 28.0896 69.1359 26.9861 68.8349 25.9829C68.8349 25.8825 68.6343 25.5816 68.3333 25.3809Z" fill="#C9AD95"/>
<path d="M45.0593 35.9144H39.943C39.7424 35.9144 39.6421 36.0147 39.6421 36.2153V36.416C39.6421 37.6198 40.6453 38.5227 41.7488 38.5227H43.2536C44.4574 38.5227 45.3603 37.5195 45.3603 36.416V36.2153C45.3603 36.0147 45.26 35.9144 45.0593 35.9144Z" fill="#DD5B53"/>
<path d="M38.1369 35.6134C37.1337 36.5163 36.933 38.0211 37.4346 39.2249C37.5349 39.4255 37.7356 39.4256 37.9362 39.3252C38.1369 39.2249 38.1369 39.0243 38.0365 38.8236C37.6353 37.9208 37.8359 36.7169 38.6385 36.0147C38.9394 35.814 38.4378 35.3124 38.1369 35.6134Z" fill="black"/>
<path d="M22.186 82.3626H61.2105C62.013 82.3626 62.7153 81.6604 62.7153 80.8578V61.5964H20.6812V80.9581C20.6812 81.7607 21.3834 82.3626 22.186 82.3626Z" fill="#85997B"/>
<path d="M25.6972 55.4767H20.6812V63.9036H25.6972V55.4767Z" fill="#85997B"/>
<path d="M62.7157 55.4767H57.6997V63.9036H62.7157V55.4767Z" fill="#85997B"/>
<path d="M88.0964 71.3275C87.9961 70.9262 87.6951 70.7256 87.2938 70.7256H47.6675H46.0623H6.33563C5.93435 70.7256 5.63339 70.9262 5.53307 71.3275L0.0154755 92.9966C-0.0848445 93.4982 0.316435 93.9998 0.818035 93.9998H46.0623H47.6675H92.9118C93.4134 93.9998 93.8146 93.4982 93.7143 92.9966L88.0964 71.3275Z" fill="#C58867"/>
<path d="M45.26 84.6699H39.6421V85.4725C39.6421 85.6732 39.8427 85.8738 40.0433 85.8738H44.8587C45.0593 85.8738 45.26 85.6732 45.26 85.4725V84.6699Z" fill="#BE5F78"/>
<path d="M44.5577 85.2721L40.244 85.1718C38.7392 85.1718 37.6357 83.968 37.6357 82.4632L37.736 77.1462C37.736 76.7449 38.0369 76.444 38.4382 76.5443L46.7648 76.7449C47.1661 76.7449 47.467 77.0459 47.3667 77.4472L47.2664 82.7641C47.1661 84.0683 45.9622 85.2721 44.5577 85.2721Z" fill="#F17674"/>
<path d="M46.0623 77.9486L38.9396 77.748C38.6387 77.748 38.438 77.447 38.438 77.2464C38.438 76.9454 38.739 76.7448 38.9396 76.7448L46.0623 76.9454C46.3633 76.9454 46.5639 77.2464 46.5639 77.447C46.6643 77.748 46.3633 77.9486 46.0623 77.9486Z" fill="#B4D692"/>
<path d="M74.554 70.7256H69.3374V80.6573H75.0556C77.363 80.6573 79.269 78.7512 79.269 76.4438V75.4406C79.269 72.8323 77.1623 70.7256 74.554 70.7256ZM76.761 76.5441C76.761 77.447 75.9585 78.1493 74.9553 78.1493H71.0428V73.1333H74.9553C75.9585 73.1333 76.761 73.8355 76.761 74.7384V76.5441Z" fill="#BE5F78"/>
<path d="M66.5284 63.2016H62.6159C58.3022 63.2016 54.791 66.7128 54.791 71.0265V71.2272H74.4537V71.0265C74.3534 66.7128 70.8422 63.2016 66.5284 63.2016Z" fill="#F17674"/>
<path d="M64.8233 64.0039H64.1211C63.6195 64.0039 63.2182 63.6027 63.2182 63.1011V62.3988C63.2182 61.8972 63.6195 61.4959 64.1211 61.4959H64.8233C65.3249 61.4959 65.7262 61.8972 65.7262 62.3988V63.1011C65.7262 63.6027 65.3249 64.0039 64.8233 64.0039Z" fill="#F17674"/>
<path d="M54.289 77.5471L49.9752 74.0359C49.8749 73.9356 49.8749 73.8353 49.8749 73.6347V71.6283C49.8749 71.3273 50.0755 71.0263 50.4768 71.0263H56.3957L54.289 77.5471Z" fill="#BE5F78"/>
<path d="M50.5775 73.6349C50.3769 73.6349 50.2766 73.4342 50.2766 73.3339V72.0297C50.2766 71.8291 50.4772 71.7288 50.5775 71.7288C50.7782 71.7288 50.8785 71.9294 50.8785 72.0297V73.3339C50.9788 73.4342 50.7782 73.6349 50.5775 73.6349Z" fill="#B4D692"/>
<path d="M69.0358 83.1651H59.9067C56.7968 83.1651 54.1885 80.6571 54.1885 77.4468V70.5247H74.6537V77.4468C74.754 80.6571 72.1457 83.1651 69.0358 83.1651Z" fill="#BE5F78"/>
<path d="M84.6847 54.574L79.2675 55.9784L79.4681 56.781C79.5684 56.9816 79.7691 57.1823 79.9697 57.082L84.5844 55.8781C84.7851 55.7778 84.9857 55.5772 84.8854 55.3765L84.6847 54.574Z" fill="#BE5F78"/>
<path d="M84.0831 55.3765L79.8697 56.3797C78.4652 56.6807 76.9604 55.8781 76.6594 54.3733L75.4556 49.1567C75.3553 48.7554 75.5559 48.4544 75.9572 48.3541L84.0831 46.448C84.4844 46.3477 84.7854 46.5484 84.8857 46.9496L86.0895 52.1663C86.3905 53.5708 85.4876 54.9752 84.0831 55.3765Z" fill="#F17674"/>
<path d="M83.6816 47.9529L76.7595 49.558C76.4585 49.6583 76.1576 49.4577 76.1576 49.1567C76.0573 48.8558 76.2579 48.5548 76.5589 48.5548L83.4809 46.9497C83.7819 46.8494 84.0829 47.05 84.0829 47.351C84.1832 47.5516 83.9825 47.8526 83.6816 47.9529Z" fill="#B4D692"/>
<path d="M75.0552 55.4772L74.7543 54.474C74.654 54.173 74.8546 53.7717 75.0552 53.6714L77.9645 52.4676C78.2655 52.3672 78.5664 52.4676 78.6668 52.8689L78.9677 53.872C79.068 54.173 78.8674 54.5743 78.6668 54.6746L75.7575 55.8784C75.4565 55.9788 75.1556 55.7781 75.0552 55.4772Z" fill="#F1C78A"/>
<path d="M34.1247 60.894L35.3285 60.593L34.6263 57.7841C34.3253 56.4799 32.9208 55.6774 31.5163 55.9783L30.3125 56.2793L31.0147 59.0882C31.3157 60.3924 32.7202 61.195 34.1247 60.894Z" fill="#B0BA75"/>
<path d="M34.0241 60.3927L33.1213 59.5902L35.1277 57.5838C36.1309 56.6809 37.736 56.6809 38.7392 57.5838L39.6421 58.3863L37.6357 60.3927C36.6325 61.3959 35.0273 61.3959 34.0241 60.3927Z" fill="#B0BA75"/>
<path d="M29.7105 62.9008L28.908 62.2988C28.607 62.0982 28.5067 61.6969 28.7073 61.4963L30.2121 58.7876C30.4128 58.4867 30.7137 58.4867 31.0147 58.587L31.8172 59.1889C32.1182 59.3896 32.2185 59.7908 32.0179 59.9915L30.5131 62.7001C30.4128 63.0011 30.0115 63.1014 29.7105 62.9008Z" fill="#F1C78A"/>
<path d="M31.215 62.0982L32.6195 65.8101C32.9205 66.7129 32.5192 67.6158 31.6163 67.9168L18.675 72.6318C17.7722 72.9328 16.8693 72.5315 16.5683 71.6286L15.0635 68.0171C14.7626 67.1142 15.1638 66.2113 16.0667 65.9104L29.008 61.1953C29.9109 60.7941 30.9141 61.2957 31.215 62.0982Z" fill="#F1C78A"/>
<path d="M27.5034 67.3145L26.3999 64.2046C25.9986 63.101 26.6006 61.8972 27.6038 61.4959L30.9143 60.1918C31.8172 59.8908 32.8204 60.2921 33.1214 61.2953L35.0274 66.8129L30.2121 68.6186C29.1086 69.1202 27.9047 68.5183 27.5034 67.3145Z" fill="#F1C78A"/>
<path d="M33.1207 67.0135L32.8198 66.0103C32.7194 65.7093 32.9201 65.308 33.1207 65.2077L36.03 64.0039C36.331 63.9036 36.6319 64.0039 36.7322 64.4052L37.0332 65.4084C37.1335 65.7093 36.9329 66.1106 36.7322 66.2109L33.823 67.4148C33.522 67.4148 33.221 67.3144 33.1207 67.0135Z" fill="#F1C78A"/>
<path d="M32.4193 64.5055L32.1183 63.5023C32.018 63.2013 32.2186 62.8 32.4193 62.6997L35.3285 61.4959C35.6295 61.3956 35.9305 61.4959 36.0308 61.8972L36.3317 62.9004C36.4321 63.2013 36.2314 63.6026 36.0308 63.7029L33.1215 64.9068C32.9209 65.0071 32.5196 64.9068 32.4193 64.5055Z" fill="#F1C78A"/>
<path d="M31.7168 62.1983L31.4159 61.1951C31.3155 60.8941 31.5162 60.4929 31.7168 60.3926L34.6261 59.1887C34.9271 59.0884 35.228 59.1887 35.3283 59.59L35.6293 60.5932C35.7296 60.8941 35.529 61.2954 35.3283 61.3958L32.4191 62.5996C32.1181 62.5996 31.8171 62.4993 31.7168 62.1983Z" fill="#F1C78A"/>
<path d="M28.6063 80.5569C28.7066 80.7576 28.506 80.9582 28.3054 81.0585L17.7718 83.8675C17.5711 83.9678 17.3705 83.7672 17.2702 83.5665C17.1698 83.3659 17.3705 83.1653 17.5711 83.0649L28.1047 80.256C28.4057 80.256 28.6063 80.3563 28.6063 80.5569Z" fill="#FAC749"/>
<path d="M32.118 79.253L32.3186 79.9552C32.5193 80.7578 32.0177 81.5603 31.3154 81.761L30.0113 82.1622C29.2087 82.3629 28.4061 81.8613 28.2055 81.159L28.0049 80.4568C27.8042 79.6542 28.3058 78.8517 29.0081 78.651L30.3122 78.2498C31.1148 78.0491 31.9173 78.4504 32.118 79.253Z" fill="#FAC749"/>
</svg>
